<svg width="73" height="81" viewBox="0 0 73 81" fill="none" xmlns="http://www.w3.org/2000/svg">
<path d="M20.5686 62.627C19.6413 62.627 18.9668 63.3855 18.9668 64.2288C18.9668 65.072 19.7254 65.8306 20.5686 65.8306H37.3442C38.2715 65.8306 38.9461 65.0721 38.9461 64.2288C38.9461 63.3856 38.1875 62.627 37.3442 62.627H20.5686Z" fill="black"/>
<path d="M44.341 52.7639C44.341 51.8366 43.5824 51.1621 42.7391 51.1621L20.5684 51.1627C19.6411 51.1627 18.9666 51.9213 18.9666 52.7645C18.9666 53.6919 19.7251 54.3664 20.5684 54.3664H42.7391C43.5824 54.3658 44.341 53.6072 44.341 52.7639Z" fill="black"/>
<path d="M46.6171 41.2151C46.6171 40.2878 45.8585 39.6133 45.0152 39.6133H20.5684C19.6411 39.6133 18.9666 40.3718 18.9666 41.2151C18.9666 42.0584 19.7251 42.817 20.5684 42.817H44.9309C45.8583 42.817 46.6174 42.1425 46.6174 41.2151H46.6171Z" fill="black"/>
<path d="M38.1029 75.272H11.4643V30.7619C12.7286 31.0988 13.9934 31.2676 15.3424 31.2676C23.6036 31.2676 30.2635 24.7764 30.6006 16.5993H41.0539V29.3284C41.0539 30.2557 41.8124 30.9302 42.6557 30.9302H55.3848V36.3254C55.3848 37.2527 56.1433 37.9272 56.9866 37.9272C57.8298 37.9272 58.5884 37.1687 58.5884 36.3254V28.1483C58.5884 27.1369 58.1668 26.2096 57.4924 25.5352L46.4487 14.408C45.7742 13.7335 44.8468 13.3119 43.8356 13.3119H30.4321C29.1678 6.14615 22.9294 0.666992 15.3425 0.666992C6.91255 0.666992 0 7.4951 0 16.0095C0 21.8263 3.28768 26.9686 8.17704 29.4977L8.17646 76.9583C8.17646 77.8856 8.93502 78.5601 9.7783 78.5601H38.1029C39.0302 78.5601 39.7048 77.8016 39.7048 76.9583C39.7048 76.1151 39.0303 75.2725 38.1029 75.2725L38.1029 75.272ZM55.0471 27.6428H44.3409V16.9366L55.0471 27.6428ZM3.37156 16.0099C3.37156 9.35056 8.76672 3.95539 15.4261 3.95539C22.0854 3.95539 27.4806 9.35056 27.4806 16.0099C27.4806 22.6693 22.0854 28.0644 15.4261 28.0644C8.76672 28.0644 3.37156 22.5853 3.37156 16.0099Z" fill="black"/>
<path d="M21.2431 11.9629C20.5686 11.2884 19.5573 11.2884 18.9669 11.9629L13.4877 17.442L11.3802 15.3346C10.7058 14.6601 9.6944 14.6601 9.104 15.3346C8.5136 16.009 8.42953 17.0204 9.104 17.6108L12.3917 20.8985C12.7286 21.2354 13.1502 21.4042 13.5718 21.4042C13.9934 21.4042 14.4151 21.2354 14.752 20.8985L21.4114 14.2391C21.9176 13.6487 21.9176 12.5533 21.2431 11.9629Z" fill="black"/>
<path d="M66.5119 63.3859H62.5498C62.1282 63.3859 61.7913 63.0489 61.7913 62.6273V61.6159C61.7913 59.1715 62.9714 57.2322 63.9829 56.052C65.5848 54.1132 66.2591 51.5841 65.9216 49.0551C65.3313 45.093 62.0436 41.9741 58.0821 41.4685C55.553 41.2156 52.9398 41.9742 51.0852 43.6601C49.1465 45.3459 48.0505 47.7909 48.0505 50.3195C48.0505 52.3428 48.7249 54.1975 49.9051 55.7146C51.4221 57.738 52.2654 59.9296 52.2654 62.2058V62.6275C52.2654 63.0491 51.9285 63.386 51.5069 63.386H47.5448C44.3413 63.386 41.8127 65.9991 41.8127 69.1181V73.1643C41.8127 74.0916 42.5713 74.7661 43.4146 74.7661H43.7509V79.0653C43.7509 79.9926 44.5095 80.6671 45.3528 80.6671H68.6194C69.5468 80.6671 70.2213 79.9085 70.2213 79.0653V74.7661H70.5582C71.4855 74.7661 72.16 74.0076 72.16 73.1643V69.1181C72.2447 65.9991 69.7157 63.386 66.5126 63.386L66.5119 63.3859ZM45.0155 69.1179C45.0155 67.769 46.1116 66.5888 47.5447 66.5888H51.5068C53.6984 66.5888 55.4688 64.8182 55.4688 62.6267V62.2898C55.4688 59.339 54.4574 56.473 52.4341 53.8598C51.6755 52.8484 51.2539 51.6682 51.2539 50.4034C51.2539 48.8016 51.9284 47.1999 53.1926 46.1884C54.4569 45.0924 55.9745 44.5866 57.6605 44.7554C60.1896 45.0083 62.2124 47.0317 62.634 49.5608C62.8869 51.1626 62.4652 52.7643 61.3698 54.0287C59.431 56.3049 58.5037 59.0022 58.5037 61.6153L58.5031 62.6273C58.5031 64.8189 60.2737 66.5894 62.4652 66.5894H66.512C67.861 66.5894 69.0412 67.6854 69.0412 69.1185V71.4789L45.0158 71.4783L45.0155 69.1179ZM67.0177 77.4637H47.0387V74.7658H67.0177V77.4637Z" fill="black"/>
</svg>
