<svg width="280" height="279" viewBox="0 0 280 279" fill="none" xmlns="http://www.w3.org/2000/svg">
<path d="M0.000847941 138.969V138.972C-0.0087297 157.364 3.64537 175.574 10.7512 192.547C17.857 209.52 28.2731 224.917 41.3952 237.846C41.6125 238.045 41.898 238.154 42.1933 238.151C42.4887 238.147 42.7715 238.031 42.984 237.827C43.1847 237.616 43.2944 237.335 43.2897 237.044C43.285 236.753 43.1662 236.476 42.9588 236.271C17.415 211.077 2.79664 176.905 2.2405 141.089C1.68437 105.272 15.2348 70.6659 39.9841 44.6951C40.1832 44.4818 40.2901 44.1989 40.2814 43.9076C40.2728 43.6164 40.1494 43.3402 39.938 43.139C39.7267 42.9378 39.4442 42.8276 39.152 42.8324C38.8597 42.8372 38.5811 42.9566 38.3765 43.1647C13.6311 68.9471 -0.124406 103.287 0.000847941 138.969Z" fill="#F8AA3C"/>
<path d="M39.3405 43.8974C41.13 45.6816 43.4849 46.792 46.0037 47.0394C48.5226 47.2869 51.0496 46.6561 53.1541 45.2545C55.2587 43.8529 56.8106 41.7673 57.5454 39.353C58.2802 36.9387 58.1524 34.3451 57.1838 32.0142C56.2152 29.6833 54.4657 27.7593 52.2335 26.57C50.0013 25.3807 47.4245 24.9998 44.9421 25.4921C42.4597 25.9844 40.2253 27.3195 38.6198 29.2699C37.0142 31.2202 36.1368 33.6652 36.137 36.1882C36.1333 37.6205 36.4145 39.0393 36.9644 40.3625C37.5142 41.6858 38.3218 42.8872 39.3405 43.8974ZM47.0752 27.4987C49.3869 27.4987 51.6039 28.4141 53.2385 30.0434C54.8731 31.6728 55.7914 33.8827 55.7914 36.187C55.7914 38.4913 54.8731 40.7012 53.2385 42.3306C51.6039 43.9599 49.3869 44.8753 47.0752 44.8753C44.7636 44.8753 42.5467 43.96 40.9122 42.3307C39.2777 40.7014 38.3594 38.4916 38.3594 36.1874C38.3594 33.8832 39.2777 31.6734 40.9122 30.0441C42.5467 28.4148 44.7636 27.4987 47.0752 27.4987Z" fill="#F8AA3C"/>
<path d="M49.7464 233.092C47.5829 233.092 45.4681 233.733 43.6696 234.931C41.8711 236.13 40.4696 237.833 39.6422 239.826C38.8148 241.819 38.5987 244.011 39.0212 246.126C39.4438 248.241 40.486 250.184 42.0161 251.709C43.5462 253.233 45.4955 254.271 47.6175 254.692C49.7395 255.112 51.9389 254.896 53.9377 254.071C55.9364 253.245 57.6447 251.848 58.8466 250.054C60.0486 248.261 60.6901 246.153 60.6901 243.996C60.6867 241.105 59.5325 238.332 57.4808 236.288C55.4291 234.243 52.6474 233.094 49.7464 233.092ZM49.7464 252.682C47.435 252.681 45.2187 251.765 43.585 250.135C41.9512 248.505 41.034 246.295 41.0349 243.991C41.0358 241.687 41.9549 239.478 43.59 237.85C45.225 236.221 47.4421 235.307 49.7534 235.308H49.7597C52.0569 235.331 54.252 236.257 55.8676 237.885C57.4832 239.513 58.3886 241.711 58.3871 244.001C58.3855 246.291 57.4771 248.488 55.8593 250.113C54.2414 251.739 52.0451 252.663 49.7479 252.683L49.7464 252.682Z" fill="#F8AA3C"/>
<path d="M78.7333 264.204C97.5763 273.304 118.238 278.046 139.176 278.074H139.544C216.493 278.074 279.093 215.668 279.093 138.97C279.102 125.807 277.239 112.709 273.56 100.067C273.524 99.9245 273.46 99.7903 273.372 99.6726C273.284 99.5549 273.172 99.4559 273.045 99.3814C272.918 99.3069 272.777 99.2585 272.631 99.2389C272.485 99.2193 272.336 99.2289 272.193 99.2672C272.051 99.3055 271.918 99.3717 271.801 99.462C271.685 99.5523 271.587 99.6648 271.515 99.7929C271.442 99.9211 271.396 100.062 271.379 100.208C271.362 100.355 271.375 100.503 271.416 100.644C275.042 113.098 276.878 126.002 276.87 138.97C276.87 214.45 215.266 275.856 139.546 275.856H139.173C118.588 275.831 98.2743 271.173 79.7466 262.231C79.5881 262.151 79.4132 262.11 79.2356 262.109C78.9859 262.109 78.7433 262.192 78.5472 262.346C78.3511 262.501 78.2128 262.716 78.1547 262.958C78.0966 263.2 78.1221 263.455 78.2271 263.681C78.3321 263.907 78.5104 264.091 78.7333 264.204Z" fill="#F8AA3C"/>
<path d="M255.456 63.4485C255.685 63.2915 255.847 63.054 255.909 62.7833C255.971 62.5125 255.928 62.2285 255.789 61.9879L255.736 61.904C217.365 4.47848 141.366 -16.2849 78.9715 13.6248C78.7062 13.7525 78.5025 13.98 78.4054 14.2573C78.3083 14.5345 78.3256 14.8389 78.4534 15.1035C78.5834 15.3672 78.8125 15.5692 79.091 15.6656C79.3694 15.762 79.6748 15.745 79.9408 15.6183C98.5284 6.6754 118.908 2.04872 139.547 2.0861H139.643C162.268 2.05784 184.546 7.62071 204.486 18.277C224.425 28.9332 241.404 44.3504 253.902 63.1492C254.073 63.3875 254.33 63.5512 254.619 63.6069C254.908 63.6626 255.207 63.6059 255.456 63.4485Z" fill="#F8AA3C"/>
</svg>
