<svg width="81" height="80" viewBox="0 0 81 80" fill="none" xmlns="http://www.w3.org/2000/svg">
<g clip-path="url(#clip0_381_854)">
<path d="M65.8997 73.3826C65.8997 74.6876 65.9062 75.9496 65.8997 77.2116C65.8868 78.9251 64.842 79.9957 63.1457 79.9957C46.9698 80 30.7918 79.9957 14.616 80.0022C13.2379 80.0022 12.3478 79.3379 11.849 78.0071C11.6276 78.1748 11.4405 78.308 11.2621 78.4521C8.46078 80.7116 4.50496 80.4644 2.07773 77.8781C-0.411861 75.2229 -0.43766 71.2005 2.12717 68.5518C5.11554 65.4645 8.17485 62.4482 11.2299 59.4276C11.6706 58.9912 11.8254 58.5569 11.8254 57.9506C11.8103 42.3359 11.8404 26.7211 11.7845 11.1086C11.7759 8.93071 12.8509 7.56982 15.2072 7.73322C16.5681 7.82781 17.9419 7.74397 19.3092 7.73752C19.3565 7.73752 19.4038 7.70312 19.5414 7.65152C19.5414 6.88615 19.5349 6.08854 19.5414 5.29093C19.5672 2.23162 21.7773 0.0301168 24.8452 0.0107677C25.7309 0.00431796 26.6167 -0.0128813 27.5003 0.0215172C29.7857 0.105363 31.7722 1.78444 32.2602 4.01819C32.3225 4.30412 32.3763 4.59436 32.4515 4.96414C34.1285 4.74055 35.7903 4.52771 37.4522 4.29767C43.0807 3.51726 48.707 2.73039 54.3354 1.94998C58.8222 1.32866 63.3112 0.728835 67.7938 0.0838643C70.2834 -0.273019 72.3064 1.14592 72.6139 3.6484C73.3018 9.2446 73.9339 14.8494 74.5918 20.4499C75.2647 26.1837 75.9419 31.9175 76.617 37.6513C77.2856 43.3313 77.9521 49.0135 78.6185 54.6935C79.0722 58.5612 79.4978 62.431 79.988 66.2944C80.3342 69.0269 78.9797 70.9554 76.2622 71.4477C72.9406 72.0497 69.619 72.6516 66.2953 73.2558C66.1921 73.2751 66.0932 73.3181 65.8997 73.3805V73.3826ZM63.2682 77.3857V10.3948H32.3827V15.4342H29.8244V10.3776H27.2617C27.2617 11.7105 27.2853 12.994 27.2552 14.2797C27.2101 16.2576 25.6879 17.8808 23.753 18.057C21.8375 18.2312 20.081 16.9735 19.6596 15.0536C19.5285 14.4603 19.5521 13.8282 19.5414 13.2133C19.5242 12.2588 19.5371 11.3064 19.5371 10.3754H14.4483V56.192C16.252 54.3796 17.9461 52.6597 19.6661 50.9677C19.9585 50.6818 20.3454 50.4432 20.7324 50.3099C24.355 49.0737 27.9862 47.8568 31.6217 46.6572C32.0194 46.526 32.458 46.4637 32.8772 46.4615C41.8896 46.4508 50.9041 46.4529 59.9165 46.4551C60.1745 46.4551 60.4347 46.4787 60.6884 46.4916V49.035H59.6693C51.246 49.035 42.8227 49.0457 34.4015 49.0156C33.6125 49.0135 33.2513 49.1919 33.0019 49.9981C32.0474 53.0703 31.0133 56.1189 29.9598 59.161C29.7663 59.7178 29.4288 60.279 29.016 60.6961C24.484 65.2775 19.9585 69.8654 15.3426 74.3608C14.3859 75.2917 14.2741 76.2162 14.4504 77.3879H63.2682V77.3857ZM65.8997 70.6501C66.1427 70.635 66.306 70.6436 66.4608 70.6157C69.5438 70.0524 72.6289 69.4892 75.7119 68.913C77.2361 68.627 77.6124 68.0444 77.4189 66.4922C77.0491 63.5339 76.7159 60.5714 76.3676 57.6109C75.7011 51.9287 75.0368 46.2466 74.3682 40.5665C73.6437 34.4049 72.9105 28.2454 72.186 22.0838C71.4766 16.0555 70.7778 10.0272 70.0662 3.99884C69.9458 2.98623 69.288 2.481 68.2732 2.62075C63.8917 3.22272 59.5124 3.83974 55.1309 4.44602C49.0767 5.28448 43.0226 6.11649 36.9685 6.9528C35.4958 7.15704 34.0231 7.37418 32.5504 7.58487C32.5547 7.64077 32.559 7.69452 32.5655 7.75041C32.845 7.75041 33.1245 7.75041 33.4039 7.75041C43.171 7.75041 52.9358 7.75041 62.7028 7.75041C65.0075 7.75041 65.9019 8.65337 65.9019 10.9796C65.9019 30.52 65.9019 50.0605 65.9019 69.6009C65.9019 69.9449 65.9019 70.2889 65.9019 70.6522L65.8997 70.6501ZM20.898 53.7239C16.4326 58.1979 11.9135 62.7256 7.51483 67.1329C9.35514 68.9732 11.2815 70.9016 13.1132 72.7312C17.5463 68.2895 22.0525 63.7747 26.4942 59.3266C24.6302 57.4604 22.7039 55.5298 20.898 53.7239ZM11.0987 74.9929C9.1079 72.9892 7.17514 71.0435 5.23378 69.0871C4.78875 69.5322 4.24268 70.0137 3.774 70.5598C2.59585 71.9293 2.47331 73.89 3.43001 75.4315C4.38887 76.9751 6.18404 77.6932 7.94481 77.2954C9.38739 76.9687 10.2216 75.8636 11.1009 74.9929H11.0987ZM29.8351 7.71602C29.8351 6.77006 29.8652 5.9101 29.8287 5.05659C29.7706 3.6957 28.7021 2.64225 27.3369 2.5971C26.4275 2.567 25.516 2.567 24.6065 2.5971C23.3639 2.63795 22.2911 3.53231 22.1643 4.74485C22.0632 5.71661 22.1428 6.70771 22.1428 7.69237H24.7312V5.21353H27.2832V7.71602H29.8351ZM22.1127 10.3604C22.1127 11.5858 22.1127 12.7317 22.1127 13.8798C22.1127 14.0131 22.1062 14.1485 22.1213 14.2818C22.203 14.9891 22.7254 15.5008 23.3919 15.4793C24.1013 15.4578 24.613 15.0644 24.6495 14.3721C24.7205 13.0478 24.671 11.717 24.671 10.3582H22.1127V10.3604ZM28.0313 56.8219C28.1625 56.4263 28.2528 55.9985 28.442 55.6201C28.7172 55.0719 28.5839 54.7064 28.1453 54.3044C27.2982 53.524 26.5221 52.6705 25.6836 51.8815C25.5074 51.7159 25.1741 51.5783 24.9527 51.6235C24.398 51.7396 23.867 51.9696 23.3553 52.1416C24.9204 53.7089 26.4469 55.2374 28.0292 56.8219H28.0313ZM28.2098 50.5206C28.6806 51.0279 29.1278 51.5074 29.6223 52.0384C29.8631 51.316 30.0952 50.6259 30.3704 49.7982C29.5363 50.0777 28.8483 50.3077 28.2076 50.5206H28.2098Z" fill="black"/>
<path d="M60.7121 12.9661V38.6703H35.0552V12.9661H60.7121ZM43.859 26.5706C42.2552 23.4275 42.468 21.097 44.4975 19.3405C46.3228 17.7625 48.9672 17.6486 50.8914 19.061C51.8567 19.7705 52.5038 20.7036 52.8284 21.8495C53.3164 23.5672 52.8607 25.1152 51.8567 26.5212C54.716 28.3873 55.5373 29.6192 56.1479 32.9322C56.3414 33.9835 56.5112 35.037 56.6918 36.0969H58.1279V15.5395H37.6179V36.0926H39.0303C39.0819 35.8496 39.1335 35.6432 39.1701 35.4325C39.3464 34.3748 39.5012 33.3106 39.6925 32.255C40.159 29.6859 41.5737 27.7982 43.859 26.5706ZM41.6059 36.099H54.1334C53.7937 34.5016 53.6411 32.9021 53.0993 31.4488C52.3726 29.4988 50.7624 28.5163 48.6727 28.4002C48.1653 28.3723 47.6536 28.3766 47.1462 28.3981C45.02 28.4884 43.3839 29.4752 42.6379 31.4509C42.0918 32.9 41.9435 34.5016 41.6059 36.1012V36.099ZM50.442 23.1974C50.4248 21.7979 49.2531 20.6477 47.8557 20.6541C46.4561 20.6606 45.2995 21.8215 45.2973 23.2254C45.293 24.6572 46.4948 25.8397 47.9245 25.8117C49.3198 25.7838 50.4614 24.5992 50.4442 23.1996L50.442 23.1974Z" fill="black"/>
<path d="M42.7773 64.5508H60.7054V74.7714H42.7773V64.5508ZM58.1298 72.2216V67.1479H45.3529V72.2216H58.1298Z" fill="black"/>
<path d="M60.7142 41.3513V43.8302H17.0024V41.3513H60.7142Z" fill="black"/>
<path d="M17.0259 20.6799H32.3654V23.191H17.0259V20.6799Z" fill="black"/>
<path d="M16.998 28.3336V25.8547H32.3784V28.3336H16.998Z" fill="black"/>
<path d="M17.0024 33.4998V31.0103H32.3549V33.4998H17.0024Z" fill="black"/>
<path d="M32.3975 36.1807V38.6531H17.0171V36.1807H32.3975Z" fill="black"/>
<path d="M29.876 69.6204V67.1394H40.0773V69.6204H29.876Z" fill="black"/>
<path d="M40.1051 72.312V74.7951H29.9038V72.312H40.1051Z" fill="black"/>
</g>
<defs>
<clipPath id="clip0_381_854">
<rect width="79.8366" height="80" fill="white" transform="translate(0.205078)"/>
</clipPath>
</defs>
</svg>
