<svg width="66" height="50" viewBox="0 0 66 50" fill="none" xmlns="http://www.w3.org/2000/svg">
<path d="M65.438 16.6977C53.5241 33.7803 42.481 38.8838 34.995 48.3186C34.8134 48.5457 34.6418 48.7729 34.4698 49C26.952 47.1072 20.5377 45.6328 20.6088 44.4618C20.5281 43.6138 21.6785 43.4018 23.6613 41.4732C26.7552 36.9653 23.0816 31.9022 18.908 33.0227C14.0693 34.3149 14.4478 39.065 14.6087 40.6908C14.7697 42.3166 14.1445 42.6341 12.6465 41.8568C9.25039 39.8277 3.9723 37.2732 1 35.875C5.30431 28.3543 12.031 21.7053 15.2495 19.1204C19.1199 16.0006 29.1872 5.95511 33.2619 1C40.4875 3.43844 46.6037 5.37162 46.4417 6.5174C46.4569 7.37042 45.2969 7.49156 43.1622 9.26373C39.7257 13.5092 42.9861 18.8499 47.2394 18.0625C52.1643 17.1489 52.1593 12.3836 52.129 10.7527C52.0987 9.1219 52.7451 8.84984 54.1729 9.74829C57.45 12.0706 62.6115 15.0825 65.438 16.6977Z" fill="#F9B759" stroke="white" stroke-width="0.5" stroke-miterlimit="10"/>
</svg>
