<svg width="77" height="80" viewBox="0 0 77 80" fill="none" xmlns="http://www.w3.org/2000/svg">
<g clip-path="url(#clip0_288_1918)">
<path d="M9.2371 79.9998C8.48226 79.8245 7.70865 79.7035 6.97465 79.4614C2.95855 78.1446 0.929644 75.1563 0.356212 71.16C-0.419484 65.7656 0.898365 60.8074 4.0783 56.4063C6.34909 53.2615 8.78253 50.2356 11.1576 47.168C11.339 46.9322 11.6309 46.6191 11.8665 46.6212C12.2919 46.6275 12.8132 46.7339 13.1114 47.0031C13.5368 47.385 13.4701 47.961 13.1218 48.4284C12.44 49.3445 11.7373 50.246 10.9386 51.2915C11.2681 51.2185 11.4495 51.1913 11.6247 51.1392C16.1266 49.8036 20.6932 49.2402 25.3662 50.0081C27.5973 50.3733 29.718 51.0849 31.6114 52.3412C32.1744 52.7147 32.5747 52.6918 33.1482 52.3892C35.5253 51.1392 37.9733 50.054 40.6069 49.4468C43.3219 48.8207 46.0285 48.8207 48.7288 49.5365C48.9457 49.5949 49.1667 49.6388 49.5608 49.7306C48.391 48.1863 47.3276 46.7798 46.2599 45.3754C44.7482 43.3846 43.2218 41.4042 41.7204 39.405C39.0097 35.7907 37.6209 31.7131 37.5876 27.2035C37.5479 21.6066 37.5771 16.0077 37.5771 10.4109C37.5771 10.102 37.5771 9.7911 37.5771 9.42591H24.0879V13.2761C25.3432 13.2761 26.586 13.2636 27.8288 13.2802C28.7442 13.2928 29.3114 13.9501 29.0883 14.7368C28.9048 15.3817 28.4147 15.6196 27.7746 15.6196C26.5527 15.6175 25.3328 15.6196 24.0671 15.6196V19.5261C25.3161 19.5261 26.513 19.5198 27.7099 19.5261C28.6253 19.5323 29.1383 19.9685 29.1237 20.7114C29.1112 21.4188 28.6066 21.8529 27.7391 21.8633C26.5214 21.8758 25.3036 21.8675 24.0379 21.8675V25.774C25.2994 25.774 26.5401 25.7844 27.7808 25.7698C28.4314 25.7615 28.9089 26.0014 29.0883 26.6442C29.3072 27.4267 28.74 28.0924 27.8246 28.1091C26.5777 28.1321 25.3286 28.1154 24.115 28.1154C23.8502 29.5198 23.6605 30.8804 23.3289 32.2055C22.6471 34.933 21.496 37.4476 19.7299 39.6659C18.6268 41.0515 17.5904 42.4873 16.5061 43.8875C15.9723 44.5782 15.3217 44.7055 14.7504 44.2777C14.179 43.8499 14.1186 43.178 14.6357 42.4893C15.7596 40.9889 16.9107 39.5094 18.0346 38.009C20.4347 34.8015 21.6754 31.1851 21.6983 27.1888C21.7337 21.5127 21.6983 15.8366 21.7191 10.1625C21.7212 9.56781 21.5774 9.332 20.9539 9.18384C18.6601 8.635 17.2464 6.44176 17.5279 4.01689C17.7739 1.86747 19.7278 0.0415144 21.9631 0.0269067C27.8538 -0.0106559 33.7466 -0.00856909 39.6394 0.0269067C41.9123 0.0394276 43.8578 1.8633 44.1143 4.06906C44.3916 6.45429 42.9215 8.62457 40.6278 9.21514C40.4047 9.27357 40.1795 9.32782 39.923 9.39252C39.923 9.71806 39.923 10.0019 39.923 10.2857C39.9418 15.8575 39.9564 21.4292 39.9772 27.001C39.9918 31.1705 41.2304 34.9205 43.7723 38.2469C47.4735 43.0862 51.1497 47.9464 54.8385 52.7961C55.0053 53.0173 55.1867 53.226 55.5078 53.6225V52.673C55.5078 40.3838 55.5036 28.0945 55.5203 15.8074C55.5203 15.2064 55.3785 14.9142 54.7759 14.6868C52.7699 13.9292 51.6127 11.7339 51.9755 9.55111C52.3404 7.34744 54.1128 5.6926 56.3252 5.67382C61.6946 5.63208 67.0661 5.63208 72.4355 5.67382C74.6479 5.69051 76.4391 7.34953 76.7957 9.53859C77.1585 11.7757 75.995 13.9459 73.9369 14.7076C73.3801 14.9142 73.2571 15.1855 73.2592 15.7197C73.2779 19.1045 73.2696 22.4893 73.2675 25.8742C73.2675 26.16 73.353 26.5211 73.2133 26.7151C72.9526 27.0803 72.6044 27.5019 72.2061 27.625C71.6619 27.794 71.1948 27.4372 71.0217 26.8675C70.9321 26.5753 70.9279 26.2519 70.9279 25.943C70.9217 22.6104 70.9237 19.2777 70.9237 15.9451C70.9237 15.6655 70.9237 15.3879 70.9237 15.0645H57.91V18.9209C58.8879 18.9209 59.8909 18.9209 60.896 18.9209C61.2088 18.9209 61.5236 18.9021 61.8343 18.9376C62.5099 19.0148 62.9353 19.5031 62.9165 20.1417C62.8978 20.7782 62.4495 21.2393 61.753 21.256C60.7104 21.2811 59.6678 21.2623 58.6252 21.2665C58.3958 21.2665 58.1685 21.2873 57.8995 21.2999V25.1709C58.8817 25.1709 59.8617 25.1709 60.8418 25.1709C61.1545 25.1709 61.4694 25.1542 61.7801 25.1813C62.5016 25.246 62.9478 25.7427 62.9165 26.4125C62.8874 27.0511 62.439 27.481 61.7322 27.506C61.1066 27.529 60.481 27.5123 59.8555 27.5123C59.232 27.5123 58.6106 27.5123 57.9204 27.5123V31.4272C59.1819 31.4272 60.4518 31.4063 61.7196 31.4355C62.4578 31.4522 62.9207 31.9384 62.9186 32.6041C62.9186 33.2698 62.4536 33.7226 61.7134 33.7623C61.4527 33.7769 61.1921 33.7665 60.9314 33.7665C59.9451 33.7665 58.9588 33.7665 57.9141 33.7665V38.0924C59.061 38.0424 60.2141 37.9338 61.3631 37.9547C62.6622 37.9797 63.8632 38.418 64.9684 39.1045C66.6011 40.1208 68.3381 40.2085 70.1606 39.7452C70.7298 39.5991 70.9529 39.3424 70.9404 38.7268C70.9008 36.592 70.9175 34.4572 70.9342 32.3224C70.9362 31.9927 70.9321 31.5482 71.126 31.3604C71.4263 31.0724 71.9142 30.7886 72.2916 30.8262C72.6253 30.8595 72.9881 31.2853 73.2029 31.6233C73.3488 31.8529 73.2717 32.2306 73.2717 32.5415C73.2738 45.246 73.2759 57.9526 73.2717 70.6571C73.2717 75.5319 70.5338 78.875 65.7503 79.8787C65.6815 79.8933 65.6231 79.958 65.5585 79.9977H63.2126C62.1721 79.6242 61.0983 79.3216 60.0994 78.8562C59.3863 78.5244 58.7774 77.9735 58.1623 77.5499C57.5075 77.9735 56.9049 78.4388 56.2376 78.7748C55.5474 79.1233 54.803 79.3737 54.0648 79.6137C53.531 79.7869 52.968 79.8725 52.4175 79.9977H9.2371V79.9998ZM30.7815 77.6563C37.5354 77.6542 44.2873 77.6605 51.0413 77.65C52.9347 77.6479 54.7071 77.2222 56.2335 76.0223C56.5525 75.7719 56.7172 75.5674 56.4753 75.1271C55.7497 73.7957 55.4911 72.3495 55.5016 70.8387C55.5203 67.7147 55.5099 64.5887 55.5057 61.4647C55.5057 60.1646 55.7872 58.7623 55.3931 57.5916C54.999 56.4188 53.9585 55.4464 53.1265 54.4468C52.7095 53.9459 52.1819 53.4743 51.6085 53.1717C47.4235 50.9681 43.0737 50.678 38.7136 52.4935C35.7901 53.7101 32.9209 55.0999 30.1413 56.6212C21.7963 61.1934 13.0843 64.4948 3.43189 64.7431C3.01485 64.7535 2.86471 64.9205 2.78965 65.3337C2.43933 67.2473 2.35801 69.1609 2.68747 71.0787C3.27967 74.5198 5.27938 76.7464 8.43013 77.4163C9.26421 77.5937 10.1358 77.6459 10.9908 77.6479C17.5863 77.6667 24.1839 77.6584 30.7794 77.6584L30.7815 77.6563ZM70.9237 42.0845C70.7757 42.0616 70.7236 42.0428 70.6756 42.0469C70.5984 42.0532 70.5213 42.072 70.4462 42.0887C68.0274 42.6459 65.7566 42.3495 63.613 41.0328C62.0825 40.0937 60.4039 40.0895 58.6961 40.4777C58.0747 40.6196 57.8307 40.9055 57.8349 41.5983C57.8683 47.6125 57.8516 53.6267 57.8537 59.6408C57.8537 63.5724 57.8099 67.504 57.8829 71.4355C57.9454 74.8224 60.8147 77.5645 64.199 77.6521C67.7813 77.746 70.9717 74.837 70.9425 70.7907C70.8758 61.4689 70.9217 52.1492 70.9217 42.8274V42.0845H70.9237ZM3.40895 62.3683C13.2136 62.1304 21.6941 58.7143 29.816 53.9418C28.5253 53.3929 27.2408 52.8274 25.8937 52.5269C21.1666 51.4772 16.5499 52.145 11.95 53.4576C9.14118 54.259 6.99968 55.7719 5.57965 58.3011C4.86026 59.5824 4.19299 60.895 3.40895 62.3704V62.3683ZM30.7481 7.02816C33.5631 7.02816 36.3802 7.03233 39.1953 7.02816C40.7362 7.02399 41.7809 6.08492 41.7934 4.71388C41.8059 3.30111 40.7633 2.35996 39.1702 2.35579C36.668 2.35161 34.1637 2.35579 31.6614 2.35579C28.5336 2.35579 25.4037 2.34744 22.2759 2.35996C20.9226 2.36414 19.928 3.26355 19.8425 4.50729C19.7465 5.93467 20.7808 7.01772 22.303 7.02607C25.118 7.04277 27.9351 7.03025 30.7502 7.03025L30.7481 7.02816ZM64.3533 12.6772C66.9577 12.6772 69.5621 12.7105 72.1665 12.65C72.717 12.6375 73.3447 12.3975 73.7846 12.0615C74.5249 11.496 74.6875 10.3211 74.3247 9.40921C73.9598 8.49519 73.2508 8.0027 72.1957 8.00061C67.014 7.99227 61.8302 7.99227 56.6484 8.00061C55.2201 8.0027 54.288 8.93759 54.2796 10.3316C54.2713 11.761 55.2055 12.673 56.6964 12.6772C59.2487 12.6813 61.801 12.6772 64.3533 12.6772Z" fill="black"/>
<path d="M26.5611 40.4278C26.5694 38.0509 28.4732 36.1707 30.8482 36.1916C33.2275 36.2124 35.0854 38.1114 35.0666 40.4967C35.0478 42.8256 33.1586 44.6932 30.819 44.6953C28.4482 44.6995 26.5548 42.8005 26.5611 40.4257V40.4278ZM30.7898 42.3518C31.8366 42.3644 32.6874 41.5484 32.7166 40.5071C32.7479 39.4136 31.9263 38.5559 30.8378 38.5434C29.7744 38.533 28.9382 39.3301 28.9132 40.3819C28.8861 41.4733 29.7118 42.3414 30.7898 42.3518Z" fill="black"/>
<path d="M42.9942 73.2761C39.7372 73.2824 37.0744 70.6259 37.0723 67.3684C37.0723 64.1067 39.7246 61.4397 42.9734 61.4356C46.2201 61.4314 48.9016 64.1046 48.9058 67.3496C48.9121 70.5967 46.2451 73.2699 42.9922 73.2761H42.9942ZM42.9859 63.779C41.0237 63.7749 39.4181 65.3838 39.4181 67.3558C39.4181 69.332 41.0112 70.9326 42.9776 70.9326C44.9377 70.9326 46.5558 69.3216 46.56 67.3621C46.5662 65.413 44.9377 63.7832 42.9838 63.779H42.9859Z" fill="black"/>
<path d="M12.1544 70.0501C12.1357 67.8046 13.9498 65.962 16.1893 65.9536C18.4247 65.9453 20.2617 67.7838 20.2576 70.0208C20.2513 72.2433 18.4705 74.0442 16.2581 74.0651C13.9957 74.086 12.1753 72.3059 12.1565 70.0501H12.1544ZM17.9034 70.0313C17.9117 69.0797 17.1235 68.2888 16.181 68.3034C15.2656 68.318 14.5128 69.0818 14.5086 70.0041C14.5024 70.9411 15.2259 71.6945 16.1518 71.7216C17.1131 71.7508 17.895 70.9954 17.9034 70.0313Z" fill="black"/>
<path d="M34.4181 61.8737C33.7926 61.8612 33.2921 61.35 33.29 60.7156C33.288 60.0561 33.828 59.5198 34.4807 59.5365C35.1 59.5511 35.6255 60.0791 35.6276 60.6926C35.6296 61.3312 35.0604 61.8863 34.4181 61.8737Z" fill="black"/>
<path d="M24.9409 63.2866C25.5686 63.3221 26.044 63.8501 26.0252 64.4865C26.0044 65.146 25.4456 65.6635 24.7929 65.6239C24.1715 65.5863 23.6731 65.0416 23.6961 64.426C23.719 63.7812 24.2966 63.2511 24.9409 63.2887V63.2866Z" fill="black"/>
<path d="M64.4136 55.3088C62.2638 55.3213 60.4768 53.5747 60.4434 51.4253C60.4079 49.2508 62.1991 47.4582 64.3969 47.4624C66.5697 47.4687 68.3213 49.207 68.3296 51.371C68.338 53.5058 66.5572 55.2963 64.4136 55.3088ZM64.4011 49.8101C63.5212 49.8038 62.8038 50.4966 62.7955 51.3627C62.7872 52.2162 63.5128 52.9528 64.3698 52.9632C65.2269 52.9716 65.965 52.2516 65.9754 51.394C65.9859 50.53 65.2769 49.8163 64.4011 49.8101Z" fill="black"/>
<path d="M62.5476 62.5021C61.9178 62.4875 61.4132 61.9762 61.4111 61.3481C61.4091 60.6991 61.9658 60.1502 62.6122 60.1648C63.2357 60.1794 63.7445 60.6991 63.7466 61.3251C63.7487 61.9824 63.2044 62.5167 62.5497 62.5021H62.5476Z" fill="black"/>
<path d="M65.1187 69.1108C65.7338 69.1296 66.2426 69.6576 66.2426 70.2794C66.2426 70.9514 65.7213 71.4564 65.0457 71.4397C64.4035 71.4251 63.9134 70.9263 63.9155 70.292C63.9176 69.6471 64.4848 69.092 65.1187 69.1108Z" fill="black"/>
</g>
<defs>
<clipPath id="clip0_288_1918">
<rect width="76.7251" height="80" fill="white" transform="translate(0.137207)"/>
</clipPath>
</defs>
</svg>
