<svg width="63" height="80" viewBox="0 0 63 80" fill="none" xmlns="http://www.w3.org/2000/svg">
<g clip-path="url(#clip0_288_1882)">
<path d="M7.11574 80C5.70722 79.4157 5.12711 78.3515 5.25023 76.847C5.29822 76.2586 5.25857 75.6639 5.25857 74.994C4.48649 74.994 3.78954 74.994 3.09258 74.994C1.20828 74.9899 0.252575 74.0425 0.252575 72.1665C0.250488 60.7126 0.250488 49.2566 0.250488 37.8006C0.250488 26.2132 0.250488 14.6278 0.250488 3.04035C0.250488 0.884784 1.12273 0.014629 3.27829 0.014629C16.1679 0.014629 29.0595 0.0271493 41.9491 2.21176e-05C43.704 -0.00415129 45.1125 0.582212 46.3374 1.82589C49.4988 5.03524 52.6831 8.22163 55.8966 11.3788C57.1653 12.6267 57.7391 14.0686 57.7371 15.8444C57.7162 31.6219 57.7245 47.4016 57.7204 63.1791C57.7204 63.513 57.7162 63.8656 57.6181 64.1786C57.4428 64.7441 56.9921 65.0217 56.4141 64.9528C55.8444 64.8839 55.4646 64.5355 55.3979 63.9366C55.3666 63.6528 55.3812 63.3648 55.3812 63.079C55.3812 47.4057 55.3812 31.7304 55.3812 16.0572C55.3812 15.6983 55.3812 15.3394 55.3812 14.8699C55.0223 14.8699 54.7468 14.8699 54.4714 14.8699C51.4769 14.8699 48.4825 14.874 45.4881 14.8699C43.8354 14.8657 42.8693 13.9142 42.861 12.2573C42.8484 9.29002 42.8568 6.32064 42.8568 3.35335C42.8568 3.06956 42.8568 2.78577 42.8568 2.43312H2.6502V72.5901H55.3436C55.354 72.3794 55.377 72.1311 55.3791 71.8848C55.3853 70.8686 55.3666 69.8545 55.3895 68.8383C55.4062 68.1413 55.8611 67.676 56.4892 67.6634C57.1674 67.6488 57.6515 68.0223 57.6786 68.6567C57.7371 70.109 57.7684 71.576 57.6348 73.0221C57.5284 74.174 56.5163 74.9314 55.3499 74.9961C55.0911 75.0107 54.8282 75.0024 54.5694 75.0024C39.2823 75.0024 23.9972 75.0024 8.70998 75.0024C8.37611 75.0024 8.04015 75.0024 7.65411 75.0024V77.6233H60.3433V7.35982C59.1164 7.35982 57.9019 7.37026 56.6895 7.35565C55.8882 7.34522 55.3979 6.89866 55.3874 6.21214C55.377 5.54856 55.8402 5.04358 56.5685 5.02898C57.8706 5.00185 59.1748 4.98307 60.4748 5.03732C61.6663 5.08949 62.5991 6.05981 62.7159 7.25966C62.7431 7.54345 62.7305 7.83142 62.7305 8.1173C62.7305 31.0293 62.7222 53.9413 62.7493 76.8554C62.7493 78.3599 62.2798 79.422 60.865 80H7.11574ZM53.2694 12.4785C50.6277 9.83256 47.892 7.0969 45.2419 4.4447V12.4785H53.2694Z" fill="black"/>
<path d="M18.964 32.39C13.4885 32.39 9.01465 27.9265 9.01465 22.4677C9.01465 17.0193 13.5115 12.5245 18.962 12.5225C24.427 12.5225 28.8884 16.9901 28.8905 22.4656C28.8926 27.9536 24.4542 32.39 18.962 32.3879L18.964 32.39ZM24.3123 27.7658C27.1982 25.2931 27.2983 20.2787 24.5188 17.3073C21.5557 14.1376 16.5998 14.0604 13.5657 17.1341C10.6277 20.1118 10.6444 25.0594 13.6054 27.7825C16.508 24.9905 21.0299 24.7276 24.3123 27.7658ZM22.2777 29.2933C20.7816 27.4612 16.9587 27.5613 15.6733 29.31C17.8894 30.3074 20.0596 30.3095 22.2777 29.2933Z" fill="black"/>
<path d="M28.9784 38.6689C23.0709 38.6689 17.1634 38.6689 11.256 38.6689C11.0473 38.6689 10.8387 38.6689 10.6321 38.6689C9.58872 38.6585 9.02113 38.2432 9.02739 37.4962C9.03366 36.7492 9.59915 36.3297 10.6467 36.3297C22.8789 36.3276 35.1091 36.3297 47.3413 36.3297C47.6001 36.3297 47.9444 36.2817 48.0967 36.4215C48.4306 36.7283 48.8292 37.1102 48.9043 37.5171C49.0044 38.0596 48.6184 38.5041 48.0258 38.6168C47.7232 38.6752 47.4039 38.6668 47.093 38.6668C41.0562 38.6689 35.0173 38.6668 28.9804 38.6668L28.9784 38.6689Z" fill="black"/>
<path d="M26.5512 55.1325C31.7283 55.1325 36.9054 55.1325 42.0846 55.1325C42.3454 55.1325 42.6063 55.1221 42.865 55.145C43.5077 55.2014 43.8666 55.5937 43.9167 56.203C43.9647 56.7789 43.6788 57.2213 43.1008 57.3778C42.7816 57.4634 42.4331 57.4717 42.0992 57.4717C31.6928 57.4759 21.2843 57.4759 10.878 57.4717C10.542 57.4717 10.1956 57.4655 9.87635 57.382C9.30042 57.2317 8.99993 56.7935 9.04375 56.2176C9.08966 55.6146 9.44231 55.2097 10.085 55.145C10.3438 55.12 10.6046 55.1325 10.8654 55.1325C16.0947 55.1325 21.324 55.1325 26.5533 55.1325H26.5512Z" fill="black"/>
<path d="M26.4973 42.5957C31.6744 42.5957 36.8515 42.5957 42.0286 42.5957C42.3145 42.5957 42.6024 42.5895 42.8862 42.6228C43.5602 42.7042 43.9191 43.132 43.917 43.781C43.9129 44.3945 43.556 44.7993 42.928 44.8994C42.6984 44.937 42.4626 44.9349 42.2289 44.9349C31.7453 44.9349 21.2617 44.9349 10.7781 44.9349C10.5695 44.9349 10.3608 44.9433 10.1542 44.9182C9.48228 44.8389 9.01904 44.3485 9.02947 43.7434C9.0399 43.1341 9.50524 42.6729 10.1918 42.6103C10.4505 42.5874 10.7114 42.5957 10.9722 42.5957C16.1493 42.5957 21.3264 42.5957 26.5035 42.5957H26.4973Z" fill="black"/>
<path d="M22.1126 48.8604C25.8603 48.8604 29.6081 48.8604 33.3558 48.8604C33.6417 48.8604 33.9317 48.8541 34.2113 48.9C34.7706 48.9918 35.0836 49.3549 35.1336 49.9058C35.1879 50.4901 34.9312 50.9241 34.3595 51.1056C34.1174 51.1829 33.8482 51.1954 33.5916 51.1954C25.9146 51.1996 18.2376 51.1996 10.5606 51.1954C10.329 51.1954 10.087 51.1808 9.86786 51.1182C9.29193 50.9491 8.99979 50.5193 9.04152 49.9454C9.08326 49.3799 9.41296 48.9751 10.0139 48.8917C10.2956 48.852 10.5857 48.8583 10.8716 48.8583C14.6193 48.8583 18.367 48.8583 22.1147 48.8583L22.1126 48.8604Z" fill="black"/>
<path d="M40.8494 21.1319C38.6667 21.1319 36.484 21.1361 34.2992 21.1298C33.3498 21.1277 32.8573 20.7292 32.8469 19.9905C32.8344 19.2518 33.3498 18.7948 34.2575 18.7927C38.6751 18.7865 43.0947 18.7718 47.5122 18.8198C47.9505 18.824 48.4909 19.1475 48.7768 19.4938C48.9562 19.7109 48.8936 20.3765 48.6829 20.6102C48.4158 20.9065 47.8941 21.1006 47.4768 21.111C45.269 21.159 43.0592 21.134 40.8494 21.134V21.1319Z" fill="black"/>
<path d="M39.5558 27.3899C37.8113 27.3899 36.0668 27.394 34.3223 27.3899C33.3625 27.3857 32.87 27.0038 32.847 26.2714C32.822 25.5098 33.352 25.0549 34.3203 25.0528C37.8614 25.0465 41.4025 25.0507 44.9416 25.0507C45.0709 25.0507 45.2024 25.0465 45.3318 25.0653C46.0016 25.1613 46.4565 25.6621 46.4336 26.2693C46.4106 26.8953 45.9536 27.369 45.2567 27.3774C43.3557 27.4003 41.4568 27.3857 39.5558 27.3857V27.392V27.3899Z" fill="black"/>
<path d="M18.983 24.8758C16.9505 24.882 15.2958 23.2523 15.2833 21.2345C15.2708 19.2354 16.9422 17.5473 18.9454 17.5348C20.9633 17.5202 22.6159 19.1666 22.6243 21.1969C22.6326 23.244 21.0238 24.8695 18.983 24.8758ZM18.983 22.5282C19.7384 22.5199 20.2955 21.9398 20.2768 21.1781C20.2601 20.4708 19.6883 19.8948 18.9851 19.8823C18.2693 19.8698 17.635 20.4937 17.6329 21.2115C17.6329 21.9377 18.2422 22.5345 18.983 22.5262V22.5282Z" fill="black"/>
</g>
<defs>
<clipPath id="clip0_288_1882">
<rect width="62.4988" height="80" fill="white" transform="translate(0.250488)"/>
</clipPath>
</defs>
</svg>
