<?xml version="1.0" encoding="UTF-8" standalone="no"?>
<svg
   width="1368.9608"
   height="308"
   viewBox="0 0 1368.9608 308"
   fill="none"
   version="1.1"
   id="svg108"
   sodipodi:docname="6acbaba4c60775a332db2f98c79120df.svg"
   xmlns:inkscape="http://www.inkscape.org/namespaces/inkscape"
   xmlns:sodipodi="http://sodipodi.sourceforge.net/DTD/sodipodi-0.dtd"
   xmlns="http://www.w3.org/2000/svg"
   xmlns:svg="http://www.w3.org/2000/svg">
  <sodipodi:namedview
     id="namedview110"
     pagecolor="#ffffff"
     bordercolor="#666666"
     borderopacity="1.0"
     inkscape:pageshadow="2"
     inkscape:pageopacity="0.0"
     inkscape:pagecheckerboard="0" />
  <g
     clip-path="url(#clip0_2_2)"
     id="g94"
     transform="translate(-0.0191345)">
    <path
       d="M 423.427,81.088 H 391.57 c -9.016,0 -10.947,1.1777 -10.947,8.7846 v 2.6836 c 0,3.8613 1.178,4.7108 6.005,5.6762 0,0 22.203,4.1896 28.42,5.3676 9.538,1.814 12.974,5.463 12.974,14.576 v 10.194 c 0,13.399 -5.579,18.65 -22.299,18.554 -18.651,0 -36.568,-0.965 -36.568,-0.965 l 0.116,-9.326 h 35.274 c 9.866,0 12.55,-2.046 12.55,-10.078 v -6.332 c 0,-3.437 -0.966,-5.676 -5.368,-6.545 -6.429,-1.294 -22.416,-4.19 -26.818,-4.923 -10.194,-1.815 -15.445,-3.012 -15.445,-13.5152 v -6.4291 c 0,-13.3989 5.792,-18.0132 22.415,-17.9166 18.651,0 31.645,0.9653 31.645,0.9653 l -0.116,9.2286 z"
       fill="#091629"
       id="path2" />
    <path
       d="m 462.988,136.305 h 14.905 c 8.36,0 11.913,-3.436 11.913,-11.68 V 71.4348 h 10.947 v 55.9702 c 0,12.221 -7.182,19.307 -20.273,19.307 h -20.06 c -13.09,0 -20.273,-7.086 -20.273,-19.307 V 71.4348 h 10.948 v 53.1902 c 0,8.263 3.533,11.68 11.912,11.68 z"
       fill="#091629"
       id="path4" />
    <path
       d="m 579.449,146.499 h -9.538 c -1.93,0 -2.78,-0.637 -3.649,-1.93 -1.081,-1.603 -37.533,-52.4374 -38.382,-53.7309 h -0.425 V 146.499 H 516.508 V 71.4348 h 8.688 c 2.355,0 2.568,0.4248 3.108,1.2936 0.329,0.5406 38.171,52.9776 39.889,55.6616 h 0.425 V 71.4541 h 10.831 v 75.0649 z"
       fill="#091629"
       id="path6" />
    <path
       d="m 672.838,80.76 h -29.81 c -8.36,0 -12.55,3.3207 -12.55,11.4682 v 32.5898 c 0,8.263 4.19,12.337 12.55,12.337 h 29.81 l 0.116,9.016 c 0,0 -16.198,0.85 -34.096,0.85 -12.975,0.115 -20.061,-8.573 -20.061,-20.91 V 90.9346 c 0,-12.337 7.086,-20.1562 20.061,-20.0597 20.581,0 34.096,0.753 34.096,0.753 l -0.116,9.1128 z"
       fill="#091629"
       id="path8" />
    <path
       d="M 682.396,127.405 V 90.5099 c 0,-12.337 7.298,-19.3067 20.156,-19.3067 h 21.991 c 12.878,0 20.157,6.9697 20.157,19.3067 v 36.8951 c 0,12.221 -7.298,19.307 -20.157,19.307 h -21.991 c -12.878,0 -20.156,-7.086 -20.156,-19.307 z m 11.043,-35.9298 v 33.8828 c 0,8.148 3.649,11.681 11.913,11.681 h 16.411 c 8.263,0 11.913,-3.533 11.913,-11.681 V 91.4752 c 0,-8.1474 -3.65,-10.8311 -11.913,-10.8311 h -16.411 c -8.264,0 -11.913,2.6837 -11.913,10.8311 z"
       fill="#091629"
       id="path10" />
    <path
       d="m 823.087,146.499 h -9.537 c -1.931,0 -2.781,-0.637 -3.649,-1.93 -1.062,-1.603 -37.534,-52.4374 -38.383,-53.7309 h -0.425 V 146.499 H 760.146 V 71.4348 h 8.688 c 2.356,0 2.568,0.4248 3.109,1.2936 0.328,0.5406 38.17,52.9776 39.888,55.6616 h 0.425 V 71.4541 h 10.831 v 75.0649 z"
       fill="#091629"
       id="path12" />
    <path
       d="m 890.644,81.0882 h -31.857 c -9.017,0 -10.948,1.1777 -10.948,8.7845 v 2.6837 c 0,3.8613 1.178,4.7108 6.005,5.6762 0,0 22.203,4.1894 28.42,5.3674 9.538,1.815 12.975,5.464 12.975,14.576 v 10.194 c 0,13.399 -5.58,18.651 -22.3,18.554 -18.651,0 -36.568,-0.965 -36.568,-0.965 l 0.116,-9.325 h 35.274 c 9.866,0 12.55,-2.047 12.55,-10.078 v -6.333 c 0,-3.437 -0.966,-5.676 -5.368,-6.545 -6.429,-1.294 -22.415,-4.19 -26.798,-4.923 -10.194,-1.815 -15.446,-3.012 -15.446,-13.515 v -6.4291 c 0,-13.3989 5.792,-18.0132 22.416,-17.9166 18.67,0 31.644,0.9653 31.644,0.9653 z"
       fill="#091629"
       id="path14" />
    <path
       d="m 930.204,136.305 h 14.905 c 8.36,0 11.913,-3.436 11.913,-11.68 V 71.4348 h 10.947 v 55.9702 c 0,12.221 -7.182,19.307 -20.272,19.307 h -20.061 c -13.09,0 -20.272,-7.086 -20.272,-19.307 V 71.4348 h 10.947 v 53.1902 c 0,8.263 3.533,11.68 11.912,11.68 z"
       fill="#091629"
       id="path16" />
    <path
       d="m 983.704,71.4348 h 10.948 V 136.749 H 1034 v 9.75 h -50.296 z"
       fill="#091629"
       id="path18" />
    <path
       d="m 1086.77,80.76 h -24.45 v 65.739 h -10.94 V 80.76 h -24.56 v -9.3252 h 59.95 z"
       fill="#091629"
       id="path20" />
    <path
       d="m 1135.65,124.934 h -32.59 l -7.08,21.546 h -12.34 c 0,0 23.69,-70.9907 24.44,-73.2496 0.33,-1.3901 0.64,-1.8149 2.9,-1.8149 h 16.62 c 2.26,0 2.57,0.4248 3.01,1.8149 0.76,2.2589 24.45,73.2496 24.45,73.2496 h -12.34 l -7.09,-21.546 z m -29.92,-10.503 h 27.12 L 1121.6,80.5476 h -4.5 z"
       fill="#091629"
       id="path22" />
    <path
       d="m 1229.27,146.499 h -9.53 c -1.94,0 -2.78,-0.637 -3.65,-1.93 -1.08,-1.603 -37.54,-52.4374 -38.39,-53.7309 h -0.42 v 55.6609 h -10.95 V 71.4348 h 8.69 c 2.36,0 2.57,0.4248 3.11,1.2936 0.33,0.5406 38.17,52.9776 39.89,55.6616 h 0.42 V 71.4541 h 10.83 v 75.0649 z"
       fill="#091629"
       id="path24" />
    <path
       d="m 1301.12,80.76 h -24.45 v 65.739 h -10.94 V 80.76 h -24.56 v -9.3252 h 59.95 z"
       fill="#091629"
       id="path26" />
    <path
       d="m 1364.39,81.0882 h -31.86 c -9.02,0 -10.95,1.1777 -10.95,8.7845 v 2.6837 c 0,3.8613 1.18,4.7108 6.01,5.6762 0,0 22.2,4.1894 28.42,5.3674 9.53,1.815 12.97,5.464 12.97,14.576 v 10.194 c 0,13.399 -5.58,18.651 -22.3,18.554 -18.67,0 -36.57,-0.965 -36.57,-0.965 l 0.12,-9.325 h 35.27 c 9.87,0 12.55,-2.047 12.55,-10.078 v -6.333 c 0,-3.437 -0.96,-5.676 -5.36,-6.545 -6.43,-1.294 -22.42,-4.19 -26.82,-4.923 -10.2,-1.815 -15.45,-3.012 -15.45,-13.515 v -6.4291 c 0,-13.3989 5.79,-18.0132 22.42,-17.9166 18.65,0 31.62,0.9653 31.62,0.9653 l -0.11,9.2286 z"
       fill="#091629"
       id="path28" />
    <path
       d="m 382.399,216.235 9.364,-16.063 h 3.901 l -11.643,19.847 v 10.214 h -3.224 v -10.175 l -11.642,-19.886 h 3.9 l 9.325,16.063 z"
       fill="#091629"
       id="path30" />
    <path
       d="m 424.972,213.358 v 9.673 c 0,5.618 -2.529,7.395 -7.511,7.395 h -5.116 c -4.981,0 -7.511,-1.757 -7.511,-7.395 v -9.673 c 0,-5.676 2.53,-7.394 7.511,-7.394 h 5.116 c 4.982,0 7.511,1.718 7.511,7.394 z m -3.089,9.364 v -9.19 c 0,-4.17 -0.946,-4.73 -4.846,-4.73 h -4.248 c -3.746,0 -4.807,0.56 -4.807,4.73 v 9.19 c 0,4.035 0.81,4.73 4.807,4.73 h 4.248 c 4.035,0 4.846,-0.695 4.846,-4.73 z"
       fill="#091629"
       id="path32" />
    <path
       d="m 459.146,230.252 h -3.128 v -2.105 c -1.892,0.869 -5.155,2.356 -7.781,2.356 h -1.583 c -4.943,0 -7.433,-1.023 -7.433,-6.661 v -17.646 h 3.089 v 17.144 c 0,3.649 1.332,4.421 4.846,4.421 h 1.545 c 2.316,0 5.367,-1.409 7.298,-2.066 v -19.499 h 3.127 v 24.056 z"
       fill="#091629"
       id="path34" />
    <path
       d="m 474.263,206.196 h 3.128 v 2.741 c 1.892,-1.12 4.846,-2.915 7.472,-2.915 h 2.954 v 2.838 h -3.475 c -2.279,0 -5.02,1.371 -6.951,2.413 v 18.979 h -3.128 z"
       fill="#091629"
       id="path36" />
    <path
       d="m 539.464,202.875 h -11.932 c -4.209,0 -5.676,1.081 -5.676,5.367 v 13.708 c 0,4.247 1.467,5.541 5.676,5.541 h 11.932 v 2.664 c 0,0 -5.85,0.251 -13.052,0.251 -4.981,0.078 -7.954,-2.973 -7.954,-8.031 v -14.558 c 0,-5.058 2.973,-7.896 7.954,-7.819 8.553,0 13.052,0.213 13.052,0.213 z"
       fill="#091629"
       id="path38" />
    <path
       d="m 572.46,213.358 v 9.673 c 0,5.618 -2.529,7.395 -7.511,7.395 h -5.116 c -4.981,0 -7.51,-1.757 -7.51,-7.395 v -9.673 c 0,-5.676 2.529,-7.394 7.51,-7.394 h 5.116 c 4.982,0 7.511,1.718 7.511,7.394 z m -3.089,9.364 v -9.19 c 0,-4.17 -0.946,-4.73 -4.846,-4.73 h -4.248 c -3.745,0 -4.807,0.56 -4.807,4.73 v 9.19 c 0,4.035 0.811,4.73 4.807,4.73 h 4.248 c 4.035,0 4.846,-0.695 4.846,-4.73 z"
       fill="#091629"
       id="path40" />
    <path
       d="m 590.184,206.196 v 2.027 c 1.854,-0.908 4.248,-2.278 6.873,-2.278 h 1.545 c 3.224,0 5.406,0.424 6.487,2.413 1.97,-1.023 4.673,-2.413 7.26,-2.413 h 1.583 c 4.904,0 7.433,0.984 7.433,6.622 v 17.704 h -3.127 v -17.183 c 0,-3.649 -1.333,-4.382 -4.808,-4.382 h -1.583 c -2.066,0 -4.383,1.119 -6.005,1.892 0.174,0.598 0.251,1.332 0.251,2.278 v 17.395 h -3.128 v -17.183 c 0,-3.649 -1.332,-4.382 -4.807,-4.382 h -1.583 c -2.278,0 -4.518,1.293 -6.352,2.007 v 19.539 h -3.128 v -24.056 h 3.128 z"
       fill="#091629"
       id="path42" />
    <path
       d="m 639.36,237.106 h -3.128 v -30.93 h 3.128 v 2.182 c 1.892,-0.946 4.846,-2.355 7.472,-2.355 h 1.718 c 4.943,0 7.472,0.984 7.472,6.622 v 11.12 c 0,5.619 -2.529,6.661 -7.472,6.661 h -1.718 c -2.626,0 -5.58,-1.467 -7.472,-2.413 z m 0,-11.507 c 1.93,0.734 4.672,2.066 6.95,2.066 h 1.757 c 3.476,0 4.808,-0.773 4.808,-4.421 v -10.059 c 0,-3.688 -1.332,-4.422 -4.808,-4.422 h -1.757 c -2.278,0 -5.02,1.333 -6.95,2.028 z"
       fill="#091629"
       id="path44" />
    <path
       d="m 673.727,230.252 h -3.09 v -31.489 h 3.09 z"
       fill="#091629"
       id="path46" />
    <path
       d="m 706.839,230.078 c 0,0 -4.673,0.348 -10.948,0.348 -4.981,0.038 -7.51,-1.333 -7.51,-7.009 v -9.75 c 0,-5.058 3.185,-7.606 8.167,-7.606 h 4.769 c 5.02,0 7.568,2.529 7.568,7.606 v 6.063 c 0,0.309 -0.077,0.424 -0.425,0.424 h -16.932 v 2.877 c 0,4.035 1.081,4.73 4.807,4.73 h 10.561 l -0.038,2.317 z m -0.773,-15.677 c 0,-4.556 -1.255,-5.676 -4.981,-5.676 h -3.958 c -3.861,0 -5.638,0.637 -5.638,5.676 v 3.224 l 14.558,-0.038 v -3.186 z"
       fill="#091629"
       id="path48" />
    <path
       d="m 720.547,206.138 h 3.571 v -5.966 h 3.128 v 6.004 h 7.009 v 2.703 h -7.009 v 15.33 c 0,2.838 0.174,3.436 2.974,3.436 0.849,0 4.344,-0.135 4.344,-0.135 l -0.039,2.317 c 0,0 -3.359,0.56 -5.367,0.56 -3.997,0 -5.02,-2.24 -5.02,-5.676 V 208.86 h -3.572 v -2.742 z"
       fill="#091629"
       id="path50" />
    <path
       d="m 765.726,230.078 c 0,0 -4.673,0.348 -10.948,0.348 -4.981,0.038 -7.51,-1.333 -7.51,-7.009 v -9.75 c 0,-5.058 3.186,-7.606 8.167,-7.606 h 4.769 c 5.02,0 7.568,2.529 7.568,7.606 v 6.063 c 0,0.309 -0.077,0.424 -0.425,0.424 h -16.932 v 2.877 c 0,4.035 1.081,4.73 4.808,4.73 h 10.561 l -0.039,2.317 z m -0.773,-15.677 c 0,-4.556 -1.255,-5.676 -4.981,-5.676 h -3.958 c -3.861,0 -5.618,0.637 -5.618,5.676 v 3.224 l 14.557,-0.038 z"
       fill="#091629"
       id="path52" />
    <path
       d="m 821.041,202.875 h -11.932 c -4.209,0 -5.676,1.081 -5.676,5.367 v 13.708 c 0,4.247 1.467,5.541 5.676,5.541 h 11.932 v 2.664 c 0,0 -5.85,0.251 -13.052,0.251 -4.981,0.078 -7.954,-2.973 -7.954,-8.031 v -14.558 c 0,-5.058 2.973,-7.896 7.954,-7.819 8.553,0 13.052,0.213 13.052,0.213 z"
       fill="#091629"
       id="path54" />
    <path
       d="m 852.357,230.078 c 0,0 -4.672,0.348 -10.947,0.348 -4.981,0.038 -7.51,-1.333 -7.51,-7.009 v -9.75 c 0,-5.058 3.185,-7.606 8.167,-7.606 h 4.768 c 5.02,0 7.569,2.529 7.569,7.606 v 6.063 c 0,0.309 -0.077,0.424 -0.425,0.424 h -16.932 v 2.877 c 0,4.035 1.081,4.73 4.807,4.73 h 10.561 l -0.038,2.317 z m -0.772,-15.677 c 0,-4.556 -1.255,-5.676 -4.981,-5.676 h -3.958 c -3.862,0 -5.619,0.637 -5.619,5.676 v 3.224 l 14.558,-0.038 z"
       fill="#091629"
       id="path56" />
    <path
       d="m 868.556,206.196 h 3.128 v 2.741 c 1.892,-1.12 4.846,-2.915 7.472,-2.915 h 2.954 v 2.838 h -3.476 c -2.278,0 -5.019,1.371 -6.95,2.413 v 18.979 h -3.128 z"
       fill="#091629"
       id="path58" />
    <path
       d="m 892.13,206.138 h 3.572 v -5.966 h 3.128 v 6.004 h 7.008 v 2.703 h -7.008 v 15.33 c 0,2.838 0.173,3.436 2.973,3.436 0.869,0 4.344,-0.135 4.344,-0.135 l -0.038,2.317 c 0,0 -3.341,0.56 -5.368,0.56 -3.996,0 -5.02,-2.24 -5.02,-5.676 V 208.86 h -3.572 v -2.742 z"
       fill="#091629"
       id="path60" />
    <path
       d="m 920.994,197.469 c 1.024,0 1.854,0.772 1.854,1.796 0,1.023 -0.811,1.795 -1.854,1.795 -1.042,0 -1.853,-0.772 -1.853,-1.795 0,-1.024 0.811,-1.796 1.853,-1.796 z m 1.545,32.764 h -3.089 v -24.057 h 3.089 z"
       fill="#091629"
       id="path62" />
    <path
       d="m 935.205,206.196 h 3.571 v -2.626 c 0,-3.437 1.024,-5.638 5.02,-5.638 2.028,0 5.02,0.387 5.02,0.387 l -0.251,2.181 c 0,0 -2.838,-0.077 -3.687,-0.077 -2.279,0 -2.974,0.637 -2.974,3.572 v 2.278 h 7.009 v 2.626 h -7.009 v 21.353 h -3.128 v -21.353 h -3.571 z m 19.809,-8.727 c 1.023,0 1.853,0.772 1.853,1.796 0,1.023 -0.811,1.795 -1.853,1.795 -1.043,0 -1.854,-0.772 -1.854,-1.795 0,-1.024 0.811,-1.796 1.854,-1.796 z m 1.544,32.764 h -3.089 v -24.057 h 3.089 z"
       fill="#091629"
       id="path64" />
    <path
       d="m 988.802,230.078 c 0,0 -3.823,0.348 -10.098,0.348 -4.981,0.038 -7.511,-1.545 -7.511,-7.221 v -10.001 c 0,-5.676 2.53,-7.259 7.511,-7.182 6.391,0 10.098,0.174 10.098,0.174 v 2.567 h -9.654 c -3.997,0 -4.808,0.56 -4.808,4.731 v 9.402 c 0,4.17 0.811,4.73 4.808,4.73 h 9.654 z"
       fill="#091629"
       id="path66" />
    <path
       d="m 1013.59,206.022 c 5.02,-0.077 7.57,0.985 7.57,6.622 v 17.608 h -3.13 v -2.24 c -1.89,0.946 -4.84,2.414 -7.47,2.414 h -2.06 c -4.95,0 -7.44,-0.425 -7.44,-6.661 v -2.027 c 0,-5.677 2.49,-6.314 7.44,-6.314 h 3.57 c 2.83,0 4.03,0.251 5.96,0.599 v -2.838 c 0,-4.344 -0.98,-4.692 -5.02,-4.692 l -9.53,0.135 v -2.278 c 0,0 3.78,-0.347 10.13,-0.347 z m -1.25,11.719 h -3.48 c -3.61,0 -4.81,0.521 -4.81,4.421 v 1.294 c 0,3.649 0.82,4.383 4.81,4.383 h 2.18 c 2.28,0 5.02,-1.333 6.95,-2.028 v -7.78 c -1.93,-0.174 -3.39,-0.309 -5.67,-0.309 z"
       fill="#091629"
       id="path68" />
    <path
       d="m 1033.23,206.138 h 3.57 v -5.966 h 3.13 v 6.004 h 7.01 v 2.703 h -7.01 v 15.33 c 0,2.838 0.17,3.436 2.97,3.436 0.85,0 4.34,-0.135 4.34,-0.135 l -0.03,2.317 c 0,0 -3.36,0.56 -5.37,0.56 -4,0 -5.02,-2.24 -5.02,-5.676 V 208.86 h -3.57 v -2.742 z"
       fill="#091629"
       id="path70" />
    <path
       d="m 1062.07,197.469 c 1.03,0 1.86,0.772 1.86,1.796 0,1.023 -0.81,1.795 -1.86,1.795 -1.04,0 -1.85,-0.772 -1.85,-1.795 0,-1.024 0.81,-1.796 1.85,-1.796 z m 1.55,32.764 h -3.09 v -24.057 h 3.09 z"
       fill="#091629"
       id="path72" />
    <path
       d="m 1098.43,213.358 v 9.673 c 0,5.618 -2.53,7.395 -7.51,7.395 h -5.12 c -4.98,0 -7.51,-1.757 -7.51,-7.395 v -9.673 c 0,-5.676 2.53,-7.394 7.51,-7.394 h 5.12 c 4.98,0 7.51,1.718 7.51,7.394 z m -3.09,9.364 v -9.19 c 0,-4.17 -0.95,-4.73 -4.85,-4.73 h -4.24 c -3.75,0 -4.81,0.56 -4.81,4.73 v 9.19 c 0,4.035 0.81,4.73 4.81,4.73 h 4.24 c 4.04,0 4.85,-0.695 4.85,-4.73 z"
       fill="#091629"
       id="path74" />
    <path
       d="m 1113.02,206.196 h 3.13 v 2.104 c 1.89,-0.946 4.85,-2.355 7.47,-2.355 h 1.59 c 4.9,0 7.43,0.984 7.43,6.622 v 17.704 h -3.13 v -17.183 c 0,-3.649 -1.33,-4.382 -4.8,-4.382 h -1.59 c -2.28,0 -5.02,1.332 -6.95,2.007 v 19.539 h -3.13 v -24.056 z"
       fill="#091629"
       id="path76" />
    <path
       d="m 1169.29,230.252 h -3.23 v -30.061 h 14.66 c 4.98,0 7.85,2.182 7.85,7.26 v 5.019 c 0,5.078 -2.87,7.298 -7.85,7.298 h -11.43 z m 16.06,-18.554 v -3.436 c 0,-3.785 -0.99,-5.233 -5.33,-5.233 h -10.73 v 13.921 h 10.73 c 4.34,0 5.33,-1.506 5.33,-5.233 z"
       fill="#091629"
       id="path78" />
    <path
       d="m 1213.09,206.022 c 5.02,-0.077 7.57,0.985 7.57,6.622 v 17.608 h -3.13 v -2.24 c -1.89,0.946 -4.84,2.414 -7.47,2.414 H 1208 c -4.95,0 -7.44,-0.425 -7.44,-6.661 v -2.027 c 0,-5.677 2.49,-6.314 7.44,-6.314 h 3.57 c 2.84,0 4.03,0.251 5.96,0.599 v -2.838 c 0,-4.344 -0.98,-4.692 -5.02,-4.692 l -9.53,0.135 v -2.278 c 0,0 3.78,-0.347 10.13,-0.347 z m -1.25,11.719 h -3.48 c -3.61,0 -4.8,0.521 -4.8,4.421 v 1.294 c 0,3.649 0.81,4.383 4.8,4.383 h 2.19 c 2.27,0 5.02,-1.333 6.95,-2.028 v -7.78 c -1.93,-0.174 -3.4,-0.309 -5.68,-0.309 z"
       fill="#091629"
       id="path80" />
    <path
       d="m 1235.43,206.196 h 3.13 v 2.741 c 1.89,-1.12 4.85,-2.915 7.47,-2.915 h 2.98 v 2.838 h -3.48 c -2.28,0 -5.02,1.371 -6.95,2.413 v 18.979 h -3.13 v -24.056 z"
       fill="#091629"
       id="path82" />
    <path
       d="m 1259.01,206.138 h 3.57 v -5.966 h 3.13 v 6.004 h 7 v 2.703 h -7 v 15.33 c 0,2.838 0.17,3.436 2.97,3.436 0.85,0 4.34,-0.135 4.34,-0.135 l -0.03,2.317 c 0,0 -3.36,0.56 -5.37,0.56 -4,0 -5.02,-2.24 -5.02,-5.676 V 208.86 h -3.57 v -2.742 z"
       fill="#091629"
       id="path84" />
    <path
       d="m 1286.29,206.196 h 3.13 v 2.104 c 1.89,-0.946 4.84,-2.355 7.47,-2.355 h 1.58 c 4.9,0 7.43,0.984 7.43,6.622 v 17.704 h -3.12 v -17.183 c 0,-3.649 -1.34,-4.382 -4.81,-4.382 h -1.58 c -2.28,0 -5.02,1.332 -6.96,2.007 v 19.539 h -3.12 v -24.056 z"
       fill="#091629"
       id="path86" />
    <path
       d="m 1338.59,230.078 c 0,0 -4.67,0.348 -10.95,0.348 -4.98,0.038 -7.51,-1.333 -7.51,-7.009 v -9.75 c 0,-5.058 3.19,-7.606 8.17,-7.606 h 4.77 c 5.02,0 7.57,2.529 7.57,7.606 v 6.063 c 0,0.309 -0.08,0.424 -0.43,0.424 h -16.93 v 2.877 c 0,4.035 1.08,4.73 4.81,4.73 h 10.56 l -0.04,2.317 z m -0.77,-15.677 c 0,-4.556 -1.26,-5.676 -4.98,-5.676 h -3.96 c -3.86,0 -5.62,0.637 -5.62,5.676 v 3.224 l 14.56,-0.038 z"
       fill="#091629"
       id="path88" />
    <path
       d="m 1354.79,206.196 h 3.13 v 2.741 c 1.89,-1.12 4.84,-2.915 7.47,-2.915 h 2.97 v 2.838 h -3.47 c -2.28,0 -5.02,1.371 -6.95,2.413 v 18.979 h -3.13 v -24.056 z"
       fill="#091629"
       id="path90" />
    <path
       fill-rule="evenodd"
       clip-rule="evenodd"
       d="M 70.0272,140.032 H 56.2032 C 46.1055,74.5046 97.9262,6.96972 166.293,0 c 0,1.1391 0.039,2.27819 0.058,3.41729 0.077,2.93462 0.155,5.84993 -0.289,8.68801 -0.194,1.2549 -2.897,2.7029 -4.634,3.0698 -36.8,7.9543 -63.8493,28.6318 -80.6466,62.3027 -9.1517,18.3414 -12.5884,37.9762 -10.7735,58.4802 0.0773,0.753 0.0579,1.506 0.0386,2.433 0,0.482 -0.0193,1.023 -0.0193,1.641 z m 24.7326,-65.8556 4.4407,5.0777 5.0395,5.7727 c 19.346,-23.8052 43.866,-38.208 73.908,-42.1466 30.119,-3.9579 57.864,3.1277 82.944,21.2567 1.776,-1.8534 3.475,-3.6297 5.155,-5.3866 1.622,-1.6797 3.205,-3.34 4.788,-5.0004 C 218.616,10.7538 134.32,20.9092 94.7791,74.1571 Z m -15.8319,134.0466 -2.1624,1.969 c -0.8302,0.753 -1.6605,1.525 -2.51,2.278 C 22.0294,172.853 9.92375,91.2242 53.2492,36.0649 c 0.2124,0.058 0.3669,0.0966 0.502,0.1352 0.1931,0.0386 0.3089,0.0772 0.4055,0.1544 6.7382,5.5604 7.858,12.0088 3.3594,19.3454 -24.7519,40.2931 -19.9057,95.8961 11.5265,131.6331 3.2822,3.726 6.7189,7.279 10.2521,10.928 1.6218,1.679 3.2822,3.398 4.9234,5.135 -1.5446,1.41 -3.1857,2.916 -4.8848,4.46 l -0.2703,0.251 -0.0965,0.097 H 78.9472 Z M 179.557,54.7152 c 61.494,-1.2742 118.006,46.0848 127.39,106.7858 0.135,0.868 0.096,1.737 0.057,2.896 -0.019,0.637 -0.038,1.351 -0.038,2.181 -1.101,0 -2.221,0.02 -3.34,0.058 -2.896,0.058 -5.812,0.135 -8.669,-0.231 -1.178,-0.136 -2.645,-2.472 -2.974,-4.016 -10.58,-47.051 -38.942,-77.3815 -85.666,-89.371 -8.379,-2.1624 -17.164,-2.7223 -26.393,-3.3401 -4.247,-0.2703 -8.592,-0.5599 -13.052,-1.0039 -1.409,-12.8197 -0.521,-13.6692 12.647,-13.9395 z m -12.646,13.9395 c 0,0.1737 0.019,0.3282 0.039,0.4826 0,0 0,0.0194 0,0.0387 v 0.0579 c -0.039,-0.0579 -0.155,-0.2317 -0.483,-0.6178 0.058,0 0.135,0 0.193,0 h 0.077 0.116 z m 64.853,25.5234 -1.776,1.9114 c -2.433,2.645 -4.962,5.3865 -7.8,8.4565 23.342,19.326 37.842,43.691 41.8,73.771 3.958,30.176 -3.147,57.804 -21.142,82.806 2.221,2.163 4.325,4.228 6.391,6.275 1.294,1.274 2.587,2.529 3.862,3.784 42.591,-51.626 33.594,-136.17 -21.354,-177.0039 z m 19.771,73.4039 h -14.809 c 1.989,18.863 0.039,36.818 -6.893,53.866 -15.754,38.633 -44.233,62.341 -85.145,70.778 -3.185,0.657 -4.382,1.815 -4.209,4.962 0.136,2.259 0.097,4.518 0.078,7.066 0,1.178 -0.02,2.414 -0.02,3.746 33.73,-4.904 61.011,-19.77 82.211,-45.409 22.821,-27.57 32.03,-59.349 28.825,-95.009 z m -48.172,55.855 0.039,0.038 0.154,0.135 c 3.244,2.954 6.294,5.734 9.287,8.476 -42.862,55.835 -126.2501,62.959 -176.6035,21.527 2.8382,-3.282 5.464,-6.313 8.167,-9.422 l 0.0579,-0.058 1.0426,-1.216 c 25.5049,17.975 52.9984,25.273 83.292,21.199 30.119,-4.055 54.311,-18.67 73.522,-41.625 z m -63.791,27.454 v -12.453 c -4.209,-0.406 -8.399,-0.657 -12.55,-0.888 -8.92,-0.521 -17.647,-1.023 -25.949,-3.109 -46.9936,-11.854 -75.6841,-42.146 -86.1487,-89.506 -0.695,-3.166 -1.7762,-4.421 -4.96193,-4.228 -2.31687,0.135 -4.61443,0.097 -6.95061,0.078 -1.00398,0 -2.00796,-0.02 -2.9926255,-0.02 C 4.86525,206.543 72.7882,261.509 139.591,250.91 Z"
       fill="url(#paint0_linear_2_2)"
       id="path92"
       style="fill:url(#paint0_linear_2_2)" />
  </g>
  <defs
     id="defs106">
    <linearGradient
       id="paint0_linear_2_2"
       x1="-53.654999"
       y1="179.726"
       x2="374.65701"
       y2="126.475"
       gradientUnits="userSpaceOnUse">
      <stop
         stop-color="#8F2545"
         id="stop96" />
      <stop
         offset="0.52"
         stop-color="#CE4258"
         id="stop98" />
      <stop
         offset="0.97"
         stop-color="#F8AA3C"
         id="stop100" />
    </linearGradient>
    <clipPath
       id="clip0_2_2">
      <rect
         width="1369"
         height="308"
         fill="#ffffff"
         id="rect103"
         x="0"
         y="0" />
    </clipPath>
  </defs>
</svg>
