<svg width="1369" height="308" viewBox="0 0 1369 308" fill="none" xmlns="http://www.w3.org/2000/svg">
<g clip-path="url(#clip0_2_2)">
<path d="M423.427 81.088H391.57C382.554 81.088 380.623 82.2657 380.623 89.8726V92.5562C380.623 96.4175 381.801 97.267 386.628 98.2324C386.628 98.2324 408.831 102.422 415.048 103.6C424.586 105.414 428.022 109.063 428.022 118.176V128.37C428.022 141.769 422.443 147.02 405.723 146.924C387.072 146.924 369.155 145.959 369.155 145.959L369.271 136.633H404.545C414.411 136.633 417.095 134.587 417.095 126.555V120.223C417.095 116.786 416.129 114.547 411.727 113.678C405.298 112.384 389.311 109.488 384.909 108.755C374.715 106.94 369.464 105.743 369.464 95.2398V88.8107C369.464 75.4118 375.256 70.7975 391.879 70.8941C410.53 70.8941 423.524 71.8594 423.524 71.8594L423.408 81.088H423.427Z" fill="#091629"/>
<path d="M462.988 136.305H477.893C486.253 136.305 489.806 132.869 489.806 124.625V71.4348H500.753V127.405C500.753 139.626 493.571 146.712 480.48 146.712H460.42C447.33 146.712 440.147 139.626 440.147 127.405V71.4348H451.095V124.625C451.095 132.888 454.628 136.305 463.007 136.305H462.988Z" fill="#091629"/>
<path d="M579.449 146.499H569.911C567.981 146.499 567.131 145.862 566.262 144.569C565.181 142.966 528.729 92.1316 527.88 90.8381H527.455V146.499H516.508V71.4348H525.196C527.551 71.4348 527.764 71.8596 528.304 72.7284C528.633 73.269 566.475 125.706 568.193 128.39H568.618V71.4541H579.449V146.519V146.499Z" fill="#091629"/>
<path d="M672.838 80.76H643.028C634.668 80.76 630.478 84.0807 630.478 92.2282V124.818C630.478 133.081 634.668 137.155 643.028 137.155H672.838L672.954 146.171C672.954 146.171 656.756 147.021 638.858 147.021C625.883 147.136 618.797 138.448 618.797 126.111V90.9346C618.797 78.5976 625.883 70.7784 638.858 70.8749C659.439 70.8749 672.954 71.6279 672.954 71.6279L672.838 80.7407V80.76Z" fill="#091629"/>
<path d="M682.396 127.405V90.5099C682.396 78.1729 689.694 71.2032 702.552 71.2032H724.543C737.421 71.2032 744.7 78.1729 744.7 90.5099V127.405C744.7 139.626 737.402 146.712 724.543 146.712H702.552C689.674 146.712 682.396 139.626 682.396 127.405ZM693.439 91.4752V125.358C693.439 133.506 697.088 137.039 705.352 137.039H721.763C730.026 137.039 733.676 133.506 733.676 125.358V91.4752C733.676 83.3278 730.026 80.6441 721.763 80.6441H705.352C697.088 80.6441 693.439 83.3278 693.439 91.4752Z" fill="#091629"/>
<path d="M823.087 146.499H813.55C811.619 146.499 810.769 145.862 809.901 144.569C808.839 142.966 772.367 92.1316 771.518 90.8381H771.093V146.499H760.146V71.4348H768.834C771.19 71.4348 771.402 71.8596 771.943 72.7284C772.271 73.269 810.113 125.706 811.831 128.39H812.256V71.4541H823.087V146.519V146.499Z" fill="#091629"/>
<path d="M890.644 81.0882H858.787C849.77 81.0882 847.839 82.2659 847.839 89.8727V92.5564C847.839 96.4177 849.017 97.2672 853.844 98.2326C853.844 98.2326 876.047 102.422 882.264 103.6C891.802 105.415 895.239 109.064 895.239 118.176V128.37C895.239 141.769 889.659 147.021 872.939 146.924C854.288 146.924 836.371 145.959 836.371 145.959L836.487 136.634H871.761C881.627 136.634 884.311 134.587 884.311 126.556V120.223C884.311 116.786 883.345 114.547 878.943 113.678C872.514 112.384 856.528 109.488 852.145 108.755C841.951 106.94 836.699 105.743 836.699 95.24V88.8109C836.699 75.412 842.491 70.7977 859.115 70.8943C877.785 70.8943 890.759 71.8596 890.759 71.8596L890.644 81.0882Z" fill="#091629"/>
<path d="M930.204 136.305H945.109C953.469 136.305 957.022 132.869 957.022 124.625V71.4348H967.969V127.405C967.969 139.626 960.787 146.712 947.697 146.712H927.636C914.546 146.712 907.364 139.626 907.364 127.405V71.4348H918.311V124.625C918.311 132.888 921.844 136.305 930.223 136.305H930.204Z" fill="#091629"/>
<path d="M983.704 71.4348H994.652V136.749H1034V146.499H983.704V71.4348Z" fill="#091629"/>
<path d="M1086.77 80.76H1062.32V146.499H1051.38V80.76H1026.82V71.4348H1086.77V80.76Z" fill="#091629"/>
<path d="M1135.65 124.934H1103.06L1095.98 146.48H1083.64C1083.64 146.48 1107.33 75.4893 1108.08 73.2304C1108.41 71.8403 1108.72 71.4155 1110.98 71.4155H1127.6C1129.86 71.4155 1130.17 71.8403 1130.61 73.2304C1131.37 75.4893 1155.06 146.48 1155.06 146.48H1142.72L1135.63 124.934H1135.65ZM1105.73 114.431H1132.85L1121.6 80.5476H1117.1L1105.73 114.431Z" fill="#091629"/>
<path d="M1229.27 146.499H1219.74C1217.8 146.499 1216.96 145.862 1216.09 144.569C1215.01 142.966 1178.55 92.1316 1177.7 90.8381H1177.28V146.499H1166.33V71.4348H1175.02C1177.38 71.4348 1177.59 71.8596 1178.13 72.7284C1178.46 73.269 1216.3 125.706 1218.02 128.39H1218.44V71.4541H1229.27V146.519V146.499Z" fill="#091629"/>
<path d="M1301.12 80.76H1276.67V146.499H1265.73V80.76H1241.17V71.4348H1301.12V80.76Z" fill="#091629"/>
<path d="M1364.39 81.0882H1332.53C1323.51 81.0882 1321.58 82.2659 1321.58 89.8727V92.5564C1321.58 96.4177 1322.76 97.2672 1327.59 98.2326C1327.59 98.2326 1349.79 102.422 1356.01 103.6C1365.54 105.415 1368.98 109.064 1368.98 118.176V128.37C1368.98 141.769 1363.4 147.021 1346.68 146.924C1328.01 146.924 1310.11 145.959 1310.11 145.959L1310.23 136.634H1345.5C1355.37 136.634 1358.05 134.587 1358.05 126.556V120.223C1358.05 116.786 1357.09 114.547 1352.69 113.678C1346.26 112.384 1330.27 109.488 1325.87 108.755C1315.67 106.94 1310.42 105.743 1310.42 95.24V88.8109C1310.42 75.412 1316.21 70.7977 1332.84 70.8943C1351.49 70.8943 1364.46 71.8596 1364.46 71.8596L1364.35 81.0882H1364.39Z" fill="#091629"/>
<path d="M382.399 216.235L391.763 200.172H395.664L384.021 220.019V230.233H380.797V220.058L369.155 200.172H373.055L382.38 216.235H382.399Z" fill="#091629"/>
<path d="M424.972 213.358V223.031C424.972 228.649 422.443 230.426 417.461 230.426H412.345C407.364 230.426 404.834 228.669 404.834 223.031V213.358C404.834 207.682 407.364 205.964 412.345 205.964H417.461C422.443 205.964 424.972 207.682 424.972 213.358ZM421.883 222.722V213.532C421.883 209.362 420.937 208.802 417.037 208.802H412.789C409.043 208.802 407.982 209.362 407.982 213.532V222.722C407.982 226.757 408.792 227.452 412.789 227.452H417.037C421.072 227.452 421.883 226.757 421.883 222.722Z" fill="#091629"/>
<path d="M459.146 230.252H456.018V228.147C454.126 229.016 450.863 230.503 448.237 230.503H446.654C441.711 230.503 439.221 229.48 439.221 223.842V206.196H442.31V223.34C442.31 226.989 443.642 227.761 447.156 227.761H448.701C451.017 227.761 454.068 226.352 455.999 225.695V206.196H459.126V230.252H459.146Z" fill="#091629"/>
<path d="M474.263 206.196H477.391V208.937C479.283 207.817 482.237 206.022 484.863 206.022H487.817V208.86H484.342C482.063 208.86 479.322 210.231 477.391 211.273V230.252H474.263V206.196Z" fill="#091629"/>
<path d="M539.464 202.875H527.532C523.323 202.875 521.856 203.956 521.856 208.242V221.95C521.856 226.197 523.323 227.491 527.532 227.491H539.464V230.155C539.464 230.155 533.614 230.406 526.412 230.406C521.431 230.484 518.458 227.433 518.458 222.375V207.817C518.458 202.759 521.431 199.921 526.412 199.998C534.965 199.998 539.464 200.211 539.464 200.211V202.875Z" fill="#091629"/>
<path d="M572.46 213.358V223.031C572.46 228.649 569.931 230.426 564.949 230.426H559.833C554.852 230.426 552.323 228.669 552.323 223.031V213.358C552.323 207.682 554.852 205.964 559.833 205.964H564.949C569.931 205.964 572.46 207.682 572.46 213.358ZM569.371 222.722V213.532C569.371 209.362 568.425 208.802 564.525 208.802H560.277C556.532 208.802 555.47 209.362 555.47 213.532V222.722C555.47 226.757 556.281 227.452 560.277 227.452H564.525C568.56 227.452 569.371 226.757 569.371 222.722Z" fill="#091629"/>
<path d="M590.184 206.196V208.223C592.038 207.315 594.432 205.945 597.057 205.945H598.602C601.826 205.945 604.008 206.369 605.089 208.358C607.059 207.335 609.762 205.945 612.349 205.945H613.932C618.836 205.945 621.365 206.929 621.365 212.567V230.271H618.238V213.088C618.238 209.439 616.905 208.706 613.43 208.706H611.847C609.781 208.706 607.464 209.825 605.842 210.598C606.016 211.196 606.093 211.93 606.093 212.876V230.271H602.965V213.088C602.965 209.439 601.633 208.706 598.158 208.706H596.575C594.297 208.706 592.057 209.999 590.223 210.713V230.252H587.095V206.196H590.223H590.184Z" fill="#091629"/>
<path d="M639.36 237.106H636.232V206.176H639.36V208.358C641.252 207.412 644.206 206.003 646.832 206.003H648.55C653.493 206.003 656.022 206.987 656.022 212.625V223.745C656.022 229.364 653.493 230.406 648.55 230.406H646.832C644.206 230.406 641.252 228.939 639.36 227.993V237.106ZM639.36 225.599C641.29 226.333 644.032 227.665 646.31 227.665H648.067C651.543 227.665 652.875 226.892 652.875 223.244V213.185C652.875 209.497 651.543 208.763 648.067 208.763H646.31C644.032 208.763 641.29 210.096 639.36 210.791V225.599Z" fill="#091629"/>
<path d="M673.727 230.252H670.637V198.763H673.727V230.252Z" fill="#091629"/>
<path d="M706.839 230.078C706.839 230.078 702.166 230.426 695.891 230.426C690.91 230.464 688.381 229.093 688.381 223.417V213.667C688.381 208.609 691.566 206.061 696.548 206.061H701.317C706.337 206.061 708.885 208.59 708.885 213.667V219.73C708.885 220.039 708.808 220.154 708.46 220.154H691.528V223.031C691.528 227.066 692.609 227.761 696.335 227.761H706.896L706.858 230.078H706.839ZM706.066 214.401C706.066 209.845 704.811 208.725 701.085 208.725H697.127C693.266 208.725 691.489 209.362 691.489 214.401V217.625L706.047 217.587V214.401H706.066Z" fill="#091629"/>
<path d="M720.547 206.138H724.118V200.172H727.246V206.176H734.255V208.879H727.246V224.209C727.246 227.047 727.42 227.645 730.22 227.645C731.069 227.645 734.564 227.51 734.564 227.51L734.525 229.827C734.525 229.827 731.166 230.387 729.158 230.387C725.161 230.387 724.138 228.147 724.138 224.711V208.86H720.566V206.118L720.547 206.138Z" fill="#091629"/>
<path d="M765.726 230.078C765.726 230.078 761.053 230.426 754.778 230.426C749.797 230.464 747.268 229.093 747.268 223.417V213.667C747.268 208.609 750.454 206.061 755.435 206.061H760.204C765.224 206.061 767.772 208.59 767.772 213.667V219.73C767.772 220.039 767.695 220.154 767.347 220.154H750.415V223.031C750.415 227.066 751.496 227.761 755.223 227.761H765.784L765.745 230.078H765.726ZM764.953 214.401C764.953 209.845 763.698 208.725 759.972 208.725H756.014C752.153 208.725 750.396 209.362 750.396 214.401V217.625L764.953 217.587V214.401Z" fill="#091629"/>
<path d="M821.041 202.875H809.109C804.9 202.875 803.433 203.956 803.433 208.242V221.95C803.433 226.197 804.9 227.491 809.109 227.491H821.041V230.155C821.041 230.155 815.191 230.406 807.989 230.406C803.008 230.484 800.035 227.433 800.035 222.375V207.817C800.035 202.759 803.008 199.921 807.989 199.998C816.542 199.998 821.041 200.211 821.041 200.211V202.875Z" fill="#091629"/>
<path d="M852.357 230.078C852.357 230.078 847.685 230.426 841.41 230.426C836.429 230.464 833.9 229.093 833.9 223.417V213.667C833.9 208.609 837.085 206.061 842.067 206.061H846.835C851.855 206.061 854.404 208.59 854.404 213.667V219.73C854.404 220.039 854.327 220.154 853.979 220.154H837.047V223.031C837.047 227.066 838.128 227.761 841.854 227.761H852.415L852.377 230.078H852.357ZM851.585 214.401C851.585 209.845 850.33 208.725 846.604 208.725H842.646C838.784 208.725 837.027 209.362 837.027 214.401V217.625L851.585 217.587V214.401Z" fill="#091629"/>
<path d="M868.556 206.196H871.684V208.937C873.576 207.817 876.53 206.022 879.156 206.022H882.11V208.86H878.634C876.356 208.86 873.615 210.231 871.684 211.273V230.252H868.556V206.196Z" fill="#091629"/>
<path d="M892.13 206.138H895.702V200.172H898.83V206.176H905.838V208.879H898.83V224.209C898.83 227.047 899.003 227.645 901.803 227.645C902.672 227.645 906.147 227.51 906.147 227.51L906.109 229.827C906.109 229.827 902.768 230.387 900.741 230.387C896.745 230.387 895.721 228.147 895.721 224.711V208.86H892.149V206.118L892.13 206.138Z" fill="#091629"/>
<path d="M920.994 197.469C922.018 197.469 922.848 198.241 922.848 199.265C922.848 200.288 922.037 201.06 920.994 201.06C919.952 201.06 919.141 200.288 919.141 199.265C919.141 198.241 919.952 197.469 920.994 197.469ZM922.539 230.233H919.45V206.176H922.539V230.233Z" fill="#091629"/>
<path d="M935.205 206.196H938.776V203.57C938.776 200.133 939.8 197.932 943.796 197.932C945.824 197.932 948.816 198.319 948.816 198.319L948.565 200.5C948.565 200.5 945.727 200.423 944.878 200.423C942.599 200.423 941.904 201.06 941.904 203.995V206.273H948.913V208.899H941.904V230.252H938.776V208.899H935.205V206.196ZM955.014 197.469C956.037 197.469 956.867 198.241 956.867 199.265C956.867 200.288 956.056 201.06 955.014 201.06C953.971 201.06 953.16 200.288 953.16 199.265C953.16 198.241 953.971 197.469 955.014 197.469ZM956.558 230.233H953.469V206.176H956.558V230.233Z" fill="#091629"/>
<path d="M988.802 230.078C988.802 230.078 984.979 230.426 978.704 230.426C973.723 230.464 971.193 228.881 971.193 223.205V213.204C971.193 207.528 973.723 205.945 978.704 206.022C985.095 206.022 988.802 206.196 988.802 206.196V208.763H979.148C975.151 208.763 974.34 209.323 974.34 213.494V222.896C974.34 227.066 975.151 227.626 979.148 227.626H988.802V230.078Z" fill="#091629"/>
<path d="M1013.59 206.022C1018.61 205.945 1021.16 207.007 1021.16 212.644V230.252H1018.03V228.012C1016.14 228.958 1013.19 230.426 1010.56 230.426H1008.5C1003.55 230.426 1001.06 230.001 1001.06 223.765V221.738C1001.06 216.061 1003.55 215.424 1008.5 215.424H1012.07C1014.9 215.424 1016.1 215.675 1018.03 216.023V213.185C1018.03 208.841 1017.05 208.493 1013.01 208.493L1003.48 208.628V206.35C1003.48 206.35 1007.26 206.003 1013.61 206.003L1013.59 206.022ZM1012.34 217.741H1008.86C1005.25 217.741 1004.05 218.262 1004.05 222.162V223.456C1004.05 227.105 1004.87 227.839 1008.86 227.839H1011.04C1013.32 227.839 1016.06 226.506 1017.99 225.811V218.031C1016.06 217.857 1014.6 217.722 1012.32 217.722L1012.34 217.741Z" fill="#091629"/>
<path d="M1033.23 206.138H1036.8V200.172H1039.93V206.176H1046.94V208.879H1039.93V224.209C1039.93 227.047 1040.1 227.645 1042.9 227.645C1043.75 227.645 1047.24 227.51 1047.24 227.51L1047.21 229.827C1047.21 229.827 1043.85 230.387 1041.84 230.387C1037.84 230.387 1036.82 228.147 1036.82 224.711V208.86H1033.25V206.118L1033.23 206.138Z" fill="#091629"/>
<path d="M1062.07 197.469C1063.1 197.469 1063.93 198.241 1063.93 199.265C1063.93 200.288 1063.12 201.06 1062.07 201.06C1061.03 201.06 1060.22 200.288 1060.22 199.265C1060.22 198.241 1061.03 197.469 1062.07 197.469ZM1063.62 230.233H1060.53V206.176H1063.62V230.233Z" fill="#091629"/>
<path d="M1098.43 213.358V223.031C1098.43 228.649 1095.9 230.426 1090.92 230.426H1085.8C1080.82 230.426 1078.29 228.669 1078.29 223.031V213.358C1078.29 207.682 1080.82 205.964 1085.8 205.964H1090.92C1095.9 205.964 1098.43 207.682 1098.43 213.358ZM1095.34 222.722V213.532C1095.34 209.362 1094.39 208.802 1090.49 208.802H1086.25C1082.5 208.802 1081.44 209.362 1081.44 213.532V222.722C1081.44 226.757 1082.25 227.452 1086.25 227.452H1090.49C1094.53 227.452 1095.34 226.757 1095.34 222.722Z" fill="#091629"/>
<path d="M1113.02 206.196H1116.15V208.3C1118.04 207.354 1121 205.945 1123.62 205.945H1125.21C1130.11 205.945 1132.64 206.929 1132.64 212.567V230.271H1129.51V213.088C1129.51 209.439 1128.18 208.706 1124.71 208.706H1123.12C1120.84 208.706 1118.1 210.038 1116.17 210.713V230.252H1113.04V206.196H1113.02Z" fill="#091629"/>
<path d="M1169.29 230.252H1166.06V200.191H1180.72C1185.7 200.191 1188.57 202.373 1188.57 207.451V212.47C1188.57 217.548 1185.7 219.768 1180.72 219.768H1169.29V230.252ZM1185.35 211.698V208.262C1185.35 204.477 1184.36 203.029 1180.02 203.029H1169.29V216.95H1180.02C1184.36 216.95 1185.35 215.444 1185.35 211.717V211.698Z" fill="#091629"/>
<path d="M1213.09 206.022C1218.11 205.945 1220.66 207.007 1220.66 212.644V230.252H1217.53V228.012C1215.64 228.958 1212.69 230.426 1210.06 230.426H1208C1203.05 230.426 1200.56 230.001 1200.56 223.765V221.738C1200.56 216.061 1203.05 215.424 1208 215.424H1211.57C1214.41 215.424 1215.6 215.675 1217.53 216.023V213.185C1217.53 208.841 1216.55 208.493 1212.51 208.493L1202.98 208.628V206.35C1202.98 206.35 1206.76 206.003 1213.11 206.003L1213.09 206.022ZM1211.84 217.741H1208.36C1204.75 217.741 1203.56 218.262 1203.56 222.162V223.456C1203.56 227.105 1204.37 227.839 1208.36 227.839H1210.55C1212.82 227.839 1215.57 226.506 1217.5 225.811V218.031C1215.57 217.857 1214.1 217.722 1211.82 217.722L1211.84 217.741Z" fill="#091629"/>
<path d="M1235.43 206.196H1238.56V208.937C1240.45 207.817 1243.41 206.022 1246.03 206.022H1249.01V208.86H1245.53C1243.25 208.86 1240.51 210.231 1238.58 211.273V230.252H1235.45V206.196H1235.43Z" fill="#091629"/>
<path d="M1259.01 206.138H1262.58V200.172H1265.71V206.176H1272.71V208.879H1265.71V224.209C1265.71 227.047 1265.88 227.645 1268.68 227.645C1269.53 227.645 1273.02 227.51 1273.02 227.51L1272.99 229.827C1272.99 229.827 1269.63 230.387 1267.62 230.387C1263.62 230.387 1262.6 228.147 1262.6 224.711V208.86H1259.03V206.118L1259.01 206.138Z" fill="#091629"/>
<path d="M1286.29 206.196H1289.42V208.3C1291.31 207.354 1294.26 205.945 1296.89 205.945H1298.47C1303.37 205.945 1305.9 206.929 1305.9 212.567V230.271H1302.78V213.088C1302.78 209.439 1301.44 208.706 1297.97 208.706H1296.39C1294.11 208.706 1291.37 210.038 1289.43 210.713V230.252H1286.31V206.196H1286.29Z" fill="#091629"/>
<path d="M1338.59 230.078C1338.59 230.078 1333.92 230.426 1327.64 230.426C1322.66 230.464 1320.13 229.093 1320.13 223.417V213.667C1320.13 208.609 1323.32 206.061 1328.3 206.061H1333.07C1338.09 206.061 1340.64 208.59 1340.64 213.667V219.73C1340.64 220.039 1340.56 220.154 1340.21 220.154H1323.28V223.031C1323.28 227.066 1324.36 227.761 1328.09 227.761H1338.65L1338.61 230.078H1338.59ZM1337.82 214.401C1337.82 209.845 1336.56 208.725 1332.84 208.725H1328.88C1325.02 208.725 1323.26 209.362 1323.26 214.401V217.625L1337.82 217.587V214.401Z" fill="#091629"/>
<path d="M1354.79 206.196H1357.92V208.937C1359.81 207.817 1362.76 206.022 1365.39 206.022H1368.36V208.86H1364.89C1362.61 208.86 1359.87 210.231 1357.94 211.273V230.252H1354.81V206.196H1354.79Z" fill="#091629"/>
<path fill-rule="evenodd" clip-rule="evenodd" d="M70.0272 140.032H56.2032C46.1055 74.5046 97.9262 6.96972 166.293 0C166.293 1.1391 166.332 2.27819 166.351 3.41729C166.428 6.35191 166.506 9.26722 166.062 12.1053C165.868 13.3602 163.165 14.8082 161.428 15.1751C124.628 23.1294 97.5787 43.8069 80.7814 77.4778C71.6297 95.8192 68.193 115.454 70.0079 135.958C70.0852 136.711 70.0658 137.464 70.0465 138.391C70.0465 138.873 70.0272 139.414 70.0272 140.032ZM94.7598 74.1764L99.2005 79.2541L104.24 85.0268C123.586 61.2216 148.106 46.8188 178.148 42.8802C208.267 38.9223 236.012 46.0079 261.092 64.1369C262.868 62.2835 264.567 60.5072 266.247 58.7503C267.869 57.0706 269.452 55.4103 271.035 53.7499C218.616 10.7538 134.32 20.9092 94.7791 74.1571L94.7598 74.1764ZM78.9279 208.223L76.7655 210.192C75.9353 210.945 75.105 211.717 74.2555 212.47C22.0294 172.853 9.92375 91.2242 53.2492 36.0649C53.4616 36.1229 53.6161 36.1615 53.7512 36.2001C53.9443 36.2387 54.0601 36.2773 54.1567 36.3545C60.8949 41.9149 62.0147 48.3633 57.5161 55.6999C32.7642 95.993 37.6104 151.596 69.0426 187.333C72.3248 191.059 75.7615 194.612 79.2947 198.261C80.9165 199.94 82.5769 201.659 84.2181 203.396C82.6735 204.806 81.0324 206.312 79.3333 207.856L79.063 208.107L78.9665 208.204H78.9472L78.9279 208.223ZM179.557 54.7152C241.051 53.441 297.563 100.8 306.947 161.501C307.082 162.369 307.043 163.238 307.004 164.397C306.985 165.034 306.966 165.748 306.966 166.578C305.865 166.578 304.745 166.598 303.626 166.636C300.73 166.694 297.814 166.771 294.957 166.405C293.779 166.269 292.312 163.933 291.983 162.389C281.403 115.338 253.041 85.0075 206.317 73.018C197.938 70.8556 189.153 70.2957 179.924 69.6779C175.677 69.4076 171.332 69.118 166.872 68.674C165.463 55.8543 166.351 55.0048 179.519 54.7345L179.557 54.7152ZM166.911 68.6547C166.911 68.8284 166.93 68.9829 166.95 69.1373C166.95 69.1373 166.95 69.1567 166.95 69.176V69.2339C166.911 69.176 166.795 69.0022 166.467 68.6161C166.525 68.6161 166.602 68.6161 166.66 68.6161H166.737H166.853L166.911 68.6547ZM231.764 94.1781L229.988 96.0895C227.555 98.7345 225.026 101.476 222.188 104.546C245.53 123.872 260.03 148.237 263.988 178.317C267.946 208.493 260.841 236.121 242.846 261.123C245.067 263.286 247.171 265.351 249.237 267.398C250.531 268.672 251.824 269.927 253.099 271.182C295.69 219.556 286.693 135.012 231.745 94.1781H231.764ZM251.535 167.582H236.726C238.715 186.445 236.765 204.4 229.833 221.448C214.079 260.081 185.6 283.789 144.688 292.226C141.503 292.883 140.306 294.041 140.479 297.188C140.615 299.447 140.576 301.706 140.557 304.254C140.557 305.432 140.537 306.668 140.537 308C174.267 303.096 201.548 288.23 222.748 262.591C245.569 235.021 254.778 203.242 251.573 167.582H251.535ZM203.363 223.437L203.402 223.475L203.556 223.61C206.8 226.564 209.85 229.344 212.843 232.086C169.981 287.921 86.5929 295.045 36.2395 253.613C39.0777 250.331 41.7035 247.3 44.4065 244.191L44.4644 244.133L45.507 242.917C71.0119 260.892 98.5054 268.19 128.799 264.116C158.918 260.061 183.11 245.446 202.321 222.491L203.363 223.437ZM139.572 250.891V238.438C135.363 238.032 131.173 237.781 127.022 237.55C118.102 237.029 109.375 236.527 101.073 234.441C54.0794 222.587 25.3889 192.295 14.9243 144.935C14.2293 141.769 13.1481 140.514 9.96237 140.707C7.6455 140.842 5.34794 140.804 3.01176 140.785C2.00778 140.785 1.0038 140.765 0.0191345 140.765C4.86525 206.543 72.7882 261.509 139.591 250.91L139.572 250.891Z" fill="url(#paint0_linear_2_2)"/>
</g>
<defs>
<linearGradient id="paint0_linear_2_2" x1="-53.655" y1="179.726" x2="374.657" y2="126.475" gradientUnits="userSpaceOnUse">
<stop stop-color="#8F2545"/>
<stop offset="0.52" stop-color="#CE4258"/>
<stop offset="0.97" stop-color="#F8AA3C"/>
</linearGradient>
<clipPath id="clip0_2_2">
<rect width="1369" height="308" fill="white"/>
</clipPath>
</defs>
</svg>
