<svg width="280" height="288" viewBox="0 0 280 288" fill="none" xmlns="http://www.w3.org/2000/svg">
<path d="M149.374 0C146.473 0 143.691 1.14873 141.639 3.19347C139.588 5.23822 138.436 8.01149 138.436 10.9032C138.436 13.7949 139.588 16.5682 141.639 18.6129C143.691 20.6577 146.473 21.8064 149.374 21.8064C152.275 21.8064 155.057 20.6577 157.108 18.6129C159.159 16.5682 160.312 13.7949 160.312 10.9032C160.312 8.01149 159.159 5.23822 157.108 3.19347C155.057 1.14873 152.275 0 149.374 0ZM149.374 19.5903C147.65 19.5903 145.965 19.0808 144.531 18.1262C143.098 17.1716 141.981 15.8148 141.321 14.2273C140.662 12.6399 140.489 10.8931 140.825 9.2078C141.162 7.52253 141.992 5.97447 143.21 4.75941C144.429 3.54435 145.982 2.71686 147.673 2.38155C149.363 2.04623 151.116 2.21816 152.708 2.87561C154.301 3.53306 155.662 4.64649 156.62 6.07511C157.578 7.50373 158.089 9.18337 158.09 10.9016C158.087 13.2051 157.168 15.4136 155.534 17.0425C153.9 18.6714 151.685 19.5876 149.374 19.5903Z" fill="#F8AA3C"/>
<path d="M251.534 231.9C251.625 231.784 251.692 231.651 251.73 231.509C251.769 231.366 251.778 231.218 251.759 231.072C251.739 230.926 251.69 230.785 251.614 230.658C251.539 230.531 251.439 230.421 251.321 230.333C251.202 230.245 251.067 230.182 250.923 230.147C250.78 230.112 250.631 230.105 250.485 230.129C250.339 230.152 250.199 230.204 250.073 230.282C249.948 230.36 249.839 230.462 249.754 230.582C237.065 247.673 220.541 261.568 201.501 271.153C182.461 280.739 161.436 285.75 140.105 285.786H139.548C63.8296 285.786 2.22548 224.378 2.22548 148.9C2.22548 73.4215 63.8281 12.0112 139.546 12.0112C139.841 12.0108 140.123 11.8943 140.331 11.687C140.539 11.4798 140.656 11.1988 140.657 10.9056C140.657 10.6122 140.54 10.3308 140.332 10.1232C140.124 9.91558 139.842 9.79876 139.548 9.79834C62.5993 9.79834 0 72.1975 0 148.897C0 225.596 62.6009 287.996 139.547 287.996C161.289 287.888 182.712 282.768 202.139 273.037C221.566 263.305 238.472 249.226 251.534 231.9Z" fill="#F8AA3C"/>
<path d="M272.837 186.39C273.116 186.461 273.41 186.421 273.66 186.278C273.909 186.136 274.093 185.903 274.174 185.629C283.803 150.841 279.465 113.683 262.081 82.0278C244.696 50.3729 215.631 26.7086 181.043 16.0491C180.765 15.9743 180.469 16.0097 180.217 16.1478C179.965 16.2859 179.776 16.516 179.69 16.7898C179.605 17.0636 179.629 17.3598 179.758 17.6162C179.887 17.8726 180.11 18.0692 180.382 18.1649C214.356 28.7509 242.889 52.0567 259.98 83.1814C277.071 114.306 281.388 150.824 272.024 185.057C271.956 185.34 272.003 185.639 272.155 185.888C272.307 186.138 272.551 186.317 272.834 186.389L272.837 186.39Z" fill="#F8AA3C"/>
</svg>
