<svg width="63" height="80" viewBox="0 0 63 80" fill="none" xmlns="http://www.w3.org/2000/svg">
<path fill-rule="evenodd" clip-rule="evenodd" d="M57.1423 72.8579C57.1423 73.6465 56.5026 74.2863 55.714 74.2863H7.14127C6.35264 74.2863 5.71289 73.6465 5.71289 72.8579V7.14224C5.71289 6.35362 6.35264 5.71387 7.14127 5.71387H14.2844V8.57123H8.57025V71.4277H54.2838V65.7136H57.1411L57.1423 72.8579Z" fill="black"/>
<path fill-rule="evenodd" clip-rule="evenodd" d="M51.4285 78.5716C51.4285 79.3608 50.7888 79.9999 49.9995 79.9999H1.42837C0.639156 79.9999 0 79.3608 0 78.5716V12.8574C0 12.0682 0.639156 11.4285 1.42837 11.4285H8.57147V14.2858H2.85675V77.1438H48.5718V71.4291H51.4291L51.4285 78.5716Z" fill="black"/>
<path fill-rule="evenodd" clip-rule="evenodd" d="M52.8565 17.1432C53.6457 17.1432 54.2849 16.5035 54.2849 15.7143C54.2849 14.9256 53.6457 14.2859 52.8565 14.2859H21.4283C20.6391 14.2859 19.9993 14.9256 19.9993 15.7143C19.9993 16.5035 20.6391 17.1432 21.4283 17.1432H52.8565ZM41.4277 25.7147C42.2169 25.7147 42.8567 25.075 42.8567 24.2857C42.8567 23.4971 42.2169 22.8574 41.4277 22.8574H21.4286C20.6394 22.8574 19.9996 23.4971 19.9996 24.2857C19.9996 25.075 20.6394 25.7147 21.4286 25.7147H41.4277ZM47.1424 34.2862C47.931 34.2862 48.5708 33.6464 48.5708 32.8572C48.5708 32.0686 47.931 31.4288 47.1424 31.4288H21.428C20.6388 31.4288 19.999 32.0686 19.999 32.8572C19.999 33.6464 20.6388 34.2862 21.428 34.2862H47.1424ZM35.7136 42.8577C36.5028 42.8577 37.142 42.2179 37.142 41.4287C37.142 40.6401 36.5028 40.0003 35.7136 40.0003H21.428C20.6388 40.0003 19.999 40.6401 19.999 41.4287C19.999 42.2179 20.6388 42.8577 21.428 42.8577H35.7136Z" fill="black"/>
<path fill-rule="evenodd" clip-rule="evenodd" d="M11.4272 1.42838V67.1425C11.4272 67.9317 12.067 68.5715 12.8562 68.5715H61.4274C62.2166 68.5715 62.8558 67.9317 62.8558 67.1425V1.42838C62.8558 0.639157 62.2166 0 61.4274 0H12.8562C12.067 0 11.4272 0.639157 11.4272 1.42838ZM14.2846 2.85675H59.9996V65.7147H14.2846V2.85675Z" fill="black"/>
</svg>
