<svg width="280" height="279" viewBox="0 0 280 279" fill="none" xmlns="http://www.w3.org/2000/svg">
<path d="M34.7789 217.03C31.8775 217.03 29.0949 218.178 27.0433 220.223C24.9917 222.269 23.8391 225.042 23.8391 227.934C23.8391 230.826 24.9917 233.6 27.0433 235.645C29.0949 237.69 31.8775 238.839 34.7789 238.839C37.6803 238.839 40.4629 237.69 42.5145 235.645C44.5661 233.6 45.7187 230.826 45.7187 227.934C45.7187 225.042 44.5661 222.269 42.5145 220.223C40.4629 218.178 37.6803 217.03 34.7789 217.03ZM34.7789 236.62C33.0553 236.62 31.3703 236.11 29.9372 235.156C28.504 234.201 27.3869 232.845 26.7273 231.257C26.0677 229.67 25.8951 227.923 26.2313 226.238C26.5675 224.553 27.3974 223.005 28.6161 221.79C29.8349 220.575 31.3877 219.748 33.0782 219.413C34.7687 219.077 36.5209 219.249 38.1134 219.907C39.7059 220.564 41.067 221.677 42.0248 223.106C42.9825 224.534 43.4938 226.214 43.4939 227.932C43.4912 230.235 42.5723 232.443 40.9386 234.072C39.305 235.7 37.0894 236.617 34.7789 236.62Z" fill="#F8AA3C"/>
<path d="M56.177 250.653C80.1443 268.482 109.236 278.141 139.142 278.199H139.545C216.493 278.199 279.092 215.798 279.092 139.098C279.092 62.3976 216.486 0.00626891 139.548 0C62.5958 0.00470168 -0.00440161 62.4133 0.000315157 139.119C-0.0630749 168.762 9.43769 197.64 27.0998 221.488C27.1848 221.609 27.2929 221.711 27.4179 221.789C27.5428 221.867 27.6821 221.92 27.8276 221.944C27.9715 221.968 28.1188 221.964 28.2609 221.931C28.403 221.898 28.5372 221.837 28.6555 221.752C28.8946 221.58 29.0558 221.321 29.1039 221.032C29.1519 220.742 29.0828 220.445 28.9117 220.206C13.8641 199.816 4.78337 175.665 2.67883 150.439C0.574297 125.213 5.52837 99.8995 16.9905 77.3115C28.4525 54.7235 45.9737 35.746 67.6066 22.4882C89.2394 9.23046 114.137 2.21176 139.531 2.21214H139.548C215.268 2.21214 276.871 63.6184 276.871 139.098C276.871 214.577 215.268 275.983 139.548 275.983H139.154C109.592 275.928 80.8408 266.338 57.1983 248.647C56.9594 248.479 56.6651 248.408 56.3758 248.45C56.0864 248.492 55.8241 248.642 55.6425 248.87C55.5552 248.986 55.4916 249.118 55.4555 249.259C55.4194 249.399 55.4114 249.545 55.432 249.689C55.4525 249.833 55.5014 249.971 55.5755 250.096C55.6497 250.22 55.7478 250.329 55.8642 250.416L56.177 250.653Z" fill="#F8AA3C"/>
</svg>
