<svg width="63" height="80" viewBox="0 0 63 80" fill="none" xmlns="http://www.w3.org/2000/svg">
<g clip-path="url(#clip0_224_106)">
<path d="M31.5626 0C34.2842 1.46528 37.0036 2.93918 39.7316 4.39584C46.8964 8.22065 54.0547 12.0519 61.2389 15.838C62.299 16.3961 62.7171 17.0921 62.7085 18.3009C62.6589 24.7891 62.6912 31.2794 62.6826 37.7698C62.6611 55.4501 52.5786 70.8204 36.3657 77.8904C34.8638 78.5455 33.3705 79.2286 31.8449 79.8212C31.3989 79.9935 30.7804 80.0797 30.3624 79.9095C26.1411 78.1835 21.9801 76.3368 18.2868 73.5937C8.7452 66.5065 2.89055 57.1309 0.929657 45.4065C0.505157 42.8767 0.367248 40.278 0.33708 37.7073C0.255197 31.1674 0.321996 24.6253 0.293984 18.0833C0.289674 17.0791 0.647375 16.4499 1.54163 15.9629C11.1629 10.7181 20.7691 5.44309 30.3775 0.174541C30.4658 0.127135 30.5413 0.0581803 30.6253 0C30.9377 0 31.2502 0 31.5648 0H31.5626ZM59.5861 30.174C59.6228 30.174 59.6594 30.174 59.696 30.174C59.696 26.5259 59.6831 22.8756 59.709 19.2275C59.7133 18.6651 59.5646 18.3505 59.0453 18.0747C49.939 13.2457 40.8435 8.3952 31.7544 3.53391C31.289 3.28395 30.9399 3.27318 30.468 3.53391C21.6203 8.40381 12.764 13.2608 3.89685 18.0984C3.43356 18.3526 3.29565 18.6285 3.29565 19.1327C3.31074 25.5174 3.28919 31.9043 3.31074 38.2891C3.33875 46.7015 5.6832 54.4158 10.4583 61.3543C15.0114 67.9718 21.0988 72.6779 28.4403 75.9037C30.2956 76.7182 31.7415 76.6773 33.586 75.8951C39.9794 73.1821 45.6142 69.4802 50.1006 64.1362C55.8238 57.3183 59.0668 49.4683 59.556 40.5689C59.7456 37.1147 59.5861 33.6411 59.5861 30.174Z" fill="black"/>
<path d="M27.0117 45.6649C28.5826 44.3871 30.1147 43.1438 31.6446 41.8983C35.7646 38.5454 39.8847 35.1925 44.0111 31.8482C44.287 31.6241 44.6102 31.3935 44.9442 31.3159C45.651 31.1565 46.2241 31.4345 46.5732 32.0895C46.918 32.7381 46.7715 33.4298 46.1229 33.9728C44.7826 35.0912 43.4207 36.1794 42.0675 37.2805C37.4626 41.0277 32.8599 44.7771 28.2551 48.5244C28.1344 48.6235 28.0116 48.7205 27.8866 48.8131C27.0139 49.4703 26.2705 49.4143 25.5615 48.5869C23.0016 45.6024 20.4503 42.6115 17.9033 39.6142C17.2461 38.8406 17.2612 37.9636 17.9033 37.3861C18.567 36.7892 19.4979 36.8862 20.168 37.6662C22.1224 39.9352 24.0596 42.2193 26.0033 44.497C26.3222 44.8698 26.6433 45.2383 27.0139 45.6649H27.0117Z" fill="black"/>
</g>
<defs>
<clipPath id="clip0_224_106">
<rect width="62.4123" height="80" fill="white" transform="translate(0.293945)"/>
</clipPath>
</defs>
</svg>
