<svg width="82" height="80" viewBox="0 0 82 80" fill="none" xmlns="http://www.w3.org/2000/svg">
<g clip-path="url(#clip0_224_67)">
<path d="M67.5638 0C68.2507 0.371598 68.3759 0.972835 68.3738 1.70768C68.3571 13.7658 68.3634 25.824 68.3634 37.8821C68.3634 38.189 68.3634 38.4959 68.3634 38.9071C68.7058 38.9071 68.9813 38.9071 69.2569 38.9071C71.6785 38.9071 74.1002 38.8988 76.5218 38.9092C79.1481 38.9217 80.9935 40.763 80.9977 43.3934C81.0082 50.3202 81.0061 57.249 80.9977 64.1758C80.9935 66.8479 79.1627 68.8291 76.4926 68.6788C74.5094 68.5661 73.1837 69.6976 71.6639 70.5305C71.4614 70.6412 71.3445 70.9313 71.2151 71.1526C69.7016 73.7329 68.1901 76.3153 66.6849 78.9019C66.3509 79.4781 66.0315 80.0814 65.234 79.9937C64.4366 79.9081 64.257 79.238 64.0399 78.618C62.9752 75.5742 61.8876 72.5409 60.8563 69.4867C60.6517 68.8834 60.3699 68.7164 59.7498 68.7164C46.1552 68.7352 32.5606 68.731 18.9659 68.7268C18.6048 68.7268 18.229 68.731 17.8845 68.6412C17.2729 68.4805 16.9952 68.0275 17.0641 67.4012C17.1288 66.8062 17.4858 66.4638 18.0808 66.4033C18.3647 66.374 18.6528 66.3887 18.9388 66.3887C32.1952 66.3887 45.4496 66.3887 58.706 66.3887H59.7415C58.9858 64.2321 58.2676 62.1842 57.5495 60.1362C56.2176 60.5412 55.7478 60.2615 55.4848 58.9317C55.1257 57.1196 54.7855 55.3054 54.4347 53.4934C54.4013 53.3201 54.345 53.1531 54.2343 52.7544C53.6915 54.6458 53.2093 56.32 52.7291 57.9943C52.6081 58.4181 52.4974 58.8482 52.3742 59.2719C52.1697 59.9713 51.7146 60.418 50.9755 60.418C50.2428 60.418 49.7814 59.9963 49.5747 59.2845C49.0194 57.3889 48.4537 55.4954 47.89 53.6019C47.8232 53.3807 47.7543 53.1594 47.5602 52.936C47.3013 54.3493 47.0404 55.7605 46.7836 57.1739C46.6625 57.8398 46.5623 58.5079 46.4308 59.1717C46.2658 60.0026 45.7272 60.4347 45.0362 60.3199C44.3724 60.2072 43.9799 59.6582 44.1218 58.8461C44.7314 55.3347 45.3661 51.8295 46.0174 48.3265C46.1448 47.6418 46.6354 47.2326 47.3431 47.2117C48.1322 47.1867 48.5873 47.6522 48.8002 48.3766C49.4265 50.4956 50.0528 52.6145 50.6791 54.7334C50.7459 54.9568 50.8148 55.1802 50.9359 55.5685C51.0569 55.224 51.1363 55.0257 51.1947 54.8211C51.8001 52.7231 52.3993 50.6229 53.0089 48.5269C53.2761 47.6021 53.7667 47.1741 54.4994 47.2013C55.228 47.2284 55.6977 47.696 55.8835 48.6313C56.3219 50.8484 56.7457 53.0675 57.1612 55.2178C58.3052 55.5894 59.3803 55.9401 60.5765 56.3305C60.5765 55.963 60.5765 55.6875 60.5765 55.4119C60.5765 53.2763 60.5765 51.1406 60.5765 49.005C60.5765 48.7962 60.5661 48.5875 60.587 48.3808C60.6621 47.6439 61.1402 47.1846 61.7936 47.2034C62.445 47.2242 62.9063 47.7002 62.9105 48.4518C62.9272 51.055 62.9502 53.6604 62.898 56.2637C62.8834 56.9985 63.1151 57.3033 63.7998 57.5162C65.3802 58.0089 66.9313 58.5914 68.5763 59.1655V49.5394C68.0461 49.5394 67.5096 49.5499 66.9751 49.5373C66.1317 49.5165 65.6307 49.0572 65.6474 48.3369C65.662 47.648 66.1484 47.2055 66.9542 47.2013C68.8561 47.1908 70.7558 47.1888 72.6576 47.2013C73.4551 47.2055 73.9562 47.6626 73.9708 48.339C73.9854 49.0447 73.4656 49.5123 72.6326 49.5394C72.3716 49.5478 72.1128 49.5394 71.8518 49.5394C71.595 49.5394 71.3404 49.5394 70.9688 49.5394V60.0089C73.4008 60.8627 75.9811 61.7708 78.6637 62.7124C78.6637 62.3637 78.6637 62.1132 78.6637 61.8627C78.6637 55.8211 78.6637 49.7795 78.6637 43.7379C78.6637 41.9488 77.9602 41.2515 76.1502 41.2515C72.5052 41.2515 68.8582 41.2515 65.2132 41.2515C64.9793 41.2515 64.7372 41.2766 64.5117 41.2307C63.8729 41.1012 63.4825 40.7171 63.5076 40.0407C63.5326 39.3706 63.9293 38.9865 64.5848 38.9238C65.0211 38.8821 65.4637 38.9155 65.9647 38.9155V2.38825H15.9764C15.9764 2.68051 15.9764 2.95817 15.9764 3.23374C15.9764 6.25453 15.9723 9.27533 15.9806 12.2961C15.9806 12.9141 15.8491 13.4506 15.2312 13.7115C14.442 14.0456 13.655 13.4903 13.6425 12.5654C13.6195 10.7951 13.6341 9.02273 13.6341 7.25242C13.6341 5.35059 13.6592 3.44876 13.6216 1.54902C13.6091 0.84549 13.8283 0.342371 14.4337 0L67.5638 0ZM59.445 58.4494C61.541 64.4117 63.5556 70.1506 65.614 76.0105C65.8228 75.689 65.9668 75.4803 66.0941 75.2632C67.1985 73.3801 68.2778 71.4804 69.4197 69.6203C69.7036 69.1569 70.1316 68.7226 70.5951 68.4387C72.499 67.2696 74.4426 66.1653 76.3715 65.0317C76.5573 64.9211 76.7327 64.7895 76.9936 64.6121C71.142 62.5579 65.4115 60.5454 59.445 58.4515V58.4494Z" fill="black"/>
<path d="M0.993433 42.3476C1.07694 42.166 1.17088 41.9865 1.24186 41.8007C1.91199 40.0095 3.44013 38.9218 5.37328 38.9093C7.81998 38.8947 10.2688 38.9051 12.7155 38.9051C12.9931 38.9051 13.2729 38.9051 13.634 38.9051C13.634 38.5168 13.634 38.2099 13.634 37.9052C13.634 31.5254 13.634 25.1477 13.634 18.7679C13.634 18.5069 13.6173 18.2439 13.6486 17.9871C13.7217 17.3942 14.0724 17.0372 14.6611 16.9746C15.2874 16.9078 15.7279 17.2042 15.8991 17.8055C15.9826 18.0977 15.9722 18.4213 15.9722 18.7324C15.9763 25.1122 15.9743 31.4899 15.9743 37.8697V38.903C16.3542 38.903 16.682 38.903 17.0097 38.903C30.8089 38.903 44.6082 38.903 58.4074 38.903C58.6934 38.903 58.9836 38.8822 59.2654 38.9177C59.9293 38.9991 60.3176 39.4145 60.3259 40.0617C60.3343 40.713 59.9397 41.1264 59.2863 41.2287C59.0065 41.2725 58.7143 41.2474 58.4283 41.2474C40.9569 41.2474 23.4876 41.2474 6.01627 41.2474C3.95787 41.2474 3.33366 41.8758 3.33366 43.953C3.33366 50.5917 3.33366 57.2324 3.33366 63.8711C3.33366 65.6539 4.05807 66.3804 5.83882 66.3825C8.02665 66.3867 10.2124 66.3825 12.4002 66.3846C13.3522 66.3846 13.8574 66.7771 13.8804 67.5015C13.9033 68.2467 13.348 68.7185 12.394 68.7227C10.3898 68.7332 8.38364 68.7269 6.37951 68.7269C3.21049 68.7269 2.1458 68.0234 0.989258 65.1612C0.993433 57.5581 0.993433 49.9529 0.993433 42.3476Z" fill="black"/>
<path d="M37.1073 18.0768C37.1073 21.5632 37.1073 25.0495 37.1073 28.538C37.1073 29.755 36.7336 30.1392 35.5374 30.1392C30.7505 30.1433 25.9615 30.1433 21.1745 30.1392C20.0263 30.1392 19.613 29.7279 19.613 28.5901C19.6088 21.5653 19.6088 14.5383 19.613 7.51345C19.613 6.41118 20.0222 5.99783 21.1223 5.99574C25.9615 5.98948 30.8027 5.98739 35.6418 5.99574C36.7128 5.99574 37.1052 6.39865 37.1052 7.46126C37.1115 10.9998 37.1052 14.5383 37.1073 18.0768ZM34.7232 8.41113H22.0117V27.753H34.7232V8.41113Z" fill="black"/>
<path d="M51.3117 13.722C48.2387 13.722 45.1657 13.7241 42.0948 13.722C40.836 13.722 40.4706 13.3545 40.4664 12.0915C40.4602 10.5822 40.4581 9.07073 40.4664 7.56137C40.4727 6.3756 40.836 5.99565 41.9946 5.99565C48.27 5.98939 54.5454 5.99148 60.8208 5.99565C61.9774 5.99565 62.3803 6.40065 62.3845 7.54258C62.3907 9.05194 62.3886 10.5634 62.3845 12.0727C62.3803 13.3504 61.9982 13.7241 60.6851 13.7241C57.5599 13.7261 54.4348 13.7241 51.3117 13.7241V13.722ZM42.8526 11.3295H60.0025V8.3839H42.8526V11.3295Z" fill="black"/>
<path d="M39.688 52.9986C41.0742 54.2511 41.6608 55.7146 41.1347 57.4682C40.6524 59.0736 39.5439 60.1299 37.8634 60.3157C36.4229 60.4744 34.9553 60.4326 33.5002 60.4138C32.7758 60.4034 32.3479 59.942 32.3458 59.2009C32.3353 55.6102 32.327 52.0174 32.3479 48.4267C32.352 47.6083 32.8113 47.2117 33.6443 47.1991C34.6067 47.1845 35.5712 47.1887 36.5336 47.197C39.4625 47.22 41.1785 49.9945 39.8905 52.6144C39.8341 52.7293 39.7736 52.8399 39.6901 53.0006L39.688 52.9986ZM34.734 58.0277C35.6922 58.0277 36.6004 58.0945 37.4939 58.0089C38.3874 57.9233 38.9782 57.1509 38.9677 56.2866C38.9573 55.4557 38.3769 54.6812 37.5314 54.5998C36.615 54.51 35.6818 54.5789 34.734 54.5789V58.0277ZM34.7215 52.1823C35.4584 52.1823 36.1536 52.224 36.8425 52.1698C37.4897 52.1197 37.9991 51.533 37.9949 50.9068C37.9886 50.2366 37.6463 49.7001 36.997 49.6041C36.2517 49.4934 35.4793 49.579 34.7236 49.579V52.1823H34.7215Z" fill="black"/>
<path d="M46.6649 35.7966C42.0074 35.7966 37.352 35.7966 32.6945 35.7966C32.4607 35.7966 32.2227 35.8154 31.9931 35.7778C31.4106 35.6818 31.0578 35.3206 31.0056 34.7361C30.9534 34.1474 31.2373 33.7236 31.801 33.5441C32.0661 33.4606 32.3626 33.4564 32.6465 33.4564C42.0116 33.4522 51.3767 33.4522 60.7439 33.4543C60.9255 33.4543 61.1113 33.4439 61.2888 33.4689C61.9422 33.5629 62.4056 34.0889 62.3722 34.6881C62.3388 35.3081 61.867 35.7737 61.1802 35.7862C59.9589 35.8091 58.7356 35.7945 57.5122 35.7945C53.8965 35.7945 50.2807 35.7945 46.6649 35.7945V35.7966Z" fill="black"/>
<path d="M19.7658 52.2848C19.7658 51.0614 19.7574 49.8381 19.7678 48.6147C19.7762 47.7191 20.248 47.1805 20.9745 47.1993C21.6759 47.216 22.1018 47.7254 22.1039 48.5959C22.1122 50.8861 22.1749 53.1804 22.0851 55.4684C22.0183 57.2158 23.5444 58.08 24.68 58.0884C26.2332 58.0988 27.348 57.0091 27.3522 55.4747C27.3585 53.2096 27.3501 50.9445 27.3564 48.6794C27.3585 47.7337 27.7614 47.2181 28.4816 47.1993C29.229 47.1784 29.6883 47.7254 29.6924 48.692C29.7008 51.0343 29.7237 53.3787 29.6883 55.721C29.6465 58.4245 27.4169 60.4683 24.6049 60.4328C22.3064 60.4036 19.6718 58.5664 19.7574 55.6438C19.7908 54.5248 19.7637 53.4058 19.7637 52.2848H19.7658Z" fill="black"/>
<path d="M12.8242 47.0636C14.177 47.2264 15.3565 47.6628 16.4212 48.4164C17.1122 48.9049 17.2646 49.5792 16.845 50.1596C16.4462 50.7128 15.8325 50.7545 15.1143 50.3621C14.5736 50.0656 14.0058 49.7358 13.4129 49.6356C12.8555 49.5416 12.2063 49.6168 11.6844 49.8318C11.367 49.9612 11.0518 50.4894 11.0414 50.8485C11.033 51.1387 11.4192 51.5687 11.7345 51.719C12.7407 52.1992 13.8117 52.5436 14.8262 53.0071C16.2813 53.673 17.3523 54.6855 17.4086 56.412C17.4796 58.5414 15.6989 60.2846 13.2522 60.4077C11.4338 60.4996 9.82011 59.8984 8.50699 58.5998C7.90576 58.007 7.86818 57.3139 8.3713 56.8128C8.8598 56.3285 9.5007 56.3431 10.1082 56.9026C11.1082 57.8274 12.2585 58.2596 13.6112 57.9798C14.3398 57.8274 14.9432 57.4308 15.0538 56.6333C15.1644 55.84 14.5611 55.4621 13.962 55.1928C12.9202 54.7252 11.8493 54.3181 10.7888 53.8943C9.47565 53.3703 8.72619 52.4142 8.6573 51.0009C8.58423 49.4957 9.29194 48.3726 10.6155 47.7233C11.2961 47.3893 12.0873 47.2745 12.8284 47.0615L12.8242 47.0636Z" fill="black"/>
<path d="M51.4349 19.3817C48.2867 19.3817 45.1365 19.3817 41.9884 19.3817C40.9988 19.3817 40.4769 18.9725 40.479 18.2168C40.4811 17.4674 41.0176 17.0415 41.9967 17.0415C48.2951 17.0394 54.5914 17.0373 60.8898 17.0415C61.8062 17.0415 62.3511 17.4757 62.3761 18.1834C62.4012 18.9036 61.8542 19.3775 60.9607 19.3796C57.7854 19.3838 54.6102 19.3796 51.437 19.3817H51.4349Z" fill="black"/>
<path d="M51.4058 27.7968C54.5539 27.7968 57.7021 27.7968 60.8523 27.7968C61.8335 27.7968 62.3826 28.2227 62.3784 28.9596C62.3721 29.6924 61.8085 30.1349 60.8419 30.137C54.5456 30.1412 48.2472 30.137 41.9509 30.1412C41.2683 30.1412 40.6984 29.9658 40.5188 29.2185C40.3226 28.4085 40.8675 27.803 41.8069 27.801C44.8256 27.7905 47.8443 27.7968 50.863 27.7968C51.0446 27.7968 51.2284 27.7968 51.41 27.7968H51.4058Z" fill="black"/>
<path d="M51.3892 24.4293C48.3204 24.4293 45.2495 24.4293 42.1786 24.4293C41.9198 24.4293 41.6546 24.4377 41.3999 24.3917C40.8446 24.2915 40.5336 23.9345 40.4876 23.3771C40.4396 22.7884 40.6943 22.35 41.2705 22.1851C41.5878 22.0953 41.9385 22.0891 42.2726 22.0891C48.3601 22.0849 54.4476 22.0849 60.5351 22.0891C60.8712 22.0891 61.2199 22.0932 61.5393 22.1809C62.1134 22.3375 62.4036 22.7801 62.3555 23.3542C62.3096 23.922 61.9756 24.3187 61.3744 24.4001C61.1176 24.4356 60.8545 24.4272 60.5957 24.4272C57.5248 24.4272 54.456 24.4272 51.3851 24.4272L51.3892 24.4293Z" fill="black"/>
<path d="M23.6529 35.7965C22.7406 35.7965 21.8304 35.8069 20.9181 35.7923C20.1353 35.7798 19.6196 35.3059 19.6196 34.6358C19.6196 33.9719 20.1353 33.4709 20.916 33.4604C22.7135 33.4396 24.5089 33.4417 26.3063 33.4584C27.1372 33.4667 27.6549 33.9698 27.6319 34.6734C27.609 35.3581 27.1205 35.7819 26.3084 35.7923C25.4232 35.8049 24.5381 35.7944 23.6529 35.7944V35.7965Z" fill="black"/>
</g>
<defs>
<clipPath id="clip0_224_67">
<rect width="80.0125" height="80" fill="white" transform="translate(0.993652)"/>
</clipPath>
</defs>
</svg>
