<svg width="477" height="532" viewBox="0 0 477 532" fill="none" xmlns="http://www.w3.org/2000/svg">
<mask id="mask0_7_72" style="mask-type:alpha" maskUnits="userSpaceOnUse" x="0" y="0" width="477" height="532">
<rect width="477" height="532" fill="#D9D9D9"/>
</mask>
<g mask="url(#mask0_7_72)">
<path opacity="0.05" fill-rule="evenodd" clip-rule="evenodd" d="M16.1299 205.88H-10.7507C-30.3855 78.6551 70.3791 -52.4679 203.318 -66C203.318 -63.7884 203.393 -61.5768 203.431 -59.3651C203.581 -53.6674 203.731 -48.0071 202.867 -42.4968C202.492 -40.0603 197.236 -37.2489 193.857 -36.5367C122.301 -21.0928 69.7034 19.0537 37.0412 84.4278C19.246 120.039 12.5633 158.161 16.0924 197.97C16.2425 199.432 16.205 200.894 16.1674 202.693C16.1674 203.63 16.1299 204.68 16.1299 205.88ZM64.2221 78.0178L72.857 87.8764L82.6556 99.0844C120.273 52.8653 167.953 24.9014 226.369 17.2544C284.936 9.56998 338.885 23.327 387.653 58.5256C391.107 54.927 394.41 51.4783 397.677 48.0672C400.83 44.806 403.909 41.5823 406.987 38.3586C305.059 -45.1208 141.147 -25.4036 64.2597 77.9803L64.2221 78.0178ZM33.4371 338.277L29.2323 342.1C27.618 343.562 26.0036 345.062 24.3518 346.524C-77.2013 269.604 -100.741 111.117 -16.4947 4.02219C-16.0818 4.13465 -15.7814 4.20962 -15.5186 4.28459C-15.1432 4.35956 -14.9179 4.43453 -14.7302 4.58447C-1.62781 15.3802 0.549676 27.9002 -8.19778 42.1446C-56.3275 120.376 -46.9043 228.333 14.2152 297.718C20.5975 304.953 27.2801 311.85 34.1504 318.935C37.304 322.196 40.5327 325.532 43.7238 328.906C40.7204 331.642 37.5293 334.566 34.2255 337.565L33.6999 338.052L33.5122 338.239H33.4746L33.4371 338.277ZM229.11 40.2328C348.683 37.7588 458.571 129.71 476.817 247.563C477.079 249.25 477.004 250.937 476.929 253.186C476.892 254.423 476.854 255.81 476.854 257.422C474.714 257.422 472.537 257.459 470.359 257.534C464.728 257.646 459.059 257.796 453.503 257.084C451.213 256.822 448.359 252.286 447.721 249.287C427.148 157.936 371.997 99.047 281.144 75.7687C264.85 71.5704 247.768 70.4833 229.823 69.2838C221.564 68.759 213.117 68.1967 204.444 67.3345C201.704 42.4444 203.431 40.7951 229.035 40.2703L229.11 40.2328ZM204.519 67.2971C204.519 67.6344 204.557 67.9343 204.594 68.2342C204.594 68.2342 204.594 68.2717 204.594 68.3092V68.4216C204.519 68.3092 204.294 67.9718 203.656 67.2221C203.768 67.2221 203.919 67.2221 204.031 67.2221H204.181H204.407L204.519 67.2971ZM330.625 116.852L327.171 120.563C322.441 125.699 317.523 131.022 312.004 136.982C357.393 174.504 385.588 221.811 393.284 280.213C400.98 338.802 387.165 392.443 352.175 440.986C356.492 445.184 360.584 449.195 364.601 453.169C367.117 455.643 369.632 458.079 372.11 460.516C454.929 360.281 437.434 196.133 330.588 116.852H330.625ZM369.069 259.371H340.274C344.141 295.994 340.349 330.855 326.871 363.954C296.236 438.962 240.861 484.994 161.308 501.375C155.113 502.649 152.785 504.898 153.123 511.008C153.386 515.394 153.311 519.78 153.273 524.728C153.273 527.014 153.236 529.414 153.236 532C218.823 522.479 271.871 493.615 313.093 443.835C357.468 390.306 375.376 328.606 369.144 259.371H369.069ZM275.4 367.815L275.475 367.89L275.775 368.153C282.083 373.888 288.014 379.286 293.833 384.609C210.489 493.015 48.3416 506.847 -49.5699 426.404C-44.0511 420.032 -38.9453 414.147 -33.6893 408.112L-33.5767 407.999L-31.5494 405.638C18.0446 440.536 71.5054 454.706 130.41 446.796C188.977 438.924 236.018 410.548 273.373 365.978L275.4 367.815ZM151.359 421.119V396.941C143.174 396.154 135.028 395.667 126.956 395.217C109.611 394.205 92.642 393.23 76.4986 389.182C-14.8804 366.166 -70.6689 307.352 -91.017 215.401C-92.3686 209.253 -94.471 206.817 -100.666 207.191C-105.171 207.454 -109.638 207.379 -114.181 207.341C-116.133 207.341 -118.085 207.304 -120 207.304C-110.577 335.016 21.4985 441.736 151.396 421.157L151.359 421.119Z" fill="url(#paint0_linear_7_72)"/>
</g>
<defs>
<linearGradient id="paint0_linear_7_72" x1="-224.369" y1="282.949" x2="608.44" y2="179.252" gradientUnits="userSpaceOnUse">
<stop stop-color="#8F2545"/>
<stop offset="0.52" stop-color="#CE4258"/>
<stop offset="0.97" stop-color="#F8AA3C"/>
</linearGradient>
</defs>
</svg>
