<svg width="81" height="80" viewBox="0 0 81 80" fill="none" xmlns="http://www.w3.org/2000/svg">
<g clip-path="url(#clip0_224_80)">
<path d="M34.8893 80H34.2663C34.1809 79.9437 34.0955 79.8812 34.0059 79.8312C26.9309 75.825 19.8643 71.8104 12.7747 67.8312C12.0455 67.4208 11.7538 66.9604 11.7601 66.1167C11.7955 61.2729 11.7705 56.4292 11.7893 51.5854C11.7893 51.0812 11.6476 50.7854 11.2038 50.5271C9.81426 49.7146 8.44967 48.8563 7.08092 48.0083C6.24342 47.4896 6.16842 47.0937 6.78717 46.3104C8.02884 44.7375 9.31634 43.2021 10.5205 41.6021C11.4393 40.3833 12.433 39.2917 13.8393 38.6187C14.0643 38.5104 14.2768 38.1167 14.283 37.85C14.3247 36.2375 14.283 34.6208 14.3143 33.0062C14.3247 32.4708 14.1976 32.2646 13.6247 32.15C6.44551 30.725 1.10592 24.6187 0.61009 17.3208C0.112174 10.0042 4.63717 3.21458 11.6226 0.86875C12.7934 0.477083 14.033 0.285417 15.2413 0C16.2809 0 17.3205 0 18.3601 0C18.5309 0.0479167 18.6997 0.11875 18.8726 0.141667C23.0768 0.7125 26.5309 2.65417 29.2497 5.89792C29.6226 6.34167 29.9726 6.52708 30.5538 6.525C37.1288 6.50417 43.7059 6.57708 50.2788 6.47917C52.9747 6.43958 54.8372 8.26667 54.783 10.9646C54.6872 15.675 54.7559 20.3917 54.7559 25.1042C54.7559 25.4104 54.7559 25.7167 54.7559 26.0687H66.558C66.558 25.7479 66.558 25.4667 66.558 25.1875C66.5601 22.4271 66.5455 19.6667 66.5851 16.9062C66.5913 16.4417 66.7309 15.9187 66.9747 15.5271C68.2872 13.4042 69.6497 11.3104 71.0018 9.2125C71.633 8.22917 72.2372 8.22708 72.8768 9.20625C74.2288 11.275 75.5913 13.3354 76.9018 15.4292C77.1601 15.8417 77.3122 16.3875 77.3226 16.8771C77.3663 18.7771 77.3351 20.6792 77.3309 22.5792C77.3288 23.75 77.3309 24.9229 77.3205 26.0938C77.3163 26.6229 77.0143 26.9396 76.5101 26.9604C75.9955 26.9833 75.7018 26.6562 75.633 26.15C75.6059 25.9458 75.6184 25.7333 75.6205 25.525C75.6247 23.0521 75.6309 20.5771 75.6372 18.1042C75.6372 17.8271 75.6372 17.55 75.6372 17.2542H68.3059V26.0729C69.3226 26.1542 70.3018 26.4688 70.6747 27.4417C71.0163 28.3333 71.0476 29.3437 71.233 30.4021C71.4184 30.4021 71.6997 30.4021 71.9788 30.4021C73.4351 30.4021 74.8893 30.4083 76.3455 30.4021C77.6455 30.3979 78.7601 30.8354 79.5455 31.8833C79.9247 32.3896 80.1413 33.0208 80.4309 33.5938V76.875C79.9163 78.4437 78.8768 79.4854 77.3122 80H46.1226C44.1372 79.375 42.9497 78.1125 42.883 75.9458C42.8768 75.7521 42.8518 75.5583 42.8268 75.2812C42.3976 75.5271 42.0372 75.7229 41.6872 75.9313C39.4226 77.2854 37.158 78.6417 34.8934 79.9979L34.8893 80ZM52.2768 32.0979C50.5913 32.0979 49.0122 32.0958 47.4309 32.0979C45.3809 32.1021 44.5851 32.8917 44.5851 34.9208C44.5851 48.4333 44.5851 61.9479 44.5851 75.4604C44.5851 77.5021 45.3726 78.2854 47.4143 78.2854C56.8997 78.2854 66.3851 78.2854 75.8684 78.2854C77.9643 78.2854 78.7142 77.5292 78.7142 75.4146C78.7142 61.9271 78.7142 48.4396 78.7142 34.9542C78.7142 34.6688 78.7268 34.3792 78.6955 34.0958C78.5955 33.1521 77.9101 32.2479 77.0017 32.2083C75.0413 32.1208 73.0726 32.1812 71.0497 32.1812C71.0497 32.6708 71.0559 33.1375 71.0497 33.6021C71.0268 35.3208 69.9872 36.3833 68.2684 36.3896C63.8518 36.4021 59.433 36.4042 55.0163 36.3896C53.3351 36.3833 52.3226 35.3438 52.2788 33.6458C52.2663 33.1583 52.2788 32.6708 52.2788 32.1L52.2768 32.0979ZM21.483 31.8521C21.483 35.9125 21.4747 39.9479 21.5038 43.9813C21.5038 44.2125 21.7643 44.5292 21.9893 44.6562C25.9788 46.9375 29.9872 49.1875 33.9788 51.4667C34.3997 51.7062 34.6955 51.6875 35.1018 51.4437C37.4622 50.0271 39.833 48.6271 42.2226 47.2604C42.7143 46.9792 42.8997 46.675 42.8955 46.1021C42.8684 42.275 42.8726 38.4479 42.8851 34.6208C42.8934 32.0437 44.4955 30.4396 47.0684 30.4021C47.8476 30.3896 48.6268 30.4 49.408 30.4C50.3351 30.4 51.2643 30.4 52.2788 30.4C52.2788 29.8333 52.2288 29.3646 52.2913 28.9104C52.3643 28.3792 52.5309 27.8625 52.6705 27.3417C52.7913 26.8833 53.0413 26.4292 53.0434 25.9708C53.0705 20.9979 53.0622 16.025 53.0601 11.0521C53.0601 8.97083 52.3122 8.2125 50.258 8.2125C44.1247 8.2125 37.9934 8.2125 31.8601 8.2125C31.5872 8.2125 31.3122 8.2125 31.0372 8.2125C31.5247 9.54375 32.0538 10.7583 32.4018 12.0229C32.6038 12.7542 32.8726 12.9896 33.6413 12.9833C38.3955 12.9437 43.1518 12.9625 47.9059 12.9646C49.083 12.9646 49.2684 13.1458 49.2705 14.3104C49.2726 18.0854 49.2705 21.8604 49.2705 25.6354C49.2705 25.8438 49.3372 26.1125 49.2351 26.2458C49.0205 26.525 48.7351 26.8875 48.4413 26.925C48.1997 26.9563 47.833 26.6146 47.6559 26.3479C47.5184 26.1417 47.5705 25.7958 47.5705 25.5104C47.5663 22.2042 47.5684 18.8979 47.5684 15.5917C47.5684 15.3125 47.5684 15.0354 47.5684 14.7375H32.9601C32.9601 14.8792 32.9559 14.9563 32.9601 15.0333C33.2393 20.6063 31.2622 25.2 27.0288 28.8312C26.7997 29.0271 26.6413 29.4333 26.6351 29.7458C26.5976 31.4375 26.6497 33.1312 26.5913 34.8208C26.5788 35.1937 26.3434 35.7042 26.0476 35.8937C25.5038 36.2417 24.9205 35.7542 24.9122 34.9937C24.8955 33.4708 24.908 31.9479 24.908 30.3771C23.7288 30.8854 22.6413 31.3542 21.4851 31.8521H21.483ZM2.29342 16.2333C2.29342 24.2312 8.77259 30.75 16.7434 30.775C24.7393 30.7979 31.2913 24.2542 31.2934 16.2437C31.2934 8.25417 24.7997 1.72917 16.8309 1.71458C8.80384 1.7 2.29134 8.20417 2.29134 16.2333H2.29342ZM34.5309 54.0063C32.6268 56.0271 30.7747 57.9958 28.9184 59.9604C28.1309 60.7958 27.9559 60.8167 26.9955 60.2271C24.2497 58.5417 21.5038 56.8583 18.7559 55.175C18.5663 55.0583 18.3622 54.9667 18.0643 54.8104C18.0643 55.6896 18.0643 56.4604 18.0643 57.2333C18.0643 58.2104 17.8038 58.6167 17.1976 58.6C16.6038 58.5833 16.3601 58.175 16.358 57.1875C16.358 56.1979 16.3684 55.2083 16.3476 54.2188C16.3434 54.0062 16.2913 53.7 16.1497 53.6042C15.3184 53.0479 14.4538 52.5396 13.5413 51.9812C13.5101 52.2 13.483 52.3 13.483 52.3979C13.4809 56.85 13.4684 61.3042 13.5059 65.7562C13.508 66.0417 13.8413 66.4292 14.1226 66.5896C19.7393 69.7958 25.3705 72.9771 30.9976 76.1625C31.8476 76.6437 32.6976 77.125 33.6622 77.6729C33.6622 77.2417 33.6622 76.9625 33.6622 76.6813C33.6622 71.1875 33.6622 65.6917 33.6643 60.1979C33.6643 59.9146 33.6101 59.5667 33.7497 59.3625C33.9288 59.1 34.2997 58.7687 34.5434 58.8021C34.8372 58.8417 35.1434 59.1937 35.3309 59.4833C35.4497 59.6708 35.3684 59.9896 35.3684 60.25C35.3684 65.7188 35.3684 71.1875 35.3684 76.6562V77.6021C35.6622 77.4542 35.8684 77.3625 36.0622 77.25C38.1247 76.0417 40.1747 74.8125 42.2497 73.6312C42.7184 73.3646 42.8893 73.0708 42.8851 72.5312C42.8622 68.5479 42.8726 64.5625 42.8705 60.5792C42.8705 60.3542 42.8476 60.1292 42.8309 59.8208C42.5413 59.975 42.3163 60.0854 42.1018 60.2146C41.0809 60.8187 40.9309 60.8 40.1163 59.9354C39.1705 58.9312 38.2268 57.925 37.2809 56.9229C36.3747 55.9625 35.4643 55.0021 34.5247 54.0083L34.5309 54.0063ZM8.50801 46.8812C14.9518 50.8354 21.3393 54.7542 27.7622 58.6958C29.5747 56.7729 31.3434 54.8937 33.1643 52.9604C26.3143 49.0833 19.5893 45.2792 12.8351 41.4583C11.3726 43.2917 9.96842 45.0542 8.51009 46.8812H8.50801ZM61.7018 34.675C63.8559 34.675 66.0122 34.6792 68.1663 34.6729C69.0497 34.6708 69.3351 34.3875 69.3392 33.5104C69.3476 32.0021 69.3497 30.4937 69.3392 28.9833C69.333 28.1125 69.0434 27.8271 68.1559 27.825C63.8205 27.8187 59.4851 27.8187 55.1497 27.825C54.2643 27.825 53.983 28.1042 53.9747 28.9917C53.9622 30.475 53.9643 31.9562 53.9747 33.4396C53.9809 34.4229 54.2413 34.6708 55.2372 34.6729C57.3913 34.6771 59.5476 34.6729 61.7018 34.6729V34.675ZM42.8768 48.8458C40.4788 50.2562 38.2184 51.5854 35.8934 52.9521C37.7434 54.9146 39.5163 56.7958 41.3018 58.6875C41.7684 58.4042 42.1851 58.1896 42.5559 57.9125C42.7122 57.7938 42.8643 57.5479 42.8643 57.3583C42.883 54.5792 42.8768 51.8 42.8768 48.8438V48.8458ZM16.0122 32.5458C16.0122 35.3729 16.0101 38.15 16.0205 40.9271C16.0205 41.0854 16.0934 41.3187 16.2101 41.3875C17.3559 42.0583 18.5184 42.7021 19.7101 43.3729V32.2729C18.4663 32.3646 17.2851 32.4521 16.0122 32.5458ZM69.0455 15.4167H74.8809C73.8747 13.8708 72.9288 12.4187 71.9413 10.9C70.9622 12.4271 70.0288 13.8833 69.0455 15.4167Z" fill="black"/>
<path d="M54.9376 42.5394C56.5209 42.5394 58.1042 42.5331 59.6876 42.5414C60.6209 42.5456 60.9084 42.8248 60.9105 43.7435C60.9167 46.9414 60.9167 50.1394 60.9105 53.3394C60.9105 54.2248 60.6188 54.5144 59.748 54.5164C56.5292 54.5227 53.3126 54.5227 50.0938 54.5164C49.2584 54.5164 48.9542 54.2248 48.9521 53.3998C48.9417 50.1498 48.9417 46.8998 48.9521 43.6498C48.9542 42.8352 49.2626 42.5519 50.1105 42.5456C51.7188 42.5352 53.3292 42.5414 54.9376 42.5414V42.5394ZM50.7063 44.281V52.7644H59.1355V44.281H50.7063Z" fill="black"/>
<path d="M60.9123 66.6752C60.9123 68.2606 60.9186 69.8481 60.9102 71.4335C60.9061 72.3543 60.6186 72.6397 59.6957 72.6418C56.504 72.6481 53.3102 72.6481 50.1186 72.6418C49.2457 72.6418 48.9519 72.346 48.9498 71.4668C48.9415 68.2689 48.9436 65.0689 48.9498 61.871C48.9498 60.9481 49.2373 60.6606 50.1623 60.6585C53.329 60.6522 56.4957 60.6522 59.6623 60.6585C60.6332 60.6585 60.9061 60.9418 60.9102 61.9168C60.9165 63.5022 60.9102 65.0897 60.9102 66.6752H60.9123ZM50.6873 70.8668H59.1457V62.4189H50.6873V70.8668Z" fill="black"/>
<path d="M69.4687 44.2457C68.2208 44.2457 66.9729 44.2415 65.727 44.2457C65.1291 44.2478 64.675 44.054 64.6812 43.3811C64.6875 42.7561 65.1291 42.5415 65.6854 42.5415C68.2333 42.5353 70.7791 42.5374 73.327 42.5415C73.8833 42.5415 74.327 42.7603 74.3354 43.379C74.3437 44.0478 73.8896 44.2499 73.2896 44.2457C72.0166 44.2395 70.7416 44.2436 69.4687 44.2436V44.2457Z" fill="black"/>
<path d="M69.4768 49.379C68.233 49.379 66.9893 49.3728 65.7476 49.3811C65.1539 49.3853 64.6914 49.1978 64.6851 48.5353C64.6789 47.8728 65.1414 47.6665 65.733 47.6665C68.2455 47.6665 70.758 47.6665 73.2705 47.6665C73.8601 47.6665 74.331 47.8644 74.3351 48.5207C74.3393 49.1769 73.8851 49.3853 73.2851 49.3811C72.0164 49.3728 70.7476 49.379 69.4768 49.379Z" fill="black"/>
<path d="M69.5103 52.8084C70.7541 52.8084 71.9978 52.8147 73.2395 52.8043C73.8249 52.8001 74.3124 52.9647 74.3312 53.6251C74.352 54.3314 73.8562 54.523 73.2332 54.5209C70.7457 54.5168 68.2603 54.5168 65.7728 54.5209C65.1895 54.5209 64.702 54.3584 64.6833 53.6959C64.6624 52.9834 65.1562 52.8001 65.7791 52.8043C67.0228 52.8126 68.2666 52.8064 69.5083 52.8064L69.5103 52.8084Z" fill="black"/>
<path d="M69.479 62.3627C68.2353 62.3627 66.9936 62.3544 65.7499 62.3669C65.1603 62.371 64.6915 62.2044 64.6832 61.5314C64.6749 60.8627 65.1478 60.6585 65.729 60.6564C68.2415 60.6523 70.752 60.6523 73.2645 60.6564C73.8436 60.6564 74.327 60.8481 74.3332 61.5106C74.3395 62.1731 73.8832 62.371 73.2853 62.3648C72.0165 62.3544 70.7478 62.3627 69.479 62.3627Z" fill="black"/>
<path d="M69.608 65.7938C70.8247 65.7938 72.0434 65.798 73.2601 65.7917C73.8518 65.7875 74.3226 65.9792 74.333 66.6355C74.3434 67.2917 73.8914 67.5063 73.2914 67.5063C70.7789 67.5021 68.2664 67.5021 65.7539 67.5063C65.1643 67.5063 64.6893 67.3271 64.6851 66.6646C64.6789 65.95 65.1872 65.7855 65.8018 65.7896C67.0705 65.798 68.3393 65.7917 69.6101 65.7917L69.608 65.7938Z" fill="black"/>
<path d="M69.5936 70.9335C70.8102 70.9335 72.029 70.9419 73.2457 70.9294C73.8352 70.9231 74.3165 71.0898 74.3311 71.7523C74.3477 72.4606 73.8457 72.6481 73.2269 72.646C70.7394 72.6419 68.254 72.644 65.7665 72.646C65.1852 72.646 64.6977 72.4752 64.6811 71.8127C64.6644 71.0981 65.1623 70.9252 65.7832 70.9315C67.0519 70.944 68.3207 70.9356 69.5915 70.9356L69.5936 70.9335Z" fill="black"/>
<path d="M24.9121 39.6541C24.9121 39.3958 24.8183 39.0812 24.9329 38.8916C25.1204 38.5812 25.4017 38.2041 25.7163 38.1187C26.2079 37.9875 26.5475 38.3625 26.5933 38.8625C26.6413 39.375 26.635 39.8958 26.6017 40.4104C26.5683 40.9083 26.285 41.2458 25.7642 41.2437C25.2058 41.2416 24.9329 40.8958 24.9121 40.35C24.9038 40.1187 24.9121 39.8854 24.9121 39.652C24.9121 39.652 24.9142 39.652 24.9163 39.652L24.9121 39.6541Z" fill="black"/>
<path d="M34.5559 9.52077C35.108 9.53327 35.5559 9.98535 35.5038 10.527C35.4475 11.1354 35.085 11.4687 34.4705 11.4416C33.883 11.4166 33.5871 11.0458 33.56 10.4833C33.535 9.9416 34.0059 9.50827 34.5559 9.52077Z" fill="black"/>
<path d="M11.3603 10.8167V20.0375C11.429 20.1062 11.4998 20.1771 11.5686 20.2458C11.6478 20.0687 11.6978 19.8708 11.8103 19.7187C12.7853 18.4042 13.7686 17.0937 14.7582 15.7875C15.404 14.9354 15.8228 14.9062 16.5853 15.675C17.0978 16.1896 17.5873 16.7271 18.3144 17.4937C18.6832 17.0104 18.9603 16.5667 19.3123 16.1979C20.2832 15.1854 21.2873 14.2021 22.2811 13.2104C22.6832 12.8104 23.1394 12.6687 23.579 13.1083C24.0123 13.5417 23.8957 14.0083 23.4936 14.4125C21.9728 15.9437 20.4478 17.4687 18.9228 18.9958C18.4144 19.5042 17.9248 19.4583 17.4394 18.9562C16.9165 18.4146 16.3853 17.8812 15.7853 17.2667C14.5998 18.8417 13.454 20.3625 12.2394 21.975H22.1019C22.0019 21.75 21.804 21.5125 21.8228 21.2958C21.8457 21.0187 21.9769 20.6354 22.1853 20.5167C22.4248 20.3812 22.8811 20.3646 23.0998 20.5104C23.8728 21.0312 24.6061 21.6187 25.3144 22.2292C25.8082 22.6562 25.7686 23.1729 25.2353 23.6271C24.6623 24.1146 24.054 24.5646 23.4644 25.0333C23.0686 25.3479 22.6665 25.6937 22.1582 25.2667C21.629 24.8229 21.7373 24.3271 22.2165 23.75C21.6748 23.75 21.2478 23.75 20.8186 23.75C17.5457 23.75 14.2728 23.75 10.9998 23.75C9.84151 23.75 9.62484 23.5396 9.62484 22.4021C9.62484 18.4729 9.62484 14.5437 9.62484 10.5417C9.42484 10.6479 9.27068 10.7979 9.12901 10.7896C8.79568 10.7687 8.34776 10.775 8.17068 10.5729C7.99359 10.3708 7.94568 9.83333 8.09151 9.60833C8.61859 8.80833 9.23109 8.06041 9.85401 7.32916C10.2165 6.90624 10.7123 6.88749 11.079 7.31041C11.7103 8.03541 12.3248 8.78124 12.8478 9.58541C13.0019 9.82291 12.9353 10.4854 12.7561 10.5937C12.4123 10.8 11.9144 10.7479 11.3561 10.8187L11.3603 10.8167Z" fill="black"/>
<path d="M16.3832 62.5105C16.3832 62.2001 16.2728 61.823 16.4103 61.5939C16.5937 61.2855 16.9749 60.898 17.2603 60.9064C17.5332 60.9147 17.9437 61.348 18.0228 61.6626C18.152 62.1751 18.0666 62.7439 18.0603 63.2897C18.0562 63.8168 17.7603 64.1355 17.2603 64.1647C16.7478 64.1939 16.4437 63.8689 16.377 63.3668C16.3395 63.0855 16.3707 62.796 16.3707 62.5105C16.3749 62.5105 16.3791 62.5105 16.3832 62.5105Z" fill="black"/>
<path d="M54.3792 48.4831C54.8896 47.9227 55.3625 47.4123 55.8271 46.8935C56.2042 46.4727 56.6459 46.281 57.1146 46.681C57.6167 47.1081 57.4917 47.5914 57.0855 48.0394C56.4417 48.7519 55.8042 49.4727 55.1584 50.1831C54.6875 50.6998 54.1938 50.7435 53.6855 50.2248C53.3938 49.9269 53.1 49.6352 52.8042 49.3414C52.4021 48.9456 52.2334 48.4873 52.6605 48.0414C53.1105 47.5706 53.5917 47.7102 54.0167 48.1414C54.1084 48.2331 54.2063 48.3185 54.3792 48.481V48.4831Z" fill="black"/>
<path d="M54.3831 66.6043C54.9186 66.0147 55.3894 65.4959 55.8623 64.9793C56.2498 64.5543 56.7019 64.4147 57.1519 64.8334C57.5998 65.2522 57.4873 65.7147 57.1061 66.1397C56.4644 66.8543 55.8331 67.5814 55.1769 68.2814C54.629 68.8668 54.2415 68.8647 53.6561 68.3084C53.354 68.023 53.0665 67.7209 52.7748 67.4272C52.3665 67.0168 52.2602 66.5543 52.6956 66.1293C53.0936 65.7418 53.5436 65.8209 53.9415 66.1918C54.0706 66.3126 54.1998 66.4334 54.3831 66.6043Z" fill="black"/>
</g>
<defs>
<clipPath id="clip0_224_80">
<rect width="79.8542" height="80" fill="white" transform="translate(0.572754)"/>
</clipPath>
</defs>
</svg>
