<svg width="61" height="80" viewBox="0 0 61 80" fill="none" xmlns="http://www.w3.org/2000/svg">
<g clip-path="url(#clip0_381_865)">
<path d="M8.32323 80.0001C6.91628 79.4114 6.34223 78.3447 6.46121 76.8439C6.50922 76.2552 6.46956 75.6603 6.46956 74.9944C5.66797 74.9944 4.94362 74.9965 4.22136 74.9944C2.44702 74.986 1.46382 74.0133 1.46173 72.241C1.45756 62.503 1.45756 52.7649 1.46799 43.0248C1.46799 42.4842 1.40955 42.0625 0.935691 41.6784C0.313626 41.1712 0.205078 40.4072 0.205078 39.6202C0.213428 33.3181 0.209253 27.0182 0.209253 20.7161C0.209253 16.4201 0.209253 12.1241 0.209253 7.826C0.209253 5.95146 1.16531 5.00792 3.05447 5.00375C3.78299 5.00375 4.50943 5.00375 5.29014 5.00375C5.36529 4.78039 5.44044 4.56747 5.50724 4.35455C6.32761 1.77026 8.68854 0.0147059 11.3668 9.36175e-05C14.0638 -0.0145186 16.4435 1.68259 17.2618 4.27731C17.4413 4.84927 17.6751 5.02253 18.2763 5.02045C23.7705 4.99331 29.2647 5.0121 34.7589 4.99748C35.7254 4.9954 36.5353 5.23128 37.1887 5.99529C37.3473 6.18108 37.7273 6.2437 38.007 6.2437C42.7727 6.25831 47.5363 6.25205 52.3019 6.25414C54.2349 6.25414 55.1764 7.19559 55.1826 9.12649C55.1826 9.80074 55.1826 10.475 55.1826 11.262C55.8945 11.262 56.5583 11.262 57.2242 11.262C59.2678 11.2641 60.1884 12.1763 60.1884 14.2053C60.1884 35.0883 60.18 55.9713 60.2072 76.8543C60.2072 78.3573 59.7396 79.4219 58.3243 80.0001H8.32323ZM57.8003 77.6246V13.6563H55.1805C55.1805 14.0446 55.1889 14.3806 55.1805 14.7146C55.1555 15.5851 54.738 16.0861 54.0283 16.1007C53.2872 16.1174 52.8468 15.606 52.8426 14.6875C52.8342 12.9424 52.8426 11.1973 52.8384 9.45422C52.8384 9.18077 52.8155 8.90522 52.8029 8.63802H37.6438C37.6438 9.00959 37.6438 9.3415 37.6438 9.67341C37.6438 16.9127 37.6438 24.1521 37.6438 31.3914C37.6438 34.151 37.65 36.9127 37.6417 39.6724C37.6375 40.9958 37.0843 41.9247 36.0302 42.2546C35.5459 42.4069 35.0052 42.4216 34.4896 42.4236C24.6201 42.432 14.7505 42.4299 4.88309 42.4299H3.85188V72.6H41.5703C41.5703 72.2702 41.5703 71.9905 41.5703 71.7087C41.5703 69.1578 41.564 66.6048 41.5724 64.054C41.5786 62.3401 42.5263 61.3924 44.2234 61.3883C46.8015 61.382 49.3795 61.3883 51.9575 61.3883C52.2331 61.3883 52.5065 61.3883 52.8426 61.3883C52.8426 60.9374 52.8426 60.6034 52.8426 60.2694C52.8426 47.0933 52.8426 33.9172 52.8426 20.7411C52.8426 20.4552 52.8301 20.1671 52.8551 19.8832C52.9157 19.2069 53.329 18.8311 53.974 18.804C54.594 18.7768 55.0031 19.1463 55.143 19.7496C55.2056 20.0231 55.1847 20.3195 55.1847 20.6055C55.1847 34.0675 55.1785 47.5317 55.1973 60.9937C55.1973 62.384 54.7485 63.5008 53.7569 64.4777C50.7155 67.4753 47.6928 70.4917 44.6973 73.5373C43.7016 74.5497 42.5785 75.0173 41.1528 75.0152C30.7113 74.9902 20.2677 75.0027 9.8262 75.0027C9.50265 75.0027 9.17909 75.0027 8.87014 75.0027V77.6329H57.8045L57.8003 77.6246ZM35.2494 7.34797H34.285C27.5404 7.34797 20.7937 7.41059 14.0512 7.2937C12.78 7.27073 10.9764 8.34369 10.2374 6.19778C10.9326 4.00803 12.7549 5.3941 14.022 5.01836C14.3184 4.93069 14.6629 5.00583 15.0156 5.00583C14.3664 3.16052 12.6631 2.11261 10.8866 2.37354C8.97243 2.65744 7.58218 4.22303 7.56965 6.22283C7.5446 10.3623 7.54252 14.5038 7.56965 18.6453C7.58427 20.8747 9.26259 22.528 11.4169 22.5259C13.5774 22.5259 15.1973 20.8831 15.2307 18.6286C15.2536 17.0672 15.2432 15.5037 15.2327 13.9423C15.2265 12.9591 14.6983 12.3495 13.8968 12.3641C13.1035 12.3767 12.5879 12.9967 12.5712 13.9778C12.5608 14.6812 12.5817 15.3847 12.5629 16.0861C12.5441 16.8585 12.1329 17.3198 11.4732 17.3532C10.7781 17.3887 10.2667 16.919 10.2374 16.1383C10.204 15.2553 10.1832 14.3639 10.2479 13.483C10.3982 11.4728 12.0347 9.97818 13.9782 10.0158C15.9801 10.0533 17.5331 11.621 17.5686 13.6918C17.5978 15.4369 17.6062 17.182 17.5582 18.9251C17.4956 21.1524 16.4518 22.862 14.5627 24.008C10.4712 26.4879 5.30058 23.5446 5.22961 18.6829C5.17742 15.1948 5.21917 11.7045 5.21708 8.21427C5.21708 7.94081 5.21708 7.66735 5.21708 7.39389H2.59314V40.0272H35.2474V7.34797H35.2494ZM43.9312 70.5564C46.194 68.2957 48.4986 65.989 50.6925 63.7951H43.9312V70.5564Z" fill="black"/>
<path d="M32.7277 52.6167C37.1281 52.6167 41.5285 52.6167 45.9289 52.6208C46.2649 52.6208 46.6824 52.5624 46.9141 52.7315C47.2335 52.9674 47.6114 53.4016 47.6009 53.7376C47.5884 54.1134 47.2294 54.5518 46.9037 54.8169C46.6845 54.9943 46.2587 54.9525 45.9247 54.9525C37.1239 54.9588 28.3232 54.9567 19.5245 54.9567C19.3951 54.9567 19.2636 54.9609 19.1342 54.9567C18.2887 54.9191 17.7627 54.4641 17.7627 53.7731C17.7627 53.078 18.2825 52.6208 19.1383 52.6208C23.6681 52.6125 28.2 52.6167 32.7298 52.6167H32.7277Z" fill="black"/>
<path d="M32.6985 46.3543C37.0718 46.3543 41.4471 46.3543 45.8203 46.3543C46.1063 46.3543 46.3965 46.3459 46.6783 46.3877C47.2816 46.4753 47.6051 46.8824 47.6385 47.4502C47.6719 48.0242 47.3818 48.4626 46.7994 48.6108C46.503 48.686 46.1815 48.6922 45.8725 48.6922C37.0989 48.6964 28.3253 48.6964 19.5517 48.6943C19.3951 48.6943 19.2386 48.7006 19.0841 48.6901C18.2554 48.64 17.7293 48.1495 17.7627 47.4585C17.794 46.7926 18.2929 46.3585 19.1112 46.3564C23.641 46.348 28.1708 46.3522 32.7027 46.3501L32.6985 46.3543Z" fill="black"/>
<path d="M27.7303 58.879C30.4357 58.879 33.141 58.879 35.8443 58.879C36.0781 58.879 36.3139 58.8727 36.5457 58.8936C37.1802 58.952 37.5539 59.3236 37.604 59.9415C37.6583 60.6053 37.3013 61.0437 36.6605 61.1752C36.2847 61.2524 35.8839 61.219 35.4957 61.219C30.1893 61.2211 24.883 61.219 19.5787 61.219C19.3449 61.219 19.1091 61.2336 18.8774 61.2065C18.2073 61.1271 17.748 60.6303 17.7585 60.0187C17.7689 59.3946 18.2282 58.9291 18.9149 58.8873C19.3825 58.8602 19.8501 58.8748 20.3198 58.8748C22.7914 58.8748 25.2608 58.8748 27.7324 58.8748L27.7303 58.879Z" fill="black"/>
<path d="M11.4126 58.8854C11.828 58.8854 12.2455 58.8666 12.6588 58.8896C13.3623 58.9313 13.8006 59.3634 13.809 60.0064C13.8173 60.6869 13.4416 61.1315 12.8049 61.1816C11.876 61.2568 10.9345 61.2526 10.0056 61.1795C9.36059 61.1294 8.97232 60.6535 9.00154 60.0001C9.03077 59.3593 9.41068 58.9397 10.087 58.8959C10.5275 58.8687 10.97 58.8896 11.4105 58.8896V58.8854H11.4126Z" fill="black"/>
<path d="M45.2482 18.6055C44.8077 18.6055 44.3631 18.6306 43.9248 18.5993C43.2609 18.5533 42.8727 18.1776 42.8351 17.5075C42.7975 16.8291 43.1733 16.3698 43.812 16.3156C44.7389 16.2363 45.6824 16.2404 46.6113 16.3072C47.2584 16.3531 47.6258 16.8166 47.6446 17.472C47.6613 18.0941 47.1749 18.5617 46.4944 18.6013C46.0811 18.6264 45.6636 18.6055 45.2482 18.6034V18.6055Z" fill="black"/>
<path d="M45.196 24.8658C44.7806 24.8658 44.3652 24.8825 43.9498 24.8617C43.3235 24.8303 42.9248 24.5005 42.8455 23.8722C42.762 23.2105 43.0688 22.6719 43.716 22.6114C44.7159 22.5153 45.7366 22.5258 46.7386 22.6093C47.3502 22.6615 47.6842 23.175 47.6362 23.7887C47.5861 24.4296 47.1999 24.8345 46.5194 24.8637C46.079 24.8825 45.6364 24.8679 45.196 24.8679V24.8658Z" fill="black"/>
<path d="M11.4523 52.6333C11.8928 52.6333 12.3374 52.602 12.7758 52.6417C13.4041 52.698 13.7652 53.0759 13.8049 53.7063C13.8446 54.3388 13.5273 54.8335 12.9156 54.8836C11.9136 54.9671 10.895 54.965 9.89298 54.8794C9.27718 54.8272 8.95571 54.3054 9.00372 53.6958C9.05174 53.0947 9.41287 52.6834 10.0537 52.6396C10.5192 52.6083 10.9868 52.6333 11.4544 52.6354L11.4523 52.6333Z" fill="black"/>
<path d="M45.217 31.1261C44.7766 31.1261 44.3319 31.1574 43.8956 31.1198C43.2318 31.0635 42.8561 30.6773 42.8352 30.0051C42.8164 29.3705 43.1546 28.9071 43.7704 28.8633C44.7494 28.7923 45.741 28.7923 46.72 28.8695C47.34 28.9196 47.6698 29.4206 47.6385 30.0322C47.6072 30.6355 47.2586 31.0593 46.6177 31.1156C46.1543 31.1553 45.6846 31.124 45.217 31.124C45.217 31.124 45.217 31.1282 45.217 31.1303V31.1261Z" fill="black"/>
<path d="M11.4438 46.3711C11.8843 46.3711 12.3289 46.3418 12.7673 46.3773C13.3956 46.4295 13.7672 46.8011 13.8047 47.4315C13.8465 48.0974 13.5083 48.5817 12.8508 48.6339C11.8989 48.7069 10.9303 48.709 9.97842 48.638C9.32087 48.59 8.95974 48.0869 9.00358 47.4419C9.04741 46.8032 9.44403 46.3982 10.1204 46.369C10.5608 46.3502 11.0034 46.3648 11.4438 46.3648C11.4438 46.3669 11.4438 46.369 11.4438 46.3711Z" fill="black"/>
<path d="M45.2795 35.0924C45.72 35.0924 46.1646 35.0549 46.6009 35.1008C47.2647 35.1718 47.6446 35.6039 47.6363 36.2531C47.6279 36.8981 47.2522 37.349 46.58 37.3782C45.6741 37.42 44.7639 37.4241 43.858 37.3719C43.1941 37.3344 42.8309 36.9023 42.833 36.2301C42.8351 35.5517 43.2255 35.1655 43.8788 35.0987C44.3402 35.0507 44.8119 35.0903 45.2774 35.0903C45.2774 35.0903 45.2774 35.0924 45.2774 35.0945L45.2795 35.0924Z" fill="black"/>
<path d="M18.8629 31.1449C15.7422 31.1449 12.6193 31.1449 9.49855 31.1449C9.21256 31.1449 8.84934 31.2242 8.65938 31.0802C8.29825 30.8088 7.82022 30.4185 7.79726 30.0511C7.7743 29.6837 8.20849 29.2516 8.51744 28.9155C8.63851 28.784 8.95998 28.8069 9.19169 28.8069C15.6691 28.8028 22.1465 28.8007 28.6239 28.8069C28.8807 28.8069 29.1541 28.8278 29.3879 28.9197C29.9098 29.1221 30.2229 29.573 30.058 30.0865C29.9348 30.4706 29.5716 30.8318 29.223 31.0718C29.0038 31.2221 28.6176 31.1428 28.3066 31.1428C25.1587 31.147 22.0108 31.1449 18.8629 31.1449Z" fill="black"/>
<path d="M25.7287 18.6118C24.7664 18.6118 23.8041 18.6222 22.8417 18.6097C22.0339 18.5992 21.5412 18.1671 21.5225 17.4866C21.5037 16.7894 22.0276 16.2842 22.8564 16.278C24.8332 16.2613 26.81 16.2592 28.7868 16.278C29.6218 16.2863 30.1228 16.7852 30.0957 17.5012C30.0685 18.1963 29.601 18.6013 28.7722 18.6118C27.7577 18.6243 26.7432 18.6138 25.7287 18.6138V18.6118Z" fill="black"/>
<path d="M25.7889 24.87C24.8015 24.87 23.812 24.8804 22.8247 24.8658C22.021 24.8533 21.5304 24.4107 21.5221 23.7281C21.5137 23.056 22.0105 22.5487 22.7954 22.5383C24.7973 22.5132 26.8013 22.5153 28.8032 22.5362C29.6089 22.5445 30.0911 23.0163 30.0974 23.6989C30.1036 24.4233 29.6214 24.8575 28.7531 24.8658C27.7657 24.8783 26.7762 24.8679 25.7889 24.8679V24.87Z" fill="black"/>
</g>
<defs>
<clipPath id="clip0_381_865">
<rect width="60.0021" height="80" fill="white" transform="translate(0.205078)"/>
</clipPath>
</defs>
</svg>
