<svg width="69" height="80" viewBox="0 0 69 80" fill="none" xmlns="http://www.w3.org/2000/svg">
<g clip-path="url(#clip0_381_880)">
<path d="M6.90764 75.2273C5.48742 76.6386 4.14288 78.0344 2.72043 79.3478C2.35981 79.6817 1.70535 79.9777 1.2824 79.8776C0.870578 79.7818 0.554478 79.1764 0.258413 78.749C0.153788 78.5976 0.233926 78.3171 0.233926 78.0945C0.233926 54.407 0.233926 30.7218 0.233926 7.03434C0.236152 3.34131 2.46221 0.638878 5.9727 0.0734598C6.409 0.00222606 6.85867 0.00222606 7.30165 0.00222606C24.794 0 42.2886 0 59.7831 0C64.075 0 66.882 2.80038 66.8843 7.08554C66.8887 13.8884 66.8843 20.6912 66.8843 27.4962C66.8843 28.9098 66.4658 29.3261 65.0478 29.3261C62.1383 29.3261 59.2289 29.3261 56.2704 29.3261V53.3474C56.6956 53.432 57.1475 53.5144 57.5972 53.6101C63.9726 54.9569 68.3223 60.433 68.2266 66.9842C68.1353 73.2261 63.5051 78.6577 57.2766 79.7707C53.9153 80.3717 50.7565 79.7462 47.8582 77.9409C47.3551 77.627 47.0657 77.6114 46.6828 78.0678C46.2732 78.5553 45.7968 78.9871 45.336 79.4279C44.5436 80.187 43.8869 80.1892 43.0966 79.4123C41.712 78.05 40.343 76.672 38.8538 75.1873C38.1949 75.8662 37.5493 76.5385 36.8948 77.2018C36.1936 77.9142 35.488 78.6221 34.7756 79.3255C33.8719 80.2181 33.2508 80.2248 32.3581 79.3389C31.0002 77.9921 29.6513 76.6364 28.2043 75.1917C27.4274 75.982 26.6772 76.75 25.9226 77.5113C25.2771 78.1635 24.6382 78.8202 23.977 79.4546C23.2224 80.1803 22.5546 80.1803 21.8 79.439C20.5912 78.2525 19.4047 77.0438 18.2071 75.8462C18.0134 75.6525 17.8109 75.47 17.5549 75.2273C16.237 76.5407 14.9459 77.8296 13.657 79.1185C12.4839 80.2894 11.9853 80.2938 10.8255 79.1341C9.53439 77.8429 8.24105 76.5541 6.90987 75.2273H6.90764ZM44.1139 76.6364C44.5191 76.3136 44.8552 76.0487 45.1713 75.7972C41.6564 71.6322 40.5411 67.0354 42.431 61.9845C44.3299 56.9091 48.2166 54.1577 53.5569 53.343C53.5569 52.969 53.5569 52.6373 53.5569 52.3079C53.5569 37.7294 53.5635 23.151 53.548 8.57254C53.548 6.5357 53.4968 4.51444 54.9125 2.70243C54.5475 2.68685 54.3338 2.66904 54.1223 2.66904C38.462 2.66904 22.7995 2.66459 7.13915 2.66904C4.5636 2.66904 2.90297 4.3653 2.90297 6.97869C2.90074 29.4997 2.90297 52.0185 2.90297 74.5395C2.90297 74.771 2.93413 75.0047 2.96084 75.4032C3.96702 74.3814 4.85077 73.4665 5.75454 72.5716C6.57373 71.7614 7.22152 71.7658 8.05406 72.5783C8.65064 73.1593 9.23387 73.7559 9.81932 74.348C10.6118 75.1494 11.4043 75.9508 12.2101 76.7678C13.6415 75.3409 14.9771 74.0075 16.315 72.6763C17.2566 71.7391 17.8621 71.7302 18.7903 72.6518C19.7765 73.629 20.7515 74.6174 21.7332 75.5991C22.1161 75.9797 22.5078 76.3515 22.9174 76.7477C24.2865 75.3743 25.5776 74.0765 26.8731 72.7809C27.9594 71.6946 28.4937 71.6946 29.5867 72.7809C30.8978 74.0898 32.2068 75.401 33.5602 76.7522C34.8112 75.5034 36.0044 74.3124 37.1976 73.117C38.758 71.5566 39.0363 71.5588 40.619 73.1437C41.7944 74.3213 42.9742 75.4967 44.1139 76.6342V76.6364ZM44.2252 66.6303C44.2097 72.496 48.9712 77.2864 54.8458 77.3154C60.6936 77.3443 65.5397 72.5427 65.5508 66.7104C65.562 60.8181 60.8094 56.0031 54.9682 55.9875C49.0357 55.9719 44.2408 60.7224 44.2252 66.6303ZM64.2063 26.6303C64.2063 19.803 64.233 13.0669 64.1662 6.32868C64.1596 5.59408 63.7322 4.77044 63.2781 4.14937C62.2741 2.77367 60.4599 2.32845 58.8682 2.89832C57.2588 3.47487 56.2237 4.95297 56.2215 6.7494C56.2125 13.1849 56.217 19.6205 56.2215 26.0538C56.2215 26.2385 56.2548 26.4233 56.2727 26.6281H64.2041L64.2063 26.6303Z" fill="black"/>
<path d="M29.5578 15.9164C30.5194 16.4239 31.3876 16.7957 32.1578 17.3121C32.9725 17.8553 33.4289 18.6945 33.5402 19.6829C33.6359 20.5176 33.184 21.1676 32.4516 21.3034C31.7304 21.437 31.165 20.9606 30.8823 20.1459C30.7509 19.7652 30.4704 19.3334 30.1343 19.1464C28.8877 18.4585 27.5743 18.4674 26.3166 19.1397C26.0094 19.3044 25.6065 19.7096 25.631 19.9678C25.6622 20.295 26.0295 20.7313 26.3522 20.856C27.0089 21.1098 27.7279 21.2589 28.4336 21.3168C29.7025 21.4214 30.9001 21.6885 31.9441 22.4476C34.11 24.0237 34.1034 26.7127 31.8884 28.2153C31.2139 28.6739 30.4081 28.9388 29.5555 29.3439C29.5555 29.6823 29.5756 30.152 29.5511 30.6195C29.511 31.4186 28.9834 31.964 28.2644 31.984C27.5142 32.0063 26.9421 31.4453 26.8998 30.6128C26.8776 30.172 26.8954 29.7268 26.8954 29.2927C26.2298 29.0145 25.5753 28.7985 24.9743 28.4802C23.9214 27.9237 23.1935 27.0756 22.9441 25.8824C22.7527 24.9631 23.1534 24.224 23.9192 24.0326C24.6782 23.8433 25.2659 24.3286 25.5798 25.2591C25.7 25.6131 25.9961 26.0026 26.3188 26.1763C27.5721 26.8552 28.881 26.8508 30.1365 26.1763C30.4437 26.0115 30.8466 25.6064 30.8222 25.3482C30.7888 25.0209 30.4237 24.5913 30.0987 24.46C29.4709 24.2084 28.7653 24.1594 28.1041 23.9836C26.9689 23.6786 25.7178 23.5473 24.7339 22.9707C22.2229 21.4993 22.2875 18.4875 24.7717 16.9604C25.3995 16.5753 26.123 16.3438 26.8998 15.9987C26.8998 15.6337 26.8798 15.1662 26.9043 14.6987C26.9444 13.8973 27.4675 13.3564 28.191 13.3341C28.9456 13.3119 29.5132 13.8684 29.5555 14.7054C29.5778 15.1461 29.56 15.5891 29.56 15.9141L29.5578 15.9164Z" fill="black"/>
<path d="M28.3113 45.3224C33.4201 45.3224 38.5311 45.3224 43.6399 45.3224C43.8892 45.3224 44.1452 45.2979 44.3879 45.3424C45.1047 45.476 45.5387 45.919 45.5387 46.6536C45.5387 47.3904 45.1024 47.8334 44.3856 47.9647C44.1163 48.0137 43.8314 47.987 43.5553 47.987C33.3355 47.987 23.1179 47.987 12.8981 47.987C12.8157 47.987 12.7311 47.987 12.6488 47.987C11.5246 47.9803 10.9058 47.5062 10.9058 46.6536C10.9058 45.7988 11.5224 45.3246 12.651 45.3246C17.8711 45.3246 23.0912 45.3246 28.3135 45.3246L28.3113 45.3224Z" fill="black"/>
<path d="M28.1621 53.3207C23.0533 53.3207 17.9423 53.3207 12.8335 53.3207C12.5842 53.3207 12.3282 53.3452 12.0856 53.3029C11.3688 53.176 10.9458 52.7442 10.9102 52.0074C10.8768 51.315 11.3999 50.7541 12.1301 50.6695C12.3215 50.6472 12.5174 50.6584 12.7133 50.6584C23.0422 50.6584 33.3733 50.6584 43.7022 50.6584C43.9248 50.6584 44.1519 50.6361 44.3678 50.6739C45.0868 50.8008 45.5276 51.2349 45.5387 51.9695C45.5499 52.7063 45.1202 53.156 44.4057 53.2962C44.1385 53.3497 43.8514 53.3207 43.5753 53.3207C38.4376 53.3207 33.2999 53.3207 28.1644 53.3207H28.1621Z" fill="black"/>
<path d="M25.6446 55.9874C29.8652 55.9874 34.0858 55.9874 38.3064 55.9874C38.5557 55.9874 38.8117 55.9629 39.0543 56.0075C39.7711 56.141 40.2052 56.584 40.2052 57.3208C40.2052 58.0577 39.7667 58.4984 39.0521 58.632C38.8095 58.6765 38.5535 58.652 38.3042 58.652C29.8073 58.652 21.3105 58.652 12.8136 58.652C12.5643 58.652 12.3083 58.6765 12.0656 58.6298C11.3511 58.494 10.9148 58.0532 10.917 57.3164C10.917 56.5796 11.3511 56.1388 12.0701 56.0075C12.3127 55.9629 12.5687 55.9874 12.8181 55.9874C17.0943 55.9874 21.3706 55.9874 25.6468 55.9874H25.6446Z" fill="black"/>
<path d="M25.4776 63.9857C21.257 63.9857 17.0364 63.9857 12.8158 63.9857C12.5665 63.9857 12.3105 64.0102 12.0679 63.9657C11.3511 63.8299 10.917 63.3914 10.917 62.6545C10.917 61.9177 11.3511 61.477 12.0679 61.3434C12.3105 61.2989 12.5665 61.3234 12.8158 61.3234C21.3127 61.3234 29.8095 61.3234 38.3064 61.3234C38.5557 61.3234 38.8117 61.2989 39.0543 61.3434C39.7734 61.477 40.2052 61.9177 40.2074 62.6545C40.2074 63.3914 39.7711 63.8321 39.0566 63.9657C38.8139 64.0124 38.5579 63.9857 38.3086 63.9857C34.0324 63.9857 29.7561 63.9857 25.4798 63.9857H25.4776Z" fill="black"/>
<path d="M28.1443 10.6627C26.4793 10.6627 24.8119 10.6694 23.1468 10.6605C22.1652 10.6538 21.5708 10.1396 21.5708 9.33152C21.5708 8.51901 22.1629 8.00479 23.1468 8.00257C26.5349 7.99589 29.9207 7.99589 33.3088 8.00257C34.2883 8.00257 34.8871 8.52346 34.8871 9.33152C34.8871 10.1374 34.2883 10.6583 33.311 10.6627C31.5903 10.6716 29.8673 10.6649 28.1466 10.6649L28.1443 10.6627Z" fill="black"/>
<path d="M28.1622 37.3242C26.4971 37.3242 24.8298 37.3309 23.1647 37.322C22.1696 37.3175 21.5819 36.8211 21.5686 36.0108C21.5552 35.2006 22.1518 34.6663 23.1246 34.6641C26.5126 34.6552 29.8985 34.6574 33.2865 34.6641C34.2749 34.6641 34.8715 35.1694 34.8826 35.973C34.896 36.8033 34.2794 37.3198 33.242 37.3242C31.548 37.3309 29.854 37.3242 28.1622 37.3242Z" fill="black"/>
<path d="M16.8647 10.6629C16.6977 10.6629 16.5308 10.6695 16.3661 10.6629C15.4667 10.6272 14.8857 10.0841 14.9058 9.29829C14.9236 8.54588 15.4868 8.03389 16.346 8.0005C16.7067 7.98714 17.0673 7.98714 17.4279 8.0005C18.325 8.03166 18.9082 8.57927 18.8904 9.36062C18.8726 10.1108 18.3072 10.6228 17.4479 10.6606C17.2543 10.6695 17.0584 10.6606 16.8647 10.6606V10.6629Z" fill="black"/>
<path d="M39.6398 8.01378C39.8892 8.01378 40.1452 7.97594 40.3878 8.02046C41.1046 8.15179 41.5387 8.59478 41.5409 9.32938C41.5409 10.0662 41.109 10.5314 40.39 10.6361C39.9003 10.7073 39.3928 10.6828 38.8941 10.6539C38.1016 10.6094 37.5674 10.0573 37.5674 9.3316C37.5674 8.60368 38.0994 8.06275 38.8919 8.00487C39.1412 7.98707 39.3905 8.00265 39.6421 8.00265C39.6421 8.0071 39.6421 8.00933 39.6421 8.01378H39.6398Z" fill="black"/>
<path d="M16.8873 34.6597C18.2608 34.6597 18.8818 35.0715 18.8885 35.982C18.8952 36.8902 18.2541 37.3243 16.9051 37.3243C15.5405 37.3243 14.9105 36.908 14.9039 35.9998C14.8972 35.0893 15.5338 34.6575 16.8851 34.6575L16.8873 34.6597Z" fill="black"/>
<path d="M39.5664 34.6598C39.6777 34.6598 39.789 34.6598 39.9003 34.6598C40.9488 34.6731 41.5565 35.1651 41.5521 35.9999C41.5454 36.828 40.9354 37.3132 39.8825 37.3244C39.5775 37.3266 39.2703 37.3355 38.9676 37.3199C38.1195 37.2776 37.563 36.7367 37.5674 35.9821C37.5741 35.2252 38.1306 34.7043 38.9854 34.662C39.1791 34.6531 39.375 34.662 39.5686 34.6598H39.5664Z" fill="black"/>
<path d="M53.5235 68.8053C55.6449 66.6794 57.6617 64.6581 59.6785 62.6413C59.8945 62.4254 60.0993 62.1872 60.353 62.0269C60.9363 61.6574 61.5262 61.6886 62.0226 62.185C62.519 62.6836 62.5412 63.2691 62.1784 63.8545C62.0493 64.0638 61.8579 64.2352 61.682 64.411C59.407 66.6883 57.1319 68.9678 54.8525 71.2406C53.8418 72.249 53.272 72.2445 52.2591 71.2383C51.2173 70.201 50.1755 69.1614 49.1382 68.1174C48.359 67.3316 48.2678 66.5325 48.8822 65.9426C49.4743 65.3727 50.2512 65.4595 50.9991 66.2097C51.8206 67.0333 52.6242 67.877 53.5235 68.8053Z" fill="black"/>
</g>
<defs>
<clipPath id="clip0_381_880">
<rect width="68.0238" height="80" fill="white" transform="translate(0.205078)"/>
</clipPath>
</defs>
</svg>
