<svg width="63" height="80" viewBox="0 0 63 80" fill="none" xmlns="http://www.w3.org/2000/svg">
<g clip-path="url(#clip0_381_894)">
<path d="M35.8662 79.9999C34.1107 79.4175 33.4031 78.2005 33.4678 76.3678C33.5471 74.1301 33.4615 71.8882 33.5012 69.6505C33.5137 68.9909 33.307 68.8239 32.6662 68.826C24.2122 68.8448 15.7582 68.826 7.30627 68.8469C5.19381 68.851 3.34854 68.2958 1.89361 66.6989C0.772673 65.4673 0.234121 64.002 0.219509 62.355C0.196547 59.5161 0.206984 56.6773 0.215334 53.8405C0.217421 52.9304 0.672477 52.3814 1.3822 52.3709C2.094 52.3605 2.55323 52.9053 2.55532 53.8112C2.56367 56.5186 2.55532 59.2281 2.5595 61.9354C2.56367 64.7889 4.21272 66.4839 7.05578 66.4881C15.6142 66.5027 24.1705 66.4943 32.7288 66.4923C32.9564 66.4923 33.1839 66.4609 33.4824 66.438C33.4824 64.5176 33.4907 62.6493 33.4699 60.7811C33.4699 60.6058 33.3196 60.4012 33.186 60.2613C32.2216 59.2573 31.7937 58.0633 31.9648 56.694C32.0984 55.6273 31.7352 54.8696 30.9024 54.1891C28.6876 52.3793 28.7231 49.1981 30.9629 47.4196C31.7624 46.785 32.0504 46.0502 31.9711 45.0462C31.729 42.009 33.7705 39.9508 36.8264 40.1679C37.8973 40.2431 38.6446 39.9091 39.3188 39.0679C41.0346 36.9304 44.2743 36.9283 46.0027 39.0679C46.6999 39.932 47.4764 40.2493 48.5744 40.1658C51.5615 39.9404 53.6718 42.1468 53.3545 45.1276C53.2523 46.0836 53.5654 46.7725 54.3001 47.3695C56.638 49.2669 56.6443 52.4085 54.3064 54.2997C53.5403 54.9197 53.223 55.6294 53.3587 56.6105C53.5466 57.9756 53.1291 59.1759 52.196 60.2029C52.0353 60.3803 51.862 60.6329 51.86 60.8542C51.8328 62.6994 51.8453 64.5447 51.8453 66.3482C53.509 66.3482 55.1434 66.5361 56.7132 66.3002C58.5856 66.0163 59.7608 64.265 59.7754 62.211C59.7963 59.633 59.7817 57.0551 59.7817 54.4771C59.7817 44.2947 59.7817 34.1144 59.7817 23.932C59.7817 23.6461 59.7691 23.358 59.8005 23.0741C59.8673 22.4437 60.2388 22.0763 60.8671 22.0325C61.4975 21.9887 61.915 22.3122 62.0653 22.9238C62.1258 23.1722 62.1279 23.4394 62.1279 23.6983C62.13 36.4586 62.1342 49.2169 62.1279 61.9772C62.1279 66.0748 59.4456 68.7738 55.3376 68.8343C54.2187 68.851 53.0978 68.8364 51.8453 68.8364V69.7027C51.8453 71.8903 51.7806 74.08 51.8662 76.2634C51.9393 78.1129 51.2755 79.382 49.4907 79.9978H48.2383C46.3617 78.6264 44.4872 77.2549 42.5751 75.8564C42.2808 76.0943 41.9448 76.3803 41.5941 76.6454C40.1057 77.7664 38.6132 78.879 37.1228 79.9957H35.8704L35.8662 79.9999ZM34.3111 56.6752C34.2046 58.606 34.9519 59.2823 37.1458 59.1362C38.6153 59.0381 39.9346 59.5412 40.7758 60.7477C41.7945 62.2047 43.5708 62.1212 44.5457 60.7498C45.4474 59.4806 46.8314 58.988 48.4053 59.1592C50.2568 59.3596 51.1982 58.414 51.0083 56.5437C50.8496 54.9739 51.3945 53.686 52.601 52.6778C54.0684 51.4546 54.081 50.2313 52.6198 49.0039C51.3924 47.9707 50.8434 46.6702 51.0104 45.0692C51.1941 43.3011 50.332 42.3597 48.5806 42.5079C46.8251 42.6561 45.4328 42.0842 44.3244 40.7086C43.3475 39.4937 41.9677 39.4937 41.0054 40.694C39.9262 42.0424 38.5673 42.6457 36.8348 42.5142C34.9686 42.3701 34.1691 43.1884 34.3174 45.0525C34.451 46.714 33.8873 48.05 32.5932 49.102C31.2677 50.1771 31.2697 51.4984 32.5932 52.5671C33.8393 53.5754 34.4384 54.857 34.309 56.6752H34.3111ZM35.8349 61.6119C35.8349 66.5444 35.8349 71.4102 35.8349 76.2739C35.8349 76.4826 35.7869 76.706 35.8495 76.8938C35.9309 77.1422 36.0478 77.4887 36.2399 77.5639C36.4382 77.6411 36.7993 77.5159 36.9934 77.3593C38.5423 76.1257 40.0661 74.8628 41.6024 73.6145C42.4687 72.909 42.859 72.9069 43.7295 73.6145C45.1844 74.7981 46.6226 76.0004 48.0943 77.1652C48.3719 77.3844 48.7643 77.4574 49.1046 77.5973C49.2361 77.2341 49.4782 76.8709 49.4803 76.5077C49.5054 71.7985 49.497 67.0872 49.497 62.3759C49.497 62.1233 49.497 61.8686 49.497 61.5994C49.0566 61.566 48.6934 61.5618 48.3406 61.5054C47.4513 61.3614 46.7813 61.6787 46.2177 62.3634C44.1971 64.814 41.1453 64.8182 39.1205 62.3738C38.6383 61.7935 38.0684 61.4428 37.3107 61.4679C36.8473 61.4825 36.386 61.5555 35.837 61.6119H35.8349Z" fill="black"/>
<path d="M31.2326 -4.88246e-05C39.2169 -4.88246e-05 47.2013 -4.88246e-05 55.1856 -4.88246e-05C59.4293 -4.88246e-05 62.1241 2.69062 62.1283 6.93224C62.1325 10.5789 62.1283 14.2236 62.1283 17.8703C62.1283 18.079 62.1388 18.2878 62.1179 18.4944C62.0406 19.2167 61.5418 19.6947 60.903 19.6717C60.2601 19.6487 59.7967 19.1582 59.7904 18.413C59.7716 16.7201 59.7821 15.0272 59.7821 13.3343C59.7821 11.1467 59.7904 8.95912 59.78 6.77151C59.7675 4.03283 58.0662 2.34203 55.3275 2.34203C39.2294 2.33994 23.1292 2.34203 7.03113 2.34203C4.25278 2.34203 2.56407 4.03492 2.56198 6.83413C2.5578 20.5839 2.56198 34.3337 2.55989 48.0834C2.55989 48.3966 2.57659 48.7118 2.53484 49.0186C2.45552 49.6093 2.09649 49.9559 1.50157 50.006C0.90875 50.0581 0.478744 49.7889 0.309663 49.2169C0.22408 48.9247 0.21573 48.6011 0.21573 48.2922C0.211555 34.4944 0.20738 20.6924 0.213643 6.89049C0.213643 2.7115 2.9398 0.00203859 7.12297 -4.88246e-05C15.1595 -0.00213623 23.196 -4.88246e-05 31.2326 -4.88246e-05Z" fill="black"/>
<path d="M40.0288 26.3952C40.0288 27.585 40.0351 28.7728 40.0246 29.9626C40.0225 30.2736 40.0873 30.6744 39.9244 30.8727C39.6405 31.2171 39.2335 31.595 38.8244 31.6701C38.2712 31.7724 37.8537 31.3695 37.7264 30.785C37.6826 30.5847 37.6826 30.3717 37.6826 30.163C37.6805 27.6644 37.6867 25.1636 37.6763 22.665C37.6742 21.9887 37.7974 21.4042 38.5384 21.1871C39.2481 20.9805 39.6572 21.4042 40.0163 21.9282C41.0892 23.4854 42.1684 25.0384 43.4083 26.5622C43.4083 26.1635 43.4083 25.7648 43.4083 25.3661C43.4042 24.3516 43.3728 23.3351 43.3979 22.3206C43.4146 21.6025 43.9344 21.1078 44.5752 21.1141C45.1889 21.1203 45.7087 21.5942 45.7212 22.2663C45.7692 24.9215 45.7963 27.5767 45.8088 30.2319C45.813 30.8518 45.5417 31.3653 44.905 31.5469C44.2475 31.7348 43.7507 31.4614 43.3687 30.904C42.327 29.3823 41.2708 27.8689 40.2188 26.3535C40.1541 26.3681 40.0873 26.3806 40.0225 26.3952H40.0288Z" fill="black"/>
<path d="M14.8107 27.6227C14.3556 27.5976 13.9653 27.6039 13.5833 27.5475C12.9529 27.4557 12.5918 27.0403 12.5876 26.4287C12.5834 25.7816 12.9508 25.3182 13.625 25.2785C14.508 25.2284 15.3993 25.2263 16.2823 25.2702C17.0004 25.3057 17.3678 25.7732 17.3907 26.5226C17.4742 29.303 15.5183 31.5741 12.932 31.7036C10.1203 31.8434 7.59034 29.6976 7.37742 26.9714C7.20834 24.8088 8.01408 23.0763 9.85518 21.9261C11.6378 20.8135 13.5019 20.8219 15.3451 21.8489C15.892 22.1537 16.2447 22.5795 16.1007 23.2433C15.9275 24.0407 15.1113 24.3684 14.3055 23.9405C13.5144 23.523 12.7191 23.308 11.8299 23.5731C10.4438 23.9885 9.5859 25.2576 9.71741 26.7376C9.83431 28.0652 10.9636 29.1945 12.3246 29.3511C13.5436 29.4909 14.437 28.8918 14.8128 27.6185L14.8107 27.6227Z" fill="black"/>
<path d="M23.3522 27.5706C23.9889 28.297 24.5817 28.9546 25.1516 29.6288C25.6943 30.2717 25.6818 30.9668 25.1516 31.4219C24.6089 31.8874 23.9555 31.7976 23.3731 31.1505C22.6676 30.3657 21.9766 29.5683 21.1104 28.583C21.1104 29.3282 21.125 29.8334 21.1083 30.3385C21.0791 31.186 20.6198 31.7058 19.9247 31.7058C19.2317 31.7058 18.7725 31.1839 18.7683 30.3343C18.7599 27.7084 18.7579 25.0803 18.7683 22.4544C18.7725 21.538 19.1962 21.1205 20.1105 21.1101C20.9434 21.0996 21.7867 21.0558 22.607 21.1581C24.1037 21.3418 25.2664 22.4606 25.5127 23.8279C25.7674 25.2515 25.114 26.5561 23.7489 27.3473C23.6361 27.412 23.5234 27.4746 23.3502 27.5706H23.3522ZM21.1563 25.3872C21.9182 25.4143 22.6488 25.573 23.06 24.8591C23.1936 24.6274 23.1706 24.1598 23.0183 23.9364C22.5653 23.2685 21.8556 23.4375 21.1584 23.4981V25.3872H21.1563Z" fill="black"/>
<path d="M30.2869 29.6872C30.1157 30.1109 29.9738 30.5013 29.8047 30.8791C29.4978 31.5659 28.9113 31.8581 28.3101 31.6389C27.6567 31.401 27.3791 30.7831 27.6233 30.04C27.7862 29.5473 27.9949 29.0714 28.1807 28.5871C28.9739 26.5018 29.7755 24.4186 30.5561 22.3291C30.8129 21.6423 31.1886 21.1059 31.9902 21.1184C32.7479 21.1309 33.1174 21.6381 33.3637 22.2999C34.2968 24.8047 35.2507 27.2992 36.1901 29.802C36.5366 30.7267 36.332 31.355 35.616 31.6306C34.9334 31.8936 34.2801 31.5429 34.0108 30.6057C33.7895 29.8375 33.4013 29.5933 32.6269 29.6705C31.8545 29.7456 31.0697 29.6872 30.2848 29.6872H30.2869ZM32.7417 27.3263C32.4933 26.6667 32.272 26.076 31.9672 25.2661C31.6604 26.076 31.4329 26.6751 31.1865 27.3263H32.7438H32.7417Z" fill="black"/>
<path d="M17.6203 42.7085C15.1968 42.7085 12.7754 42.7085 10.3519 42.7085C10.0659 42.7085 9.69855 42.7878 9.51277 42.6438C9.15791 42.3703 8.6945 41.9758 8.67363 41.6105C8.65275 41.2431 9.05771 40.7818 9.38752 40.4854C9.5733 40.3184 9.98452 40.3727 10.2935 40.3727C15.2427 40.3664 20.192 40.3685 25.1412 40.3727C25.4 40.3727 25.6672 40.3727 25.9156 40.4332C26.5314 40.5835 26.8362 41.0052 26.7965 41.6335C26.7589 42.2284 26.4124 42.5853 25.8259 42.6793C25.5712 42.721 25.3061 42.7127 25.0473 42.7127C22.5716 42.7148 20.098 42.7127 17.6224 42.7127L17.6203 42.7085Z" fill="black"/>
<path d="M17.7246 46.0565C20.2503 46.0565 22.7782 46.0523 25.304 46.0565C26.3101 46.0586 26.8132 46.4656 26.8006 47.2338C26.7902 47.9936 26.2767 48.3944 25.2685 48.3944C20.242 48.3986 15.2134 48.3944 10.1869 48.3944C10.0826 48.3944 9.9782 48.3986 9.87383 48.3902C9.07018 48.3339 8.6026 47.8934 8.61095 47.1962C8.6193 46.5011 9.08479 46.0628 9.90723 46.0586C12.5123 46.0461 15.1174 46.0544 17.7225 46.0523L17.7246 46.0565Z" fill="black"/>
<path d="M17.7102 54.0619C15.1051 54.0619 12.5 54.0619 9.8949 54.0619C9.27912 54.0619 8.81989 53.8031 8.65289 53.1998C8.49843 52.6404 8.68212 52.1561 9.21441 51.8826C9.43358 51.7699 9.71121 51.7261 9.96379 51.7261C15.1218 51.7177 20.2819 51.7156 25.4398 51.7219C26.2957 51.7219 26.8008 52.1728 26.8029 52.8846C26.8029 53.5985 26.2999 54.0556 25.4482 54.0577C22.8682 54.0682 20.2902 54.0619 17.7102 54.0598V54.0619Z" fill="black"/>
<path d="M52.7138 23.4436C52.7138 25.5749 52.7138 27.5976 52.7138 29.6203C52.7138 29.9313 52.7305 30.2465 52.6992 30.5554C52.6241 31.2735 52.1106 31.7682 51.4739 31.7014C50.7788 31.6283 50.3843 31.2109 50.3801 30.5116C50.3634 28.4847 50.3697 26.4578 50.3676 24.431C50.3676 24.1262 50.3676 23.8214 50.3676 23.4415C49.9084 23.4415 49.5451 23.4687 49.1882 23.4353C48.5244 23.3747 48.1299 22.9802 48.1007 22.3248C48.0714 21.661 48.4618 21.1704 49.1026 21.1454C50.7141 21.0827 52.3318 21.0848 53.9433 21.1391C54.5821 21.16 54.9703 21.6129 54.9787 22.2914C54.987 22.9259 54.5299 23.3914 53.8494 23.4415C53.5154 23.4645 53.1793 23.4457 52.7138 23.4457V23.4436Z" fill="black"/>
<path d="M31.1487 12.7833C29.6541 12.7207 28.3307 12.2051 27.2765 11.0841C26.715 10.485 26.6879 9.85882 27.1784 9.35575C27.6481 8.87565 28.3286 8.90069 28.9172 9.41837C30.4536 10.7752 31.8876 10.7773 33.4114 9.42463C34.0001 8.90278 34.6785 8.87147 35.1502 9.3474C35.6429 9.8442 35.6199 10.4892 35.0667 11.0779C34.0147 12.1967 32.6933 12.7227 31.1466 12.7812L31.1487 12.7833Z" fill="black"/>
<path d="M18.0192 9.02382C18.0192 8.63557 17.9921 8.24313 18.0255 7.85696C18.0839 7.18899 18.4972 6.80282 19.1422 6.77777C19.7956 6.75272 20.2694 7.13472 20.3237 7.7839C20.3967 8.63348 20.3926 9.49767 20.33 10.3493C20.2819 10.9943 19.8436 11.3722 19.1798 11.3972C18.564 11.4202 18.0672 10.9359 18.0234 10.2721C17.9962 9.85879 18.0192 9.44131 18.0192 9.02591H18.0213L18.0192 9.02382Z" fill="black"/>
<path d="M44.3248 9.08033C44.3248 9.46859 44.3457 9.86102 44.3206 10.2472C44.2768 10.9193 43.8029 11.4057 43.183 11.3953C42.5171 11.3848 42.0662 11.0154 42.014 10.3703C41.9451 9.52077 41.9472 8.65659 42.0119 7.80492C42.062 7.15365 42.5234 6.79253 43.1767 6.76957C43.7925 6.7466 44.2747 7.24132 44.3185 7.91347C44.3436 8.30173 44.3227 8.69207 44.3248 9.08033Z" fill="black"/>
</g>
<defs>
<clipPath id="clip0_381_894">
<rect width="61.9251" height="80" fill="white" transform="translate(0.205078)"/>
</clipPath>
</defs>
</svg>
