<svg width="91" height="80" viewBox="0 0 91 80" fill="none" xmlns="http://www.w3.org/2000/svg">
<g clip-path="url(#clip0_440_188)">
<path d="M41.2542 0C43.6368 1.67805 45.9945 3.39512 48.4236 5.00222C49.0193 5.39601 49.8682 5.6408 50.5744 5.58758C52.6539 5.43503 54.7191 5.098 56.7915 4.83548C59.6379 4.47361 61.35 5.44922 62.4807 8.09224C63.3332 10.0825 64.1179 12.1047 65.0239 14.0701C65.2557 14.5703 65.7515 15.0776 66.2545 15.3047C68.2733 16.22 70.3492 17.0111 72.3895 17.8767C74.9363 18.9552 75.9029 20.7326 75.5212 23.4785C75.2216 25.6248 74.9113 27.7676 74.7115 29.9246C74.6616 30.4674 74.8828 31.145 75.2073 31.5991C76.47 33.3623 77.8326 35.0545 79.1452 36.7858C80.8323 39.0138 80.8323 40.9579 79.138 43.2035C77.829 44.9348 76.4664 46.6306 75.2038 48.3938C74.8792 48.8479 74.6545 49.522 74.708 50.0647C74.9256 52.3069 75.2608 54.5384 75.5676 56.7734C75.8886 59.1078 74.9184 60.9738 72.7462 61.9388C70.6382 62.8754 68.4695 63.6701 66.3757 64.6386C65.805 64.9011 65.245 65.4794 64.9775 66.0506C64.0537 68.0089 63.2761 70.031 62.4201 72.0213C61.375 74.4479 59.8376 75.4058 57.1803 75.161C54.926 74.9517 52.686 74.5614 50.4282 74.3769C49.8004 74.3237 49.03 74.565 48.5056 74.9304C46.7222 76.1721 45.0351 77.5486 43.2837 78.8364C41.14 80.4186 39.1889 80.3938 37.0452 78.7867C35.3046 77.4847 33.6032 76.1259 31.8233 74.8772C31.3346 74.5366 30.607 74.3202 30.0185 74.3663C28.0709 74.5259 26.1341 74.8133 24.1973 75.0829C20.6661 75.5761 19.0967 74.7069 17.7305 71.4608C16.9601 69.6266 16.2325 67.7712 15.3835 65.9761C15.1303 65.4404 14.606 64.894 14.0674 64.6492C12.0913 63.7446 10.0546 62.9783 8.05001 62.1339C5.45689 61.0412 4.51523 59.3738 4.87192 56.5676C5.13587 54.5064 5.47472 52.4523 5.63167 50.384C5.68517 49.6745 5.44262 48.816 5.03956 48.2271C3.86606 46.51 2.53561 44.9029 1.2765 43.2426C-0.449874 40.9721 -0.439173 39.0102 1.30503 36.7184C2.56771 35.0616 3.89103 33.4475 5.07523 31.741C5.46046 31.184 5.69944 30.3681 5.64237 29.7011C5.45689 27.5016 5.10733 25.3162 4.82198 23.1237C4.52593 20.8461 5.50683 18.9978 7.61129 18.0683C9.68008 17.153 11.8131 16.3796 13.8569 15.4146C14.5025 15.1095 15.1481 14.4922 15.4584 13.8572C16.3823 11.9486 17.1242 9.95831 17.9624 8.0071C19.0574 5.45632 20.7838 4.49135 23.5767 4.83902C25.6918 5.1051 27.8034 5.43503 29.9257 5.61596C30.5535 5.66918 31.3311 5.46696 31.8447 5.10865C33.8457 3.71441 35.7612 2.19601 37.7265 0.752106C38.1545 0.439911 38.6575 0.244789 39.1176 0C39.831 0 40.5408 0 41.2542 0ZM57.8972 71.2479C58.1113 71.0208 58.6178 70.6945 58.8246 70.2333C59.752 68.1792 60.6116 66.0931 61.4534 64.0036C62.017 62.6022 62.9943 61.6692 64.3854 61.1051C66.5255 60.2395 68.6407 59.3206 70.7844 58.4656C71.4942 58.1818 71.694 57.7809 71.5798 57.0359C71.2481 54.8506 71.002 52.651 70.6881 50.4656C70.4598 48.894 70.7701 47.4998 71.776 46.2368C73.1813 44.4665 74.5082 42.6359 75.9171 40.8692C76.4201 40.2377 76.4272 39.7588 75.9207 39.1237C74.5118 37.3534 73.1849 35.5264 71.7796 33.7561C70.8094 32.5322 70.4598 31.1876 70.6703 29.6585C70.9734 27.4696 71.2053 25.2665 71.5584 23.0883C71.6975 22.2262 71.4799 21.7898 70.6631 21.4705C68.5551 20.6439 66.4863 19.7251 64.3854 18.8843C62.9872 18.3237 62.0134 17.3907 61.4463 15.9929C60.6152 13.9459 59.6878 11.9344 58.9031 9.86962C58.5536 8.94723 58.0649 8.65987 57.109 8.80177C54.9546 9.12461 52.7823 9.31973 50.6315 9.66386C49.0193 9.92284 47.6638 9.5184 46.4047 8.53925C44.6534 7.17694 42.845 5.88559 41.1115 4.502C40.4231 3.95211 39.9273 3.98404 39.2567 4.51619C37.4483 5.94945 35.5899 7.32239 33.7494 8.70953C32.5938 9.57871 31.3204 9.9051 29.8651 9.6816C27.7143 9.35166 25.542 9.14235 23.3912 8.81596C22.4103 8.66696 21.8467 8.87273 21.4722 9.88736C20.7232 11.9166 19.81 13.8891 18.9968 15.8971C18.4154 17.3339 17.4381 18.3237 15.9899 18.9055C13.889 19.7463 11.8166 20.6545 9.71218 21.4882C8.9774 21.7792 8.69205 22.1481 8.8276 22.9818C9.16288 25.0749 9.36263 27.1929 9.67651 29.2896C9.94046 31.0492 9.60874 32.596 8.44951 34.0009C7.20823 35.5016 6.13103 37.1406 4.85765 38.6164C4.01587 39.5956 3.90886 40.3122 4.81128 41.3375C6.1239 42.8346 7.21536 44.5197 8.48518 46.0559C9.61588 47.4253 9.9369 48.933 9.68721 50.643C9.38403 52.7432 9.18072 54.8577 8.8383 56.9508C8.69205 57.8377 8.9774 58.2315 9.77282 58.5437C11.8808 59.3667 13.9568 60.2714 16.0505 61.1228C17.4452 61.6905 18.4011 62.6519 18.9647 64.0461C19.7922 66.0967 20.6982 68.1153 21.5007 70.173C21.8289 71.0173 22.289 71.3224 23.2021 71.1911C25.4885 70.8612 27.7892 70.6093 30.0791 70.3149C31.4773 70.1375 32.7115 70.4852 33.8279 71.3437C35.5864 72.6954 37.3983 73.9832 39.1176 75.3845C39.938 76.055 40.5158 75.9982 41.3077 75.3561C42.9948 73.9867 44.7711 72.7273 46.4903 71.3934C47.6389 70.5029 48.8944 70.1233 50.3497 70.3184C52.7288 70.6377 55.1115 70.9144 57.8901 71.255L57.8972 71.2479Z" fill="black"/>
<path d="M86.5509 11.9451C86.9433 12.3495 87.7815 12.8284 87.8921 13.4351C88.0134 14.1091 87.6888 15.2302 87.168 15.585C85.6378 16.6174 83.9435 17.4298 82.2528 18.2032C81.2541 18.6573 80.3089 18.3344 79.7382 17.3482C79.2246 16.4648 79.3458 15.475 80.1662 14.9783C81.9389 13.9069 83.8365 13.0342 85.6877 12.0905C85.8376 12.016 86.0337 12.0302 86.5509 11.9486V11.9451Z" fill="black"/>
<path d="M77.694 3.26039C77.5086 3.87414 77.4658 4.14376 77.3481 4.37436C76.5455 5.94952 75.7679 7.53533 74.8976 9.07147C74.3162 10.1003 73.2247 10.3877 72.2688 9.90873C71.2558 9.39786 70.8742 8.31937 71.4199 7.2054C72.1761 5.65861 72.9786 4.13312 73.8133 2.62535C74.3269 1.69586 75.24 1.27014 76.1781 1.7207C76.8344 2.03999 77.2731 2.80983 77.694 3.25684V3.26039Z" fill="black"/>
<path d="M88.2621 30.542C86.6963 30.3398 85.0163 30.1695 83.3541 29.8963C82.07 29.6835 81.4316 28.8214 81.5564 27.6826C81.6777 26.5686 82.5266 25.8804 83.8321 25.9939C85.5085 26.1393 87.1814 26.3557 88.8471 26.6076C90.0813 26.7957 90.7732 27.7145 90.6448 28.8285C90.5164 29.9212 89.6354 30.5846 88.2586 30.542H88.2621Z" fill="black"/>
<path d="M17.6636 40.0283C17.6707 50.5046 24.9614 59.5689 35.2376 61.8785C35.5408 61.9459 35.8476 62.0062 36.1365 62.1161C37.2066 62.5135 37.6952 63.3153 37.4562 64.4079C37.228 65.4368 36.4825 66.0221 35.4088 65.9086C34.4886 65.8093 33.5719 65.5822 32.6802 65.3232C21.3767 62.0665 12.6343 51.0439 13.7364 37.4421C14.6745 25.8376 24.3265 15.5955 36.2506 13.8501C50.1722 11.8137 63.2983 20.8709 66.1732 34.494C66.4907 35.9982 65.9557 37.0128 64.7072 37.2682C63.5195 37.5095 62.6741 36.8496 62.3032 35.3915C59.9454 26.0789 54.1493 20.0727 44.6863 18.0647C30.7006 15.0953 17.6529 25.8199 17.6672 40.0319L17.6636 40.0283Z" fill="black"/>
<path d="M48.963 45.3393C48.799 48.3867 46.7979 51.0262 43.5699 51.9557C42.4285 52.2821 42.111 52.7894 42.1967 53.8679C42.2858 54.9535 41.9648 55.9184 40.777 56.2768C39.4216 56.6883 38.1768 55.7765 38.2588 54.2298C38.3337 52.8107 37.8308 52.2856 36.511 51.718C34.938 51.0404 33.5327 49.8519 32.2593 48.667C31.2249 47.7056 31.3961 46.3894 32.3199 45.6373C33.2723 44.8604 34.3566 45.0448 35.3197 46.1872C37.1174 48.3122 39.4109 48.8763 42.0433 48.2945C43.6662 47.9362 44.7184 46.7974 44.7898 45.4493C44.8754 43.9096 44.1977 42.9872 42.4428 42.338C40.7806 41.7207 39.1006 41.1566 37.4456 40.5357C36.9961 40.3655 36.5788 40.0887 36.1722 39.8191C34.0642 38.4284 32.4912 36.6794 32.7337 33.9655C32.9834 31.1947 34.5992 29.3216 37.0924 28.2537C37.9913 27.867 38.3159 27.4165 38.2196 26.5012C38.1696 26.0258 38.191 25.5114 38.3159 25.0537C38.5834 24.0816 39.2861 23.5885 40.2991 23.6382C41.3156 23.6878 42.186 24.291 42.0825 25.2453C41.8542 27.3455 43.0563 27.9663 44.7113 28.5517C45.7243 28.91 46.6303 29.655 47.4863 30.3468C48.6242 31.2657 48.7562 32.4329 47.975 33.3553C47.201 34.267 46.0382 34.2954 44.9146 33.373C43.4665 32.1845 41.9042 31.2799 39.9459 31.585C39.2682 31.6914 38.5549 31.9504 37.9949 32.3371C36.3006 33.5114 36.2328 35.0901 37.9877 36.1508C39.4823 37.0519 41.1765 37.6657 42.8387 38.2475C45.0858 39.0315 47.1511 40.0178 48.1605 42.3096C48.5778 43.2568 48.7027 44.3353 48.963 45.3499V45.3393Z" fill="black"/>
<path d="M44.9783 65.9407C43.7977 65.9016 43.1093 65.3234 42.9202 64.2981C42.7383 63.3154 43.2127 62.5739 44.1294 62.1695C44.4897 62.0098 44.8999 61.9602 45.2851 61.8573C54.1096 59.4839 59.7559 53.9424 62.1386 45.1442C62.2207 44.8462 62.2777 44.5411 62.3705 44.2466C62.745 43.0546 63.6759 42.487 64.8102 42.746C65.8803 42.9908 66.4974 44.0125 66.2477 45.2116C65.4523 49.0325 63.9328 52.5376 61.5786 55.6666C57.6122 60.9384 52.3868 64.3052 45.9414 65.7917C45.5954 65.8697 45.2387 65.9016 44.9783 65.9442V65.9407Z" fill="black"/>
</g>
<defs>
<clipPath id="clip0_440_188">
<rect width="90.6667" height="80" fill="white"/>
</clipPath>
</defs>
</svg>
