<svg width="73" height="80" viewBox="0 0 73 80" fill="none" xmlns="http://www.w3.org/2000/svg">
<path d="M20.5686 61.96C19.6413 61.96 18.9668 62.7185 18.9668 63.5618C18.9668 64.405 19.7254 65.1636 20.5686 65.1636H37.3442C38.2715 65.1636 38.9461 64.4051 38.9461 63.5618C38.9461 62.7186 38.1875 61.96 37.3442 61.96H20.5686Z" fill="black"/>
<path d="M44.3412 52.097C44.3412 51.1696 43.5827 50.4951 42.7394 50.4951L20.5686 50.4957C19.6413 50.4957 18.9668 51.2543 18.9668 52.0975C18.9668 53.0249 19.7254 53.6994 20.5686 53.6994H42.7394C43.5826 53.6988 44.3412 52.9403 44.3412 52.097Z" fill="black"/>
<path d="M46.6173 40.5481C46.6173 39.6208 45.8588 38.9463 45.0155 38.9463H20.5686C19.6413 38.9463 18.9668 39.7048 18.9668 40.5481C18.9668 41.3914 19.7254 42.15 20.5686 42.15H44.9312C45.8585 42.15 46.6176 41.4755 46.6176 40.5481H46.6173Z" fill="black"/>
<path d="M38.1029 74.605H11.4643V30.0949C12.7286 30.4318 13.9934 30.6006 15.3424 30.6006C23.6036 30.6006 30.2635 24.1094 30.6006 15.9323H41.0539V28.6614C41.0539 29.5887 41.8124 30.2632 42.6557 30.2632H55.3848V35.6584C55.3848 36.5857 56.1433 37.2602 56.9866 37.2602C57.8298 37.2602 58.5884 36.5017 58.5884 35.6584V27.4813C58.5884 26.4699 58.1668 25.5426 57.4924 24.8682L46.4487 13.741C45.7742 13.0665 44.8468 12.6449 43.8356 12.6449H30.4321C29.1678 5.47916 22.9294 0 15.3425 0C6.91255 0 0 6.8281 0 15.3425C0 21.1593 3.28768 26.3016 8.17704 28.8307L8.17646 76.2913C8.17646 77.2186 8.93502 77.8931 9.7783 77.8931H38.1029C39.0302 77.8931 39.7048 77.1346 39.7048 76.2913C39.7048 75.4481 39.0303 74.6055 38.1029 74.6055L38.1029 74.605ZM55.0471 26.9758H44.3409V16.2696L55.0471 26.9758ZM3.37156 15.3429C3.37156 8.68357 8.76672 3.2884 15.4261 3.2884C22.0854 3.2884 27.4806 8.68357 27.4806 15.3429C27.4806 22.0023 22.0854 27.3974 15.4261 27.3974C8.76672 27.3974 3.37156 21.9183 3.37156 15.3429Z" fill="black"/>
<path d="M21.2429 11.2959C20.5684 10.6214 19.557 10.6214 18.9666 11.2959L13.4875 16.7751L11.38 14.6676C10.7055 13.9931 9.69415 13.9931 9.10375 14.6676C8.51336 15.342 8.42928 16.3534 9.10375 16.9438L12.3914 20.2315C12.7284 20.5684 13.15 20.7372 13.5716 20.7372C13.9932 20.7372 14.4148 20.5684 14.7518 20.2315L21.4111 13.5721C21.9174 12.9817 21.9173 11.8863 21.2429 11.2959Z" fill="black"/>
<path d="M66.5117 62.7189H62.5496C62.128 62.7189 61.791 62.3819 61.791 61.9603V60.9489C61.791 58.5045 62.9712 56.5652 63.9827 55.385C65.5845 53.4462 66.2589 50.9171 65.9214 48.3881C65.331 44.4261 62.0433 41.3071 58.0819 40.8015C55.5527 40.5486 52.9396 41.3072 51.085 42.9931C49.1463 44.679 48.0502 47.1239 48.0502 49.6525C48.0502 51.6758 48.7247 53.5305 49.9048 55.0476C51.4219 57.071 52.2652 59.2626 52.2652 61.5388V61.9605C52.2652 62.3821 51.9283 62.719 51.5066 62.719H47.5446C44.341 62.719 41.8125 65.3322 41.8125 68.4511V72.4973C41.8125 73.4246 42.5711 74.0991 43.4143 74.0991H43.7507V78.3983C43.7507 79.3256 44.5093 80.0001 45.3525 80.0001H68.6192C69.5465 80.0001 70.221 79.2415 70.221 78.3983V74.0991H70.558C71.4853 74.0991 72.1598 73.3406 72.1598 72.4973V68.4511C72.2445 65.3322 69.7154 62.719 66.5123 62.719L66.5117 62.7189ZM45.0153 68.4509C45.0153 67.102 46.1114 65.9218 47.5444 65.9218H51.5065C53.6981 65.9218 55.4686 64.1512 55.4686 61.9597V61.6228C55.4686 58.672 54.4572 55.806 52.4338 53.1928C51.6752 52.1814 51.2536 51.0012 51.2536 49.7364C51.2536 48.1346 51.9281 46.5329 53.1924 45.5214C54.4566 44.4254 55.9743 43.9196 57.6603 44.0884C60.1894 44.3413 62.2121 46.3647 62.6338 48.8938C62.8866 50.4956 62.465 52.0973 61.3695 53.3617C59.4308 55.6379 58.5035 58.3352 58.5035 60.9483L58.5029 61.9603C58.5029 64.1519 60.2735 65.9224 62.465 65.9224H66.5118C67.8607 65.9224 69.0409 67.0185 69.0409 68.4515V70.8119L45.0156 70.8113L45.0153 68.4509ZM67.0175 76.7967H47.0385V74.0988H67.0175V76.7967Z" fill="black"/>
</svg>
