<svg width="52" height="50" viewBox="0 0 52 50" fill="none" xmlns="http://www.w3.org/2000/svg">
<path d="M46.7811 28.9374C41.9982 29.611 38.1721 31.9576 34.9267 35.154C29.5336 40.4698 30.2785 47.6226 30.2785 47.6226C23.7789 48.4921 18.0498 49.4599 17.7382 48.543C17.4314 47.9555 18.203 47.4698 19.0736 45.5032C19.9993 41.3628 15.8628 38.7813 13.1649 40.8031C10.0451 43.1379 11.7034 46.448 12.2943 47.5721C12.8852 48.6962 12.5232 49.1035 11.2154 48.9782C8.1464 48.5042 3.5565 48.1948 1 48.0538C1.28362 43.6902 2.90655 29.2276 11.9599 18.1655C19.1188 9.48547 28.9971 3.44173 40.0164 1C40.4182 3.25252 41.3006 8.43085 41.5488 11.8427C41.7221 13.1392 42.2027 13.3938 43.1678 12.5673C44.1328 11.7409 47.0053 9.38654 49.999 11.8819C52.5874 14.0404 50.9956 18.6312 46.7295 18.6704C44.6059 18.2709 43.956 17.6325 43.4518 18.0633C42.6679 18.5411 44.6146 23.2929 46.7811 28.9374Z" fill="#FBD49D" stroke="white" stroke-width="0.5" stroke-miterlimit="10"/>
</svg>
