<svg width="80" height="80" viewBox="0 0 80 80" fill="none" xmlns="http://www.w3.org/2000/svg">
<path d="M39.9999 0.000178474C29.391 0.000178474 19.2177 4.21483 11.7159 11.7161C4.21412 19.2174 0 29.3911 0 40.0001C0 50.609 4.21465 60.7823 11.7159 68.2841C19.2172 75.7859 29.391 80 39.9999 80C50.6089 80 60.7821 75.7854 68.2839 68.2841C75.7857 60.7828 79.9998 50.609 79.9998 40.0001C79.9998 32.9786 78.1512 26.0806 74.6405 20C71.1298 13.9195 66.0801 8.87002 59.9998 5.3593C53.9192 1.84858 47.0212 0 39.9997 0L39.9999 0.000178474ZM39.9999 76.0004C30.4518 76.0004 21.2945 72.2071 14.5445 65.4555C7.79287 58.7046 3.99965 49.548 3.99965 40.0001C3.99965 30.4522 7.79287 21.2947 14.5445 14.5447C21.2954 7.79305 30.452 3.99983 39.9999 3.99983C49.5478 3.99983 58.7053 7.79305 65.4553 14.5447C72.2069 21.2956 76.0002 30.4522 76.0002 40.0001C76.0002 49.548 72.2069 58.7055 65.4553 65.4555C58.7044 72.2071 49.5478 76.0004 39.9999 76.0004Z" fill="black"/>
<path d="M39.9999 16.0002C36.2868 16.0002 32.7259 17.4749 30.1002 20.1004C27.4745 22.726 26 26.2871 26 30.0001H29.9996C29.9996 27.3479 31.0529 24.804 32.9286 22.929C34.8036 21.0533 37.3475 20.0001 39.9997 20.0001C42.6518 20.0001 45.1958 21.0534 47.0708 22.929C48.9465 24.804 49.9997 27.3479 49.9997 30.0001C49.9997 32.6522 48.9464 35.1962 47.0708 37.0712C45.1958 38.9469 42.6518 40.0001 39.9997 40.0001C38.8948 40.0001 37.9998 40.8958 37.9998 41.9999V48.0003H41.9995V43.8603C46.7211 43.1872 50.7759 40.1571 52.7585 35.819C54.741 31.481 54.3782 26.4322 51.7965 22.422C49.2149 18.4119 44.7694 15.9913 39.9997 16.0004L39.9999 16.0002Z" fill="black"/>
<path d="M36 56.0002H44.0002V64.0004H36V56.0002Z" fill="black"/>
</svg>
