<svg width="81" height="80" viewBox="0 0 81 80" fill="none" xmlns="http://www.w3.org/2000/svg">
<g clip-path="url(#clip0_288_1907)">
<path d="M5.81796 80C5.62599 79.9333 5.4361 79.8581 5.24203 79.8039C2.71921 79.0965 0.991419 76.9138 0.966378 74.2929C0.935078 71.0648 0.955945 67.8366 0.955945 64.6085C0.953858 49.2504 0.970552 33.8902 0.935078 18.5299C0.930904 16.437 1.61326 14.7697 3.09899 13.309C6.86966 9.60511 10.6028 5.86365 14.3129 2.09924C15.7361 0.657331 17.3762 -0.00415378 19.4066 1.96206e-05C32.269 0.0292335 45.1314 0.0146265 57.996 0.0146265C62.0191 0.0146265 64.3854 2.39138 64.3854 6.43541C64.3854 11.2265 64.3854 16.0155 64.3854 20.8065C64.3854 21.0924 64.4 21.3887 64.3291 21.66C64.1726 22.2589 63.7636 22.5927 63.1272 22.5489C62.497 22.5051 62.1297 22.142 62.0588 21.5118C62.0296 21.2552 62.0442 20.9922 62.0442 20.7314C62.0442 15.9153 62.0442 11.0992 62.0442 6.28308C62.0442 3.74356 60.6669 2.36008 58.1462 2.36008C45.1794 2.36008 32.2127 2.36008 19.2459 2.36008C18.4641 2.36008 18.0732 2.75794 18.0732 3.55367C18.0732 6.60026 18.0794 9.64476 18.0711 12.6913C18.0627 15.5188 16.4288 17.1527 13.6076 17.159C10.5089 17.1652 7.41012 17.159 4.31136 17.159C4.02757 17.159 3.74169 17.159 3.35357 17.159C3.3327 17.5033 3.29931 17.8017 3.29931 18.1022C3.29722 36.7427 3.29514 55.3832 3.29931 74.0237C3.29931 76.2085 4.74331 77.6525 6.91557 77.6546C24.0745 77.6587 41.2335 77.6587 58.3924 77.6546C60.5563 77.6546 62.0024 76.1981 62.04 74.0258C62.0483 73.5563 62.0254 73.0868 62.0504 72.6194C62.088 71.9328 62.5533 71.4445 63.1752 71.4612C63.8346 71.4779 64.2811 71.8452 64.3521 72.4942C64.759 76.2147 63.1668 79.1299 59.6152 79.8957C59.5422 79.9124 59.4754 79.9645 59.4066 79.9979H5.81796V80ZM5.03127 14.5819C5.0897 14.6612 5.14813 14.7384 5.20656 14.8177C7.99022 14.8177 10.7718 14.8219 13.5555 14.8177C15.1393 14.8156 15.7235 14.2334 15.7277 12.6496C15.734 10.0725 15.7319 7.49754 15.7277 4.92046C15.7277 4.70345 15.6922 4.48434 15.6484 3.99605C12.0009 7.63318 8.51607 11.1096 5.03336 14.584L5.03127 14.5819Z" fill="black"/>
<path d="M55.0369 58.2295C52.4202 57.5409 51.2704 56.195 50.9741 53.5532C50.8572 52.5078 50.2375 51.888 49.2964 51.4957C47.5582 50.7716 46.4981 49.4466 46.4063 47.5811C46.3604 46.6692 46.5983 45.6467 47.0177 44.8329C47.6041 43.6935 47.6792 42.7378 47.0156 41.6193C45.5403 39.1383 46.5357 36.1209 49.19 34.9669C50.3376 34.4682 50.9073 33.7003 51.0263 32.4295C51.2975 29.5478 53.8558 27.6864 56.6854 28.3041C57.9583 28.5816 58.8743 28.2582 59.7278 27.2983C61.6413 25.1448 64.8361 25.1803 66.735 27.3567C67.5425 28.2811 68.4356 28.5775 69.6459 28.3124C72.5861 27.6697 75.0609 29.504 75.3718 32.5151C75.4928 33.6961 76.0437 34.4536 77.1518 34.9315C79.8937 36.1146 80.8682 39.1341 79.347 41.6986C78.7356 42.7295 78.7272 43.6581 79.3407 44.6931C80.8786 47.2889 79.8854 50.3105 77.0975 51.5041C76.0103 51.9694 75.4803 52.7269 75.3781 53.8745C75.1861 56.0301 74.0113 57.4345 71.9621 58.048C71.4196 58.2107 71.3591 58.4632 71.3591 58.9223C71.3716 62.1504 71.3758 65.3785 71.3591 68.6067C71.3507 70.1613 70.5035 71.2338 69.1242 71.3006C68.5441 71.3277 67.8889 71.1149 67.3672 70.8311C66.1361 70.1592 64.9529 69.3954 63.776 68.6317C63.3754 68.3709 63.0791 68.3417 62.6617 68.6129C61.4848 69.3787 60.2683 70.082 59.0809 70.8332C58.1711 71.4091 57.2384 71.5594 56.2848 71.0085C55.3603 70.4764 55.0244 69.6208 55.0306 68.5754C55.0452 65.4265 55.0369 62.2756 55.0369 59.1268V58.2337V58.2295ZM77.8028 39.3198C77.7173 38.3161 77.2457 37.4856 76.3213 37.1183C74.2617 36.3024 73.2204 34.8104 73.0285 32.6194C72.897 31.1128 71.6178 30.2426 70.1279 30.5995C68.0767 31.0898 66.4011 30.5452 65.0218 28.9468C63.9742 27.7303 62.4134 27.7407 61.3617 28.9614C60.0053 30.5348 58.3506 31.0815 56.3265 30.6099C54.6926 30.2301 53.4552 31.1817 53.3216 32.8719C53.1714 34.777 52.2365 36.1417 50.4879 36.9284C48.614 37.7736 48.2196 39.0068 49.24 40.8118C50.1332 42.3893 50.225 44.042 49.2275 45.5486C48.1904 47.1136 48.8248 48.8832 50.5275 49.5175C52.2282 50.1498 53.1276 51.5479 53.307 53.3466C53.5053 55.3373 54.6237 56.1657 56.6144 55.7421C58.3944 55.3645 59.9949 55.7964 61.1134 57.2133C62.2423 58.6427 64.1829 58.6239 65.3014 57.1987C66.4136 55.7818 68.0225 55.3624 69.8024 55.7442C71.7597 56.1657 72.8427 55.4083 73.0785 53.405C73.306 51.4707 74.3055 50.1435 76.0917 49.3819C77.6943 48.6995 78.1555 47.2618 77.254 45.7468C76.242 44.0462 76.242 42.3622 77.2394 40.6532C77.4815 40.2379 77.6171 39.7622 77.8007 39.3135L77.8028 39.3198ZM68.9636 58C68.1059 57.9102 67.4361 58.194 66.977 58.8033C65.1282 61.2615 61.3513 61.322 59.419 58.8033C58.939 58.1752 58.2546 57.8935 57.4345 57.9979V69.072C58.5572 68.3897 59.6402 67.8701 60.5604 67.1418C62.3612 65.7166 64.0368 65.7082 65.8418 67.1335C66.7642 67.8617 67.8451 68.3938 68.9636 69.0803V58Z" fill="black"/>
<path d="M39.8084 8.11114C43.6875 8.11114 47.5646 8.11114 51.4438 8.11114C53.4325 8.11114 54.4216 9.09606 54.4278 11.0722C54.432 11.9841 54.3715 12.898 54.4403 13.8037C54.6281 16.3077 53.0005 17.2113 51.1058 17.1841C46.0831 17.1132 41.0583 17.1612 36.0356 17.1591C35.8269 17.1591 35.6183 17.1674 35.4117 17.1549C34.6104 17.1069 34.1158 16.6645 34.1054 15.9926C34.0929 15.2915 34.6104 14.822 35.4576 14.822C40.6639 14.8136 45.8702 14.8178 51.0745 14.8178C51.7492 14.8178 52.0872 14.4728 52.0886 13.7828C52.0886 12.9502 52.0531 12.1155 52.1011 11.285C52.1387 10.6486 51.9488 10.4253 51.2811 10.4399C49.2778 10.4816 47.2725 10.4545 45.2693 10.4545C39.6206 10.4545 33.9719 10.4629 28.3252 10.442C27.6951 10.4399 27.4384 10.5922 27.4739 11.2621C27.526 12.2219 27.5073 13.1881 27.4801 14.1501C27.4655 14.6655 27.6763 14.847 28.1729 14.8241C28.7175 14.799 29.2664 14.8095 29.8131 14.8303C30.4892 14.8554 30.8669 15.2477 30.9524 15.8925C31.0317 16.4913 30.5705 17.0798 29.9049 17.1215C29.0514 17.1737 28.1813 17.1925 27.3361 17.0819C26.0528 16.9149 25.2015 15.9175 25.1597 14.6175C25.1201 13.3696 25.1305 12.1197 25.1472 10.8698C25.1722 9.13571 26.2052 8.1174 27.9392 8.11323C31.8956 8.10488 35.852 8.11114 39.8084 8.11114Z" fill="black"/>
<path d="M25.9444 47.1824C21.1304 47.1824 16.3164 47.1824 11.5023 47.1824C11.2686 47.1824 11.0287 47.2033 10.8012 47.1615C10.1543 47.0405 9.76411 46.6294 9.78498 45.9763C9.80584 45.3294 10.194 44.9267 10.8617 44.8536C11.0683 44.8307 11.277 44.8411 11.4856 44.8411C21.1137 44.8411 30.7438 44.8411 40.3719 44.8411C40.6056 44.8411 40.8455 44.8223 41.073 44.8599C41.6865 44.9621 42.0537 45.3231 42.0809 45.9596C42.1101 46.6002 41.7574 46.9883 41.1627 47.1407C40.9165 47.2033 40.6452 47.1803 40.3865 47.1803C35.5724 47.1803 30.7584 47.1803 25.9444 47.1803V47.1824Z" fill="black"/>
<path d="M25.9213 38.9335C21.1324 38.9335 16.3455 38.9335 11.5565 38.9335C11.2957 38.9335 11.0327 38.9481 10.7761 38.9126C10.1814 38.8291 9.83705 38.4452 9.78488 37.8734C9.73062 37.2954 10.0144 36.8551 10.5841 36.6861C10.8762 36.6005 11.1976 36.5964 11.5064 36.5964C21.1345 36.5922 30.7625 36.5922 40.3905 36.5964C40.7223 36.5964 41.1647 36.5546 41.3629 36.7383C41.6843 37.0367 42.0578 37.5291 42.0161 37.8964C41.9743 38.2636 41.4861 38.6225 41.1251 38.8896C40.954 39.0169 40.6201 38.9314 40.3613 38.9314C35.5473 38.9314 30.7333 38.9314 25.9193 38.9314L25.9213 38.9335Z" fill="black"/>
<path d="M25.9318 53.0792C30.7187 53.0792 35.5077 53.0792 40.2946 53.0792C40.5804 53.0792 40.8705 53.0688 41.1501 53.1147C41.7031 53.2065 42.0244 53.5571 42.0766 54.1142C42.1329 54.7027 41.8805 55.1451 41.3087 55.3162C40.9936 55.4122 40.641 55.4143 40.3071 55.4143C30.7312 55.4184 21.1574 55.4184 11.5815 55.4184C10.3504 55.4184 9.74524 55.0115 9.77028 54.204C9.79323 53.4298 10.3525 53.0771 11.569 53.0771C16.3559 53.0771 21.1449 53.0771 25.9318 53.0771V53.0792Z" fill="black"/>
<path d="M25.9797 28.3791C30.7415 28.3791 35.5013 28.3791 40.2631 28.3791C40.5741 28.3791 40.8933 28.3687 41.1959 28.4292C41.7468 28.5377 42.0514 28.907 42.0807 29.4663C42.112 30.0589 41.8386 30.4783 41.2627 30.6348C40.9684 30.7141 40.645 30.7162 40.3341 30.7162C30.7332 30.7204 21.1322 30.7204 11.5334 30.7204C11.4291 30.7204 11.3247 30.7225 11.2204 30.7204C10.3106 30.687 9.76807 30.2446 9.76807 29.5393C9.76807 28.8319 10.3106 28.3854 11.2267 28.3833C14.7386 28.377 18.2505 28.3791 21.7645 28.3791C23.1689 28.3791 24.5753 28.3791 25.9797 28.3791Z" fill="black"/>
<path d="M18.4737 65.1405C20.8671 65.1405 23.2585 65.1364 25.6519 65.1405C26.6306 65.1426 27.1565 65.5746 27.1335 66.3362C27.1126 67.0519 26.5805 67.4776 25.6603 67.4797C20.8483 67.4839 16.0364 67.4839 11.2245 67.4797C10.323 67.4797 9.77213 67.0186 9.77004 66.307C9.76587 65.5913 10.3063 65.1447 11.2182 65.1426C13.6367 65.1363 16.0552 65.1405 18.4737 65.1405Z" fill="black"/>
<path d="M63.1604 53.002C57.7767 52.9874 53.3947 48.6054 53.378 43.2175C53.3613 37.8171 57.7872 33.3933 63.2043 33.3975C68.638 33.4016 73.0222 37.7921 73.0118 43.2237C73.0034 48.6492 68.6026 53.0187 63.1604 53.0041V53.002ZM63.2105 35.7429C59.1018 35.7346 55.7714 39.0295 55.7234 43.1549C55.6754 47.2594 59.0559 50.6566 63.1938 50.6608C67.3151 50.6649 70.6496 47.3596 70.6684 43.2509C70.6872 39.0962 67.3672 35.7534 63.2105 35.745V35.7429Z" fill="black"/>
</g>
<defs>
<clipPath id="clip0_288_1907">
<rect width="79.1298" height="80" fill="white" transform="translate(0.935059)"/>
</clipPath>
</defs>
</svg>
