<svg width="242" height="241" viewBox="0 0 242 241" fill="none" xmlns="http://www.w3.org/2000/svg">
<path d="M213.618 186.521C215.489 186.522 217.318 187.075 218.873 188.111C220.428 189.147 221.641 190.619 222.356 192.342C223.072 194.065 223.259 195.961 222.894 197.789C222.529 199.618 221.628 201.298 220.306 202.617C218.983 203.935 217.297 204.833 215.463 205.197C213.628 205.56 211.726 205.374 209.998 204.66C208.27 203.947 206.793 202.738 205.753 201.188C204.714 199.637 204.159 197.814 204.159 195.95C204.162 193.45 205.16 191.054 206.933 189.286C208.706 187.519 211.111 186.524 213.618 186.521ZM213.618 203.459C215.617 203.459 217.533 202.668 218.946 201.259C220.359 199.851 221.153 197.94 221.153 195.948C221.153 193.956 220.359 192.046 218.946 190.637C217.533 189.229 215.617 188.437 213.618 188.437C211.62 188.438 209.703 189.23 208.291 190.639C206.878 192.048 206.084 193.958 206.085 195.95C206.085 197.942 206.88 199.853 208.293 201.261C209.706 202.669 211.623 203.46 213.622 203.46L213.618 203.459Z" fill="#CE4258"/>
<path d="M35.412 51.526C34.536 52.4037 33.494 53.0995 32.3465 53.5732C31.199 54.0468 29.9686 54.2889 28.7266 54.2854C26.5388 54.285 24.4189 53.5284 22.728 52.1445C21.0371 50.7607 19.8799 48.8352 19.4535 46.6962C19.0272 44.5573 19.358 42.3371 20.3897 40.414C21.4215 38.491 23.0902 36.984 25.1117 36.1499C27.1331 35.3157 29.3821 35.2061 31.4756 35.8396C33.569 36.4731 35.3774 37.8105 36.5924 39.624C37.8075 41.4375 38.3542 43.6149 38.1393 45.7852C37.9244 47.9554 36.9613 49.9842 35.4139 51.526H35.412ZM28.7286 37.3478C26.7424 37.3666 24.8439 38.1663 23.446 39.573C22.0481 40.9797 21.2638 42.8796 21.2638 44.8596C21.2638 46.8396 22.0481 48.7396 23.446 50.1463C24.8439 51.553 26.7424 52.3527 28.7286 52.3715C29.7182 52.3715 30.6981 52.1772 31.6124 51.7997C32.5267 51.4222 33.3574 50.8689 34.0572 50.1714C34.7569 49.4739 35.3119 48.6458 35.6907 47.7345C36.0694 46.8232 36.2642 45.8464 36.2642 44.86C36.2642 43.8735 36.0694 42.8968 35.6907 41.9854C35.3119 41.0741 34.7569 40.246 34.0572 39.5485C33.3574 38.851 32.5267 38.2977 31.6124 37.9202C30.6981 37.5427 29.7182 37.3484 28.7286 37.3484V37.3478Z" fill="#CE4258"/>
<path d="M209.047 202.375C209.047 202.62 208.953 202.855 208.784 203.033C197.587 214.953 184.058 224.459 169.032 230.965C154.006 237.47 137.802 240.837 121.42 240.858H120.944C102.145 240.765 83.6227 236.338 66.8251 227.924C50.0275 219.51 35.4102 207.336 24.1161 192.356C24.0373 192.255 23.9794 192.139 23.946 192.016C23.9125 191.892 23.9042 191.764 23.9215 191.637C23.9387 191.51 23.9813 191.388 24.0465 191.278C24.1117 191.168 24.1984 191.072 24.3014 190.996C24.4044 190.92 24.5216 190.865 24.6462 190.834C24.7708 190.804 24.9002 190.798 25.0269 190.819C25.1535 190.839 25.2749 190.884 25.3838 190.952C25.4927 191.019 25.5869 191.108 25.661 191.212C36.0174 205.092 49.3001 216.541 64.5741 224.752C79.8481 232.963 96.7421 237.738 114.067 238.739C131.391 239.74 148.726 236.944 164.849 230.547C180.973 224.15 195.494 214.308 207.39 201.714C207.476 201.622 207.579 201.548 207.694 201.497C207.808 201.446 207.932 201.418 208.058 201.415C208.186 201.412 208.314 201.435 208.434 201.482C208.553 201.529 208.662 201.6 208.754 201.689C208.846 201.778 208.919 201.885 208.969 202.003C209.02 202.121 209.046 202.247 209.047 202.375Z" fill="#CE4258"/>
<path d="M4.5431 152.355C-1.14951 131.459 -1.12253 109.425 4.62126 88.5434C4.6924 88.3021 4.85582 88.0983 5.07635 87.9761C5.29687 87.8539 5.55678 87.8231 5.79992 87.8903C6.04306 87.9574 6.24998 88.1172 6.37597 88.3351C6.50197 88.553 6.53696 88.8115 6.47338 89.0549C0.822271 109.605 0.796247 131.289 6.39796 151.852C6.4317 151.974 6.44106 152.1 6.42559 152.225C6.41012 152.35 6.37009 152.471 6.30777 152.58C6.24546 152.69 6.16208 152.786 6.06243 152.863C5.96279 152.94 5.84882 152.997 5.72707 153.031C5.4803 153.095 5.21813 153.06 4.99678 152.934C4.77542 152.808 4.61256 152.6 4.5431 152.355Z" fill="#CE4258"/>
<path d="M120.481 0.323242H120.935C187.465 0.323242 241.59 54.2733 241.59 120.587C241.596 131.439 240.133 142.243 237.24 152.705C237.21 152.825 237.156 152.938 237.081 153.037C237.007 153.137 236.914 153.22 236.807 153.283C236.7 153.346 236.581 153.387 236.458 153.404C236.335 153.422 236.21 153.414 236.09 153.383C235.965 153.352 235.848 153.296 235.745 153.22C235.642 153.143 235.555 153.047 235.49 152.936C235.425 152.826 235.382 152.704 235.365 152.577C235.347 152.45 235.355 152.321 235.388 152.197C238.235 141.901 239.676 131.269 239.67 120.588C239.67 55.3302 186.408 2.23856 120.939 2.23856H120.498C104.47 2.26198 88.6142 5.53723 73.8968 11.8648C59.1795 18.1924 45.9084 27.44 34.8915 39.0442C34.8049 39.1352 34.7009 39.2082 34.5858 39.2589C34.4706 39.3096 34.3465 39.3371 34.2206 39.3396C33.9664 39.3425 33.7207 39.2482 33.5342 39.0761C33.4426 38.9894 33.369 38.8856 33.3177 38.7706C33.2664 38.6555 33.2384 38.5315 33.2351 38.4057C33.2319 38.2799 33.2536 38.1546 33.299 38.0372C33.3443 37.9197 33.4124 37.8123 33.4995 37.721C44.6939 25.9309 58.1785 16.5351 73.1321 10.1058C88.0858 3.67642 104.196 0.34803 120.481 0.323242Z" fill="#CE4258"/>
</svg>
