<svg width="81" height="80" viewBox="0 0 81 80" fill="none" xmlns="http://www.w3.org/2000/svg">
<path d="M79.5832 73.5809C80.3789 73.9393 80.5209 74.5501 80.4961 75.2804C80.4623 76.3488 80.4938 77.4172 80.4848 78.4856C80.4758 79.5945 80.0701 79.998 78.9476 79.998C72.6478 80.0025 66.3479 79.998 60.0481 79.998C40.8397 79.998 21.6314 79.998 2.42526 79.998C0.782115 79.998 0.504876 79.7253 0.504876 78.1069C0.504876 77.0656 0.493606 76.0265 0.509384 74.9852C0.522908 74.025 0.944401 73.6057 1.90685 73.59C2.74758 73.5764 3.59056 73.5877 4.55526 73.5877V72.4923C4.55526 48.9788 4.55526 25.4654 4.55526 1.95195C4.55526 0.265982 4.81673 0.0067752 6.5072 0.0067752C7.46289 0.0067752 8.41857 0.00226725 9.37651 0.0067752C10.5891 0.0135371 10.9678 0.396712 10.9678 1.6364C10.9678 8.1346 10.9678 14.6305 10.9678 21.1287C10.9678 21.4308 10.9678 21.7328 10.9678 22.0777H14.7162C14.7162 21.291 14.7455 20.5382 14.6959 19.7899C14.6824 19.6006 14.4479 19.3887 14.2631 19.258C12.94 18.3158 12.4126 16.9206 12.8702 15.5164C13.3119 14.1572 14.5313 13.3345 16.1272 13.3278C17.5832 13.3232 19.0393 13.3278 20.5923 13.3278C20.5923 12.1084 20.5923 10.9633 20.5923 9.82057C20.5923 3.98278 24.5457 1.32819e-05 30.3678 0.0157911C32.6713 0.022553 34.9974 -0.0878916 37.2694 0.193855C41.5858 0.7303 44.8811 4.53275 45.0298 8.88066C45.0817 10.3976 45.0456 11.919 45.0501 13.4359C45.0501 13.7087 45.0501 13.9814 45.0501 14.3398C46.5918 14.3398 48.0457 14.3375 49.4995 14.3398C51.2305 14.3443 52.4251 15.1309 52.8917 16.5667C53.3515 17.9822 52.8106 19.2985 51.3951 20.3421C51.1945 20.4909 51.0277 20.8335 51.0277 21.0882C51.0074 28.0349 51.0096 34.9817 51.0187 41.9307C51.0187 42.1741 51.0592 42.4491 51.1742 42.6587C53.8699 47.489 56.5792 52.3125 59.3809 57.3095C60.2261 55.3733 61.6619 53.9286 61.5402 51.6656C61.3621 48.3567 61.4861 45.0299 61.5041 41.712C61.5064 41.2139 61.3711 40.9141 60.9294 40.6279C59.6897 39.8254 59.1961 38.3581 59.6221 37.0102C60.0368 35.7007 61.2449 34.7923 62.6807 34.7811C65.2953 34.7608 67.9122 34.7585 70.5268 34.7811C71.9919 34.7946 73.2022 35.7548 73.5787 37.1207C73.9528 38.4776 73.4524 39.884 72.2308 40.6369C71.8048 40.9006 71.6808 41.1711 71.6831 41.6376C71.6988 45.3792 71.6808 49.1186 71.7079 52.8602C71.7101 53.2817 71.8566 53.7437 72.064 54.1179C74.5321 58.5627 76.9957 63.0121 79.5224 67.4253C80.6877 69.4607 80.8252 71.4442 79.5765 73.5809H79.5832ZM25.2941 73.5516C22.7854 70.3645 22.7471 67.209 24.6855 63.8257C28.6345 56.9286 32.4865 49.9751 36.3543 43.0328C36.5865 42.6159 36.7194 42.0839 36.7194 41.6061C36.742 34.8577 36.7307 28.1093 36.7465 21.3609C36.7465 20.8042 36.6158 20.4593 36.1041 20.1438C34.9591 19.4338 34.4767 18.0588 34.7901 16.7515C35.0808 15.5389 36.201 14.5043 37.4655 14.3758C38.2183 14.3015 38.9824 14.3443 39.742 14.342C40.7135 14.3375 41.6849 14.342 42.6744 14.342C42.6744 12.4126 42.7443 10.6117 42.6587 8.81755C42.5122 5.73186 40.177 2.89411 37.1207 2.58307C34.2897 2.2923 31.3933 2.34865 28.5511 2.5718C26.3534 2.7431 24.7689 4.18564 23.7321 6.13307C22.5127 8.42311 23.0671 10.8844 22.9567 13.3345C24.6652 13.3345 26.2385 13.3075 27.8118 13.3435C29.1303 13.3728 30.3114 14.324 30.6878 15.5727C31.0823 16.8823 30.6405 18.3609 29.4955 19.0731C28.9207 19.4293 28.808 19.826 28.8103 20.43C28.826 27.0387 28.8328 33.6451 28.8148 40.2537C28.8035 44.4506 25.7313 47.6062 21.7305 47.5881C17.8041 47.5701 14.7613 44.4461 14.7252 40.3461C14.6959 36.7465 14.7184 33.1469 14.7184 29.5496C14.7184 29.2273 14.7184 28.9072 14.7184 28.6052H11.0084V73.5539H25.2918L25.2941 73.5516ZM53.5837 73.5471C52.069 71.0745 52.7429 68.8521 54.0998 66.6297C55.3575 64.5695 56.471 62.4215 57.6724 60.3253C57.9181 59.8948 57.9654 59.5612 57.7017 59.1014C56.3966 56.8384 55.1209 54.5597 53.8654 52.2696C53.613 51.8098 53.3245 51.6588 52.8106 51.6588C46.8511 51.6768 40.8893 51.6768 34.9298 51.6588C34.4091 51.6588 34.1319 51.8301 33.8817 52.2809C31.4271 56.6987 28.9252 61.0939 26.4954 65.5275C26.0762 66.2938 25.7584 67.1977 25.6908 68.061C25.4586 71.0587 27.8253 73.5652 30.8884 73.5787C38.2815 73.6102 45.6767 73.59 53.0698 73.59C53.2027 73.59 53.3357 73.5697 53.5837 73.5494V73.5471ZM48.652 20.82H39.0974V21.8726C39.0974 28.3076 39.0726 34.7427 39.1177 41.1778C39.1267 42.4333 38.8833 43.5287 38.2206 44.5994C37.2987 46.0937 36.4895 47.6557 35.6037 49.2425H52.1479C51.1787 47.5137 50.2861 45.8638 49.3327 44.2477C48.8458 43.4228 48.6294 42.5866 48.6339 41.6196C48.6655 35.0718 48.6497 28.524 48.6497 21.9785V20.82H48.652ZM66.5688 73.59C69.2939 73.59 72.0212 73.5945 74.7462 73.59C77.5614 73.5854 78.9341 71.2481 77.5637 68.78C76.0648 66.0797 74.5343 63.3975 73.0512 60.6882C72.7808 60.1968 72.4697 60.0503 71.9265 60.0548C68.3585 60.0796 64.7882 60.0774 61.2201 60.0548C60.713 60.0526 60.4177 60.1833 60.163 60.6499C58.6641 63.3817 57.1179 66.0865 55.6032 68.8115C54.2621 71.2255 55.6393 73.5787 58.3891 73.5877C61.1142 73.5967 63.8415 73.5877 66.5666 73.5877L66.5688 73.59ZM2.90536 77.584H78.0573V75.9927H2.90536V77.584ZM17.1414 19.7854V32.8922H26.4075V19.7854H17.1414ZM6.97152 2.41176V73.5223H8.56283V2.41176H6.97152ZM71.3247 57.6656C70.8356 56.7821 70.4592 56.0045 69.9903 55.2832C69.4787 54.4966 69.3096 53.6739 69.3209 52.7407C69.3592 49.202 69.3367 45.6655 69.3367 42.1268V41.2319H63.8618C63.8618 41.5813 63.8618 41.8833 63.8618 42.1876C63.8618 45.697 63.8415 49.2087 63.8753 52.7182C63.8843 53.6491 63.722 54.4785 63.2149 55.2674C62.7371 56.009 62.3426 56.8046 61.8603 57.6656H71.3269H71.3247ZM17.1009 35.3446C17.1009 37.2446 17.0085 39.0456 17.1234 40.8307C17.2857 43.4115 19.3796 45.2756 21.8703 45.2215C24.3947 45.1651 26.367 43.1726 26.4481 40.5467C26.4909 39.1447 26.4571 37.7405 26.4594 36.3363C26.4594 36.0117 26.4594 35.6872 26.4594 35.3446H17.1009ZM43.842 18.3902C45.7782 18.3902 47.7143 18.3902 49.6482 18.3902C50.2298 18.3902 50.6558 18.167 50.6467 17.5201C50.64 16.9206 50.2433 16.7042 49.6911 16.7042C45.7917 16.7042 41.8923 16.7042 37.9929 16.7042C37.4227 16.7042 37.0801 16.9634 37.0846 17.5607C37.0891 18.1152 37.4295 18.3564 37.9479 18.3857C38.144 18.3969 38.3401 18.3902 38.5362 18.3902C40.3033 18.3902 42.0704 18.3902 43.8375 18.3902H43.842ZM21.85 15.6899C19.9995 15.6899 18.1467 15.6989 16.2962 15.6854C15.6809 15.6809 15.1016 15.753 15.0926 16.5059C15.0813 17.2429 15.6358 17.3826 16.2624 17.3804C19.9364 17.3736 23.6103 17.3736 27.2843 17.3804C27.9154 17.3804 28.4586 17.2294 28.4496 16.4968C28.4406 15.8094 27.9222 15.6786 27.3181 15.6832C25.4947 15.7012 23.6712 15.6899 21.85 15.6899ZM66.5981 38.8224C67.8355 38.8224 69.0707 38.8157 70.3081 38.8247C70.9032 38.8292 71.3337 38.5993 71.3337 37.9772C71.3337 37.3528 70.9009 37.1297 70.3081 37.132C67.8355 37.1387 65.3607 37.1387 62.8881 37.132C62.2998 37.132 61.8738 37.3326 61.8738 37.9794C61.8738 38.6286 62.302 38.8292 62.8903 38.8247C64.1278 38.8157 65.3629 38.8224 66.6004 38.8224H66.5981ZM10.9994 26.1236H14.6553V24.4849C14.0107 24.4849 13.4292 24.4849 12.8454 24.4849C12.2616 24.4849 11.6327 24.4849 10.9994 24.4849V26.1236Z" fill="black"/>
<path d="M58.6846 22.5737C58.6846 20.7637 60.0685 19.373 61.8717 19.373C63.6478 19.373 65.0949 20.8201 65.0746 22.5805C65.0543 24.3385 63.5757 25.7856 61.8221 25.7631C60.0933 25.7428 58.6846 24.3092 58.6846 22.5737ZM62.8229 22.7337C62.8229 22.6143 62.8274 22.4925 62.8296 22.3731C62.4983 22.1612 62.1602 21.778 61.8401 21.7938C61.5674 21.8073 61.1549 22.2446 61.0896 22.5534C60.9791 23.0696 61.3961 23.4302 61.8965 23.3491C62.2301 23.295 62.5141 22.9501 62.8206 22.7337H62.8229Z" fill="black"/>
<path d="M63.0728 14.5201C63.0683 12.7124 64.4612 11.306 66.2531 11.3037C68.027 11.3037 69.474 12.7508 69.4628 14.5134C69.4515 16.2647 67.9661 17.723 66.2171 17.705C64.4883 17.687 63.0773 16.2557 63.0728 14.5179V14.5201ZM66.4537 13.5397C66.3275 13.5419 66.2013 13.5442 66.0751 13.5464C65.8632 13.8507 65.5318 14.1324 65.4687 14.4638C65.3696 14.989 65.7685 15.3789 66.2576 15.2955C66.5687 15.2414 67.0127 14.8154 67.0375 14.5269C67.0623 14.2158 66.6679 13.8687 66.456 13.5397H66.4537Z" fill="black"/>
<path d="M65.4351 27.7415C65.4418 25.9947 66.8415 24.5905 68.5884 24.586C70.369 24.5792 71.8228 26.006 71.8273 27.7663C71.8318 29.5289 70.3758 30.9782 68.6087 30.967C66.8145 30.9557 65.4306 29.5492 65.4351 27.7415ZM68.807 26.8399C68.6808 26.8354 68.5568 26.8287 68.4306 26.8242C68.221 27.1487 67.8355 27.4868 67.8558 27.7956C67.8739 28.0751 68.3021 28.4876 68.6132 28.5552C69.1248 28.6679 69.4922 28.2509 69.4223 27.7528C69.375 27.426 69.0234 27.142 68.807 26.8399Z" fill="black"/>
<path d="M54.8345 61.6527C54.8571 63.4244 53.428 64.8917 51.6632 64.9052C49.8871 64.9187 48.4355 63.4875 48.4287 61.7181C48.422 59.9397 49.8442 58.5242 51.6406 58.522C53.3897 58.522 54.812 59.9149 54.8323 61.6505L54.8345 61.6527ZM51.8142 60.7557C51.6902 60.7602 51.564 60.7669 51.44 60.7714C51.2259 61.0757 50.8788 61.362 50.827 61.6911C50.7481 62.2072 51.1515 62.5971 51.6452 62.4957C51.9585 62.4326 52.3935 62.0089 52.4115 61.7249C52.4318 61.4138 52.0306 61.078 51.8142 60.7534V60.7557Z" fill="black"/>
<path d="M43.3777 56.7437C43.3664 58.5289 41.9329 59.9376 40.1477 59.9218C38.4212 59.9061 36.9944 58.477 36.9786 56.7505C36.9629 55.0014 38.4234 53.5296 40.186 53.5205C41.9441 53.5115 43.3889 54.9699 43.3777 56.7437ZM40.3934 55.7655C40.2762 55.7655 40.1613 55.7655 40.044 55.7655C39.8119 56.0675 39.3633 56.4034 39.4017 56.6671C39.449 56.9939 39.8615 57.4109 40.1928 57.4966C40.3889 57.5484 40.9366 57.0525 40.9569 56.7753C40.9794 56.4552 40.5985 56.1036 40.3934 55.7655Z" fill="black"/>
<path d="M38.1484 71.4283C36.3767 71.4238 34.9274 69.9633 34.9545 68.2074C34.9815 66.4538 36.4691 65.0068 38.2205 65.0361C39.947 65.0631 41.3558 66.5034 41.3512 68.2367C41.349 70.0376 39.9493 71.4306 38.1461 71.4283H38.1484ZM39.1176 68.3832C39.1153 68.257 39.1108 68.1285 39.1085 68.0023C38.7682 67.8062 38.403 67.4275 38.0943 67.4681C37.8057 67.5064 37.4 67.9685 37.364 68.2841C37.3054 68.7732 37.7133 69.1563 38.234 69.0324C38.5631 68.9535 38.8268 68.6086 39.1198 68.3832H39.1176Z" fill="black"/>
<path d="M74.9263 67.9643C74.7415 68.1807 74.5229 68.6766 74.1825 68.7802C73.8016 68.8975 73.0894 68.8118 72.9113 68.5503C72.1585 67.4459 71.5026 66.2626 70.912 65.0612C70.6573 64.5428 70.8917 63.9072 71.4575 63.7359C71.8654 63.6119 72.6228 63.675 72.8054 63.941C73.574 65.068 74.187 66.3031 74.852 67.5022C74.8903 67.5721 74.8813 67.6668 74.9286 67.9621L74.9263 67.9643Z" fill="black"/>
</svg>
