<svg width="32" height="32" viewBox="0 0 32 32" fill="none" xmlns="http://www.w3.org/2000/svg">
<path d="M22.4667 19.0333C22.2 18.9 20.4667 18.1 20.2 17.9667C19.9333 17.8333 19.6667 17.8333 19.4 18.1C19.1333 18.3667 18.6 19.1667 18.3333 19.4333C18.2 19.7 17.9333 19.7 17.6667 19.5667C16.7333 19.1667 15.8 18.6333 15 17.9667C14.3333 17.3 13.6667 16.5 13.1333 15.7C13 15.4333 13.1333 15.1667 13.2667 15.0333C13.4 14.9 13.5333 14.6333 13.8 14.5C13.9333 14.3667 14.0667 14.1 14.0667 13.9667C14.2 13.8333 14.2 13.5667 14.0667 13.4333C13.9333 13.3 13.2667 11.7 13 11.0333C12.8667 10.1 12.6 10.1 12.3333 10.1H11.6667C11.4 10.1 11 10.3667 10.8667 10.5C10.0667 11.3 9.66667 12.2333 9.66667 13.3C9.8 14.5 10.2 15.7 11 16.7667C12.4667 18.9 14.3333 20.6333 16.6 21.7C17.2667 21.9667 17.8 22.2333 18.4667 22.3667C19.1333 22.6333 19.8 22.6333 20.6 22.5C21.5333 22.3667 22.3333 21.7 22.8667 20.9C23.1333 20.3667 23.1333 19.8333 23 19.3L22.4667 19.0333ZM25.8 6.9C20.6 1.7 12.2 1.7 7 6.9C2.73333 11.1667 1.93333 17.7 4.86667 22.9L3 29.7L10.0667 27.8333C12.0667 28.9 14.2 29.4333 16.3333 29.4333C23.6667 29.4333 29.5333 23.5667 29.5333 16.2333C29.6667 12.7667 28.2 9.43333 25.8 6.9ZM22.2 25.5667C20.4667 26.6333 18.4667 27.3 16.3333 27.3C14.3333 27.3 12.4667 26.7667 10.7333 25.8333L10.3333 25.5667L6.2 26.6333L7.26667 22.6333L7 22.2333C3.8 16.9 5.4 10.2333 10.6 6.9C15.8 3.56667 22.4667 5.3 25.6667 10.3667C28.8667 15.5667 27.4 22.3667 22.2 25.5667Z" fill="white"/>
</svg>
