<svg width="63" height="80" viewBox="0 0 63 80" fill="none" xmlns="http://www.w3.org/2000/svg">
<path d="M2.45015 0.000487363C1.55666 0.0848263 0.798209 0.921879 0.802755 1.82045V70.0686C0.802755 71.0216 1.66897 71.8885 2.62077 71.8885H25.8869C26.8476 71.9025 27.7309 71.0299 27.7309 70.0686C27.7309 69.1072 26.8476 68.2353 25.8869 68.2486H4.43894V3.64008H58.9842V18.1998C58.9709 19.1611 59.8415 20.0457 60.8022 20.0457C61.7629 20.0457 62.6342 19.1611 62.6202 18.1998V1.81996C62.6202 0.866864 61.754 0 60.8022 0H2.45015V0.000487363ZM11.541 8.19023C10.5892 8.23462 9.76295 9.14269 9.80791 10.0957C9.8523 11.0488 10.7597 11.8751 11.7116 11.8301H51.7115C52.6722 11.8435 53.5555 10.9715 53.5555 10.0102C53.5555 9.04884 52.6721 8.17692 51.7115 8.19023H11.5412H11.541ZM11.541 17.29C10.5892 17.3344 9.76295 18.2425 9.80791 19.1955C9.8523 20.1486 10.7597 20.9749 11.7116 20.9299H43.5297C44.4904 20.9439 45.3737 20.0713 45.3737 19.11C45.3737 18.1486 44.4903 17.2767 43.5297 17.29H11.5412H11.541ZM60.6041 23.6312C59.7106 23.7295 58.9655 24.5799 58.9846 25.4798V68.2491H58.1038C57.143 68.2351 56.2598 69.1077 56.2598 70.069C56.2598 71.0304 57.1431 71.9023 58.1038 71.889H60.8026C61.7544 71.889 62.6206 71.0221 62.6206 70.069V25.4799C62.6428 24.4476 61.6288 23.5186 60.6034 23.6314L60.6041 23.6312ZM11.541 26.3897C10.5892 26.4341 9.76295 27.3421 9.80791 28.2952C9.8523 29.2483 10.7597 30.0746 11.7116 30.0296H50.8316C51.7923 30.0435 52.6756 29.171 52.6756 28.2096C52.6756 27.2483 51.7923 26.3764 50.8316 26.3897H11.5428H11.541ZM11.541 35.4895C10.5892 35.5339 9.76295 36.4419 9.80791 37.395C9.8523 38.3481 10.7597 39.1744 11.7116 39.1294H28.9843C29.945 39.1433 30.8283 38.2708 30.8283 37.3094C30.8283 36.3481 29.9449 35.4762 28.9843 35.4895H11.5412H11.541ZM41.7114 37.3094C34.202 37.3094 28.075 43.442 28.075 50.959C28.075 58.4761 34.202 64.6087 41.7114 64.6087C49.2207 64.6087 55.3477 58.4761 55.3477 50.959C55.3477 43.442 49.2207 37.3094 41.7114 37.3094ZM41.7114 40.9493C47.2555 40.9493 51.7116 45.4092 51.7116 50.959C51.7116 56.5089 47.2563 60.9688 41.7114 60.9688C36.1672 60.9688 31.7111 56.5089 31.7111 50.959C31.7111 45.4092 36.1664 40.9493 41.7114 40.9493ZM46.0862 46.3807C45.629 46.4282 45.1927 46.6565 44.8927 47.0065L39.8077 52.8075L37.535 50.5608C36.8628 49.8689 35.6162 49.8638 34.9382 50.55C34.2603 51.2361 34.2794 52.4841 34.9782 53.1487L38.6142 56.7886C39.3162 57.502 40.6301 57.4601 41.2845 56.703L47.62 49.4238C48.1178 48.8829 48.237 48.0268 47.906 47.3706C47.575 46.7142 46.8159 46.3014 46.086 46.3813L46.0862 46.3807ZM32.4213 64.5803C31.5278 64.6785 30.7827 65.5289 30.8017 66.4288V78.2584C30.8207 79.5648 32.5634 80.4722 33.6426 79.7372L41.7106 74.1639L49.7786 79.7372C50.8579 80.4722 52.6005 79.5648 52.6195 78.2584V66.4288C52.6328 65.4674 51.7622 64.5829 50.8015 64.5829C49.8408 64.5829 48.9695 65.4675 48.9835 66.4288V74.7891L42.7335 70.4383C42.1349 70.0306 41.287 70.0306 40.6877 70.4383L34.4377 74.7891V66.4288C34.4599 65.3964 33.446 64.4674 32.4205 64.5803H32.4213Z" fill="black"/>
</svg>
