<svg width="79" height="80" viewBox="0 0 79 80" fill="none" xmlns="http://www.w3.org/2000/svg">
<g clip-path="url(#clip0_440_184)">
<path d="M30.3295 80.0001C20.8667 80.0001 11.4038 80.0001 1.941 80.0001C0.295757 80.0001 -0.00851502 79.6979 0.00017845 78.0563C0.0349523 72.0836 0.263156 66.124 1.21074 60.2165C1.74105 56.9159 2.3974 53.6306 4.15348 50.7258C7.41354 45.3336 12.1384 42.2266 18.5064 41.7787C18.7737 41.7591 19.1497 41.5134 19.2562 41.2743C19.6605 40.3589 20.0104 39.4153 20.3016 38.4586C20.382 38.1933 20.2951 37.752 20.1125 37.5454C17.2502 34.321 15.8571 30.5464 15.8093 26.2544C15.8093 26.174 15.8071 26.0914 15.8093 26.0109C15.844 23.0061 15.8223 20.0186 15.1703 17.0442C14.8573 15.6114 14.8986 14.072 14.9703 12.5892C15.1181 9.52996 16.8503 7.25351 19.0085 5.32058C22.212 2.45272 26.1045 1.00901 30.2839 0.28063C32.9332 -0.182489 35.5695 -0.0607295 38.1884 0.574157C40.0619 1.03075 41.4376 2.05918 42.0418 3.93123C42.4222 5.11403 43.2676 5.8598 44.1717 6.62079C46.3147 8.42544 47.7469 10.6845 47.6882 13.5524C47.6643 14.7482 47.3144 16.081 46.6906 17.0899C45.2975 19.3403 44.928 21.6906 45.0019 24.278C45.0584 26.3175 44.8476 28.3983 44.4716 30.4073C43.9631 33.1208 42.6004 35.4777 40.7226 37.5063C40.377 37.8802 40.3075 38.1868 40.4944 38.6543C40.8356 39.5088 41.0747 40.4046 41.4333 41.2504C41.5354 41.4917 41.9027 41.7591 42.1635 41.7744C49.5986 42.2244 55.8818 47.1948 58.1465 54.4395C59.2201 57.8748 59.7939 61.4102 60.0525 64.9781C60.3698 69.3571 60.4915 73.7535 60.6654 78.1411C60.7263 79.6588 60.3437 79.998 58.8028 79.998C49.3139 79.998 39.8228 79.998 30.3339 79.998L30.3295 80.0001ZM47.4209 77.4758C47.4209 75.2037 47.4209 73.036 47.4209 70.8682C47.4209 68.4809 47.4122 66.0935 47.4274 63.7062C47.4318 62.8974 47.9447 62.356 48.6402 62.3494C49.34 62.3429 49.8312 62.8734 49.8681 63.6844C49.879 63.9019 49.8725 64.1193 49.8725 64.3346C49.8725 68.3765 49.8725 72.4185 49.8725 76.4626V77.4476H58.0009C58.0009 75.1341 58.0856 72.8838 57.9835 70.6421C57.7683 65.9261 57.3467 61.2319 56.2122 56.6268C55.0103 51.7477 52.2762 48.0754 47.8034 45.7185C47.0688 45.3315 46.6233 45.3749 46.0299 46.0403C43.2676 49.1364 40.4357 52.1695 37.6255 55.2244C36.6779 56.255 36.315 56.2832 35.1327 55.4701C34.9349 55.3353 34.7284 55.2157 34.4785 55.0591C34.1308 55.6266 33.7548 56.131 33.5026 56.692C33.281 57.1812 33.0202 57.7552 33.0832 58.2531C33.7091 63.2278 34.3981 68.1939 35.074 73.1621C35.2696 74.6014 35.4869 76.0386 35.6934 77.478H47.4209V77.4758ZM25.7589 54.9591C25.5025 55.1287 25.3221 55.2439 25.1439 55.3679C23.7529 56.3289 23.516 56.3072 22.3554 55.0483C19.5627 52.0173 16.7677 48.9864 13.9923 45.9402C13.6446 45.5597 13.3468 45.4141 12.8926 45.7206C11.8385 46.4295 10.7105 47.0448 9.73035 47.8406C6.52246 50.4453 4.9359 53.9807 4.13175 57.9379C2.85164 64.2389 2.54519 70.6247 2.47782 77.0301C2.47782 77.1801 2.53867 77.3301 2.56475 77.4541H10.7931C10.7931 77.1018 10.7931 76.8083 10.7931 76.517C10.7931 72.4207 10.7931 68.3243 10.7931 64.228C10.7931 63.9562 10.7757 63.6823 10.8127 63.4148C10.9061 62.756 11.3343 62.3864 11.9667 62.3647C12.6427 62.3429 13.0904 62.7212 13.2164 63.404C13.2599 63.641 13.2382 63.891 13.2382 64.1345C13.2382 68.2569 13.2382 72.3815 13.2382 76.5039V77.4628H24.4093C24.444 77.3171 24.4766 77.2171 24.4897 77.1149C25.3547 70.8334 26.2219 64.552 27.0738 58.2662C27.1195 57.9313 27.1282 57.5356 26.9934 57.2421C26.6435 56.4833 26.2045 55.7679 25.7568 54.9548L25.7589 54.9591ZM42.5656 24.2585C42.5656 23.9062 42.5156 23.5453 42.5743 23.2018C42.9025 21.308 42.32 19.836 40.603 18.8989C40.3422 18.7554 39.9445 18.6228 39.7033 18.7184C33.4679 21.1949 27.2673 21.3123 21.0862 18.5293C20.9123 18.451 20.5907 18.464 20.4537 18.5749C19.78 19.1185 19.128 19.6925 18.5108 20.2991C18.3499 20.4578 18.2739 20.7731 18.2717 21.0166C18.2543 22.8865 18.2326 24.7585 18.276 26.6284C18.3456 29.668 19.254 32.4554 21.121 34.858C24.0115 38.5738 27.7845 40.3806 32.5116 39.487C36.6497 38.7043 39.4186 36.0691 41.2138 32.3511C42.4504 29.792 42.7003 27.0567 42.5634 24.2606L42.5656 24.2585ZM17.498 17.5574L18.0065 17.7791C18.4369 17.2573 18.8433 16.7137 19.2997 16.2158C20.0343 15.4157 20.4059 15.3766 21.3622 15.8919C23.6356 17.1182 26.0697 17.79 28.6343 18.0357C32.4529 18.401 36.0759 17.6639 39.5381 16.0767C40.3705 15.694 41.0138 15.7745 41.6484 16.4507C42.1809 17.0203 42.796 17.5117 43.4349 18.0922C43.7675 17.4617 44.0283 16.8964 44.3521 16.3702C45.8452 13.9437 45.3671 11.7108 43.6849 9.61693C43.2654 9.09511 42.7547 8.62547 42.22 8.22106C41.0573 7.34265 40.2097 6.25769 39.7706 4.86616C39.4338 3.80294 38.6861 3.24198 37.6299 2.9789C35.3609 2.41794 33.0723 2.32879 30.7751 2.70494C27.1912 3.29199 23.8572 4.53132 21.0166 6.84474C19.3584 8.19496 17.8674 9.81914 17.5545 11.9999C17.2937 13.8176 17.5001 15.7005 17.5001 17.5552L17.498 17.5574ZM22.5098 39.7023C22.1816 40.5763 21.8382 41.4243 21.56 42.294C21.5122 42.444 21.6904 42.7484 21.849 42.8658C24.4658 44.7966 27.0934 46.7143 29.734 48.6124C29.8927 48.7277 30.2687 48.7364 30.4273 48.6276C33.2462 46.7012 36.052 44.7553 38.8448 42.7897C39.0056 42.6767 39.136 42.3223 39.0839 42.1396C38.8513 41.3438 38.5449 40.572 38.2536 39.7545C32.9767 43.0137 27.7715 42.9985 22.5098 39.7001V39.7023ZM33.1832 77.4584C32.316 71.127 31.4597 64.8694 30.6012 58.5923H29.5254C28.6647 64.8846 27.8063 71.1444 26.9434 77.4584H33.1832ZM27.9388 50.3823C25.17 48.3624 22.5076 46.4164 19.8365 44.4791C19.6713 44.3596 19.4453 44.2378 19.2562 44.2487C18.2478 44.3074 17.2415 44.4074 16.0179 44.5118C18.7803 47.5166 21.3709 50.3323 23.9789 53.1675C25.3177 52.2261 26.5739 51.3433 27.941 50.3823H27.9388ZM44.1521 44.477C42.6134 44.353 41.3637 43.916 40.0488 44.9314C37.7842 46.6817 35.3609 48.2276 33.0071 49.8626C32.7746 50.0235 32.5551 50.204 32.2551 50.4323C33.6004 51.3737 34.8545 52.2521 36.1628 53.1675C38.7948 50.304 41.4007 47.4688 44.1521 44.477ZM27.7889 53.511C28.2192 54.2938 28.5821 54.9874 28.9733 55.6636C29.3015 56.2311 30.7859 56.3137 31.1445 55.7679C31.6031 55.0722 32.0095 54.3416 32.4594 53.5915C31.7466 53.0914 31.0989 52.6044 30.4121 52.1782C30.2404 52.0717 29.8905 52.0717 29.7166 52.1782C29.0755 52.5718 28.4756 53.0284 27.7889 53.511Z" fill="black"/>
<path d="M65.616 40.2174C63.9121 41.6698 62.2799 43.0548 60.6564 44.4485C60.1326 44.8986 59.6241 45.3769 58.8569 45.0095C58.094 44.642 58.1505 43.9398 58.1527 43.2527C58.1571 37.4235 58.1484 31.5921 58.1657 25.7629C58.1657 25.2084 58.0679 24.9106 57.4529 24.7366C56.3836 24.4344 55.8163 23.5951 55.7207 22.508C55.649 21.7013 55.6729 20.8838 55.7207 20.0728C55.7598 19.3858 55.5338 18.8683 55.01 18.4378C54.6123 18.1116 54.2363 17.7572 53.8712 17.3941C52.2629 15.7917 52.2716 14.1936 53.8929 12.5868C54.182 12.2998 54.4645 11.9998 54.7927 11.7649C55.5577 11.2149 55.8185 10.4952 55.7098 9.57546C55.6425 9.01232 55.6359 8.43614 55.6772 7.87083C55.8055 6.08576 56.8009 5.11604 58.5917 5.02254C59.1307 4.99428 59.6828 4.98775 60.2152 5.06603C61.1476 5.20301 61.8431 4.90078 62.4016 4.15501C62.6929 3.76582 63.0428 3.41793 63.397 3.08527C64.8532 1.70678 66.3919 1.70678 67.8524 3.09397C68.2654 3.48534 68.6566 3.90279 69.0108 4.34635C69.4803 4.93122 70.0519 5.12691 70.793 5.0856C71.6254 5.03776 72.4795 5.0095 73.2989 5.14213C74.6877 5.36608 75.4723 6.30753 75.5527 7.72298C75.5962 8.47963 75.5831 9.2428 75.5353 9.99944C75.494 10.6561 75.7222 11.1388 76.2156 11.5606C76.7502 12.0172 77.2827 12.4912 77.7391 13.0217C78.8388 14.3045 78.8388 15.7112 77.7348 16.9941C77.2783 17.5246 76.7437 17.9964 76.2112 18.4552C75.72 18.877 75.494 19.3618 75.5353 20.0185C75.5831 20.7751 75.5983 21.5383 75.5505 22.2949C75.4766 23.4756 74.9311 24.3974 73.7618 24.754C73.1989 24.9258 73.0837 25.1824 73.0837 25.7194C73.1011 31.5225 73.0946 37.3256 73.0946 43.1288C73.0946 43.3462 73.162 43.5962 73.0794 43.7723C72.8751 44.2094 72.6882 44.8116 72.3274 44.9747C71.9688 45.1356 71.2885 44.9878 70.9517 44.7203C69.4629 43.5462 68.048 42.2808 66.6049 41.048C66.2985 40.7871 65.9877 40.5305 65.6204 40.2196L65.616 40.2174ZM58.1288 20.4055C58.1288 20.7534 58.1331 20.9708 58.1288 21.1882C58.0984 22.508 58.1049 22.5732 59.4437 22.445C61.5106 22.2493 63.1949 22.7711 64.525 24.4844C65.5356 25.7846 65.6834 25.7672 66.7419 24.4692C67.9546 22.9842 69.3847 22.2884 71.3385 22.4341C73.1968 22.5732 73.2402 22.9689 73.0881 20.5946C72.9794 18.8965 73.4445 17.5572 74.7594 16.4179C76.5111 14.9002 76.5307 15.1198 74.7703 13.5848C73.5228 12.4977 72.9034 11.2301 73.0946 9.57763C73.1294 9.28193 73.1207 8.98188 73.125 8.68401C73.1424 7.48164 73.0598 7.40554 71.8362 7.47294C71.7558 7.47729 71.6732 7.47947 71.5928 7.49251C69.6585 7.79908 68.1306 7.19246 66.8549 5.65743C65.6117 4.15936 65.6834 4.0963 64.3664 5.67482C63.1384 7.14898 61.6736 7.74255 59.7827 7.5186C58.0919 7.31857 58.0071 7.37293 58.1505 9.11017C58.3092 11.017 57.8006 12.5325 56.2706 13.7696C54.8383 14.9285 54.8579 15.0372 56.2532 16.22C57.6094 17.3702 58.4505 18.6856 58.1201 20.4077L58.1288 20.4055ZM60.6499 41.2067C62.0561 40.0109 63.3275 38.9215 64.6054 37.8409C65.3618 37.2017 65.8703 37.1952 66.6201 37.8257C67.7612 38.7867 68.887 39.763 70.0258 40.7262C70.1736 40.8523 70.3518 40.9414 70.5692 41.0828V24.7432C70.0215 25.0258 69.5629 25.1693 69.2347 25.4563C68.687 25.9346 68.2545 26.5456 67.7133 27.0348C66.342 28.2742 64.8619 28.2633 63.5014 27.0131C62.9645 26.5195 62.5299 25.9107 61.9778 25.4346C61.6497 25.1519 61.1889 25.0236 60.6542 24.7584V41.2067H60.6499Z" fill="black"/>
<path d="M65.597 19.8098C62.9477 19.8011 60.7852 17.6399 60.7852 14.9981C60.7852 12.3238 62.9781 10.1691 65.6774 10.1908C68.3311 10.2126 70.4784 12.3955 70.4436 15.0395C70.4088 17.7051 68.2615 19.8185 65.5948 19.812L65.597 19.8098ZM67.9594 14.9873C67.9551 13.7066 66.9206 12.6586 65.6492 12.6412C64.3495 12.6238 63.2628 13.7066 63.2693 15.009C63.2758 16.2723 64.3321 17.342 65.5883 17.3616C66.8793 17.3811 67.9616 16.2962 67.9573 14.9873H67.9594Z" fill="black"/>
</g>
<defs>
<clipPath id="clip0_440_184">
<rect width="78.5586" height="80" fill="white"/>
</clipPath>
</defs>
</svg>
