<svg width="62" height="50" viewBox="0 0 62 50" fill="none" xmlns="http://www.w3.org/2000/svg">
<path d="M60.8596 24.783C58.9193 26.8839 54.6184 31.6066 52.1081 34.9382C51.0656 36.1694 50.3995 36.1163 49.9502 34.6147C49.5008 33.113 48.1258 28.7766 43.3755 29.3753C39.2676 29.892 37.8486 35.7064 42.2123 38.5793C44.6695 39.5739 45.7651 39.3422 45.9968 40.1244C46.4746 41.1239 41.4545 44.6732 35.5715 49C33.4425 45.0981 29.7261 40.7521 22.5963 38.1491C17.5569 36.5943 13.1643 36.237 9.28812 36.7826C6.63353 29.8239 4.24874 23.9665 5.20922 23.3775C5.82701 22.8463 6.62339 23.6334 9.22537 24.1259C14.453 24.0776 16.4034 18.4182 13.2314 15.7572C9.56323 12.681 6.04855 15.5834 4.86122 16.6022C3.6739 17.621 3.08989 17.3072 2.87752 15.709C2.57345 11.5029 1.49231 5.11876 1 2.34241C11.3164 0.114231 22.0392 0.66744 32.0718 3.94545C45.7009 8.292 54.9688 17.0421 60.8596 24.783Z" fill="#FAC880" stroke="white" stroke-width="0.5" stroke-miterlimit="10"/>
</svg>
