<svg width="42" height="70" viewBox="0 0 42 70" fill="none" xmlns="http://www.w3.org/2000/svg">
<path d="M34.6158 64.071C33.8269 65.3015 33.0394 66.4781 32.2533 67.6007C29.5091 66.032 24.495 63.1048 21.3093 60.8492C19.9224 59.9766 19.2952 60.2364 19.3246 61.8248C19.354 63.4131 19.3589 68.0365 14.5756 68.9243C10.4441 69.6891 7.27792 64.5019 10.6156 60.3786C12.6885 58.6579 13.816 58.5402 13.8009 57.7112C13.9577 56.5984 8.01837 54.7208 1 52.3525C1.14701 52.1809 1.27884 52.0142 1.40625 51.8524C5.04774 47.2486 6.51787 35.9277 5.06244 31.7308C4.3902 29.6117 3.53241 27.556 2.49904 25.5877C8.47313 21.1947 13.5705 17.591 13.0839 16.5762C12.8487 15.782 11.7363 16.0173 9.24151 15.0074C4.81105 12.0901 6.25226 6.18716 10.4225 5.66261C15.245 5.05472 16.646 9.46241 17.0978 10.9821C17.5497 12.5019 18.2298 12.5607 19.2883 11.3106C21.8365 7.92798 26.2038 3.13252 28.1737 1C34.2948 9.03983 36.8191 16.008 36.8191 16.008C36.8191 16.008 47.079 44.5965 34.6158 64.071Z" fill="#FABF6D" stroke="white" stroke-width="0.5" stroke-miterlimit="10"/>
</svg>
