<svg width="430" height="695" viewBox="0 0 430 695" fill="none" xmlns="http://www.w3.org/2000/svg">
<path d="M200.919 128.528C180.033 131.488 163.325 141.798 149.152 155.841C125.602 179.197 128.855 210.622 128.855 210.622C100.472 214.443 75.4538 218.695 74.0931 214.666C72.7531 212.085 76.1229 209.951 79.9245 201.311C83.9669 183.12 65.9034 171.778 54.1221 180.661C40.4984 190.919 47.7403 205.462 50.3205 210.401C52.9007 215.339 51.3199 217.129 45.609 216.578C32.2072 214.496 12.1639 213.137 1 212.517C2.23852 193.345 9.32559 129.803 48.8601 81.2017C80.1217 43.0654 123.259 16.512 171.379 5.78418C173.133 15.6807 176.986 38.4319 178.07 53.4222C178.827 59.1181 180.926 60.2367 185.14 56.6057C189.354 52.9747 201.898 42.6308 214.971 53.5942C226.274 63.0778 219.323 83.2477 200.694 83.4198C191.42 81.6646 188.582 78.8596 186.38 80.7525C182.957 82.8519 191.458 103.729 200.919 128.528Z" fill="#FBD49D" stroke="white" stroke-width="0.5" stroke-miterlimit="10"/>
<path d="M384.729 85.762C377.814 93.2494 362.485 110.081 353.539 121.955C349.823 126.343 347.449 126.154 345.848 120.802C344.246 115.45 339.346 99.9951 322.416 102.129C307.775 103.97 302.718 124.693 318.27 134.932C327.027 138.476 330.932 137.65 331.758 140.438C333.461 144 315.569 156.65 294.602 172.071C287.015 158.165 273.77 142.675 248.359 133.398C230.399 127.857 214.744 126.584 200.929 128.528C191.468 103.728 182.969 82.8521 186.392 80.7527C188.594 78.8597 191.432 81.6647 200.706 83.42C219.337 83.2479 226.288 63.0779 214.983 53.5944C201.91 42.6309 189.384 52.9749 185.152 56.6059C180.92 60.2368 178.839 59.1183 178.082 53.4223C176.998 38.4321 173.145 15.6791 171.391 5.78432C208.158 -2.15686 246.374 -0.185236 282.13 11.4975C330.703 26.9885 363.734 58.1735 384.729 85.762Z" fill="#FAC880" stroke="white" stroke-width="0.5" stroke-miterlimit="10"/>
<path d="M407.326 307.157C404.557 311.476 401.793 315.606 399.033 319.547C389.401 314.04 371.8 303.765 360.617 295.847C355.749 292.784 353.547 293.696 353.65 299.272C353.754 304.847 353.771 321.077 336.98 324.193C322.478 326.878 311.364 308.669 323.08 294.195C330.356 288.155 334.314 287.742 334.261 284.832C334.811 280.926 313.963 274.335 289.327 266.022C289.843 265.42 290.305 264.834 290.753 264.267C303.535 248.106 308.696 208.367 303.587 193.635C301.227 186.196 298.216 178.98 294.589 172.071C315.559 156.65 333.452 144.001 331.744 140.438C330.918 137.651 327.014 138.477 318.256 134.932C302.704 124.691 307.763 103.97 322.402 102.129C339.33 99.9953 344.248 115.467 345.834 120.802C347.42 126.137 349.808 126.343 353.523 121.955C362.468 110.081 377.798 93.2479 384.713 85.7622C406.2 113.984 415.06 138.444 415.06 138.444C415.06 138.444 451.075 238.796 407.326 307.157Z" fill="#FABF6D" stroke="white" stroke-width="0.5" stroke-miterlimit="10"/>
<path d="M399.035 319.542C358.417 377.782 320.768 395.181 295.246 427.347C294.626 428.122 294.041 428.896 293.455 429.671C267.824 423.217 245.956 418.191 246.199 414.198C245.923 411.307 249.845 410.585 256.606 404.009C267.154 388.641 254.629 371.379 240.4 375.199C223.904 379.604 225.194 395.799 225.742 401.342C226.291 406.885 224.16 407.967 219.053 405.317C207.474 398.399 189.48 389.69 179.346 384.924C194.021 359.283 216.954 336.614 227.927 327.802C241.122 317.166 275.445 282.917 289.337 266.024C313.971 274.337 334.823 280.928 334.271 284.834C334.322 287.743 330.368 288.156 323.09 294.197C311.374 308.671 322.49 326.88 336.99 324.195C353.781 321.08 353.764 304.834 353.661 299.274C353.557 293.714 355.761 292.786 360.629 295.85C371.801 303.767 389.399 314.035 399.035 319.542Z" fill="#F9B759" stroke="white" stroke-width="0.5" stroke-miterlimit="10"/>
<path d="M275.256 529.273C248.143 533.334 224.816 537.483 223.479 533.592C222.086 531.028 225.423 528.86 229.139 520.169C232.94 501.928 214.722 490.843 203.058 499.863C189.553 510.293 196.986 524.75 199.635 529.655C202.284 534.559 200.735 536.366 195.007 535.884C181.089 533.905 160.033 532.804 149.16 532.356V532.339C144.429 489.502 158.588 437.349 170.251 404.345C172.696 397.614 175.742 391.116 179.352 384.932C189.486 389.699 207.48 398.408 219.059 405.326C224.168 407.976 226.283 406.909 225.75 401.351C225.217 395.792 223.909 379.615 240.408 375.208C254.635 371.387 267.16 388.649 256.613 404.018C249.853 410.592 245.929 411.314 246.205 414.207C245.964 418.199 267.829 423.226 293.463 429.679C262.734 470.998 275.256 529.273 275.256 529.273Z" fill="#F8AE46" stroke="#FCF5F6" stroke-width="0.5" stroke-miterlimit="10"/>
<path d="M211.786 694.481C246.462 694.481 274.572 666.745 274.572 632.531C274.572 598.317 246.462 570.581 211.786 570.581C177.11 570.581 149 598.317 149 632.531C149 666.745 177.11 694.481 211.786 694.481Z" fill="#F8AA3C"/>
<g clip-path="url(#clip0_229_113)">
<path d="M70.3629 159C70.092 158.557 69.6614 158.142 69.5771 157.665C68.3841 151.05 67.2341 144.427 66.0841 137.805C65.8455 136.434 66.0572 136.131 67.4279 135.887C70.3288 135.369 73.2316 134.87 76.1362 134.373C77.0601 134.215 77.444 134.488 77.645 135.423C77.7759 136.034 77.8746 136.651 78.0074 137.367C78.2639 137.195 78.4702 137.066 78.6658 136.924C82.6791 134.021 87.1355 132.949 91.9095 134.301C94.8822 135.144 97.715 134.94 100.63 134.346C102.424 133.982 104.236 133.709 106.038 133.39C108.885 132.884 111.292 133.693 113.277 135.788C113.352 135.869 113.443 135.936 113.58 136.052C115.261 134.798 116.929 133.553 118.598 132.31C119.859 131.368 121.1 130.397 122.389 129.493C124.784 127.814 127.988 128.096 130.029 130.121C130.792 130.878 130.817 131.425 130.062 132.166C124.05 138.062 118.115 144.038 111.98 149.8C109.208 152.403 105.598 153.381 101.805 153.184C97.0602 152.94 92.3095 152.644 87.5912 152.118C84.8589 151.815 83.0881 153.202 81.3102 154.809C81.1595 154.945 81.1685 155.326 81.1954 155.584C81.3371 156.912 81.1326 157.2 79.8176 157.43C77.1121 157.9 74.4067 158.367 71.7013 158.84C71.538 158.869 71.3819 158.946 71.2223 159.002H70.3629V159ZM127.947 131.242C126.447 130.238 124.855 130.309 123.327 131.442C120.795 133.314 118.3 135.24 115.743 137.078C114.959 137.642 114.55 138.101 114.972 139.142C115.36 140.1 114.97 140.636 113.985 140.81C109.366 141.63 104.741 142.426 100.119 143.236C99.4212 143.358 98.9188 143.137 98.7394 142.428C98.578 141.791 99.0067 141.275 99.7836 141.137C101.784 140.781 103.786 140.439 105.786 140.089C108.065 139.691 110.342 139.289 112.629 138.887C111.798 136.42 109.258 135.028 106.452 135.48C104.701 135.762 102.945 136.036 101.213 136.416C97.7796 137.17 94.4516 137.204 90.9676 136.289C86.5076 135.116 82.4118 136.382 78.9582 139.488C78.716 139.705 78.5151 140.173 78.5653 140.48C79.1932 144.319 79.8696 148.151 80.5406 151.985C80.5675 152.134 80.6518 152.272 80.7343 152.475C81.1739 152.122 81.5524 151.818 81.9274 151.513C83.2711 150.417 84.8104 149.856 86.5399 149.976C91.4538 150.315 96.3623 150.74 101.278 151.042C105.16 151.278 108.626 150.227 111.452 147.405C113.601 145.259 115.79 143.155 117.959 141.031C121.273 137.785 124.586 134.538 127.945 131.246L127.947 131.242ZM78.9815 155.403C77.871 149.063 76.782 142.855 75.6877 136.605C73.1563 137.05 70.7451 137.475 68.2746 137.909C69.3744 144.194 70.4616 150.399 71.5631 156.687C74.0766 156.251 76.486 155.833 78.9815 155.401V155.403Z" fill="black"/>
<path d="M82.8462 108.842C82.848 96.3196 93.0238 86.1437 105.53 86.1616C118.011 86.1796 128.135 96.3267 128.137 108.821C128.141 121.356 117.988 131.504 105.46 131.49C92.9754 131.478 82.8444 121.33 82.8462 108.842ZM120.484 108.819C120.484 100.562 113.768 93.8509 105.505 93.8474C97.2399 93.842 90.514 100.537 90.4942 108.79C90.4727 117.08 97.2183 123.822 105.516 123.803C113.785 123.783 120.485 117.075 120.484 108.819ZM116.729 95.9069C117.572 95.0942 118.352 94.3425 119.181 93.5442C115.485 90.3292 111.253 88.5639 106.37 88.3414V91.7214C110.329 91.9726 113.763 93.3809 116.729 95.9069ZM116.637 121.827C113.695 124.328 110.241 125.688 106.359 125.948V129.321C111.239 129.074 115.433 127.364 119.011 124.249C118.182 123.403 117.427 122.633 116.637 121.827ZM120.817 95.1929C119.962 96.0307 119.188 96.7878 118.388 97.5718C120.925 100.485 122.299 103.934 122.61 107.816H125.975C125.701 102.954 123.959 98.7846 120.817 95.1929ZM90.1336 95.2395C86.9815 98.8492 85.2897 103.011 84.9973 107.805H88.3862C88.6751 103.916 90.0708 100.534 92.4874 97.6812C91.6819 96.8452 90.932 96.0684 90.1336 95.2395ZM122.586 110.04C122.249 113.941 120.81 117.33 118.324 120.173C119.149 121 119.911 121.765 120.719 122.572C123.871 119.016 125.658 114.879 125.957 110.039H122.586V110.04ZM104.145 88.345C99.3353 88.7469 95.2251 90.4763 91.8111 93.5549C92.6184 94.4215 93.3504 95.2073 94.1164 96.0307C96.9905 93.5137 100.335 92.1071 104.145 91.7376V88.345ZM85.0026 110.042C85.3597 114.827 87.064 118.948 90.3166 122.626C90.7472 122.134 91.0845 121.709 91.4666 121.323C91.8452 120.941 92.2668 120.604 92.6399 120.272C90.4392 116.881 89.0058 113.471 88.3396 110.04H85.0044L85.0026 110.042ZM91.7967 124.099C95.3382 127.21 99.4071 128.953 104.19 129.292C104.19 128.315 104.161 127.459 104.201 126.607C104.226 126.061 104.041 125.875 103.489 125.816C100.616 125.505 98.0005 124.488 95.6414 122.818C95.1354 122.459 94.6475 122.073 94.2259 121.756C93.4042 122.549 92.6292 123.297 91.7985 124.099H91.7967Z" fill="black"/>
<path d="M106.301 77.2648C106.301 78.9261 106.307 80.5856 106.3 82.2469C106.296 83.1368 105.918 83.6194 105.248 83.6229C104.57 83.6265 104.195 83.1583 104.193 82.2559C104.188 78.9638 104.188 75.6717 104.193 72.3778C104.195 71.4736 104.568 71.0018 105.241 71C105.916 70.9982 106.296 71.4772 106.301 72.3707C106.309 74.0032 106.303 75.634 106.303 77.2666L106.301 77.2648Z" fill="black"/>
<path d="M97.3921 78.9852C97.3921 77.9285 97.3831 76.8736 97.3939 75.8169C97.4029 74.857 97.7796 74.3888 98.4972 74.4032C99.2023 74.4175 99.5521 74.884 99.5539 75.8635C99.5611 77.9751 99.5611 80.0867 99.5539 82.1983C99.5503 83.1276 99.1413 83.6407 98.4506 83.6264C97.7886 83.612 97.4047 83.1258 97.3939 82.2378C97.3813 81.1542 97.3903 80.0688 97.3903 78.9852H97.3921Z" fill="black"/>
<path d="M113.266 79.021C113.266 80.11 113.279 81.1989 113.263 82.2861C113.248 83.1706 112.834 83.6765 112.159 83.6173C111.379 83.5492 111.113 83.0325 111.115 82.3059C111.121 80.0992 111.11 77.8943 111.122 75.6876C111.128 74.848 111.512 74.4103 112.183 74.4049C112.855 74.3977 113.245 74.8247 113.263 75.6697C113.286 76.7856 113.268 77.9033 113.27 79.021H113.266Z" fill="black"/>
<path d="M92.2274 81.558C92.2274 80.6986 92.2185 79.8411 92.231 78.9817C92.2418 78.2838 92.5773 77.7905 93.2985 77.7833C94.0215 77.7761 94.3785 78.2641 94.3839 78.962C94.4 80.7076 94.4 82.455 94.3839 84.2006C94.3785 84.8877 94.0466 85.3631 93.3164 85.4116C92.6903 85.4528 92.2489 84.929 92.231 84.136C92.2113 83.2785 92.2256 82.4191 92.2274 81.5598V81.558Z" fill="black"/>
<path d="M118.255 81.6333C118.255 82.4639 118.273 83.2946 118.25 84.1234C118.228 84.9343 117.807 85.4187 117.177 85.4169C116.544 85.4169 116.111 84.9218 116.104 84.1252C116.09 82.437 116.09 80.747 116.104 79.0588C116.111 78.2569 116.538 77.7689 117.175 77.7671C117.819 77.7671 118.228 78.2353 118.248 79.0552C118.269 79.9128 118.253 80.7721 118.253 81.6315L118.255 81.6333Z" fill="black"/>
<path d="M107.765 103.962C107.832 104.907 108.228 105.307 109.179 105.22C109.981 105.146 110.46 105.623 110.421 106.289C110.376 107.039 109.891 107.356 109.202 107.302C108.461 107.243 108.06 107.448 107.735 108.201C107.143 109.577 105.948 110.309 104.319 110.625C104.671 110.961 104.943 111.228 105.221 111.49C106.097 112.313 106.985 113.122 107.848 113.96C108.323 114.421 108.404 114.983 107.952 115.49C107.494 116.004 106.922 115.987 106.432 115.53C104.592 113.813 102.749 112.094 100.962 110.322C100.702 110.063 100.56 109.43 100.695 109.105C100.826 108.788 101.359 108.517 101.752 108.454C102.423 108.347 103.122 108.449 103.808 108.408C104.554 108.363 105.275 108.217 105.77 107.319C104.649 107.319 103.634 107.319 102.62 107.319C102.306 107.319 101.99 107.322 101.676 107.313C101.002 107.292 100.571 106.963 100.578 106.267C100.584 105.53 101.047 105.205 101.753 105.203C102.783 105.2 103.813 105.203 104.845 105.203C105.121 105.203 105.395 105.203 105.822 105.203C105.302 104.376 104.692 103.998 103.869 103.978C103.182 103.96 102.494 103.987 101.809 103.964C100.993 103.935 100.535 103.522 100.573 102.853C100.614 102.1 101.109 101.809 101.786 101.805C104.247 101.793 106.709 101.788 109.168 101.805C109.99 101.811 110.458 102.24 110.422 102.9C110.379 103.7 109.845 103.953 109.134 103.966C108.68 103.974 108.226 103.966 107.767 103.966L107.765 103.962Z" fill="black"/>
</g>
<g clip-path="url(#clip1_229_113)">
<path d="M292.395 39C293.423 39.3312 294.344 39.8047 294.927 40.7828C295.37 41.5281 295.491 42.3359 295.491 43.1797C295.491 52.1797 295.491 61.1781 295.491 70.1781C295.491 70.4062 295.491 70.6344 295.491 71.0719C295.805 70.6672 296.002 70.4 296.213 70.1438C297.327 68.7859 298.892 68.3234 300.448 68.8875C301.911 69.4172 302.888 70.8281 302.867 72.4062C302.856 73.2453 302.566 73.9937 302.066 74.6609C297.403 80.8922 292.758 87.1359 288.067 93.3469C286.48 95.45 283.698 95.4641 282.083 93.3844C280.041 90.7562 278.053 88.0828 276.094 85.3906C274.814 83.6328 275.155 81.4 276.8 80.1672C278.463 78.9219 280.698 79.2719 282.044 81.0141C282.934 82.1656 283.792 83.3438 284.666 84.5094C284.788 84.6719 284.922 84.825 285.075 85.0141C287.391 81.9203 289.603 78.8187 291.983 75.85C293.105 74.45 293.525 73.0438 293.509 71.2578C293.428 61.9469 293.472 52.6344 293.472 43.3219C293.472 41.5547 292.928 41.0109 291.164 41.0109C277.234 41.0109 263.303 41.0109 249.373 41.0109C249.228 41.0109 249.083 41.0094 248.938 41.0109C247.747 41.0359 247.091 41.6813 247.087 42.8828C247.078 45.7781 247.086 48.6734 247.081 51.5703C247.081 51.8391 247.069 52.1141 247.008 52.3734C246.886 52.8891 246.525 53.1484 246.005 53.1187C245.516 53.0906 245.192 52.8156 245.106 52.3203C245.064 52.0766 245.058 51.8234 245.056 51.575C245.053 49.6578 245.055 47.7422 245.055 45.825C245.055 45.6016 245.055 45.3766 245.055 45.1281C244.081 45.1281 243.172 45.0687 242.273 45.1484C241.622 45.2062 241.139 45.8438 241.039 46.55C241.009 46.7547 241.016 46.9656 241.016 47.1734C241.016 63.0688 241.016 78.9625 241.019 94.8578C241.019 95.1656 241.042 95.4875 241.13 95.7797C241.311 96.3859 241.738 96.8203 242.366 96.8703C243.227 96.9375 244.098 96.8875 245.055 96.8875V96.0188C245.055 82.9781 245.055 69.9375 245.056 56.8969C245.056 56.5859 245.061 56.2687 245.114 55.9641C245.202 55.4641 245.558 55.2062 246.036 55.1922C246.514 55.1781 246.888 55.4141 247 55.9094C247.067 56.2094 247.081 56.5266 247.081 56.8375C247.084 70.7531 247.084 84.6688 247.084 98.5844C247.084 98.8344 247.078 99.0844 247.092 99.3344C247.142 100.252 247.744 100.883 248.658 100.977C248.844 100.995 249.031 100.989 249.219 100.989C263.253 100.989 277.288 100.989 291.32 100.984C291.648 100.984 291.992 100.966 292.303 100.875C293.091 100.644 293.469 100.008 293.47 98.9594C293.475 95.7094 293.472 92.4594 293.472 89.2094C293.472 89.0219 293.466 88.8344 293.477 88.6469C293.514 87.9469 293.894 87.5156 294.467 87.5109C295.03 87.5062 295.464 87.9531 295.483 88.6344C295.509 89.6328 295.491 90.6344 295.492 91.6344C295.492 93.8641 295.492 96.0922 295.492 98.3219C295.492 101.105 294.912 101.981 292.398 103H248.108C247.956 102.939 247.809 102.869 247.655 102.817C246.353 102.381 245.527 101.491 245.177 100.169C245.078 99.7953 245.059 99.4 244.998 98.9672C244.323 98.9672 243.673 99.0312 243.044 98.95C242.317 98.8562 241.559 98.7359 240.898 98.4422C239.822 97.9641 239.336 96.9531 239 95.875V46.125C240.038 43.5984 240.891 43.0328 243.664 43.0328C244.111 43.0328 244.556 43.0328 244.927 43.0328C245.109 42.3219 245.197 41.6953 245.433 41.1328C245.927 39.9531 246.945 39.3719 248.108 39H292.397H292.395ZM284.97 93.0328C285.003 92.9828 285.038 92.9312 285.07 92.8812C285.795 92.8812 286.242 92.4453 286.644 91.9094C290.403 86.8781 294.167 81.8516 297.93 76.8234C298.789 75.675 299.672 74.5422 300.5 73.3703C301.283 72.2625 300.663 70.8375 299.353 70.6828C298.555 70.5891 298.045 71.0438 297.595 71.6453C293.789 76.7453 289.973 81.8375 286.158 86.9297C285.367 87.9859 284.747 87.9875 283.966 86.9453C282.781 85.3641 281.608 83.7734 280.411 82.2031C279.778 81.3719 278.78 81.2219 277.992 81.7922C277.255 82.325 277.102 83.3672 277.703 84.1797C279.683 86.8547 281.667 89.525 283.695 92.1625C283.994 92.55 284.539 92.7469 284.97 93.0328Z" fill="black"/>
<path d="M270.252 53.1393C265.512 53.1393 260.775 53.1393 256.036 53.1393C255.808 53.1393 255.575 53.1518 255.352 53.1174C254.836 53.0377 254.523 52.7158 254.487 52.2002C254.452 51.6783 254.733 51.3252 255.23 51.1846C255.444 51.1236 255.681 51.1283 255.908 51.1283C265.489 51.1252 275.069 51.1252 284.65 51.1283C284.877 51.1283 285.114 51.1283 285.328 51.1924C285.827 51.3439 286.08 51.7033 286.034 52.2299C285.992 52.7283 285.694 53.0252 285.211 53.1127C284.989 53.1533 284.755 53.1393 284.527 53.1393C279.767 53.1393 275.008 53.1393 270.248 53.1393H270.252Z" fill="black"/>
<path d="M266.323 64.6109C269.711 64.6109 273.1 64.6109 276.487 64.6109C276.695 64.6109 276.906 64.6015 277.109 64.6312C277.63 64.7077 277.933 65.0296 277.967 65.5468C278 66.0671 277.736 66.4296 277.231 66.564C276.995 66.6265 276.737 66.6187 276.489 66.6187C269.65 66.6218 262.812 66.6202 255.973 66.6202C255.911 66.6202 255.848 66.6202 255.786 66.6202C254.95 66.6109 254.477 66.2452 254.477 65.6093C254.477 64.9702 254.937 64.6109 255.784 64.6093C259.297 64.6062 262.809 64.6093 266.323 64.6093V64.6109Z" fill="black"/>
<path d="M266.261 72.0064C262.831 72.0064 259.402 72.0064 255.972 72.0064C255.744 72.0064 255.508 72.022 255.289 71.972C254.784 71.858 254.484 71.522 254.484 71.0002C254.484 70.4799 254.784 70.1439 255.289 70.0299C255.508 69.9799 255.744 69.9955 255.972 69.9955C262.811 69.9955 269.648 69.9955 276.488 69.9955C276.613 69.9955 276.737 69.9924 276.861 69.997C277.548 70.0267 277.973 70.4111 277.973 71.0017C277.973 71.5924 277.548 71.997 276.859 72.0017C275.092 72.0142 273.327 72.0064 271.559 72.0064C269.792 72.0064 268.027 72.0064 266.259 72.0064H266.261Z" fill="black"/>
<path d="M262.822 86.8424C260.58 86.8424 258.336 86.8424 256.094 86.8424C255.906 86.8424 255.719 86.8517 255.533 86.833C254.896 86.7689 254.474 86.3611 254.474 85.8205C254.474 85.2752 254.888 84.8783 255.533 84.8158C255.697 84.8002 255.864 84.8049 256.031 84.8049C260.6 84.8049 265.169 84.8049 269.738 84.8064C269.985 84.8064 270.238 84.8205 270.48 84.8658C270.98 84.9595 271.235 85.3142 271.249 85.7908C271.263 86.2674 271.031 86.6408 270.538 86.7595C270.28 86.822 270.005 86.8377 269.738 86.8377C267.433 86.8439 265.128 86.8408 262.822 86.8408V86.8424Z" fill="black"/>
<path d="M270.253 58.5232C267.949 58.5232 265.644 58.5232 263.339 58.5232C263.131 58.5232 262.922 58.5279 262.717 58.4966C262.22 58.4216 261.938 58.0966 261.889 57.6185C261.841 57.1357 262.067 56.7591 262.538 56.6044C262.788 56.5232 263.067 56.5123 263.335 56.5107C267.944 56.506 272.553 56.5076 277.164 56.5076C277.206 56.5076 277.247 56.5076 277.289 56.5076C278.17 56.5138 278.66 56.8763 278.661 57.5232C278.661 58.1763 278.197 58.5216 277.292 58.5232C274.945 58.5263 272.6 58.5232 270.253 58.5232Z" fill="black"/>
<path d="M258.197 90.2095C259.027 90.2095 259.856 90.197 260.686 90.2142C261.405 90.2282 261.816 90.586 261.838 91.1688C261.861 91.7813 261.436 92.2157 260.711 92.2251C259.009 92.2454 257.308 92.2454 255.608 92.2251C254.919 92.2173 254.484 91.7954 254.477 91.2251C254.469 90.6282 254.911 90.2282 255.645 90.2142C256.495 90.197 257.347 90.211 258.197 90.2095Z" fill="black"/>
<path d="M284.414 64.6201C284.641 64.6201 284.87 64.6029 285.095 64.6232C285.659 64.6732 286.037 65.0513 286.042 65.5779C286.047 66.1326 285.753 66.5123 285.222 66.5794C284.673 66.6482 284.105 66.6451 283.556 66.5826C283.016 66.5201 282.736 66.1201 282.723 65.5841C282.711 65.0716 283.12 64.6716 283.672 64.6248C283.917 64.6044 284.167 64.6216 284.414 64.6216V64.6201Z" fill="black"/>
<path d="M284.469 70.0156C284.716 70.0156 284.971 69.9766 285.21 70.0234C285.739 70.1266 286.047 70.4641 286.039 71.0203C286.031 71.5469 285.733 71.9063 285.23 71.9656C284.681 72.0313 284.113 72.0313 283.563 71.9703C283.022 71.9109 282.717 71.5172 282.728 70.9797C282.739 70.4422 283.06 70.0922 283.602 70.0172C283.885 69.9781 284.178 70.0109 284.467 70.0109C284.467 70.0125 284.467 70.0156 284.467 70.0172L284.469 70.0156Z" fill="black"/>
</g>
<g clip-path="url(#clip2_229_113)">
<path d="M364.929 196.767H373.055C373.253 197.314 373.448 197.849 373.637 198.384C373.82 198.903 374.139 199.026 374.642 198.795C375.171 198.554 375.762 198.116 376.249 198.2C376.712 198.283 377.082 198.925 377.485 199.328C378.827 200.666 380.154 202.021 381.514 203.339C381.847 203.663 381.946 203.927 381.695 204.335C381.494 204.664 381.355 205.03 381.185 205.378C380.958 205.843 381.078 206.156 381.569 206.339C382.118 206.546 382.893 206.621 383.147 207.022C383.429 207.467 383.242 208.214 383.242 208.829C383.246 210.883 383.242 212.939 383.242 215.051C382.688 215.253 382.14 215.459 381.587 215.65C381.099 215.82 380.963 216.115 381.174 216.598C381.413 217.151 381.867 217.764 381.774 218.268C381.684 218.753 381.018 219.132 380.599 219.551C379.277 220.876 377.939 222.187 376.637 223.534C376.306 223.877 376.041 223.943 375.64 223.694C375.332 223.501 374.984 223.373 374.658 223.212C374.135 222.954 373.8 223.088 373.619 223.659C373.454 224.181 373.249 224.688 373.044 225.253C370.929 225.253 368.81 225.255 366.688 225.253C366.119 225.253 365.414 225.433 365.018 225.164C364.632 224.902 364.539 224.181 364.358 223.648C364.164 223.077 363.834 222.971 363.309 223.218C362.8 223.456 362.225 223.899 361.767 223.809C361.297 223.717 360.925 223.095 360.522 222.692C359.179 221.356 357.852 220.001 356.493 218.68C356.151 218.346 356.058 218.09 356.294 217.631C357.238 215.805 357.238 215.93 355.281 215.254C355.111 215.196 354.945 215.126 354.758 215.053V206.938C355.292 206.744 355.821 206.543 356.356 206.36C356.874 206.182 357.03 205.874 356.788 205.365C356.546 204.853 356.061 204.265 356.167 203.828C356.294 203.31 356.927 202.905 357.357 202.471C358.692 201.126 360.046 199.799 361.368 198.44C361.676 198.124 361.93 198.058 362.311 198.281C362.664 198.488 363.049 198.64 363.417 198.819C363.867 199.039 364.16 198.878 364.323 198.435C364.528 197.882 364.722 197.327 364.923 196.767H364.929ZM362.272 200.642C361.244 201.679 360.308 202.682 359.301 203.606C358.798 204.068 358.63 204.465 359.062 205.032C359.387 205.461 359.375 205.896 359.087 206.35C358.966 206.541 358.862 206.757 358.816 206.975C358.655 207.756 358.187 208.168 357.414 208.338C357.22 208.382 356.956 208.712 356.951 208.919C356.911 210.31 356.916 211.705 356.945 213.096C356.949 213.277 357.15 213.581 357.302 213.612C358.216 213.799 358.582 214.396 358.924 215.218C359.25 216.003 359.371 216.635 358.891 217.365C358.796 217.51 358.864 217.898 358.999 218.039C359.959 219.047 360.947 220.031 361.95 220.995C362.084 221.123 362.439 221.211 362.564 221.129C363.331 220.609 364.012 220.724 364.835 221.094C365.591 221.433 366.183 221.751 366.346 222.628C366.377 222.797 366.655 223.042 366.823 223.046C368.26 223.079 369.699 223.077 371.138 223.049C371.301 223.046 371.581 222.85 371.605 222.711C371.764 221.742 372.443 221.407 373.258 221.054C374.016 220.724 374.636 220.618 375.339 221.1C375.48 221.197 375.848 221.173 375.969 221.058C377.089 219.985 378.179 218.881 379.341 217.72C378.667 216.9 378.596 216.089 379.098 215.106C379.46 214.394 379.755 213.816 380.602 213.656C380.78 213.623 381.027 213.307 381.033 213.116C381.069 211.701 381.064 210.284 381.038 208.869C381.034 208.701 380.85 208.413 380.716 208.391C379.718 208.229 379.369 207.533 379.017 206.687C378.721 205.973 378.592 205.382 379.065 204.739C379.31 204.408 379.237 204.155 378.933 203.868C378.137 203.116 377.377 202.325 376.601 201.55C375.766 200.716 375.751 200.686 374.702 201.206C373.987 201.561 373.577 200.904 373.005 200.807C372.248 200.677 371.808 200.232 371.696 199.465C371.631 199.017 371.351 198.918 370.92 198.929C369.643 198.958 368.363 198.966 367.085 198.927C366.609 198.913 366.347 199.054 366.274 199.517C366.163 200.223 365.707 200.52 365.077 200.816C364.074 201.291 363.173 201.466 362.274 200.646L362.272 200.642Z" fill="black"/>
<path d="M396.395 232.788C395.654 232.885 394.982 232.973 394.231 233.072C393.995 231.245 393.764 229.447 393.512 227.49C389.309 233.5 383.855 237.573 376.906 239.51C369.981 241.441 363.232 240.843 356.581 237.905C356.896 237.222 357.187 236.592 357.493 235.926C364.943 239.138 372.399 239.331 379.846 236.145C384.848 234.005 388.798 230.578 391.927 225.876C389.761 226.41 387.773 226.899 385.712 227.408C385.532 226.709 385.366 226.053 385.172 225.297C388.489 224.466 391.787 223.639 395.141 222.798C395.558 226.132 395.97 229.411 396.393 232.786L396.395 232.788Z" fill="black"/>
<path d="M359.124 185.774C359.124 187.531 359.129 189.291 359.124 191.048C359.116 193.148 357.744 194.541 355.662 194.546C352.124 194.554 348.585 194.554 345.046 194.546C342.965 194.543 341.587 193.148 341.585 191.05C341.579 187.533 341.579 184.017 341.585 180.5C341.587 178.373 342.967 177.005 345.11 177.004C348.603 176.998 352.096 176.998 355.589 177.004C357.765 177.007 359.116 178.373 359.122 180.568C359.126 182.303 359.122 184.039 359.122 185.774H359.124ZM356.931 185.774C356.931 184.039 356.934 182.301 356.931 180.566C356.927 179.583 356.544 179.197 355.561 179.197C352.089 179.193 348.618 179.193 345.145 179.197C344.162 179.197 343.776 179.583 343.776 180.566C343.772 184.039 343.772 187.511 343.776 190.984C343.776 191.967 344.162 192.353 345.145 192.355C348.618 192.359 352.089 192.359 355.561 192.355C356.543 192.355 356.929 191.967 356.933 190.986C356.938 189.25 356.933 187.513 356.933 185.778L356.931 185.774Z" fill="black"/>
<path d="M385.439 210.932C385.439 209.197 385.433 207.462 385.439 205.726C385.446 203.626 386.819 202.233 388.901 202.23C392.439 202.222 395.978 202.222 399.516 202.23C401.601 202.233 402.976 203.621 402.98 205.724C402.987 209.241 402.987 212.757 402.98 216.274C402.976 218.401 401.592 219.771 399.45 219.772C395.958 219.778 392.465 219.778 388.972 219.772C386.801 219.769 385.444 218.398 385.441 216.206C385.437 214.449 385.441 212.69 385.441 210.932H385.439ZM400.789 211.037C400.789 209.301 400.792 207.564 400.789 205.829C400.787 204.798 400.413 204.423 399.386 204.423C395.938 204.419 392.489 204.419 389.04 204.423C388.009 204.423 387.634 204.796 387.634 205.825C387.63 209.274 387.63 212.725 387.634 216.173C387.634 217.204 388.007 217.579 389.036 217.581C392.485 217.585 395.934 217.585 399.383 217.581C400.412 217.581 400.787 217.206 400.789 216.179C400.794 214.465 400.789 212.752 400.789 211.039V211.037Z" fill="black"/>
<path d="M335 236.226C335 234.469 334.995 232.709 335 230.952C335.007 228.852 336.38 227.459 338.46 227.454C341.998 227.446 345.537 227.446 349.076 227.454C351.161 227.457 352.535 228.845 352.539 230.948C352.546 234.465 352.546 237.982 352.539 241.498C352.535 243.625 351.153 244.995 349.01 244.998C345.517 245.004 342.024 245.004 338.531 244.998C336.358 244.995 335.004 243.624 334.998 241.434C334.995 239.699 334.998 237.963 334.998 236.228L335 236.226ZM350.35 236.294C350.35 234.535 350.353 232.775 350.35 231.016C350.346 230.033 349.963 229.647 348.98 229.647C345.508 229.643 342.037 229.643 338.564 229.647C337.581 229.647 337.195 230.033 337.195 231.016C337.191 234.489 337.191 237.961 337.195 241.434C337.195 242.417 337.581 242.803 338.564 242.805C342.037 242.809 345.508 242.809 348.98 242.805C349.963 242.805 350.348 242.417 350.352 241.436C350.357 239.723 350.352 238.009 350.352 236.296L350.35 236.294Z" fill="black"/>
<path d="M367.338 183.713C368.447 184.456 369.556 185.201 370.691 185.963C370.276 186.585 369.899 187.151 369.478 187.781C366.832 186.018 364.226 184.279 361.535 182.487C364.218 180.696 366.81 178.968 369.472 177.192C369.882 177.802 370.27 178.38 370.693 179.008C369.553 179.774 368.443 180.517 367.213 181.342C379.733 181.231 389.04 186.477 395.315 197.291C394.597 197.67 393.986 197.992 393.378 198.312C387.566 188.279 378.904 183.407 367.415 183.546C367.387 183.601 367.36 183.658 367.334 183.713H367.338Z" fill="black"/>
<path d="M343.607 220.514C344.038 218.733 344.47 216.953 344.909 215.135C345.628 215.307 346.287 215.467 347.029 215.644C346.225 219.007 345.434 222.319 344.623 225.72C341.579 224.041 338.612 222.408 335.573 220.732C335.928 220.089 336.263 219.481 336.629 218.817C338.223 219.692 339.776 220.543 341.491 221.486C340.012 217.667 339.247 213.863 339.402 209.907C339.558 205.94 340.442 202.149 342.159 198.488C342.827 198.803 343.455 199.097 344.131 199.416C342.443 203.11 341.59 206.934 341.581 210.94C341.575 213.167 341.877 215.357 342.485 217.499C342.776 218.52 343.128 219.525 343.452 220.538L343.605 220.512L343.607 220.514Z" fill="black"/>
<path d="M377.763 211.007C377.758 215.829 373.818 219.769 369 219.772C364.154 219.776 360.206 215.811 360.22 210.956C360.235 206.147 364.195 202.217 369.016 202.228C373.831 202.237 377.767 206.189 377.761 211.009L377.763 211.007ZM369.009 204.421C365.392 204.413 362.422 207.366 362.415 210.982C362.408 214.601 365.361 217.57 368.976 217.577C372.595 217.585 375.563 214.632 375.568 211.015C375.575 207.394 372.626 204.428 369.007 204.421H369.009Z" fill="black"/>
<path d="M348.107 190.372C347.239 189.505 346.278 188.544 345.301 187.566C345.738 187.134 346.222 186.656 346.824 186.059C347.21 186.567 347.595 187.072 348.001 187.603C350.064 185.534 351.972 183.623 353.91 181.681C354.452 182.261 354.915 182.755 355.307 183.174C352.922 185.56 350.498 187.983 348.107 190.374V190.372Z" fill="black"/>
<path d="M399.189 208.488C396.82 210.857 394.394 213.285 392.007 215.672C391.094 214.758 390.135 213.797 389.148 212.81C389.602 212.384 390.096 211.921 390.691 211.362C391.028 211.816 391.405 212.324 391.804 212.862C393.887 210.746 395.782 208.823 397.713 206.863C398.297 207.505 398.766 208.02 399.191 208.488H399.189Z" fill="black"/>
<path d="M341.526 238.139C343.609 236.043 345.502 234.139 347.421 232.208C347.887 232.711 348.349 233.211 348.751 233.645C346.361 236.035 343.935 238.463 341.561 240.837C340.699 239.975 339.739 239.016 338.754 238.031C339.192 237.635 339.708 237.17 340.354 236.588C340.664 236.998 341.048 237.505 341.528 238.139H341.526Z" fill="black"/>
<path d="M368.967 206.616C371.391 206.605 373.371 208.573 373.375 210.991C373.379 213.411 371.402 215.388 368.983 215.384C366.596 215.381 364.626 213.426 364.61 211.042C364.592 208.617 366.552 206.627 368.967 206.616ZM369.022 213.191C370.21 213.177 371.189 212.175 371.184 210.987C371.176 209.797 370.188 208.811 368.996 208.809C367.777 208.807 366.777 209.825 366.801 211.048C366.825 212.236 367.832 213.208 369.022 213.193V213.191Z" fill="black"/>
</g>
<g clip-path="url(#clip3_229_113)">
<path d="M295.516 384C285.289 384 275.063 384 264.837 384C262.288 384 261 382.701 261 380.133C261 363.38 261 346.629 261 329.878C261 327.272 262.277 326 264.895 326C285.323 326 305.753 326 326.183 326C328.735 326 330.018 327.294 330.018 329.865C330.018 346.616 330.018 363.369 330.018 380.12C330.018 382.725 328.737 383.998 326.124 383.998C315.92 383.998 305.718 383.998 295.514 383.998L295.516 384ZM263.225 337.182V337.814C263.225 351.962 263.225 366.109 263.225 380.258C263.225 381.425 263.578 381.769 264.777 381.769C285.25 381.769 305.725 381.769 326.198 381.769C327.468 381.769 327.791 381.442 327.791 380.157C327.791 366.079 327.791 352.001 327.791 337.922C327.791 337.676 327.791 337.433 327.791 337.182H263.225ZM263.229 334.873H327.793C327.793 333.202 327.793 331.577 327.793 329.954C327.793 328.517 327.51 328.229 326.105 328.229C305.703 328.229 285.302 328.229 264.9 328.229C264.714 328.229 264.528 328.22 264.344 328.233C263.679 328.281 263.246 328.675 263.236 329.339C263.214 331.17 263.229 333.001 263.229 334.873Z" fill="black"/>
<path d="M305.24 352.825C305.221 354.158 304.822 355.738 304.021 357.216C301.559 361.763 299.098 366.31 296.644 370.861C296.388 371.337 296.09 371.731 295.495 371.727C294.936 371.723 294.636 371.357 294.391 370.904C291.902 366.291 289.363 361.709 286.929 357.067C283.875 351.243 287.139 344.359 293.553 342.956C299.492 341.656 305.233 346.335 305.238 352.825H305.24ZM295.467 368.132C295.551 368.084 295.605 368.071 295.624 368.039C297.901 363.841 300.286 359.698 302.409 355.424C303.758 352.708 303.309 349.947 301.366 347.6C299.41 345.239 296.83 344.363 293.826 345.075C288.98 346.222 286.544 351.656 288.892 356.067C290.972 359.975 293.11 363.853 295.224 367.743C295.296 367.877 295.386 368.002 295.467 368.13V368.132Z" fill="black"/>
<path d="M289.195 366.306C289.47 366.933 289.747 367.565 290.034 368.217C289.513 368.565 288.989 368.857 288.535 369.234C287.444 370.141 287.453 371.123 288.557 372.021C289.82 373.049 291.331 373.482 292.9 373.739C295.603 374.179 298.263 374.023 300.817 372.973C301.429 372.722 302.022 372.363 302.535 371.943C303.556 371.108 303.556 370.164 302.559 369.303C302.093 368.9 301.546 368.593 300.99 368.21C301.262 367.587 301.535 366.955 301.808 366.327C303.846 366.924 306.14 369.167 305.385 371.588C305.043 372.683 304.31 373.471 303.403 374.112C301.871 375.194 300.124 375.722 298.295 375.975C294.926 376.44 291.619 376.248 288.543 374.648C287.721 374.22 286.964 373.575 286.342 372.883C285.286 371.712 285.222 370.143 286.001 368.803C286.62 367.74 287.927 366.706 289.193 366.301L289.195 366.306Z" fill="black"/>
<path d="M265.486 332.644V330.497H283.207V332.644H265.486Z" fill="black"/>
<path d="M314.486 330.489H316.62V332.659H314.486V330.489Z" fill="black"/>
<path d="M321.077 332.661H318.937V330.504H321.077V332.661Z" fill="black"/>
<path d="M323.398 330.477H325.514V332.646H323.398V330.477Z" fill="black"/>
<path d="M295.512 356.671C293.05 356.669 291.056 354.664 291.058 352.195C291.059 349.735 293.075 347.739 295.54 347.75C297.966 347.761 299.949 349.754 299.958 352.189C299.968 354.654 297.964 356.673 295.51 356.671H295.512ZM293.287 352.107C293.236 353.327 294.179 354.372 295.389 354.437C296.629 354.502 297.696 353.52 297.731 352.279C297.767 351.063 296.807 350.033 295.592 349.985C294.38 349.936 293.337 350.897 293.287 352.107Z" fill="black"/>
</g>
<g clip-path="url(#clip4_229_113)">
<path d="M222.799 429H244.882C246.769 429.534 247.727 430.823 248.287 432.679C249.87 437.922 251.569 443.13 253.266 448.337C253.648 449.51 253.795 450.684 253.791 451.899C253.784 455.659 253.8 459.421 253.775 463.182C253.772 463.728 253.951 464.06 254.362 464.402C257.357 466.892 259.412 470.007 260.439 473.768C260.734 474.846 260.892 475.963 261.112 477.063V479.984C260.936 480.956 260.799 481.939 260.578 482.901C258.797 490.648 252.039 496.298 243.803 496.947C236.13 497.552 228.647 492.887 225.736 485.643C225.482 485.009 225.195 484.8 224.505 484.802C215.574 484.829 206.643 484.821 197.713 484.818C195.563 484.818 193.984 483.823 193.294 482.051C193.183 481.765 193.096 481.469 192.998 481.176C192.998 470.6 192.998 460.021 192.998 449.444C193.083 449.272 193.19 449.107 193.248 448.928C195.033 443.401 196.813 437.872 198.589 432.344C199.282 430.194 200.586 429.225 202.867 429.209C207.897 429.174 212.928 429.149 217.958 429.106C219.572 429.092 221.185 429.037 222.799 429.002V429ZM230.616 448.142C230.601 448.344 230.582 448.474 230.587 448.6C230.706 451.583 230.827 454.567 230.951 457.552C231.04 459.668 229.69 461.193 227.568 461.231C224.688 461.28 221.805 461.268 218.925 461.232C217.623 461.217 216.504 460.676 215.933 459.476C215.626 458.833 215.519 458.031 215.535 457.305C215.603 454.498 215.759 451.691 215.879 448.885C215.89 448.653 215.879 448.421 215.879 448.142H215.134C209.682 448.142 204.229 448.142 198.775 448.142C196.306 448.142 195.064 449.387 195.064 451.867C195.064 461.225 195.064 470.584 195.064 479.94C195.064 480.272 195.068 480.607 195.121 480.932C195.267 481.826 196.051 482.613 196.943 482.72C197.328 482.766 197.729 482.659 198.122 482.659C206.59 482.656 215.056 482.656 223.524 482.656H224.324C221.678 471.777 229.901 460.825 241.258 460.156V458.872C240.3 458.872 239.374 458.882 238.45 458.868C237.622 458.856 237.29 458.519 237.285 457.687C237.276 456.47 237.274 455.253 237.285 454.036C237.292 453.244 237.629 452.905 238.422 452.901C241.082 452.892 243.741 452.894 246.402 452.901C247.236 452.903 247.565 453.231 247.576 454.07C247.59 455.198 247.583 456.326 247.58 457.454C247.576 458.59 247.298 458.87 246.177 458.872C245.253 458.873 244.328 458.872 243.42 458.872V460.209C246.248 460.44 248.875 461.202 251.404 462.556C251.404 458.888 251.404 455.351 251.404 451.812C251.404 449.396 250.145 448.144 247.709 448.142C242.257 448.142 236.804 448.142 231.35 448.142H230.614H230.616ZM259.04 478.532C259.031 469.523 251.697 462.192 242.674 462.174C233.619 462.157 226.25 469.489 226.242 478.525C226.233 487.555 233.613 494.926 242.645 494.909C251.744 494.891 259.049 487.596 259.04 478.53V478.532ZM250.377 446.227C250.366 446.189 250.325 446.024 250.274 445.865C248.859 441.496 247.445 437.126 246.026 432.759C245.611 431.48 245.033 431.061 243.679 431.068C239.403 431.091 235.126 431.121 230.85 431.15C230.66 431.15 230.472 431.178 230.252 431.194C230.428 436.2 230.601 441.138 230.777 446.11C231.144 446.11 231.408 446.11 231.671 446.11C236.48 446.11 241.288 446.101 246.097 446.115C247.523 446.118 248.949 446.188 250.377 446.227ZM196.288 446.122C197.75 446.078 199.133 446.003 200.517 446C205.437 445.985 210.359 445.994 215.28 445.994H216.115C216.287 441.017 216.456 436.106 216.626 431.201C216.452 431.176 216.387 431.159 216.323 431.16C211.734 431.194 207.147 431.223 202.559 431.267C201.587 431.276 200.897 431.808 200.59 432.755C199.772 435.277 198.968 437.803 198.158 440.325C197.53 442.278 196.899 444.231 196.288 446.124V446.122ZM228.601 445.955C228.429 440.983 228.258 436.049 228.084 431.065C227.794 431.065 227.597 431.065 227.4 431.065C224.697 431.065 221.992 431.084 219.288 431.05C218.685 431.043 218.559 431.246 218.543 431.804C218.441 435.495 218.293 439.187 218.176 442.878C218.144 443.889 218.171 444.903 218.171 445.955H228.599H228.601ZM218.219 448.174C218.189 448.314 218.166 448.378 218.162 448.442C218.029 451.557 217.893 454.67 217.768 457.784C217.735 458.629 218.221 459.143 219.116 459.15C221.974 459.17 224.831 459.17 227.689 459.152C228.609 459.147 229.122 458.591 229.106 457.683C229.048 454.632 228.982 451.583 228.915 448.532C228.911 448.41 228.867 448.289 228.842 448.172H218.217L218.219 448.174ZM245.778 456.77V454.994H239.697V456.77H245.778Z" fill="black"/>
<path d="M210.658 466.997C210.658 469.335 210.658 471.567 210.658 473.798C210.658 474.041 210.666 474.286 210.636 474.527C210.569 475.086 210.237 475.437 209.678 475.446C207.928 475.469 206.177 475.476 204.426 475.446C203.717 475.433 203.419 475.02 203.415 474.165C203.408 472.042 203.412 469.919 203.412 467.796C203.412 467.558 203.412 467.318 203.412 466.996C202.752 466.996 202.16 467.01 201.569 466.992C200.551 466.96 200.139 466.206 200.716 465.364C202.514 462.735 204.332 460.121 206.161 457.513C206.617 456.864 207.436 456.85 207.899 457.506C209.758 460.145 211.599 462.799 213.418 465.468C213.932 466.222 213.524 466.928 212.6 466.99C212.291 467.01 211.979 466.997 211.669 466.999C211.364 466.999 211.057 466.999 210.656 466.999L210.658 466.997ZM208.575 473.266C208.575 472.975 208.575 472.734 208.575 472.494C208.575 470.348 208.57 468.204 208.579 466.057C208.582 465.192 208.926 464.864 209.792 464.846C210.039 464.84 210.285 464.846 210.651 464.846C209.395 463.058 208.236 461.408 207.034 459.697C205.806 461.449 204.648 463.102 203.426 464.846C203.71 464.846 203.841 464.846 203.972 464.846C205.249 464.86 205.494 465.101 205.494 466.352C205.494 467.989 205.494 469.626 205.494 471.261C205.494 471.918 205.494 472.576 205.494 473.268H208.575V473.266Z" fill="black"/>
<path d="M207.041 479.575C204.824 479.575 202.606 479.58 200.391 479.571C199.609 479.568 199.208 479.206 199.211 478.539C199.215 477.969 199.497 477.622 200.065 477.535C200.283 477.501 200.506 477.506 200.728 477.506C204.962 477.506 209.196 477.506 213.43 477.506C213.54 477.506 213.651 477.503 213.761 477.506C214.496 477.538 214.957 477.948 214.962 478.565C214.968 479.209 214.551 479.569 213.756 479.571C211.518 479.578 209.277 479.573 207.039 479.573L207.041 479.575Z" fill="black"/>
<path d="M243.784 472.045C243.784 472.975 243.797 473.904 243.779 474.834C243.772 475.178 243.862 475.378 244.189 475.563C246.106 476.65 246.583 478.647 245.357 480.465C245.152 480.77 245.2 480.95 245.381 481.216C246.434 482.773 247.474 484.341 248.516 485.904C248.614 486.051 248.722 486.193 248.807 486.347C249.137 486.938 249.027 487.481 248.522 487.798C247.993 488.13 247.408 488.004 247.034 487.431C246.005 485.858 244.973 484.284 243.985 482.686C243.63 482.111 243.307 481.78 242.518 481.797C241.042 481.831 239.85 480.721 239.524 479.256C239.192 477.771 239.836 476.249 241.157 475.604C241.629 475.373 241.716 475.102 241.711 474.637C241.688 472.822 241.672 471.008 241.725 469.195C241.735 468.812 241.95 468.294 242.245 468.086C242.929 467.604 243.749 468.149 243.773 469.058C243.802 470.054 243.781 471.05 243.781 472.045H243.782H243.784ZM242.684 479.774C243.465 479.763 243.974 479.279 243.963 478.555C243.953 477.87 243.351 477.301 242.663 477.324C241.966 477.347 241.5 477.869 241.523 478.601C241.546 479.325 242 479.784 242.683 479.774H242.684Z" fill="black"/>
<path d="M243.672 492.037C243.672 492.388 243.692 492.743 243.667 493.093C243.623 493.721 243.248 494.07 242.651 494.077C242.042 494.082 241.654 493.76 241.617 493.119C241.576 492.396 241.576 491.667 241.617 490.943C241.652 490.326 242.083 489.962 242.656 489.974C243.236 489.987 243.621 490.358 243.663 490.982C243.688 491.331 243.667 491.686 243.669 492.037H243.672Z" fill="black"/>
<path d="M243.671 465.179C243.671 465.532 243.69 465.887 243.665 466.236C243.628 466.795 243.314 467.157 242.755 467.196C242.175 467.237 241.716 466.919 241.661 466.355C241.581 465.528 241.597 464.682 241.666 463.852C241.711 463.313 242.145 463.097 242.674 463.107C243.252 463.12 243.585 463.435 243.653 463.987C243.701 464.377 243.662 464.78 243.662 465.175C243.663 465.175 243.665 465.175 243.669 465.175L243.671 465.179Z" fill="black"/>
<path d="M229.216 479.575C228.884 479.575 228.553 479.589 228.223 479.571C227.545 479.537 227.178 479.17 227.176 478.546C227.175 477.941 227.506 477.556 228.15 477.522C228.854 477.485 229.566 477.483 230.27 477.526C230.871 477.561 231.318 478.09 231.286 478.627C231.252 479.188 230.857 479.543 230.211 479.571C229.881 479.585 229.548 479.573 229.218 479.573L229.216 479.575Z" fill="black"/>
<path d="M256.113 479.573C255.782 479.573 255.45 479.589 255.12 479.569C254.49 479.53 254.114 479.156 254.093 478.578C254.072 478.005 254.437 477.565 255.053 477.528C255.757 477.485 256.466 477.485 257.171 477.522C257.795 477.554 258.214 478.028 258.203 478.597C258.192 479.193 257.8 479.548 257.107 479.573C256.775 479.585 256.445 479.575 256.113 479.573Z" fill="black"/>
<path d="M253.967 468.104C253.983 468.978 252.101 470.903 251.479 470.788C251.158 470.729 250.775 470.468 250.626 470.188C250.494 469.941 250.535 469.457 250.704 469.228C251.145 468.631 251.649 468.052 252.229 467.595C252.495 467.386 253.034 467.359 253.382 467.467C253.666 467.556 253.85 467.966 253.967 468.102V468.104Z" fill="black"/>
<path d="M234.963 469.919C234.775 470.146 234.598 470.522 234.307 470.66C234.041 470.786 233.548 470.784 233.336 470.614C232.705 470.105 232.13 469.511 231.595 468.897C231.27 468.525 231.337 468.063 231.662 467.686C231.99 467.302 232.489 467.153 232.85 467.448C233.546 468.015 234.149 468.698 234.773 469.348C234.869 469.447 234.873 469.631 234.965 469.917L234.963 469.919Z" fill="black"/>
<path d="M234.956 487.266C234.875 487.544 234.875 487.706 234.795 487.789C234.156 488.456 233.548 489.162 232.837 489.744C232.482 490.035 231.976 489.879 231.652 489.488C231.332 489.103 231.276 488.646 231.6 488.275C232.122 487.679 232.675 487.094 233.296 486.604C233.527 486.423 234.032 486.409 234.319 486.533C234.609 486.659 234.781 487.049 234.956 487.266Z" fill="black"/>
<path d="M252.974 489.852C252.355 489.862 250.489 488.032 250.483 487.409C250.475 486.648 251.39 486.066 251.984 486.528C252.658 487.051 253.279 487.672 253.811 488.339C254.292 488.942 253.752 489.837 252.976 489.85L252.974 489.852Z" fill="black"/>
</g>
<g clip-path="url(#clip5_229_113)">
<path d="M197.658 633.122C197.689 633.03 197.7 633.008 197.703 632.986C197.877 631.445 197.636 630.274 196.16 629.199C193.603 627.339 192.431 624.547 192.246 621.374C192.239 621.242 192.226 621.11 192.212 620.909C190.851 620.997 189.576 620.863 188.644 619.746C188.126 619.126 187.857 618.415 187.859 617.606C187.863 615.741 189.108 614.589 191.522 614.265C191.18 613.576 190.845 612.908 190.518 612.237C188.625 608.343 190.397 604.048 194.472 602.601C194.847 602.468 195.202 602.23 195.518 601.979C197.182 600.659 198.965 599.607 201.092 599.209C203.331 598.79 205.496 598.991 207.588 599.882C208.72 600.363 209.837 600.878 210.944 601.414C215.311 603.532 217.165 608.439 215.307 612.934C215.126 613.373 214.943 613.81 214.755 614.26C217.335 614.633 218.555 615.763 218.517 617.7C218.475 619.715 217.184 620.697 214.197 620.955C214.113 621.619 214.069 622.297 213.938 622.959C213.329 625.999 211.721 628.38 209.141 630.084C208.762 630.335 208.634 630.591 208.654 631.024C208.687 631.706 208.663 632.392 208.663 633.138C209.965 633.359 211.238 633.581 212.513 633.795C214.918 634.199 217.323 634.592 219.726 635.007C220.223 635.093 220.589 634.998 221.041 634.718C221.595 634.374 222.301 634.118 222.946 634.107C226.573 634.051 230.199 634.069 233.828 634.085C235.704 634.095 237.105 635.508 237.134 637.39C237.15 638.458 237.138 639.526 237.138 640.664C238.996 640.664 240.795 640.739 242.586 640.645C245.128 640.512 245.956 641.467 245.927 643.983C245.846 650.748 245.899 657.514 245.899 664.279C245.899 666.208 245.12 666.998 243.22 666.998C222.028 666.998 200.836 666.998 179.644 666.998C178.294 666.998 178.002 666.704 178.002 665.352C178.002 657.993 178 650.632 178.002 643.273C178.004 638.996 180.628 635.975 184.854 635.298C188.995 634.634 193.126 633.925 197.261 633.231C197.394 633.21 197.522 633.158 197.658 633.12V633.122ZM219.587 637.246C219.44 637.202 219.312 637.147 219.181 637.125C215.878 636.571 212.566 636.066 209.276 635.441C208.245 635.245 207.508 635.43 206.946 636.276C206.82 636.468 206.728 636.77 206.782 636.979C206.946 637.617 207.167 638.244 207.407 638.86C207.634 639.446 207.575 639.952 207.198 640.466C206.714 641.128 206.299 641.841 205.82 642.509C205.582 642.842 205.549 643.12 205.71 643.504C206.286 644.87 206.838 646.245 207.358 647.633C207.486 647.977 207.566 648.403 207.487 648.752C206.449 653.359 205.372 657.957 204.322 662.562C204.174 663.211 203.892 663.697 203.173 663.69C202.453 663.683 202.193 663.176 202.047 662.534C201.003 657.951 199.933 653.376 198.899 648.791C198.821 648.44 198.876 648.012 199.004 647.672C199.53 646.262 200.13 644.879 200.653 643.469C200.75 643.208 200.699 642.803 200.558 642.558C200.125 641.808 199.624 641.097 199.126 640.388C198.81 639.936 198.748 639.488 198.943 638.968C199.185 638.328 199.39 637.675 199.6 637.024C199.647 636.878 199.711 636.704 199.677 636.567C199.523 635.978 198.303 635.276 197.687 635.378C193.665 636.051 189.655 636.809 185.617 637.365C181.625 637.915 180.112 640.746 180.158 643.688C180.264 650.451 180.191 657.218 180.191 663.981V664.773H188.958V646.199H191.178V664.767H210.854C210.854 664.484 210.854 664.239 210.854 663.992C210.854 660.952 210.854 657.913 210.854 654.873C210.854 650.943 210.851 647.011 210.854 643.081C210.854 641.554 211.75 640.669 213.283 640.665C214.947 640.662 216.613 640.665 218.277 640.665C218.703 640.665 219.131 640.665 219.583 640.665V637.247L219.587 637.246ZM195.873 611.633C195.373 612.701 194.565 613.685 194.499 614.717C194.337 617.261 194.318 619.848 194.602 622.378C195.066 626.534 198.952 629.698 203.215 629.691C207.475 629.682 211.295 626.5 211.791 622.328C212.037 620.253 211.822 618.126 211.977 616.035C212.107 614.311 211.103 613.093 210.477 611.655C205.602 615.231 200.79 615.229 195.873 611.633ZM225 651.638C225.046 651.532 225.079 651.492 225.079 651.452C225.086 650.537 225.088 649.623 225.091 648.709C225.097 647.597 225.448 647.251 226.576 647.249C227.809 647.247 229.04 647.245 230.272 647.249C231.289 647.253 231.657 647.63 231.66 648.668C231.664 649.643 231.66 650.618 231.66 651.614C234.091 651.614 236.443 651.721 238.78 651.585C241.225 651.444 243.235 649.568 243.568 647.139C243.756 645.759 243.602 644.33 243.602 642.9H213.065C213.065 644.195 212.979 645.455 213.084 646.699C213.287 649.136 215.119 651.097 217.529 651.518C218.241 651.642 218.981 651.625 219.709 651.631C221.481 651.646 223.255 651.636 225 651.636V651.638ZM231.66 653.833C231.66 654.25 231.666 654.588 231.66 654.926C231.62 656.766 230.194 658.207 228.405 658.22C226.584 658.233 225.132 656.784 225.093 654.915C225.086 654.562 225.093 654.208 225.093 653.833C222.838 653.833 220.695 653.833 218.55 653.833C217.248 653.833 216.013 653.537 214.885 652.885C214.269 652.529 213.698 652.09 213.087 651.673V660.369H243.65V651.631C241.254 653.496 240.258 653.835 237.235 653.835C235.411 653.835 233.588 653.835 231.66 653.835V653.833ZM201.233 607.221C198.548 604.137 195.686 603.598 193.409 605.715C191.603 607.394 191.454 610.536 193.131 612.275C193.585 611.368 194.02 610.467 194.485 609.58C194.907 608.773 195.553 608.623 196.292 609.15C196.959 609.627 197.594 610.156 198.276 610.607C200.395 612.01 202.698 612.453 205.194 611.891C206.846 611.52 208.188 610.6 209.497 609.594C211.022 608.422 211.364 608.515 212.239 610.262C212.55 610.884 212.87 611.502 213.217 612.18C214.715 608.91 213.376 605.112 210.209 603.493C209.216 602.985 208.206 602.491 207.162 602.107C206.145 601.734 205.09 601.383 204.022 601.246C202.127 601.001 200.344 601.48 198.565 602.519C200.536 603.194 201.996 604.3 202.972 606.059C202.354 606.471 201.791 606.847 201.233 607.219V607.221ZM213.074 664.756H243.676V662.646H213.074V664.756ZM228.005 640.616H234.947C234.947 639.61 234.95 638.654 234.947 637.697C234.943 636.637 234.575 636.276 233.493 636.276C230.735 636.275 227.977 636.276 225.219 636.276H224.709C226.289 637.408 227.396 638.837 228.005 640.618V640.616ZM203.109 657.351C203.153 657.351 203.195 657.351 203.239 657.351C203.272 657.256 203.312 657.163 203.334 657.066C203.967 654.336 204.605 651.607 205.22 648.873C205.28 648.604 205.247 648.279 205.15 648.019C204.695 646.803 204.216 645.596 203.705 644.404C203.623 644.212 203.353 644.007 203.151 643.99C203 643.977 202.745 644.217 202.669 644.402C202.18 645.556 201.707 646.715 201.279 647.893C201.156 648.233 201.114 648.654 201.185 649.007C201.465 650.391 201.802 651.763 202.122 653.14C202.449 654.546 202.78 655.951 203.109 657.355V657.351ZM206.472 631.372C204.243 632.077 202.091 632.008 199.902 631.403C199.902 632.034 199.885 632.557 199.909 633.08C199.92 633.316 199.933 633.623 200.073 633.773C201.072 634.83 202.107 635.854 203.182 636.944C204.272 635.845 205.3 634.815 206.315 633.771C206.412 633.672 206.461 633.489 206.465 633.343C206.482 632.729 206.472 632.114 206.472 631.372ZM227.286 649.475C227.286 651.344 227.269 653.162 227.295 654.979C227.304 655.585 227.787 656.009 228.354 656.02C228.917 656.031 229.442 655.614 229.451 655.022C229.482 653.184 229.462 651.344 229.462 649.473H227.286V649.475ZM221.847 637.606V640.612H225.638C224.806 639.003 223.588 638.025 221.847 637.606ZM204.927 638.487C204.336 638.857 203.769 639.491 203.21 639.486C202.619 639.479 202.036 638.86 201.44 638.504C201.085 639.018 201.081 639.566 201.577 640.131C201.875 640.472 202.091 640.883 202.345 641.264C202.844 642.008 203.535 641.999 204.042 641.242C204.271 640.9 204.463 640.528 204.73 640.221C205.222 639.654 205.351 639.082 204.927 638.487ZM192.212 616.533C191.442 616.567 190.613 616.275 190.214 617.118C190.07 617.423 190.105 617.961 190.288 618.244C190.748 618.96 191.511 618.7 192.212 618.683V616.533ZM214.168 618.704C214.914 618.683 215.73 618.967 216.147 618.148C216.3 617.848 216.275 617.31 216.099 617.019C215.653 616.279 214.876 616.56 214.168 616.542V618.704Z" fill="black"/>
</g>
<defs>
<clipPath id="clip0_229_113">
<rect width="64.6145" height="88" fill="white" transform="translate(66 71)"/>
</clipPath>
<clipPath id="clip1_229_113">
<rect width="63.8672" height="64" fill="white" transform="translate(239 39)"/>
</clipPath>
<clipPath id="clip2_229_113">
<rect width="67.9854" height="68" fill="white" transform="translate(335 177)"/>
</clipPath>
<clipPath id="clip3_229_113">
<rect width="69.0181" height="58" fill="white" transform="translate(261 326)"/>
</clipPath>
<clipPath id="clip4_229_113">
<rect width="68.1117" height="68" fill="white" transform="translate(193 429)"/>
</clipPath>
<clipPath id="clip5_229_113">
<rect width="67.9268" height="68" fill="white" transform="translate(178 599)"/>
</clipPath>
</defs>
</svg>
