<svg width="38" height="33" viewBox="0 0 38 33" fill="none" xmlns="http://www.w3.org/2000/svg">
<g clip-path="url(#clip0_28_117)">
<path d="M25 19.3872H35C35.5304 19.3872 36.0391 19.5979 36.4142 19.973C36.7893 20.3481 37 20.8568 37 21.3872V29.3872C37 29.9176 36.7893 30.4263 36.4142 30.8014C36.0391 31.1765 35.5304 31.3872 35 31.3872H27C26.4696 31.3872 25.9609 31.1765 25.5858 30.8014C25.2107 30.4263 25 29.9176 25 29.3872V19.3872ZM25 19.3872C25 7.38721 27 5.38721 33 1.38721" stroke="#F8AA3C" stroke-width="2" stroke-linecap="square"/>
<path d="M1 19.3872H11C11.5304 19.3872 12.0391 19.5979 12.4142 19.973C12.7893 20.3481 13 20.8568 13 21.3872V29.3872C13 29.9176 12.7893 30.4263 12.4142 30.8014C12.0391 31.1765 11.5304 31.3872 11 31.3872H3C2.46957 31.3872 1.96086 31.1765 1.58579 30.8014C1.21071 30.4263 1 29.9176 1 29.3872V19.3872ZM1 19.3872C1 7.38721 3 5.38721 9 1.38721" stroke="#F8AA3C" stroke-width="2" stroke-linecap="square"/>
</g>
<defs>
<clipPath id="clip0_28_117">
<rect width="38" height="32.387" fill="white"/>
</clipPath>
</defs>
</svg>
