<svg width="76" height="80" viewBox="0 0 76 80" fill="none" xmlns="http://www.w3.org/2000/svg">
<g clip-path="url(#clip0_288_1939)">
<path d="M58.321 0C59.3937 0.438242 60.5728 0.717882 61.5202 1.34603C63.7365 2.81727 64.7486 4.99804 64.7465 7.66506C64.7382 16.5175 64.7423 25.37 64.7444 34.2225C64.7444 34.5335 64.7444 34.8465 64.7444 35.2972C65.1263 35.2972 65.4748 35.2972 65.8254 35.2972C67.0483 35.2972 68.2733 35.2806 69.4962 35.3077C72.1632 35.3661 74.4358 37.2192 75.0097 39.7798C75.5982 42.4009 74.3461 45.0346 71.9107 46.2303C71.4954 46.4348 71.2847 46.6268 71.2847 47.1402C71.2763 51.627 69.3147 55.0202 65.4832 57.3429C65.3976 57.3951 65.3225 57.466 65.2661 57.5098C66.1009 58.0983 66.9461 58.6493 67.7349 59.267C68.3484 59.747 68.411 60.4711 67.9749 60.9866C67.5513 61.4874 66.8709 61.5792 66.3033 61.0888C64.206 59.2795 61.7456 58.6827 59.0473 58.8079C58.6069 58.8287 58.1604 58.8246 57.7221 58.7766C57.0481 58.7035 56.6933 58.2757 56.7016 57.6163C56.71 56.9923 57.0648 56.5666 57.695 56.5082C58.367 56.4455 59.0473 56.4768 59.7234 56.4664C65.1451 56.3746 69.227 52.1633 68.9223 46.9127H39.2262C39.1094 49.346 39.8252 51.4809 41.407 53.3048C43.1725 55.3374 45.4263 56.385 48.1246 56.4539C48.9051 56.4727 49.6877 56.4539 50.4682 56.4727C51.328 56.4915 51.8518 56.9339 51.8643 57.6225C51.8768 58.3112 51.3551 58.7745 50.5057 58.8079C49.4915 58.8454 48.469 58.8037 47.4631 58.9122C42.8803 59.4047 39.2387 63.8018 39.6269 68.3866H69.467C69.2729 67.2555 69.0934 66.1703 68.8994 65.0873C68.8681 64.9099 68.7742 64.745 68.722 64.5718C68.4862 63.8018 68.7345 63.1882 69.3668 62.9587C70.0179 62.7228 70.7066 62.9941 70.8965 63.7579C71.2367 65.1373 71.5017 66.5439 71.6686 67.9525C71.7438 68.5869 71.8293 69.0022 72.445 69.3695C74.6362 70.678 75.6191 73.2865 74.945 75.724C74.2564 78.2157 72.0818 79.975 69.5046 79.9791C59.3478 80.0021 49.191 80.0104 39.0363 79.977C35.6535 79.9666 33.1034 77.0074 33.4331 73.6351C33.4519 73.4326 33.4602 73.2302 33.479 72.9339H32.5253C24.6077 72.9339 16.6923 72.938 8.77468 72.9339C5.10389 72.9318 2.24905 70.9952 1.24736 67.7543C0.990673 66.9237 0.869635 66.018 0.867548 65.1457C0.842506 50.7985 0.850853 36.4513 0.84668 22.1041C0.84668 19.364 1.78994 17.0393 3.74742 15.0985C7.79594 11.0833 11.8278 7.04943 15.845 3.003C17.358 1.47959 19.0984 0.429894 21.2458 0.114778C21.3167 0.104343 21.3773 0.0396504 21.444 0C33.7378 0 46.0294 0 58.3231 0L58.321 0ZM5.06215 17.3147C6.09723 17.3147 7.33892 17.3147 8.5806 17.3147C9.96002 17.3147 11.3415 17.3189 12.7209 17.3147C15.7469 17.3064 17.7315 15.5805 18.1531 12.6005C18.2637 11.82 18.7687 11.3546 19.4323 11.4214C20.1293 11.4903 20.5446 12.0767 20.4799 12.8947C20.2128 16.2588 17.5228 19.2013 14.1442 19.5164C11.7672 19.7376 9.359 19.6311 6.96537 19.6562C4.55087 19.6812 3.19023 21.0252 3.19023 23.4376C3.18814 37.3424 3.18606 51.2472 3.19858 65.1499C3.19858 65.7404 3.26744 66.354 3.42813 66.9195C4.07923 69.2088 6.04089 70.5861 8.6286 70.5882C16.8321 70.5945 25.0355 70.582 33.239 70.6028C34.128 70.6049 34.7666 70.2648 35.5366 69.8307C36.9536 69.0335 37.3063 68.0068 37.371 66.5126C37.4253 65.3022 37.9094 64.1106 38.2183 62.8439C37.947 62.8439 37.6444 62.8439 37.3397 62.8439C28.5895 62.8439 19.8392 62.8439 11.089 62.8439C10.776 62.8439 10.4609 62.8564 10.1541 62.8167C9.55308 62.7395 9.21918 62.3472 9.17327 61.7733C9.12528 61.1953 9.407 60.7507 9.98506 60.5942C10.3044 60.5087 10.6529 60.5066 10.9888 60.5066C20.3651 60.5024 29.7393 60.5045 39.1156 60.4982C39.4203 60.4982 39.8105 60.54 40.013 60.3772C41.1065 59.4986 42.152 58.5616 43.2059 57.6538C42.8344 57.4305 42.369 57.226 41.9997 56.9109C41.3611 56.3662 40.6557 56.2556 39.8419 56.2577C30.2318 56.2786 20.6218 56.2723 11.0118 56.2703C10.7259 56.2703 10.4358 56.2849 10.1541 56.2473C9.55308 56.1659 9.13988 55.7569 9.20458 55.2059C9.25257 54.7948 9.59482 54.3399 9.93707 54.0665C10.175 53.8766 10.6341 53.933 10.993 53.933C19.9519 53.9267 28.9108 53.9288 37.8698 53.9288H38.717C38.1035 52.4805 37.5296 51.1282 36.9265 49.7091H36.073C27.7652 49.7091 19.4573 49.7091 11.1495 49.7091C10.8887 49.7091 10.6278 49.7175 10.369 49.7008C9.63447 49.6549 9.15449 49.1874 9.15867 48.5363C9.16284 47.927 9.63238 47.4428 10.3064 47.3739C10.5381 47.351 10.7739 47.3635 11.0097 47.3635C19.2904 47.3635 27.5732 47.3635 35.8539 47.3635C36.1585 47.3635 36.4632 47.3635 36.7595 47.3635C36.9557 46.7187 36.7929 46.4056 36.2879 46.0091C35.4469 45.3497 34.7186 44.5233 34.0571 43.6781C33.7691 43.3087 33.5666 43.1146 33.0908 43.1251C31.4777 43.1543 29.8625 43.1355 28.2472 43.1355C22.3623 43.1355 16.4752 43.1355 10.5903 43.1334C9.68038 43.1334 9.14406 42.6764 9.15867 41.9543C9.17119 41.2678 9.70751 40.8212 10.5527 40.7961C10.7614 40.7899 10.9701 40.7961 11.1767 40.7961C18.2595 40.7961 25.3444 40.7961 32.4272 40.7961H33.3204C33.8484 37.0273 36.578 35.1699 40.3573 35.2513C47.3859 35.4058 54.4186 35.2952 61.4513 35.2952C61.7519 35.2952 62.0524 35.2952 62.3591 35.2952C62.3779 35.051 62.3967 34.9237 62.3967 34.7943C62.3967 25.6538 62.4113 16.5155 62.3883 7.37498C62.3821 4.5285 60.1617 2.36859 57.2985 2.34355C54.9549 2.32268 52.6114 2.33938 50.2678 2.33938C41.5426 2.33938 32.8195 2.3352 24.0944 2.34146C21.947 2.34146 20.5279 3.77097 20.5091 5.91626C20.505 6.43798 20.5091 6.95761 20.5091 7.47933C20.505 8.5165 20.0855 9.07161 19.3196 9.05908C18.56 9.04656 18.151 8.4998 18.1718 7.43968C18.1948 6.27521 18.2553 5.11073 18.295 4.08817C13.8771 8.50189 9.37361 13.0033 5.06423 17.3106L5.06215 17.3147ZM54.2809 77.6502C59.2789 77.6502 64.2749 77.6585 69.2729 77.646C71.268 77.6418 72.7955 76.1539 72.8164 74.2465C72.8373 72.3537 71.3014 70.7969 69.323 70.7948C59.2768 70.7823 49.2286 70.774 39.1824 70.822C38.4583 70.8261 37.6486 71.1642 37.035 71.5795C35.8351 72.3913 35.4427 73.9773 35.9227 75.3442C36.4152 76.7487 37.659 77.6418 39.2116 77.646C44.2347 77.6564 49.2578 77.6502 54.2809 77.6502ZM54.2809 37.6429C51.5471 37.6408 48.8154 37.6408 46.0816 37.6408C43.7652 37.6408 41.4487 37.6178 39.1323 37.6512C36.8555 37.6846 35.2883 39.7569 35.8392 41.9418C36.242 43.5383 37.6402 44.5066 39.5768 44.5066C49.3642 44.5087 59.1495 44.5066 68.9369 44.5066C69.1456 44.5066 69.3543 44.5087 69.5609 44.492C71.1198 44.3584 72.3594 43.3275 72.7016 41.8855C73.2234 39.6901 71.6499 37.6617 69.3501 37.6491C64.327 37.6241 59.304 37.6408 54.2809 37.6408V37.6429Z" fill="black"/>
<path d="M35.0964 22.3481C35.8706 22.4233 36.6657 22.4108 37.4149 22.5923C39.3536 23.0619 40.7184 24.7501 40.9188 27.0791C41.0106 28.1434 40.925 29.2807 40.6433 30.3095C40.011 32.628 38.2518 33.853 35.8414 33.8739C35.1382 33.8802 34.4349 33.901 33.7337 33.8843C32.8864 33.8635 32.419 33.4252 32.4127 32.5738C32.3898 29.6063 32.3877 26.6387 32.4002 23.6733C32.4044 22.897 32.8384 22.4692 33.6064 22.4233C34.0989 22.392 34.5956 22.417 35.0902 22.417C35.0902 22.3941 35.0943 22.3732 35.0964 22.3502V22.3481ZM34.7855 24.8023V31.4427C36.4258 31.7307 37.4588 31.4031 38.0827 30.4222C38.8716 29.1826 38.8549 26.8516 38.0389 25.7372C37.1958 24.5853 35.998 24.7084 34.7855 24.8002V24.8023Z" fill="black"/>
<path d="M19.4617 32.8391C19.1445 33.1647 18.8753 33.6551 18.4955 33.7636C18.1428 33.8659 17.667 33.5737 17.258 33.4214C17.1641 33.3859 17.0827 33.2148 17.0681 33.0958C16.8677 31.6601 15.914 31.4639 14.7183 31.6434C14.5409 31.6705 14.3489 31.6747 14.1736 31.6434C13.0363 31.4389 12.3455 31.7978 12.0575 33.0103C11.8739 33.7845 11.1727 34.0433 10.5362 33.7845C9.89344 33.5236 9.62841 32.9143 9.90805 32.1693C11.0141 29.231 12.1431 26.301 13.2616 23.369C13.4891 22.7721 13.9211 22.4319 14.5597 22.4278C15.1962 22.4236 15.6428 22.7471 15.8702 23.346C16.9825 26.2822 18.0948 29.2184 19.2029 32.1547C19.2656 32.3216 19.2843 32.5073 19.324 32.6826C19.3699 32.7348 19.4179 32.7849 19.4638 32.8371L19.4617 32.8391ZM14.6598 26.7685L14.4783 26.7559C14.1715 27.5573 13.8668 28.3586 13.5308 29.2351H15.5864C15.2546 28.3524 14.9562 27.5615 14.6578 26.7705L14.6598 26.7685Z" fill="black"/>
<path d="M29.8752 26.954C29.8752 27.9161 29.8919 28.8802 29.871 29.8422C29.8293 32.0293 28.0408 33.7509 25.7015 33.8782C23.5019 33.9972 21.3796 32.3882 21.2439 30.2763C21.0999 28.0475 21.1709 25.8042 21.1959 23.567C21.2043 22.8429 21.7656 22.3921 22.423 22.4276C23.0532 22.4631 23.4936 22.9076 23.5019 23.6234C23.5228 25.5496 23.5353 27.4757 23.5019 29.3998C23.4873 30.27 23.7586 30.9211 24.5579 31.3135C25.3363 31.6954 26.0688 31.5764 26.7741 31.1194C27.3292 30.7605 27.54 30.2534 27.5337 29.596C27.515 27.6969 27.5233 25.7958 27.5296 23.8968C27.5316 22.9639 27.9386 22.4422 28.6606 22.4234C29.414 22.4026 29.8627 22.9472 29.8689 23.9072C29.8752 24.9214 29.8689 25.9377 29.8689 26.9519L29.8752 26.954Z" fill="black"/>
<path d="M51.0694 24.7357C50.5164 24.7357 50.1011 24.7649 49.69 24.7294C48.9826 24.6668 48.5527 24.214 48.5777 23.5691C48.6027 22.8972 48.9784 22.4547 49.6378 22.4401C51.3804 22.4005 53.1271 22.4005 54.8696 22.4422C55.5353 22.4589 55.9235 22.9305 55.9214 23.5816C55.9214 24.2265 55.5457 24.6606 54.8696 24.7211C54.4334 24.7586 53.9931 24.7273 53.4693 24.7273C53.4464 25.0842 53.4151 25.3576 53.4151 25.6289C53.4109 27.7387 53.413 29.8464 53.413 31.9562C53.413 32.1649 53.4213 32.3736 53.4067 32.5802C53.3566 33.369 52.8933 33.8782 52.2339 33.8782C51.5724 33.8782 51.0903 33.369 51.0799 32.576C51.059 31.0651 51.0715 29.5563 51.0715 28.0454C51.0715 26.9832 51.0715 25.9231 51.0715 24.7336L51.0694 24.7357Z" fill="black"/>
<path d="M43.717 28.131C43.717 26.6994 43.7066 25.2658 43.7212 23.8342C43.7316 22.9201 44.1907 22.4026 44.9211 22.4255C45.6202 22.4464 46.0501 22.9473 46.0543 23.8258C46.0668 26.7161 46.0668 29.6064 46.0543 32.4968C46.0501 33.3482 45.5764 33.8762 44.8919 33.8783C44.2074 33.8824 43.7358 33.3545 43.7253 32.5051C43.7066 31.0464 43.7212 29.5897 43.7191 28.131H43.717Z" fill="black"/>
</g>
<defs>
<clipPath id="clip0_288_1939">
<rect width="74.307" height="80" fill="white" transform="translate(0.84668)"/>
</clipPath>
</defs>
</svg>
