<svg width="280" height="279" viewBox="0 0 280 279" fill="none" xmlns="http://www.w3.org/2000/svg">
<path d="M32.3521 215.359C30.1884 215.359 28.0734 215.999 26.2745 217.197C24.4755 218.395 23.0735 220.099 22.2456 222.091C21.4177 224.084 21.2012 226.276 21.6234 228.392C22.0456 230.507 23.0876 232.45 24.6176 233.975C26.1476 235.5 28.0968 236.538 30.2189 236.959C32.341 237.38 34.5405 237.164 36.5395 236.338C38.5384 235.513 40.247 234.115 41.449 232.322C42.651 230.529 43.2926 228.42 43.2926 226.264C43.2891 223.372 42.1353 220.601 40.0843 218.556C38.0332 216.512 35.2525 215.362 32.3521 215.359ZM32.3521 234.949C30.0407 234.949 27.824 234.034 26.1896 232.405C24.5553 230.776 23.6371 228.566 23.6371 226.262C23.6371 223.958 24.5553 221.749 26.1896 220.119C27.824 218.49 30.0407 217.575 32.3521 217.575C34.6636 217.575 36.8801 218.491 38.5142 220.121C40.1483 221.75 41.066 223.96 41.0655 226.264C41.065 228.569 40.1462 230.778 38.5114 232.407C36.8766 234.036 34.6596 234.951 32.3482 234.95L32.3521 234.949Z" fill="#CE4258"/>
<path d="M238.468 59.2216C239.481 60.2367 240.686 61.0415 242.013 61.5894C243.34 62.1372 244.764 62.4172 246.2 62.4132C248.73 62.4127 251.182 61.5376 253.138 59.937C255.094 58.3365 256.432 56.1094 256.925 53.6355C257.418 51.1615 257.036 48.5936 255.843 46.3694C254.649 44.1452 252.719 42.4022 250.381 41.4374C248.043 40.4727 245.442 40.3458 243.021 41.0785C240.599 41.8112 238.508 43.3581 237.102 45.4557C235.697 47.5532 235.065 50.0716 235.313 52.5817C235.562 55.0918 236.676 57.4384 238.465 59.2216H238.468ZM246.198 42.8229C248.495 42.8446 250.691 43.7696 252.308 45.3966C253.924 47.0236 254.832 49.2211 254.832 51.5112C254.832 53.8013 253.924 55.9988 252.308 57.6258C250.691 59.2528 248.495 60.1778 246.198 60.1995C245.053 60.1995 243.92 59.9748 242.862 59.5382C241.805 59.1016 240.844 58.4617 240.035 57.6549C239.225 56.8482 238.583 55.8904 238.145 54.8363C237.707 53.7823 237.482 52.6525 237.482 51.5116C237.482 50.3707 237.707 49.2409 238.145 48.1869C238.583 47.1328 239.225 46.1751 240.035 45.3683C240.844 44.5616 241.805 43.9216 242.862 43.485C243.92 43.0484 245.053 42.8237 246.198 42.8237V42.8229Z" fill="#CE4258"/>
<path d="M37.6399 233.695C37.6398 233.978 37.7484 234.25 37.9434 234.455C50.894 248.242 66.5418 259.237 83.921 266.762C101.3 274.286 120.042 278.18 138.99 278.204H139.54C161.283 278.096 182.707 272.976 202.135 263.244C221.563 253.513 238.47 239.433 251.533 222.106C251.624 221.99 251.691 221.856 251.73 221.713C251.768 221.57 251.778 221.421 251.758 221.275C251.738 221.128 251.689 220.987 251.613 220.86C251.538 220.732 251.438 220.621 251.319 220.533C251.199 220.445 251.064 220.382 250.92 220.346C250.776 220.311 250.626 220.305 250.479 220.328C250.333 220.352 250.193 220.404 250.067 220.482C249.941 220.56 249.832 220.663 249.746 220.783C237.768 236.837 222.405 250.079 204.739 259.576C187.073 269.073 167.533 274.595 147.495 275.753C127.457 276.911 107.408 273.677 88.7594 266.278C70.1107 258.88 53.3157 247.496 39.5565 232.929C39.4573 232.823 39.3378 232.738 39.2051 232.679C39.0724 232.62 38.9291 232.587 38.7837 232.584C38.6352 232.581 38.4875 232.608 38.3493 232.662C38.2111 232.716 38.0852 232.798 37.9787 232.901C37.8723 233.004 37.7876 233.128 37.7294 233.264C37.6713 233.4 37.6408 233.547 37.6399 233.695Z" fill="#CE4258"/>
<path d="M274.171 175.842C280.755 151.673 280.724 126.188 274.081 102.036C273.998 101.757 273.809 101.521 273.554 101.38C273.299 101.239 272.999 101.203 272.717 101.281C272.436 101.358 272.197 101.543 272.051 101.795C271.905 102.047 271.865 102.346 271.938 102.628C278.475 126.396 278.505 151.476 272.026 175.26C271.987 175.4 271.976 175.547 271.994 175.691C272.012 175.836 272.058 175.975 272.13 176.102C272.202 176.229 272.299 176.34 272.414 176.429C272.529 176.518 272.661 176.584 272.802 176.623C273.087 176.697 273.39 176.657 273.646 176.511C273.902 176.365 274.091 176.124 274.171 175.842Z" fill="#CE4258"/>
<path d="M140.076 0H139.551C62.601 0 2.4024e-05 62.3992 2.4024e-05 139.098C-0.00735469 151.65 1.68502 164.146 5.03126 176.246C5.06626 176.385 5.12856 176.516 5.21455 176.631C5.30054 176.746 5.40853 176.842 5.53224 176.915C5.65595 176.988 5.7929 177.036 5.93524 177.055C6.07756 177.075 6.22243 177.067 6.36141 177.03C6.50564 176.994 6.64125 176.93 6.76037 176.842C6.8795 176.753 6.97976 176.641 7.05527 176.514C7.13077 176.386 7.18001 176.245 7.20017 176.098C7.22033 175.951 7.211 175.802 7.17268 175.659C3.87974 163.75 2.21386 151.453 2.22008 139.1C2.22008 63.6216 63.8242 2.21527 139.546 2.21527H140.057C158.595 2.24237 176.933 6.03056 193.956 13.3491C210.978 20.6677 226.327 31.3635 239.069 44.7851C239.17 44.8904 239.29 44.9748 239.423 45.0334C239.556 45.0921 239.7 45.1238 239.845 45.1268C240.139 45.1301 240.424 45.021 240.639 44.8219C240.745 44.7217 240.83 44.6016 240.89 44.4686C240.949 44.3355 240.982 44.1921 240.985 44.0466C240.989 43.901 240.964 43.7562 240.911 43.6203C240.859 43.4844 240.78 43.3602 240.68 43.2547C227.732 29.6181 212.136 18.7508 194.84 11.3146C177.544 3.87832 158.911 0.0286698 140.076 0Z" fill="#CE4258"/>
</svg>
