<svg width="73" height="84" viewBox="0 0 73 84" fill="none" xmlns="http://www.w3.org/2000/svg">
<path d="M2.00001 35.1035V77.8621C1.99827 78.96 2.43411 80.013 3.20997 80.7894C3.98641 81.5658 5.0399 82.0011 6.13797 81.9999H64.0689" stroke="black" stroke-width="2.5" stroke-linecap="round" stroke-linejoin="round"/>
<path d="M59.9309 42.0001V39.2414C59.9321 38.1434 59.4968 37.0905 58.7204 36.3141C57.9439 35.5376 56.891 35.1024 55.7931 35.1035H30.4138C29.0353 35.1018 27.7473 34.4142 26.979 33.2694L23.9171 28.6766C23.1488 27.5226 21.855 26.8287 20.469 26.8276H6.13797C5.03999 26.8265 3.98653 27.2617 3.20998 28.0382C2.43412 28.8146 1.99827 29.8676 2.00001 30.9655V35.1034" stroke="black" stroke-width="2.5" stroke-linecap="round" stroke-linejoin="round"/>
<path d="M7.51709 26.8277V6.1381C7.51536 5.04012 7.9512 3.98721 8.72764 3.2108C9.50351 2.43436 10.557 1.99909 11.655 2.00025H51.6549" stroke="black" stroke-width="2.5" stroke-linecap="round" stroke-linejoin="round"/>
<path d="M65.4481 15.7932V72.3448C65.4499 73.4428 65.014 74.4963 64.2376 75.2728C63.4617 76.0487 62.4082 76.4845 61.3103 76.4828H59.9312" stroke="black" stroke-width="2.5" stroke-linecap="round" stroke-linejoin="round"/>
<path d="M59.9309 42.0002V77.8623C59.9292 78.9602 60.365 80.0131 61.1409 80.7896C61.9173 81.566 62.9708 82.0013 64.0689 82.0001H66.8276C67.9256 82.0013 68.9785 81.566 69.7551 80.7896C70.5309 80.0131 70.9668 78.9602 70.965 77.8623V46.1382C70.9668 45.0402 70.5309 43.9867 69.7551 43.2109C68.9786 42.4344 67.9251 41.9986 66.8271 42.0003H65.4479" stroke="black" stroke-width="2.5" stroke-linecap="round" stroke-linejoin="round"/>
<path d="M51.655 2V11.6556C51.655 12.753 52.0909 13.8054 52.8667 14.5812C53.6426 15.3571 54.6956 15.7935 55.7929 15.7935H65.448L51.655 2Z" stroke="black" stroke-width="2.5" stroke-linecap="round" stroke-linejoin="round"/>
<path d="M14.4138 13.0347H44.7586" stroke="black" stroke-width="2.5" stroke-linecap="round" stroke-linejoin="round"/>
<path d="M14.4138 18.5518H44.7586" stroke="black" stroke-width="2.5" stroke-linecap="round" stroke-linejoin="round"/>
<path d="M28.2068 24.0691H44.7585" stroke="black" stroke-width="2.5" stroke-linecap="round" stroke-linejoin="round"/>
<path d="M30.9653 29.5864H44.7583" stroke="black" stroke-width="2.5" stroke-linecap="round" stroke-linejoin="round"/>
<path d="M46.065 43.4536C49.841 47.2302 49.841 53.3529 46.065 57.1289C42.2884 60.9054 36.1657 60.9055 32.3891 57.1289C28.6132 53.3529 28.6132 47.2302 32.3891 43.4536C36.1657 39.6771 42.2884 39.6771 46.065 43.4536Z" stroke="black" stroke-width="2.5" stroke-linecap="round" stroke-linejoin="round"/>
<path d="M13.8436 69.8126L23.5979 60.0584C24.6768 58.9795 26.6303 59.1838 27.5048 60.0584L29.4583 62.0119C30.5372 63.0908 30.5372 64.8399 29.4583 65.9188L19.7041 75.6731C18.6252 76.752 16.6717 76.5477 15.7971 75.6731L13.8436 73.7196C12.7647 72.6407 12.7647 70.8915 13.8436 69.8126Z" stroke="black" stroke-width="2.5" stroke-linecap="round" stroke-linejoin="round"/>
<path d="M32.389 57.1284L28.4819 61.036" stroke="black" stroke-width="2.5" stroke-linecap="round" stroke-linejoin="round"/>
</svg>
