<svg width="269" height="79" viewBox="0 0 269 79" fill="none" xmlns="http://www.w3.org/2000/svg">
<g clip-path="url(#clip0_381_1069)">
<path d="M83.5495 16.0598H77.2898C75.5181 16.0598 75.1387 16.2931 75.1387 17.7996V18.3311C75.1387 19.0959 75.3702 19.2641 76.3186 19.4553C76.3186 19.4553 80.6814 20.285 81.903 20.5183C83.7771 20.8777 84.4524 21.6004 84.4524 23.4052V25.4241C84.4524 28.0778 83.356 29.1179 80.0706 29.0987C76.4059 29.0987 72.8853 28.9076 72.8853 28.9076L72.908 27.0607H79.8392C81.7778 27.0607 82.3051 26.6554 82.3051 25.0647V23.8105C82.3051 23.1299 82.1155 22.6863 81.2505 22.5143C79.9872 22.2581 76.8459 21.6845 75.981 21.5392C73.9779 21.1798 72.946 20.9427 72.946 18.8626V17.5893C72.946 14.9356 74.0841 14.0218 77.3505 14.0409C81.0153 14.0409 83.5685 14.2321 83.5685 14.2321L83.5457 16.0598H83.5495Z" fill="white"/>
<path d="M91.323 26.9956H94.2518C95.8945 26.9956 96.5925 26.3149 96.5925 24.6822V14.1478H98.7436V25.2328C98.7436 27.6532 97.3323 29.0566 94.7601 29.0566H90.8184C88.2462 29.0566 86.835 27.6532 86.835 25.2328V14.1478H88.986V24.6822C88.986 26.3188 89.6803 26.9956 91.3268 26.9956H91.323Z" fill="white"/>
<path d="M114.207 29.0145H112.333C111.954 29.0145 111.787 28.8883 111.616 28.6321C111.403 28.3148 104.241 18.2469 104.074 17.9907H103.99V29.0145H101.839V14.1478H103.547C104.009 14.1478 104.051 14.2319 104.157 14.404C104.222 14.5111 111.658 24.8963 111.995 25.4278H112.079V14.1517H114.207V29.0183V29.0145Z" fill="white"/>
<path d="M132.557 15.9947H126.7C125.057 15.9947 124.234 16.6524 124.234 18.266V24.7204C124.234 26.357 125.057 27.1638 126.7 27.1638H132.557L132.58 28.9495C132.58 28.9495 129.397 29.1177 125.88 29.1177C123.331 29.1407 121.938 27.42 121.938 24.9766V18.0098C121.938 15.5664 123.331 14.0178 125.88 14.0369C129.924 14.0369 132.58 14.186 132.58 14.186L132.557 15.9908V15.9947Z" fill="white"/>
<path d="M134.435 25.2328V17.9257C134.435 15.4823 135.869 14.1019 138.396 14.1019H142.717C145.247 14.1019 146.678 15.4823 146.678 17.9257V25.2328C146.678 27.6532 145.243 29.0565 142.717 29.0565H138.396C135.865 29.0565 134.435 27.6532 134.435 25.2328ZM136.605 18.1168V24.8275C136.605 26.4411 137.322 27.1409 138.946 27.1409H142.171C143.794 27.1409 144.511 26.4411 144.511 24.8275V18.1168C144.511 16.5032 143.794 15.9717 142.171 15.9717H138.946C137.322 15.9717 136.605 16.5032 136.605 18.1168Z" fill="white"/>
<path d="M162.08 29.0145H160.206C159.827 29.0145 159.66 28.8883 159.489 28.6321C159.28 28.3148 152.114 18.2469 151.947 17.9907H151.863V29.0145H149.712V14.1478H151.42C151.882 14.1478 151.924 14.2319 152.03 14.404C152.095 14.5111 159.531 24.8963 159.868 25.4278H159.952V14.1517H162.08V29.0183V29.0145Z" fill="white"/>
<path d="M175.355 16.0597H169.095C167.323 16.0597 166.944 16.2929 166.944 17.7995V18.331C166.944 19.0957 167.175 19.264 168.124 19.4552C168.124 19.4552 172.487 20.2849 173.708 20.5182C175.582 20.8776 176.258 21.6003 176.258 23.4051V25.424C176.258 28.0777 175.161 29.1177 171.876 29.0986C168.211 29.0986 164.69 28.9074 164.69 28.9074L164.713 27.0606H171.644C173.583 27.0606 174.11 26.6553 174.11 25.0646V23.8104C174.11 23.1298 173.921 22.6862 173.056 22.5142C171.792 22.258 168.651 21.6844 167.79 21.5391C165.787 21.1797 164.755 20.9426 164.755 18.8625V17.5892C164.755 14.9355 165.893 14.0216 169.159 14.0408C172.828 14.0408 175.377 14.2319 175.377 14.2319L175.355 16.0597Z" fill="white"/>
<path d="M183.128 26.9956H186.057C187.7 26.9956 188.398 26.3149 188.398 24.6822V14.1478H190.549V25.2328C190.549 27.6532 189.137 29.0566 186.565 29.0566H182.624C180.051 29.0566 178.64 27.6532 178.64 25.2328V14.1478H180.791V24.6822C180.791 26.3188 181.485 26.9956 183.132 26.9956H183.128Z" fill="white"/>
<path d="M193.641 14.1478H195.792V27.0835H203.523V29.0145H193.641V14.1478Z" fill="white"/>
<path d="M213.891 15.9947H209.089V29.0145H206.937V15.9947H202.112V14.1478H213.891V15.9947Z" fill="white"/>
<path d="M223.497 24.7434H217.093L215.701 29.0107H213.277C213.277 29.0107 217.932 14.9508 218.08 14.5034C218.144 14.2281 218.205 14.144 218.649 14.144H221.915C222.359 14.144 222.42 14.2281 222.507 14.5034C222.655 14.9508 227.31 29.0107 227.31 29.0107H224.886L223.493 24.7434H223.497ZM217.617 22.6633H222.947L220.735 15.9526H219.851L217.617 22.6633Z" fill="white"/>
<path d="M241.893 29.0145H240.019C239.64 29.0145 239.473 28.8883 239.302 28.6321C239.089 28.3148 231.927 18.2469 231.76 17.9907H231.676V29.0145H229.525V14.1478H231.233C231.695 14.1478 231.737 14.2319 231.843 14.404C231.908 14.5111 239.344 24.8963 239.681 25.4278H239.765V14.1517H241.893V29.0183V29.0145Z" fill="white"/>
<path d="M256.01 15.9947H251.207V29.0145H249.056V15.9947H244.23V14.1478H256.01V15.9947Z" fill="white"/>
<path d="M268.442 16.0597H262.182C260.411 16.0597 260.031 16.2929 260.031 17.7995V18.331C260.031 19.0957 260.263 19.264 261.211 19.4552C261.211 19.4552 265.574 20.2849 266.796 20.5182C268.67 20.8776 269.345 21.6003 269.345 23.4051V25.424C269.345 28.0777 268.249 29.1177 264.963 29.0986C261.295 29.0986 257.778 28.9074 257.778 28.9074L257.801 27.0606H264.732C266.67 27.0606 267.198 26.6553 267.198 25.0646V23.8104C267.198 23.1298 267.008 22.6862 266.143 22.5142C264.88 22.258 261.739 21.6844 260.874 21.5391C258.87 21.1797 257.839 20.9426 257.839 18.8625V17.5892C257.839 14.9355 258.977 14.0216 262.243 14.0408C265.908 14.0408 268.457 14.2319 268.457 14.2319L268.435 16.0597H268.442Z" fill="white"/>
<path d="M75.4878 42.8258L77.3277 39.6445H78.0941L75.8064 43.5753V45.598H75.1729V43.5829L72.8853 39.6445H73.6516L75.484 42.8258H75.4878Z" fill="white"/>
<path d="M83.8529 42.2561V44.1717C83.8529 45.2844 83.3559 45.6362 82.3771 45.6362H81.3718C80.393 45.6362 79.896 45.2883 79.896 44.1717V42.2561C79.896 41.1319 80.393 40.7916 81.3718 40.7916H82.3771C83.3559 40.7916 83.8529 41.1319 83.8529 42.2561ZM83.2459 44.1106V42.2905C83.2459 41.4645 83.06 41.3537 82.2937 41.3537H81.459C80.723 41.3537 80.5144 41.4645 80.5144 42.2905V44.1106C80.5144 44.9097 80.6737 45.0474 81.459 45.0474H82.2937C83.0865 45.0474 83.2459 44.9097 83.2459 44.1106Z" fill="white"/>
<path d="M90.568 45.6018H89.9534V45.185C89.5816 45.3571 88.9405 45.6515 88.4245 45.6515H88.1134C87.1422 45.6515 86.6528 45.4489 86.6528 44.3324V40.8375H87.2598V44.2329C87.2598 44.9556 87.5216 45.1086 88.2121 45.1086H88.5156C88.9708 45.1086 89.5702 44.8294 89.9496 44.6994V40.8375H90.5642V45.6018H90.568Z" fill="white"/>
<path d="M93.5386 40.8375H94.1532V41.3804C94.5249 41.1586 95.1054 40.803 95.6213 40.803H96.2018V41.3651H95.5189C95.0713 41.3651 94.5325 41.6366 94.1532 41.8431V45.6018H93.5386V40.8375Z" fill="white"/>
<path d="M106.35 40.1798H104.005C103.178 40.1798 102.89 40.3939 102.89 41.2428V43.9576C102.89 44.7989 103.178 45.055 104.005 45.055H106.35V45.5827C106.35 45.5827 105.2 45.6324 103.785 45.6324C102.806 45.6477 102.222 45.0436 102.222 44.0418V41.1587C102.222 40.1568 102.806 39.5948 103.785 39.61C105.466 39.61 106.35 39.6521 106.35 39.6521V40.1798Z" fill="white"/>
<path d="M112.833 42.2561V44.1717C112.833 45.2844 112.336 45.6362 111.358 45.6362H110.352C109.373 45.6362 108.876 45.2883 108.876 44.1717V42.2561C108.876 41.1319 109.373 40.7916 110.352 40.7916H111.358C112.336 40.7916 112.833 41.1319 112.833 42.2561ZM112.226 44.1106V42.2905C112.226 41.4645 112.04 41.3537 111.274 41.3537H110.439C109.704 41.3537 109.495 41.4645 109.495 42.2905V44.1106C109.495 44.9097 109.654 45.0474 110.439 45.0474H111.274C112.067 45.0474 112.226 44.9097 112.226 44.1106Z" fill="white"/>
<path d="M116.316 40.8375V41.239C116.68 41.0593 117.151 40.7878 117.667 40.7878H117.97C118.604 40.7878 119.032 40.8719 119.245 41.2657C119.632 41.0631 120.163 40.7878 120.671 40.7878H120.982C121.946 40.7878 122.443 40.9828 122.443 42.0993V45.6057H121.828V42.2026C121.828 41.4799 121.567 41.3346 120.884 41.3346H120.573C120.167 41.3346 119.711 41.5564 119.393 41.7093C119.427 41.8278 119.442 41.9731 119.442 42.1605V45.6057H118.827V42.2026C118.827 41.4799 118.566 41.3346 117.883 41.3346H117.572C117.124 41.3346 116.684 41.5908 116.324 41.7322V45.6019H115.709V40.8375H116.324H116.316Z" fill="white"/>
<path d="M125.979 46.9592H125.364V40.8336H125.979V41.2657C126.351 41.0783 126.931 40.7992 127.447 40.7992H127.785C128.756 40.7992 129.253 40.9942 129.253 42.1107V44.3132C129.253 45.4259 128.756 45.6324 127.785 45.6324H127.447C126.931 45.6324 126.351 45.3418 125.979 45.1544V46.9592ZM125.979 44.6803C126.358 44.8256 126.897 45.0894 127.345 45.0894H127.69C128.373 45.0894 128.634 44.9365 128.634 44.2138V42.2216C128.634 41.4913 128.373 41.346 127.69 41.346H127.345C126.897 41.346 126.358 41.6098 125.979 41.7475V44.6803Z" fill="white"/>
<path d="M132.732 45.6018H132.125V39.3653H132.732V45.6018Z" fill="white"/>
<path d="M139.238 45.5674C139.238 45.5674 138.32 45.6362 137.087 45.6362C136.108 45.6439 135.611 45.3724 135.611 44.2482V42.3172C135.611 41.3154 136.237 40.8107 137.216 40.8107H138.153C139.14 40.8107 139.64 41.3116 139.64 42.3172V43.5179C139.64 43.579 139.625 43.602 139.557 43.602H136.23V44.1717C136.23 44.9709 136.442 45.1085 137.174 45.1085H139.25L139.242 45.5674H139.238ZM139.086 42.4625C139.086 41.5601 138.84 41.3383 138.108 41.3383H137.33C136.571 41.3383 136.222 41.4645 136.222 42.4625V43.1011L139.083 43.0934V42.4625H139.086Z" fill="white"/>
<path d="M141.932 40.826H142.633V39.6445H143.248V40.8337H144.625V41.369H143.248V44.405C143.248 44.9671 143.282 45.0856 143.832 45.0856C143.999 45.0856 144.686 45.0589 144.686 45.0589L144.678 45.5177C144.678 45.5177 144.018 45.6286 143.624 45.6286C142.838 45.6286 142.637 45.1851 142.637 44.5044V41.3651H141.935V40.8222L141.932 40.826Z" fill="white"/>
<path d="M150.809 45.5674C150.809 45.5674 149.891 45.6362 148.658 45.6362C147.679 45.6439 147.182 45.3724 147.182 44.2482V42.3172C147.182 41.3154 147.808 40.8107 148.787 40.8107H149.724C150.71 40.8107 151.211 41.3116 151.211 42.3172V43.5179C151.211 43.579 151.196 43.602 151.128 43.602H147.801V44.1717C147.801 44.9709 148.013 45.1085 148.745 45.1085H150.82L150.813 45.5674H150.809ZM150.657 42.4625C150.657 41.5601 150.411 41.3383 149.678 41.3383H148.901C148.142 41.3383 147.797 41.4645 147.797 42.4625V43.1011L150.657 43.0934V42.4625Z" fill="white"/>
<path d="M161.678 40.1798H159.333C158.506 40.1798 158.218 40.3939 158.218 41.2428V43.9576C158.218 44.7989 158.506 45.055 159.333 45.055H161.678V45.5827C161.678 45.5827 160.528 45.6324 159.113 45.6324C158.135 45.6477 157.55 45.0436 157.55 44.0418V41.1587C157.55 40.1568 158.135 39.5948 159.113 39.61C160.794 39.61 161.678 39.6521 161.678 39.6521V40.1798Z" fill="white"/>
<path d="M167.831 45.5674C167.831 45.5674 166.913 45.6362 165.68 45.6362C164.702 45.6439 164.205 45.3724 164.205 44.2482V42.3172C164.205 41.3154 164.831 40.8107 165.809 40.8107H166.746C167.733 40.8107 168.234 41.3116 168.234 42.3172V43.5179C168.234 43.579 168.218 43.602 168.15 43.602H164.823V44.1717C164.823 44.9709 165.035 45.1085 165.768 45.1085H167.843L167.835 45.5674H167.831ZM167.68 42.4625C167.68 41.5601 167.433 41.3383 166.701 41.3383H165.923C165.164 41.3383 164.819 41.4645 164.819 42.4625V43.1011L167.68 43.0934V42.4625Z" fill="white"/>
<path d="M171.015 40.8375H171.629V41.3804C172.001 41.1586 172.581 40.803 173.097 40.803H173.678V41.3651H172.995C172.547 41.3651 172.009 41.6366 171.629 41.8431V45.6018H171.015V40.8375Z" fill="white"/>
<path d="M175.646 40.826H176.348V39.6445H176.963V40.8337H178.34V41.369H176.963V44.405C176.963 44.9671 176.997 45.0856 177.547 45.0856C177.718 45.0856 178.401 45.0589 178.401 45.0589L178.393 45.5177C178.393 45.5177 177.737 45.6286 177.338 45.6286C176.553 45.6286 176.352 45.1851 176.352 44.5044V41.3651H175.65V40.8222L175.646 40.826Z" fill="white"/>
<path d="M181.318 39.1091C181.519 39.1091 181.683 39.2621 181.683 39.4647C181.683 39.6674 181.523 39.8203 181.318 39.8203C181.113 39.8203 180.954 39.6674 180.954 39.4647C180.954 39.2621 181.113 39.1091 181.318 39.1091ZM181.622 45.598H181.015V40.8336H181.622V45.598Z" fill="white"/>
<path d="M184.11 40.8375H184.812V40.3174C184.812 39.6368 185.013 39.2009 185.799 39.2009C186.197 39.2009 186.785 39.2774 186.785 39.2774L186.736 39.7095C186.736 39.7095 186.178 39.6942 186.011 39.6942C185.563 39.6942 185.427 39.8203 185.427 40.4016V40.8528H186.804V41.3728H185.427V45.6018H184.812V41.3728H184.11V40.8375ZM188.003 39.1091C188.204 39.1091 188.367 39.2621 188.367 39.4647C188.367 39.6674 188.208 39.8203 188.003 39.8203C187.798 39.8203 187.639 39.6674 187.639 39.4647C187.639 39.2621 187.798 39.1091 188.003 39.1091ZM188.306 45.598H187.699V40.8336H188.306V45.598Z" fill="white"/>
<path d="M194.642 45.5674C194.642 45.5674 193.891 45.6362 192.658 45.6362C191.679 45.6439 191.182 45.3303 191.182 44.2061V42.2254C191.182 41.1013 191.679 40.7877 192.658 40.803C193.914 40.803 194.642 40.8374 194.642 40.8374V41.346H192.745C191.96 41.346 191.801 41.4569 191.801 42.2828V44.145C191.801 44.9709 191.96 45.0818 192.745 45.0818H194.642V45.5674Z" fill="white"/>
<path d="M199.513 40.803C200.5 40.7877 201.001 40.998 201.001 42.1146V45.6018H200.386V45.1583C200.014 45.3456 199.434 45.6362 198.918 45.6362H198.512C197.541 45.6362 197.051 45.5521 197.051 44.317V43.9155C197.051 42.7914 197.541 42.6652 198.512 42.6652H199.214C199.771 42.6652 200.007 42.7149 200.386 42.7837V42.2216C200.386 41.3613 200.192 41.2925 199.4 41.2925L197.525 41.3192V40.868C197.525 40.868 198.269 40.7992 199.517 40.7992L199.513 40.803ZM199.267 43.124H198.584C197.875 43.124 197.639 43.2273 197.639 43.9997V44.2558C197.639 44.9785 197.799 45.1238 198.584 45.1238H199.013C199.46 45.1238 199.999 44.86 200.378 44.7223V43.1814C199.999 43.147 199.711 43.1202 199.263 43.1202L199.267 43.124Z" fill="white"/>
<path d="M203.372 40.826H204.073V39.6445H204.688V40.8337H206.065V41.369H204.688V44.405C204.688 44.9671 204.722 45.0856 205.272 45.0856C205.439 45.0856 206.126 45.0589 206.126 45.0589L206.118 45.5177C206.118 45.5177 205.458 45.6286 205.064 45.6286C204.278 45.6286 204.077 45.1851 204.077 44.5044V41.3651H203.375V40.8222L203.372 40.826Z" fill="white"/>
<path d="M209.04 39.1091C209.241 39.1091 209.404 39.2621 209.404 39.4647C209.404 39.6674 209.244 39.8203 209.04 39.8203C208.835 39.8203 208.675 39.6674 208.675 39.4647C208.675 39.2621 208.835 39.1091 209.04 39.1091ZM209.343 45.598H208.736V40.8336H209.343V45.598Z" fill="white"/>
<path d="M216.183 42.2561V44.1717C216.183 45.2844 215.686 45.6362 214.707 45.6362H213.702C212.723 45.6362 212.226 45.2883 212.226 44.1717V42.2561C212.226 41.1319 212.723 40.7916 213.702 40.7916H214.707C215.686 40.7916 216.183 41.1319 216.183 42.2561ZM215.576 44.1106V42.2905C215.576 41.4645 215.39 41.3537 214.624 41.3537H213.789C213.053 41.3537 212.844 41.4645 212.844 42.2905V44.1106C212.844 44.9097 213.004 45.0474 213.789 45.0474H214.624C215.417 45.0474 215.576 44.9097 215.576 44.1106Z" fill="white"/>
<path d="M219.051 40.8375H219.665V41.2543C220.037 41.0669 220.618 40.7878 221.134 40.7878H221.445C222.408 40.7878 222.905 40.9828 222.905 42.0993V45.6057H222.291V42.2026C222.291 41.4799 222.029 41.3346 221.346 41.3346H221.035C220.587 41.3346 220.049 41.5984 219.669 41.7322V45.6019H219.055V40.8375H219.051Z" fill="white"/>
<path d="M230.106 45.6018H229.473V39.6483H232.352C233.331 39.6483 233.896 40.0803 233.896 41.086V42.0801C233.896 43.0858 233.331 43.5255 232.352 43.5255H230.106V45.6018ZM233.263 41.9272V41.2466C233.263 40.4971 233.069 40.2103 232.216 40.2103H230.106V42.9673H232.216C233.069 42.9673 233.263 42.669 233.263 41.931V41.9272Z" fill="white"/>
<path d="M238.714 40.803C239.7 40.7877 240.201 40.998 240.201 42.1146V45.6018H239.587V45.1583C239.215 45.3456 238.634 45.6362 238.118 45.6362H237.713C236.741 45.6362 236.252 45.5521 236.252 44.317V43.9155C236.252 42.7914 236.741 42.6652 237.713 42.6652H238.414C238.972 42.6652 239.207 42.7149 239.587 42.7837V42.2216C239.587 41.3613 239.393 41.2925 238.6 41.2925L236.726 41.3192V40.868C236.726 40.868 237.47 40.7992 238.718 40.7992L238.714 40.803ZM238.467 43.124H237.785C237.075 43.124 236.84 43.2273 236.84 43.9997V44.2558C236.84 44.9785 236.999 45.1238 237.785 45.1238H238.213C238.661 45.1238 239.2 44.86 239.579 44.7223V43.1814C239.2 43.147 238.911 43.1202 238.464 43.1202L238.467 43.124Z" fill="white"/>
<path d="M243.104 40.8375H243.718V41.3804C244.09 41.1586 244.67 40.803 245.186 40.803H245.771V41.3651H245.088C244.64 41.3651 244.101 41.6366 243.722 41.8431V45.6018H243.107V40.8375H243.104Z" fill="white"/>
<path d="M247.736 40.826H248.438V39.6445H249.052V40.8337H250.429V41.369H249.052V44.405C249.052 44.9671 249.086 45.0856 249.636 45.0856C249.803 45.0856 250.49 45.0589 250.49 45.0589L250.483 45.5177C250.483 45.5177 249.822 45.6286 249.428 45.6286C248.643 45.6286 248.441 45.1851 248.441 44.5044V41.3651H247.74V40.8222L247.736 40.826Z" fill="white"/>
<path d="M253.096 40.8375H253.711V41.2543C254.083 41.0669 254.663 40.7878 255.179 40.7878H255.49C256.454 40.7878 256.951 40.9828 256.951 42.0993V45.6057H256.336V42.2026C256.336 41.4799 256.074 41.3346 255.391 41.3346H255.08C254.633 41.3346 254.094 41.5984 253.715 41.7322V45.6019H253.1V40.8375H253.096Z" fill="white"/>
<path d="M263.373 45.5674C263.373 45.5674 262.455 45.6362 261.222 45.6362C260.244 45.6439 259.747 45.3724 259.747 44.2482V42.3172C259.747 41.3154 260.373 40.8107 261.351 40.8107H262.288C263.275 40.8107 263.776 41.3116 263.776 42.3172V43.5179C263.776 43.579 263.76 43.602 263.692 43.602H260.365V44.1717C260.365 44.9709 260.577 45.1085 261.31 45.1085H263.385L263.377 45.5674H263.373ZM263.222 42.4625C263.222 41.5601 262.975 41.3383 262.243 41.3383H261.465C260.706 41.3383 260.361 41.4645 260.361 42.4625V43.1011L263.222 43.0934V42.4625Z" fill="white"/>
<path d="M266.557 40.8375H267.171V41.3804C267.543 41.1586 268.123 40.803 268.639 40.803H269.224V41.3651H268.541C268.093 41.3651 267.554 41.6366 267.175 41.8431V45.6018H266.56V40.8375H266.557Z" fill="white"/>
<path fill-rule="evenodd" clip-rule="evenodd" d="M13.7601 27.7335H11.0437C9.0596 14.7558 19.242 1.38037 32.6757 0C32.6757 0.2256 32.6833 0.4512 32.6871 0.676801C32.7023 1.25801 32.7175 1.83539 32.6302 2.39748C32.5923 2.64602 32.0611 2.9328 31.7197 3.00545C24.4888 4.58083 19.1738 8.67605 15.8732 15.3446C14.0749 18.9772 13.3997 22.8659 13.7563 26.9267C13.7714 27.0758 13.7676 27.225 13.7639 27.4085C13.7639 27.5041 13.7601 27.6112 13.7601 27.7335ZM18.6199 14.6908L19.4924 15.6964L20.4826 16.8397C24.2839 12.1251 29.102 9.27255 35.0051 8.49251C40.9233 7.70864 46.375 9.11195 51.3031 12.7024C51.6521 12.3354 51.9859 11.9836 52.316 11.6356C52.6347 11.303 52.9458 10.9741 53.2568 10.6453C42.9568 2.12982 26.3933 4.1411 18.6237 14.687L18.6199 14.6908ZM15.509 41.2389L15.0841 41.629C14.9209 41.7781 14.7578 41.931 14.5909 42.0802C4.32879 34.2339 1.9501 18.0671 10.4633 7.14273C10.505 7.1542 10.5354 7.16185 10.5619 7.1695C10.5999 7.17715 10.6226 7.18479 10.6416 7.20009C11.9656 8.30132 12.1857 9.57845 11.3017 11.0315C6.43811 19.0116 7.39035 30.0239 13.5666 37.1017C14.2115 37.8397 14.8868 38.5432 15.5811 39.2659C15.8997 39.5986 16.226 39.9389 16.5485 40.283C16.245 40.5621 15.9225 40.8604 15.5887 41.1663L15.5355 41.216L15.5166 41.2351H15.5128L15.509 41.2389ZM35.282 10.8365C47.3651 10.5841 58.4695 19.9637 60.3132 31.9855C60.3398 32.1576 60.3322 32.3297 60.3246 32.5591C60.3208 32.6853 60.317 32.8267 60.317 32.9912C60.1008 32.9912 59.8807 32.995 59.6607 33.0026C59.0916 33.0141 58.5188 33.0294 57.9573 32.9567C57.7259 32.93 57.4376 32.4673 57.3731 32.1614C55.2941 22.843 49.7211 16.8359 40.5402 14.4614C38.8937 14.0331 37.1675 13.9222 35.3541 13.7998C34.5195 13.7463 33.6659 13.689 32.7895 13.601C32.5126 11.0621 32.6871 10.8938 35.2744 10.8403L35.282 10.8365ZM32.7971 13.5972C32.7971 13.6316 32.8009 13.6622 32.8047 13.6928C32.8047 13.6928 32.8047 13.6966 32.8047 13.7004V13.7119C32.7971 13.7004 32.7744 13.666 32.7099 13.5895C32.7212 13.5895 32.7364 13.5895 32.7478 13.5895H32.763H32.7857L32.7971 13.5972ZM45.5403 18.6522L45.1913 19.0307C44.7133 19.5546 44.2163 20.0975 43.6586 20.7055C48.2453 24.5331 51.0944 29.3586 51.8721 35.316C52.6498 41.2925 51.2537 46.7642 47.718 51.716C48.1542 52.1442 48.5678 52.5534 48.9737 52.9587C49.2279 53.2111 49.4821 53.4596 49.7324 53.7081C58.1015 43.4835 56.3336 26.7394 45.5366 18.6522H45.5403ZM49.4252 33.19H46.5153C46.9061 36.9258 46.5229 40.4819 45.161 43.8582C42.0653 51.5095 36.4695 56.205 28.4305 57.876C27.8045 58.006 27.5693 58.2354 27.6035 58.8587C27.63 59.3061 27.6224 59.7535 27.6186 60.2582C27.6186 60.4914 27.6149 60.7362 27.6149 61C34.2425 60.0288 39.6031 57.0845 43.7687 52.0066C48.2529 46.5463 50.0625 40.2524 49.4327 33.19H49.4252ZM39.9597 44.2521L39.9673 44.2597L39.9977 44.2865C40.635 44.8715 41.2344 45.4221 41.8225 45.9651C33.4003 57.0233 17.0151 58.4343 7.12099 50.2285C7.67867 49.5785 8.19462 48.9782 8.72575 48.3626L8.73713 48.3511L8.94199 48.1102C13.9535 51.6701 19.3559 53.1155 25.3083 52.3087C31.2265 51.5057 35.9801 48.6111 39.7549 44.0647L39.9597 44.2521ZM27.4252 49.6894V47.2231C26.5981 47.1428 25.7749 47.0931 24.9592 47.0472C23.2065 46.944 21.4917 46.8445 19.8604 46.4316C10.6264 44.0838 4.9889 38.0844 2.93268 28.7048C2.79611 28.0777 2.58366 27.8291 1.95769 27.8674C1.50244 27.8941 1.05098 27.8865 0.591938 27.8827C0.394663 27.8827 0.197388 27.8788 0.00390625 27.8788C0.956139 40.9063 14.3026 51.7925 27.429 49.6932L27.4252 49.6894Z" fill="url(#paint0_linear_381_1069)"/>
</g>
<path d="M0.86 77H4.36C5.53 77 6.32 76.36 6.32 75.18V71.81C6.32 70.63 5.53 70 4.36 70H0.86V77ZM5.57 74.99C5.57 76 5.06 76.34 4.2 76.34H1.61V70.66H4.2C5.06 70.66 5.57 70.99 5.57 72V74.99ZM8.65102 77H13.251V76.31H9.40102V73.77H12.881V73.09H9.40102V70.66H13.251V70H8.65102V77ZM15.4948 77H20.0248V76.32H16.2448V70H15.4948V77ZM21.733 77H22.483V73.72H26.613V77H27.363V70H26.613V73.04H22.483V70H21.733V77ZM30.6468 70H29.8968V77H30.6468V70ZM36.4603 78.24H37.0503V69H36.4603V78.24ZM46.4375 76.05H46.2875L43.8975 70.06C43.8975 70.06 43.8775 70 43.8175 70H42.7975V77H43.5475V71.2H43.6075L45.8475 76.91C45.8475 76.91 45.8675 77 45.9475 77H46.7775C46.8575 77 46.8875 76.91 46.8875 76.91L49.1175 71.2H49.1775V77H49.9275V70H48.9175C48.8475 70 48.8275 70.06 48.8275 70.06L46.4375 76.05ZM53.0452 75.14V70H52.2952V75.28C52.2952 76.46 52.9652 77.03 54.1252 77.03H55.9252C57.0852 77.03 57.7552 76.46 57.7552 75.28V70H57.0052V75.14C57.0052 76.01 56.6252 76.36 55.7652 76.36H54.2852C53.4252 76.36 53.0452 76.01 53.0452 75.14ZM63.7676 76.05H63.6176L61.2276 70.06C61.2276 70.06 61.2076 70 61.1476 70H60.1276V77H60.8776V71.2H60.9376L63.1776 76.91C63.1776 76.91 63.1976 77 63.2776 77H64.1076C64.1876 77 64.2176 76.91 64.2176 76.91L66.4476 71.2H66.5076V77H67.2576V70H66.2476C66.1776 70 66.1576 70.06 66.1576 70.06L63.7676 76.05ZM69.7252 77H73.2252C74.3952 77 75.0552 76.48 75.0552 75.3V74.51C75.0552 73.83 74.6152 73.44 73.9752 73.27C74.5252 73.06 74.8752 72.66 74.8852 72.04V71.69C74.8852 70.51 74.2152 70 73.0552 70H69.7252V77ZM70.4752 73.64H73.0152C73.8752 73.64 74.3352 73.93 74.3352 74.58V75.12C74.3352 76 73.9552 76.34 73.0952 76.34H70.4752V73.64ZM74.1552 72.03C74.1552 72.67 73.7152 72.99 72.8952 73H70.4752V70.65H72.9152C73.7752 70.65 74.1552 70.94 74.1552 71.82V72.03ZM82.4593 77H83.3093C83.3093 77 80.9893 70.28 80.9493 70.14C80.9193 70.05 80.8993 70 80.7393 70H79.4493C79.2893 70 79.2693 70.05 79.2393 70.14C79.1993 70.28 76.8793 77 76.8793 77H77.7293L78.4693 74.83H81.7193L82.4593 77ZM79.8593 70.63H80.3293L81.5193 74.18H78.6593L79.8593 70.63ZM86.0882 70H85.3382V77H86.0882V70ZM91.9017 78.24H92.4917V69H91.9017V78.24ZM98.2389 77H101.739C102.909 77 103.569 76.48 103.569 75.3V74.51C103.569 73.83 103.129 73.44 102.489 73.27C103.039 73.06 103.389 72.66 103.399 72.04V71.69C103.399 70.51 102.729 70 101.569 70H98.2389V77ZM98.9889 73.64H101.529C102.389 73.64 102.849 73.93 102.849 74.58V75.12C102.849 76 102.469 76.34 101.609 76.34H98.9889V73.64ZM102.669 72.03C102.669 72.67 102.229 72.99 101.409 73H98.9889V70.65H101.429C102.289 70.65 102.669 70.94 102.669 71.82V72.03ZM110.973 77H111.823C111.823 77 109.503 70.28 109.463 70.14C109.433 70.05 109.413 70 109.253 70H107.963C107.803 70 107.783 70.05 107.753 70.14C107.713 70.28 105.393 77 105.393 77H106.243L106.983 74.83H110.233L110.973 77ZM108.373 70.63H108.843L110.033 74.18H107.173L108.373 70.63ZM119.452 70H118.702V75.81H118.672C118.562 75.64 114.612 70.13 114.592 70.09C114.562 70.04 114.542 70 114.372 70H113.782V77H114.532V71.34H114.562C114.612 71.42 118.432 76.76 118.492 76.85C118.552 76.93 118.612 77 118.752 77H119.452V70ZM124.304 73.89L126.574 73.92L126.504 76.33L123.784 76.35C122.924 76.36 122.544 76 122.544 75.13V71.86C122.544 70.99 122.804 70.64 123.784 70.64H126.834V70C126.834 70 125.604 69.96 123.614 69.96C122.454 69.94 121.794 70.57 121.794 71.75V75.24C121.794 76.42 122.454 77.06 123.614 77.04C125.304 77.04 127.074 76.96 127.074 76.96C127.114 76.96 127.204 76.94 127.214 76.81L127.314 73.22H124.304V73.89ZM134.61 77H135.46C135.46 77 133.14 70.28 133.1 70.14C133.07 70.05 133.05 70 132.89 70H131.6C131.44 70 131.42 70.05 131.39 70.14C131.35 70.28 129.03 77 129.03 77H129.88L130.62 74.83H133.87L134.61 77ZM132.01 70.63H132.48L133.67 74.18H130.81L132.01 70.63ZM137.419 77H141.949V76.32H138.169V70H137.419V77ZM145.445 77.03H147.425C148.585 77.03 149.245 76.46 149.245 75.28V71.72C149.245 70.54 148.585 69.97 147.425 69.97H145.445C144.285 69.97 143.625 70.54 143.625 71.72V75.28C143.625 76.46 144.285 77.03 145.445 77.03ZM145.635 70.67H147.255C148.235 70.67 148.495 70.84 148.495 71.84L148.485 75.08C148.485 76.08 148.225 76.3 147.245 76.3H145.625C144.645 76.3 144.385 76.08 144.385 75.08L144.395 71.84C144.395 70.84 144.655 70.67 145.635 70.67ZM152.335 74.26H154.815L156.265 77H157.065L155.575 74.16C156.385 74.01 156.825 73.5 156.825 72.51V71.74C156.825 70.56 156.155 70 154.995 70H151.585V77H152.335V74.26ZM154.855 73.6H152.335V70.66H154.855C155.835 70.66 156.095 71 156.095 71.88V72.35C156.095 73.23 155.835 73.6 154.855 73.6ZM159.18 77H163.78V76.31H159.93V73.77H163.41V73.09H159.93V70.66H163.78V70H159.18V77ZM169.3 78.24H169.89V69H169.3V78.24ZM176.287 75.14V70H175.537V75.28C175.537 76.46 176.207 77.03 177.367 77.03H179.167C180.327 77.03 180.997 76.46 180.997 75.28V70H180.247V75.14C180.247 76.01 179.867 76.36 179.007 76.36H177.527C176.667 76.36 176.287 76.01 176.287 75.14ZM187.98 70.02C187.98 70.02 186.95 69.96 185.09 69.96C183.61 69.94 183.09 70.33 183.09 71.58V72.13C183.09 73.02 183.53 73.13 184.36 73.28C184.86 73.37 186.34 73.64 187.07 73.79C187.53 73.87 187.64 74.1 187.64 74.48V75.2C187.64 76.07 187.38 76.33 186.33 76.33H183.04V76.96C183.04 76.96 184.54 77.03 186.4 77.03C187.89 77.05 188.39 76.58 188.39 75.33V74.35C188.39 73.54 188.05 73.25 187.27 73.1C186.56 72.96 184.48 72.57 184.48 72.57C183.97 72.46 183.85 72.37 183.85 71.96V71.66C183.85 70.82 184.08 70.66 185.07 70.66H187.98V70.02ZM195.528 77H196.378C196.378 77 194.058 70.28 194.018 70.14C193.988 70.05 193.968 70 193.808 70H192.518C192.358 70 192.338 70.05 192.308 70.14C192.268 70.28 189.948 77 189.948 77H190.798L191.538 74.83H194.788L195.528 77ZM192.928 70.63H193.398L194.588 74.18H191.728L192.928 70.63ZM201.613 78.24H202.203V69H201.613V78.24ZM213.02 77H213.87C213.87 77 211.55 70.28 211.51 70.14C211.48 70.05 211.46 70 211.3 70H210.01C209.85 70 209.83 70.05 209.8 70.14C209.76 70.28 207.44 77 207.44 77H208.29L209.03 74.83H212.28L213.02 77ZM210.42 70.63H210.89L212.08 74.18H209.22L210.42 70.63ZM216.283 75.14V70H215.533V75.28C215.533 76.46 216.203 77.03 217.363 77.03H219.163C220.323 77.03 220.993 76.46 220.993 75.28V70H220.243V75.14C220.243 76.01 219.863 76.36 219.003 76.36H217.523C216.663 76.36 216.283 76.01 216.283 75.14ZM227.976 70.02C227.976 70.02 226.946 69.96 225.086 69.96C223.606 69.94 223.086 70.33 223.086 71.58V72.13C223.086 73.02 223.526 73.13 224.356 73.28C224.856 73.37 226.336 73.64 227.066 73.79C227.526 73.87 227.636 74.1 227.636 74.48V75.2C227.636 76.07 227.376 76.33 226.326 76.33H223.036V76.96C223.036 76.96 224.536 77.03 226.396 77.03C227.886 77.05 228.386 76.58 228.386 75.33V74.35C228.386 73.54 228.046 73.25 227.266 73.1C226.556 72.96 224.476 72.57 224.476 72.57C223.966 72.46 223.846 72.37 223.846 71.96V71.66C223.846 70.82 224.076 70.66 225.066 70.66H227.976V70.02ZM235.149 70H229.759V70.65H232.079V77H232.829V70.65H235.149V70ZM237.881 74.26H240.361L241.811 77H242.611L241.121 74.16C241.931 74.01 242.371 73.5 242.371 72.51V71.74C242.371 70.56 241.701 70 240.541 70H237.131V77H237.881V74.26ZM240.401 73.6H237.881V70.66H240.401C241.381 70.66 241.641 71 241.641 71.88V72.35C241.641 73.23 241.381 73.6 240.401 73.6ZM249.543 77H250.393C250.393 77 248.073 70.28 248.033 70.14C248.003 70.05 247.983 70 247.823 70H246.533C246.373 70 246.353 70.05 246.323 70.14C246.283 70.28 243.963 77 243.963 77H244.813L245.553 74.83H248.803L249.543 77ZM246.943 70.63H247.413L248.603 74.18H245.743L246.943 70.63ZM252.352 77H256.882V76.32H253.102V70H252.352V77ZM259.41 70H258.66V77H259.41V70ZM267.018 77H267.868C267.868 77 265.548 70.28 265.508 70.14C265.478 70.05 265.458 70 265.298 70H264.008C263.848 70 263.828 70.05 263.798 70.14C263.758 70.28 261.438 77 261.438 77H262.288L263.028 74.83H266.278L267.018 77ZM264.418 70.63H264.888L266.078 74.18H263.218L264.418 70.63Z" fill="white"/>
<defs>
<linearGradient id="paint0_linear_381_1069" x1="-10.5427" y1="35.5951" x2="73.6379" y2="25.2115" gradientUnits="userSpaceOnUse">
<stop stop-color="#8F2545"/>
<stop offset="0.52" stop-color="#CE4258"/>
<stop offset="0.97" stop-color="#F8AA3C"/>
</linearGradient>
<clipPath id="clip0_381_1069">
<rect width="269" height="61" fill="white"/>
</clipPath>
</defs>
</svg>
