<svg width="81" height="80" viewBox="0 0 81 80" fill="none" xmlns="http://www.w3.org/2000/svg">
<g clip-path="url(#clip0_441_196)">
<path d="M10.8823 74.4087C11.1897 73.4263 11.4459 72.6066 11.7043 71.7868C11.7801 71.5485 11.8558 71.3101 11.9338 71.0718C12.5441 69.1827 12.5553 69.1716 11.0271 67.8952C10.8489 67.7459 10.4635 67.717 10.2207 67.7883C8.99332 68.1469 7.78373 68.5635 6.563 68.9488C5.54053 69.2719 5.09056 69.1337 4.52697 68.2182C3.88542 67.1779 3.29733 66.1042 2.70479 65.0327C2.29714 64.2954 2.44862 63.6538 3.08126 63.0947C4.04135 62.2482 4.97472 61.3705 5.9415 60.5285C6.29792 60.2189 6.33356 59.9293 6.2801 59.4503C6.11971 58.0403 5.42024 57.4032 4.00126 57.3118C3.06789 57.2517 2.15457 56.9287 1.23012 56.7238C0.548468 56.5723 0.131905 56.1513 0.116312 55.454C0.0873534 54.0662 0.0851258 52.6762 0.116312 51.2884C0.131905 50.5488 0.586337 50.1412 1.30363 49.9942C2.55554 49.7335 3.80077 49.4373 5.05714 49.1944C5.57395 49.0942 5.79671 48.8603 6.0061 48.3502C6.53627 47.0604 6.21104 46.185 5.08387 45.4187C4.35545 44.9219 3.75845 44.2313 3.08794 43.6455C2.45307 43.093 2.29268 42.4493 2.70033 41.7097C3.30402 40.6137 3.9077 39.5177 4.56484 38.4529C5.09278 37.5975 5.55613 37.4683 6.55187 37.7802C7.71913 38.1455 8.89085 38.5019 10.0448 38.9051C10.546 39.0811 10.8445 38.9831 11.2811 38.6423C12.3748 37.7913 12.5575 36.8892 11.9538 35.6573C11.5551 34.842 11.3657 33.922 11.0895 33.0488C10.8511 32.2936 11.0227 31.6676 11.731 31.2555C12.8604 30.5984 13.9898 29.9435 15.1348 29.3153C15.8076 28.9455 16.4224 29.0836 16.937 29.6561C17.8124 30.6296 18.7012 31.5897 19.5633 32.5743C19.8729 32.9285 20.1581 32.973 20.6392 32.9196C22.0493 32.7592 22.6842 32.0575 22.7822 30.6429C22.8468 29.7096 23.1676 28.7963 23.3725 27.8718C23.524 27.1902 23.9383 26.7691 24.6378 26.7558C26.0278 26.7268 27.4178 26.7246 28.8079 26.7535C29.5474 26.7691 29.9573 27.2213 30.1066 27.9386C30.3694 29.1905 30.6746 30.4336 30.9063 31.6899C31.011 32.2624 31.3184 32.4451 31.8307 32.6589C33.0604 33.1668 33.8846 32.8394 34.6241 31.7857C35.1476 31.0395 35.8493 30.4202 36.453 29.7274C37.0055 29.0925 37.6492 28.9299 38.3888 29.3376C39.4848 29.9413 40.583 30.5427 41.6478 31.1976C42.4965 31.7189 42.6302 32.2 42.3205 33.1869C41.9463 34.3809 41.5787 35.5771 41.1622 36.7555C40.9862 37.25 41.1644 37.5173 41.4584 37.9116C42.2916 39.0321 43.2071 39.1903 44.4412 38.5933C45.2587 38.1968 46.1765 38.0052 47.052 37.729C47.8093 37.4906 48.4331 37.6599 48.8474 38.3661C49.4934 39.4687 50.1372 40.5736 50.7587 41.6919C51.1664 42.4248 51.0238 43.0752 50.3934 43.6343C49.4756 44.4474 48.5912 45.2961 47.6556 46.0869C47.1968 46.4745 47.1544 46.8265 47.2235 47.4369C47.3817 48.8113 48.1279 49.2657 49.3776 49.3994C50.3399 49.5041 51.28 49.8026 52.2311 50.012C52.9128 50.1612 53.3338 50.58 53.3494 51.2773C53.3806 52.6651 53.3828 54.0551 53.3539 55.4451C53.3383 56.1824 52.8861 56.5946 52.1688 56.746C50.9169 57.0089 49.6739 57.3141 48.4153 57.5502C47.8517 57.6571 47.6579 57.9578 47.444 58.4724C46.9384 59.7043 47.2636 60.5285 48.3217 61.2658C49.0702 61.7871 49.6917 62.4866 50.3822 63.0925C51.0126 63.6472 51.1753 64.2909 50.7654 65.0305C50.1595 66.1242 49.5558 67.2225 48.9009 68.2873C48.3774 69.1382 47.9051 69.2674 46.9116 68.9555C45.7444 68.5902 44.5726 68.236 43.4187 67.8306C42.9153 67.6546 42.619 67.7593 42.1824 68.0957C41.0798 68.9466 40.9149 69.8533 41.5141 71.0829C41.8995 71.8737 42.0688 72.7692 42.3517 73.6135C42.6146 74.3998 42.472 75.0503 41.7302 75.4846C40.603 76.144 39.4714 76.7967 38.3264 77.4249C37.6515 77.7947 37.0411 77.6499 36.5243 77.0774C35.6667 76.1262 34.789 75.1928 33.9559 74.2194C33.6039 73.8073 33.2831 73.7738 32.7418 73.8407C31.3919 74.01 30.8083 74.6805 30.6991 76.0148C30.6211 76.9749 30.3026 77.9172 30.091 78.8662C29.9395 79.5478 29.5185 79.9644 28.8212 79.98C27.4334 80.0089 26.0412 80.0134 24.6534 79.98C23.9138 79.9621 23.5084 79.5055 23.3591 78.7904C23.0985 77.5385 22.7889 76.2955 22.5617 75.0369C22.457 74.4555 22.1384 74.2862 21.6305 74.0746C20.3964 73.56 19.5767 73.903 18.8393 74.9545C18.3159 75.7007 17.6164 76.3222 17.0105 77.0128C16.4558 77.6454 15.8076 77.8036 15.0725 77.3915C13.9319 76.7544 12.7847 76.124 11.6887 75.4156C11.3345 75.1884 11.1318 74.7273 10.8846 74.4065L10.8823 74.4087ZM39.5672 73.7092C39.1239 72.3237 38.7229 70.9715 38.2574 69.6416C37.97 68.8197 38.146 68.216 38.8009 67.6457C39.5538 66.9886 40.2845 66.2913 40.9238 65.5273C41.552 64.7743 42.2136 64.5894 43.1269 64.9169C44.4234 65.3825 45.7488 65.7723 47.0921 66.2044C47.4217 65.6074 47.7136 65.084 48.0032 64.5582C46.9027 63.5603 45.8892 62.6069 44.8377 61.698C44.185 61.1322 44.0224 60.524 44.3031 59.6976C44.635 58.7286 44.909 57.7306 45.1028 56.7238C45.2743 55.8327 45.7332 55.3716 46.6154 55.2045C47.9987 54.9439 49.3709 54.6164 50.7364 54.3202V52.4111C49.2952 52.1037 47.9118 51.7941 46.5218 51.5178C45.7109 51.3575 45.281 50.903 45.1139 50.0877C44.9157 49.1098 44.7063 48.1185 44.3521 47.1918C43.9801 46.225 44.2029 45.5612 44.9625 44.9197C46.0005 44.0442 46.9829 43.1042 48.0165 42.1686C47.6801 41.5872 47.3794 41.0681 47.0765 40.5424C45.6486 40.9991 44.2897 41.4045 42.9532 41.8679C42.1557 42.1441 41.581 41.9436 41.0307 41.3265C40.3469 40.5602 39.6251 39.8185 38.8521 39.1435C38.1772 38.5554 37.95 37.9495 38.2574 37.0852C38.7274 35.7575 39.1284 34.4054 39.5717 33.0198C38.9903 32.6968 38.4668 32.405 37.9299 32.1065C36.9074 33.2337 35.9295 34.2984 34.965 35.3766C34.4615 35.9402 33.898 36.0738 33.1651 35.8333C32.1626 35.5058 31.1446 35.2095 30.111 35.0091C29.2244 34.8375 28.741 34.4009 28.5695 33.5143C28.3044 32.1288 27.9814 30.7543 27.6807 29.3665H25.7828C25.4798 30.7677 25.1568 32.1176 24.9029 33.4831C24.7314 34.4098 24.2324 34.8553 23.3057 35.018C22.3523 35.185 21.4011 35.4412 20.4944 35.7754C19.6034 36.105 18.9574 35.9291 18.3515 35.2207C17.4493 34.1692 16.4959 33.1601 15.5313 32.0953C14.9633 32.4206 14.442 32.7191 13.8963 33.0287C14.344 34.4165 14.7405 35.7464 15.2039 37.054C15.5046 37.9049 15.3242 38.5287 14.6425 39.1234C13.8673 39.7962 13.1411 40.5335 12.4617 41.3043C11.8892 41.9525 11.2878 42.1441 10.4635 41.8545C9.13143 41.3889 7.77928 40.9835 6.38257 40.538C6.06179 41.106 5.76775 41.6295 5.46034 42.1775C6.54073 43.1554 7.55206 44.1088 8.60349 45.0155C9.28291 45.6013 9.44998 46.2295 9.14925 47.0894C8.81288 48.0561 8.55894 49.0586 8.35623 50.0632C8.1847 50.9164 7.7325 51.3686 6.88823 51.5334C5.50266 51.8052 4.126 52.126 2.71816 52.4312V54.3202C4.13937 54.6276 5.51826 54.9439 6.90605 55.2157C7.75477 55.3805 8.19807 55.8438 8.35845 56.6992C8.53221 57.6259 8.71264 58.5727 9.07351 59.4347C9.51904 60.4995 9.25172 61.2168 8.41192 61.9141C7.39167 62.7606 6.43603 63.685 5.44697 64.5783C5.79002 65.1664 6.08184 65.6676 6.39371 66.2044C7.78819 65.7567 9.1448 65.3535 10.4769 64.8857C11.3078 64.5939 11.9048 64.8011 12.4684 65.4493C13.0877 66.1621 13.7604 66.8326 14.4554 67.4697C15.4667 68.392 15.5403 68.588 15.1081 69.9357C14.7049 71.1943 14.3062 72.4529 13.903 73.7248C14.4933 74.059 14.9945 74.3419 15.5358 74.6448C16.5427 73.5355 17.525 72.4774 18.4785 71.3948C19.0064 70.7955 19.5856 70.6686 20.3452 70.9225C21.3187 71.2477 22.3099 71.544 23.3168 71.7289C24.2435 71.8982 24.7314 72.3482 24.9051 73.2726C25.1635 74.656 25.4954 76.0237 25.7939 77.387H27.6785C27.9792 76.0059 28.3067 74.6582 28.5584 73.2994C28.7277 72.3816 29.1888 71.9004 30.1244 71.7356C31.0778 71.5663 32.0334 71.3279 32.9379 70.9849C33.8645 70.6329 34.5217 70.8223 35.1476 71.5596C36.0431 72.6133 36.9988 73.6179 37.9411 74.656C38.5158 74.3241 39.017 74.0367 39.5672 73.7182V73.7092Z" fill="black"/>
<path d="M45.6506 2.99162C46.0115 3.13419 46.3033 3.22329 46.5706 3.35918C47.4884 3.82252 48.395 4.31037 49.315 4.76925C49.9967 5.11008 50.5692 4.87395 50.8053 4.15889C51.135 3.15647 51.4624 2.15182 51.7632 1.13826C51.9703 0.441015 52.398 0.0244523 53.1309 0.0133142C54.2692 -0.00673422 55.4075 -0.00673422 56.5436 0.019997C57.2431 0.0355903 57.6485 0.449925 57.849 1.1093C58.1475 2.0939 58.4683 3.06959 58.7846 4.04751C59.0675 4.91627 59.611 5.13681 60.4352 4.71579C61.3263 4.25913 62.2196 3.80693 63.095 3.32131C63.7655 2.9493 64.3826 2.98048 64.9306 3.50843C65.7124 4.25913 66.4743 5.02988 67.2294 5.80732C67.7618 6.35531 67.8019 6.9679 67.4366 7.64064C66.9443 8.54282 66.4743 9.46059 66.0087 10.3761C65.6189 11.1447 65.8572 11.6882 66.6926 11.9533C67.6193 12.2496 68.5437 12.5547 69.4771 12.8243C70.2612 13.0515 70.7535 13.5015 70.758 14.3524C70.7647 15.4618 70.758 16.5733 70.729 17.6827C70.7112 18.3465 70.3214 18.7542 69.7021 18.9502C68.6685 19.2799 67.6349 19.6006 66.6035 19.9348C65.8906 20.1665 65.6367 20.7479 65.9731 21.4206C66.4342 22.3406 66.8931 23.2628 67.3987 24.1561C67.8153 24.8934 67.7485 25.5394 67.1715 26.1298C66.452 26.8649 65.7258 27.5933 64.9885 28.3106C64.3892 28.8942 63.7366 28.9165 63.0104 28.5022C62.1416 28.0076 61.2439 27.5621 60.3506 27.1099C59.6289 26.7446 59.0564 26.9829 58.8069 27.7492C58.4794 28.7539 58.1564 29.7585 57.8468 30.7676C57.6441 31.427 57.2319 31.8347 56.5347 31.848C55.3697 31.8703 54.2046 31.8681 53.0396 31.8391C52.3758 31.8213 51.9815 31.4181 51.7877 30.7966C51.4825 29.8142 51.1684 28.8363 50.8521 27.8562C50.5514 26.9206 50.0412 26.7112 49.1524 27.1678C48.2614 27.6267 47.3748 28.0878 46.4927 28.5623C45.8533 28.9054 45.2563 28.8809 44.7284 28.373C43.9287 27.6 43.1401 26.8159 42.3694 26.0184C41.8637 25.4949 41.8281 24.8957 42.1733 24.2541C42.6211 23.421 43.051 22.579 43.4876 21.7414C44.069 20.6209 43.8819 20.1821 42.6612 19.7989C41.7857 19.5249 40.917 19.2309 40.0348 18.9791C39.3354 18.7787 38.9077 18.3643 38.8898 17.6292C38.8631 16.5199 38.8609 15.4083 38.8787 14.2989C38.8921 13.5371 39.3042 13.0849 40.046 12.8733C41.035 12.5926 42.0107 12.2651 42.9864 11.9421C43.7638 11.686 44 11.1268 43.6346 10.4029C43.1713 9.48509 42.708 8.56509 42.209 7.66737C41.8169 6.96122 41.8748 6.33303 42.434 5.76499C43.1936 4.99201 43.9554 4.21903 44.7507 3.48392C45.0002 3.25225 45.361 3.1431 45.6573 2.98494L45.6506 2.99162ZM45.9358 6.05458C45.8511 6.10359 45.7531 6.14814 45.6707 6.21274C45.1516 6.63376 44.7663 7.01245 45.2608 7.7832C46.2989 9.40713 47.3458 11.0934 45.9202 13.0314C45.5949 13.4725 45.2006 13.9537 44.7262 14.1787C43.9287 14.5529 43.0488 14.7601 42.1912 14.9917C41.6699 15.1321 41.4226 15.3415 41.4159 15.9518C41.4093 16.5889 41.7189 16.7694 42.2201 16.8874C42.5164 16.9587 42.8015 17.0946 43.1022 17.1369C44.9556 17.3953 46.1251 18.4133 46.4904 20.2511C46.5907 20.7568 46.6063 21.3538 46.4325 21.826C46.1385 22.628 45.6885 23.3787 45.2586 24.1249C44.9779 24.6083 44.8955 24.9558 45.3677 25.4169C45.8155 25.8535 46.1518 25.7956 46.5929 25.5016C46.8468 25.3323 47.1609 25.2543 47.4015 25.0716C48.8628 23.9578 50.3821 23.822 51.9258 24.84C52.378 25.1385 52.8436 25.5639 53.0619 26.0407C53.4517 26.8938 53.6945 27.8205 53.9284 28.7338C54.0554 29.2306 54.3227 29.3264 54.766 29.313C55.2004 29.2996 55.5568 29.3197 55.6971 28.745C55.9199 27.8294 56.1716 26.905 56.5614 26.0518C56.7797 25.5729 57.2409 25.1452 57.6931 24.8467C59.268 23.8108 60.8117 23.989 62.2908 25.1073C62.5091 25.2721 62.7943 25.3456 63.0259 25.4971C63.4603 25.7778 63.8012 25.8758 64.2511 25.4258C64.7078 24.9692 64.6967 24.6128 64.3714 24.1383C64.2155 23.9111 64.1487 23.6192 63.9816 23.4032C62.8522 21.924 62.6963 20.3781 63.7276 18.8076C64.0239 18.3554 64.4605 17.901 64.9395 17.6849C65.7926 17.2973 66.7193 17.05 67.6326 16.8206C68.145 16.6914 68.194 16.3951 68.1895 15.9697C68.1873 15.5264 68.1695 15.1878 67.6059 15.0519C66.7171 14.838 65.8572 14.5039 64.9773 14.2499C64.3046 14.0561 63.9927 13.5839 63.6497 12.9936C62.7208 11.3964 62.8923 9.95512 63.9526 8.525C64.1487 8.25991 64.2378 7.91909 64.4249 7.64509C64.7278 7.20403 64.6655 6.88993 64.2845 6.49787C63.8747 6.07463 63.5673 6.07908 63.066 6.3464C61.3887 7.24189 59.7447 8.5896 57.7309 7.06591C57.7109 7.05032 57.6708 7.05478 57.653 7.03695C57.2832 6.65603 56.7775 6.33303 56.5748 5.8786C56.1827 4.99647 55.9221 4.04751 55.6838 3.10523C55.5501 2.57952 55.2293 2.56392 54.8172 2.56838C54.4163 2.57283 54.0777 2.55278 53.9395 3.08964C53.7012 4.02969 53.4383 4.97865 53.0485 5.86301C52.8458 6.32189 52.4047 6.73623 51.9726 7.01691C50.4043 8.03715 48.8606 7.93022 47.3681 6.79192C47.0629 6.56025 46.6842 6.42436 46.3367 6.24838C46.2142 6.18601 46.0872 6.13032 45.9313 6.05904L45.9358 6.05458Z" fill="black"/>
<path d="M74.3532 57.6416C73.5067 57.254 72.8005 56.9354 72.0988 56.6102C71.19 56.1892 70.5016 56.4743 70.1563 57.4166C70.1185 57.5213 70.0806 57.626 70.0338 57.7262C69.6975 58.4658 69.742 59.6353 68.8265 59.7779C67.5122 59.985 66.1355 59.8536 64.7923 59.7578C64.5316 59.74 64.2443 59.2432 64.0839 58.9113C63.8322 58.3878 63.6896 57.8153 63.4847 57.2673C63.2196 56.5567 62.4444 56.2315 61.7538 56.5389C61.2459 56.7639 60.7358 56.9911 60.2457 57.2495C59.5708 57.6037 58.9537 57.548 58.408 57.0223C57.7464 56.3874 57.1003 55.737 56.4655 55.0732C55.9932 54.5786 55.9153 54.0039 56.2227 53.3802C56.4566 52.9057 56.6793 52.4268 56.9043 51.9501C57.3432 51.0189 57.0402 50.3172 56.0511 49.963C53.4248 49.0252 53.4025 48.994 53.4827 46.2073C53.534 44.4475 53.6698 44.2537 55.2915 43.67C55.6569 43.5386 56.0333 43.4272 56.392 43.278C56.9244 43.0574 57.2518 42.231 57.0291 41.6897C56.9333 41.458 56.8174 41.2375 56.7105 41.0103C55.7593 39.0032 55.7727 38.9141 57.3164 37.3303C57.4902 37.1521 57.6728 36.9783 57.8577 36.809C59.1007 35.6729 59.2923 35.6462 60.8004 36.3679C61.1769 36.5484 61.5667 36.8937 61.9276 36.8647C62.4332 36.8224 62.9723 36.5773 63.3866 36.2699C63.6295 36.0895 63.6562 35.6217 63.7787 35.2809C64.4292 33.4609 64.5806 33.3518 66.5432 33.3161C66.6256 33.3161 66.7102 33.3117 66.7927 33.3117C69.1316 33.3028 69.3165 33.3562 69.9893 35.5838C70.3657 36.8268 71.3013 37.2167 72.4352 36.6219C74.5492 35.517 74.6739 35.5972 76.3558 37.3102C76.5518 37.5085 76.7233 37.7312 76.9238 37.9206C77.699 38.6535 77.8483 39.4554 77.2713 40.3865C77.0396 40.763 76.877 41.184 76.6966 41.5895C76.3892 42.28 76.7166 43.0463 77.4362 43.3158C77.8527 43.4718 78.2648 43.6544 78.6948 43.7569C79.7261 44.002 80.1739 44.6636 80.1783 45.6838C80.1783 45.8776 80.1984 46.0736 80.2028 46.2674C80.2719 48.9673 80.234 49.0207 77.728 49.9296C76.5674 50.3506 76.3179 50.9588 76.8481 52.0815C77.9619 54.4383 77.953 54.5497 76.0305 56.3429C75.5182 56.8218 74.9167 57.205 74.3509 57.6349L74.3532 57.6416ZM74.1482 54.6232C74.2997 54.2467 74.6093 53.8636 74.5447 53.5606C74.4267 53.0037 74.0257 52.5136 73.8631 51.9612C73.745 51.5647 73.7138 51.0791 73.8297 50.687C74.3286 49.0074 75.086 47.5461 77.1109 47.3055C77.2758 47.2854 77.5186 46.9246 77.5119 46.7308C77.5008 46.4946 77.3181 46.1605 77.1132 46.058C76.6209 45.8108 76.0528 45.7172 75.5561 45.4744C75.2264 45.314 74.8455 45.0645 74.694 44.7549C73.9388 43.2 73.1903 41.6273 74.489 39.9544C74.6116 39.7985 74.5091 39.3284 74.3509 39.1391C74.2239 38.9876 73.8319 38.9564 73.5935 39.0188C73.2238 39.1146 72.874 39.3128 72.5377 39.5066C71.8248 39.9165 71.1877 39.7717 70.4103 39.549C68.7552 39.0745 67.8018 38.1166 67.4699 36.4481C67.432 36.261 67.0511 36.0182 66.8328 36.0227C66.6144 36.0271 66.3137 36.2633 66.2068 36.4771C65.9729 36.9449 65.8949 37.4929 65.6454 37.9518C65.445 38.3193 65.1465 38.7181 64.79 38.8985C63.2508 39.6782 61.6736 40.2818 60.0787 38.9921C60.0586 38.9742 60.0252 38.9564 60.0029 38.9609C59.7668 39.0166 59.4616 39.0077 59.3168 39.1547C59.172 39.3017 59.0896 39.6358 59.1475 39.8386C59.27 40.2596 59.4772 40.665 59.6977 41.0504C60.0965 41.7432 59.9316 42.358 59.72 43.102C59.2411 44.7861 58.2565 45.7573 56.5524 46.0825C56.3875 46.1137 56.1826 46.4724 56.1826 46.6795C56.1826 46.8867 56.3652 47.1919 56.5524 47.2832C57.0491 47.526 57.6194 47.6196 58.105 47.878C58.4748 48.074 58.878 48.3681 59.0606 48.7245C59.8448 50.2615 60.444 51.8298 59.1854 53.4515C59.074 53.594 59.1653 54.0418 59.3168 54.1999C59.4683 54.3559 59.847 54.4271 60.0675 54.3559C60.5665 54.1955 61.012 53.8658 61.511 53.7188C61.9142 53.6007 62.4087 53.5138 62.7874 53.6408C64.4091 54.1866 65.993 54.8147 66.2157 56.8842C66.2358 57.0691 66.6278 57.3587 66.8238 57.3409C67.0689 57.3186 67.4453 57.0624 67.4944 56.8463C67.8463 55.3093 68.6327 54.2311 70.2655 53.9282C70.2922 53.9237 70.3167 53.9081 70.3412 53.8925C71.1298 53.3601 71.9006 53.4604 72.6891 53.9193C73.0946 54.1554 73.5356 54.3314 74.1549 54.6254L74.1482 54.6232Z" fill="black"/>
<path d="M28.7896 18.4112C28.2282 17.9612 27.6691 17.5112 27.1033 17.0568C27.8673 16.3618 28.4955 15.7937 29.1304 15.2168C30.3645 16.4219 31.7545 17.7407 33.0911 19.1084C33.5767 19.6052 33.5812 20.2824 33.0955 20.7791C31.7567 22.1491 30.3667 23.4678 28.9745 24.8245C28.3953 24.2364 27.8117 23.6438 27.1723 22.9956C27.6424 22.5033 28.1146 22.011 28.7517 21.3449C23.4723 21.0687 18.6183 21.9286 13.9582 23.9446C9.30694 25.9561 5.37967 28.9433 2.07836 32.826C1.38112 32.2424 0.726199 31.6966 0 31.0929C7.65405 22.3941 17.1793 18.2842 28.6537 18.6184C28.7005 18.5493 28.745 18.4802 28.7918 18.4112H28.7896Z" fill="black"/>
<path d="M72.8557 7.50263C72.6285 8.57634 72.4013 9.64781 72.1518 10.8284C71.2897 10.6636 70.461 10.5032 69.541 10.3272C70.011 8.00607 70.4454 5.74728 70.9422 3.50408C71.0825 2.86921 71.6261 2.48161 72.2676 2.59299C74.5331 2.99396 76.7852 3.46398 79.1197 3.92287C78.9482 4.81614 78.7945 5.62253 78.6207 6.52917C77.498 6.31754 76.4243 6.11706 75.2682 5.89875C79.0039 14.5018 78.124 22.5189 72.604 30.1707C71.8755 29.5893 71.2139 29.0636 70.51 28.5C75.3217 21.9576 76.1392 14.9651 72.8557 7.50263Z" fill="black"/>
<path d="M26.7508 68.0712C18.6401 68.0779 12.0264 61.473 12.0264 53.3645C12.0264 45.2538 18.6379 38.6556 26.7553 38.6646C34.8304 38.6735 41.4218 45.256 41.4397 53.3267C41.4553 61.4396 34.8593 68.0623 26.7508 68.0712ZM26.6929 65.398C33.3089 65.4114 38.7354 60.0384 38.7643 53.4469C38.7955 46.7909 33.4069 41.3511 26.7687 41.3377C20.1482 41.3243 14.7262 46.6928 14.6995 53.2866C14.6705 59.9449 20.0591 65.3847 26.6929 65.398Z" fill="black"/>
<path d="M48.13 15.8761C48.1545 12.2005 51.1974 9.22224 54.893 9.25565C58.5686 9.28906 61.538 12.3387 61.4934 16.0365C61.4511 19.6719 58.4283 22.6346 54.7728 22.6168C51.095 22.599 48.1055 19.565 48.13 15.8761ZM54.7015 19.9437C56.8912 19.9972 58.7468 18.2574 58.8181 16.0877C58.8916 13.8623 57.1296 11.98 54.922 11.9288C52.73 11.8775 50.8744 13.6151 50.8054 15.7825C50.7341 18.0101 52.4939 19.888 54.7015 19.9415V19.9437Z" fill="black"/>
<path d="M72.19 46.6573C72.2012 49.6089 69.7976 52.0258 66.8505 52.028C63.9033 52.028 61.4931 49.6156 61.502 46.6662C61.5087 43.7525 63.89 41.3578 66.7992 41.3378C69.7553 41.3177 72.1789 43.7102 72.19 46.6551V46.6573ZM66.8839 44.0131C65.427 43.9931 64.2041 45.1715 64.1729 46.6239C64.1417 48.0763 65.3156 49.3126 66.7614 49.3549C68.2449 49.3995 69.5058 48.1854 69.5147 46.7018C69.5236 45.2517 68.3318 44.0332 66.8816 44.0131H66.8839Z" fill="black"/>
</g>
<defs>
<clipPath id="clip0_441_196">
<rect width="80.2228" height="80" fill="white"/>
</clipPath>
</defs>
</svg>
