<svg width="80" height="80" viewBox="0 0 80 80" fill="none" xmlns="http://www.w3.org/2000/svg">
<path d="M69.396 0C69.6856 0.1 69.9793 0.19375 70.2669 0.297917C72.6127 1.15 74.0564 2.79167 74.2502 5.29167C74.4023 7.25833 74.3314 9.24583 74.3044 11.225C74.2919 12.2042 73.6189 12.8229 72.7377 12.8187C71.8669 12.8146 71.196 12.1792 71.1731 11.2104C71.1335 9.51875 71.1648 7.825 71.1544 6.13333C71.1419 4.2125 70.0731 3.14792 68.1398 3.14792C48.9752 3.14583 29.8106 3.14583 10.646 3.14792C8.68352 3.14792 7.61686 4.21875 7.61477 6.2C7.60852 12.4479 7.60852 18.6979 7.61477 24.9458C7.61686 26.9229 8.68144 27.9646 10.6669 27.9708C11.9689 27.975 13.271 27.9667 14.5731 27.9708C15.9106 27.9771 16.4585 28.5229 16.4648 29.8771C16.4731 32.1687 16.4669 34.4604 16.4669 36.75C16.4669 37.0021 16.4669 37.2562 16.4669 37.7229C16.7981 37.4083 16.9981 37.2292 17.1856 37.0375C19.8814 34.2854 22.5856 31.5396 25.2648 28.7687C25.8127 28.2021 26.4044 27.9542 27.1939 27.9562C35.4231 27.975 43.6502 27.975 51.8794 27.9562C52.7023 27.9542 53.3106 28.2208 53.8752 28.8042C56.5356 31.5562 59.2231 34.2792 61.8939 37.0208C62.0835 37.2167 62.2106 37.4708 62.3689 37.6979C62.4564 37.6375 62.5419 37.575 62.6293 37.5146C62.6293 37.2646 62.6293 37.0146 62.6293 36.7646C62.6293 34.4208 62.6189 32.0771 62.6356 29.7354C62.6439 28.5396 63.2294 27.9792 64.4294 27.9687C65.7314 27.9583 67.0335 27.9771 68.3356 27.9625C69.9294 27.9458 70.9648 27 71.1523 25.4167C71.2918 24.2292 71.9481 23.6187 72.9585 23.7333C73.8627 23.8375 74.3689 24.5771 74.2919 25.6833C74.0835 28.6771 71.6585 31.0104 68.646 31.0937C67.7377 31.1187 66.8273 31.0979 65.8627 31.0979C65.8335 31.3375 65.7877 31.5333 65.7877 31.7292C65.7835 34.4375 65.7939 37.1458 65.7752 39.8521C65.771 40.3146 65.9085 40.5167 66.3648 40.675C72.546 42.8167 75.6877 49.0187 73.796 55.3333C73.6731 55.7458 73.7606 55.9812 74.0606 56.275C77.4231 59.5437 79.1023 63.5292 79.096 68.2208C79.0939 69.9917 79.1023 71.7625 79.096 73.5333C79.0814 76.7812 77.2169 79.1146 74.0481 79.8687C73.9523 79.8917 73.8648 79.9542 73.7731 79.9958H51.4273C51.3356 79.9521 51.2481 79.8917 51.1523 79.8687C47.9835 79.1229 46.1148 76.7917 46.0981 73.5437C46.0877 71.7208 46.0919 69.8979 46.0981 68.0771C46.1148 63.4417 47.7981 59.5083 51.1252 56.2896C51.4669 55.9583 51.4981 55.6917 51.3669 55.2729C49.3189 48.7104 53.2023 41.9583 59.9377 40.3458C60.1189 40.3021 60.296 40.2417 60.5669 40.1625C57.6419 37.1771 54.8085 34.2708 51.9481 31.3937C51.7502 31.1958 51.3481 31.1229 51.0398 31.1229C43.3856 31.1083 35.7294 31.1042 28.0752 31.1312C27.6939 31.1312 27.2169 31.3396 26.9439 31.6104C24.2773 34.2833 21.646 36.9896 19.0064 39.6875C18.8689 39.8271 18.7544 39.9896 18.5752 40.2062C18.8752 40.2812 19.0939 40.3354 19.3127 40.3896C25.9648 42.0521 29.771 48.7604 27.7356 55.2667C27.5856 55.7437 27.6981 56.0062 28.0356 56.3354C30.7377 58.9646 32.4835 62.1333 32.8231 65.8979C33.0627 68.5583 33.021 71.2542 32.9794 73.9312C32.9398 76.4437 31.6648 78.2625 29.4252 79.3771C28.8752 79.65 28.2627 79.7937 27.6773 79.9979H23.146C22.1669 79.3917 21.8523 78.8042 22.0689 77.9875C22.2731 77.2167 22.9023 76.8562 24.0523 76.8541C24.9627 76.8521 25.8752 76.8771 26.7856 76.8458C28.5419 76.7854 29.8377 75.4917 29.8585 73.75C29.8814 71.6417 29.9273 69.5312 29.8419 67.4271C29.7044 64.0708 28.3981 61.1917 26.0085 58.7354C23.5564 61.7667 20.446 63.4354 16.5481 63.4479C12.6189 63.4604 9.48977 61.775 7.00644 58.7458C4.96269 60.8417 3.60019 63.2583 3.33561 66.1167C3.10852 68.5708 3.17936 71.0521 3.15852 73.5229C3.14186 75.5479 4.44394 76.8333 6.47311 76.8521C7.46269 76.8625 8.45227 76.8479 9.43977 76.8625C10.2085 76.8729 10.721 77.2729 10.9439 77.9958C11.1627 78.7062 10.8627 79.3729 10.1939 79.7979C10.0856 79.8667 9.97727 79.9312 9.86686 80H5.33561C5.24394 79.9562 5.15644 79.8937 5.06061 79.8729C1.88977 79.1229 0.0231064 76.7875 0.00852305 73.5417C0.000189713 71.875 0.027273 70.2104 0.00227305 68.5437C-0.0706436 63.7062 1.61061 59.6021 5.06686 56.2125C5.25019 56.0333 5.35852 55.6 5.27727 55.3583C3.33144 49.5833 6.35852 42.8604 12.7169 40.6875C13.2189 40.5167 13.3294 40.2792 13.3252 39.8C13.3044 37.1458 13.3169 34.4896 13.3127 31.8354C13.3127 31.6125 13.2794 31.3875 13.2564 31.1104C12.2919 31.1104 11.3856 31.1208 10.4794 31.1104C6.96686 31.0667 4.47102 28.625 4.45227 25.1062C4.41894 18.7292 4.42102 12.3521 4.45227 5.97708C4.46686 2.99792 6.21894 0.870833 9.12102 0.133333C9.21686 0.108333 9.30227 0.0458333 9.39186 0C29.3919 0 49.3939 0 69.3939 0L69.396 0ZM53.0689 58.7646C51.0481 60.8521 49.6877 63.25 49.4231 66.0833C49.1939 68.5375 49.2689 71.0208 49.2439 73.4896C49.2231 75.5646 50.5169 76.8437 52.5981 76.8521C54.3939 76.8604 56.1898 76.8521 57.9877 76.8521C62.8564 76.8521 67.7252 76.8583 72.5919 76.85C74.6668 76.8458 75.9418 75.5583 75.9523 73.4812C75.9564 72.5437 75.9856 71.6062 75.946 70.6708C75.8689 68.8562 75.9023 67.0167 75.6106 65.2333C75.1981 62.7208 73.921 60.5896 72.1106 58.7687C67.2419 64.9979 57.9544 65.0208 53.0669 58.7625L53.0689 58.7646ZM16.6106 43.2083C11.9439 43.1 7.98561 46.8833 7.85852 51.5771C7.73144 56.2083 11.5731 60.2083 16.2481 60.3083C21.0752 60.4125 25.0314 56.6958 25.1564 51.9417C25.2794 47.2312 21.4544 43.3208 16.6127 43.2083H16.6106ZM62.6064 43.2021C57.8606 43.1937 53.9502 47.0521 53.946 51.7479C53.9419 56.4458 57.8356 60.3062 62.5835 60.3125C67.3356 60.3187 71.2335 56.4771 71.246 51.7708C71.2606 47.0792 67.3585 43.2104 62.6064 43.2021Z" fill="black"/>
<path d="M16.1129 80C15.7399 79.6 15.2274 79.2583 15.0233 78.7833C14.7129 78.0562 15.1962 77.2521 15.9337 76.9625C16.6337 76.6875 17.442 76.9604 17.8379 77.6021C18.2504 78.2687 18.1045 79.1479 17.4879 79.6375C17.3066 79.7812 17.092 79.8812 16.8941 80H16.1129Z" fill="black"/>
<path d="M39.4028 21.0043C32.2966 21.0043 25.1903 21.0043 18.082 21.0043C17.8216 21.0043 17.5612 21.0126 17.3007 20.996C16.3424 20.9355 15.6882 20.2939 15.6924 19.4293C15.6966 18.5668 16.3528 17.9251 17.3112 17.8564C17.4674 17.846 17.6237 17.8522 17.7799 17.8522C32.1757 17.8522 46.5716 17.8522 60.9674 17.8564C61.3278 17.8564 61.7028 17.8772 62.0445 17.9793C62.7174 18.1835 63.1236 18.8543 63.0674 19.5564C63.0091 20.2689 62.5153 20.8397 61.8132 20.9543C61.482 21.0085 61.1382 21.0043 60.8007 21.0043C53.6674 21.0064 46.5361 21.0043 39.4028 21.0043Z" fill="black"/>
<path d="M47.2106 8.5542C51.7419 8.5542 56.2731 8.5542 60.8043 8.5542C61.1168 8.5542 61.4314 8.54586 61.7398 8.58545C62.446 8.67711 62.9648 9.22086 63.0544 9.9292C63.1439 10.6334 62.7731 11.2959 62.1064 11.5542C61.8689 11.6459 61.6023 11.6979 61.3481 11.6979C51.946 11.7042 42.546 11.7063 33.1439 11.6979C32.8898 11.6979 32.621 11.6521 32.3835 11.5646C31.6794 11.3042 31.3148 10.65 31.4106 9.88545C31.4981 9.19586 32.0377 8.66253 32.7564 8.58128C33.0398 8.54795 33.3294 8.55628 33.6148 8.55628C38.146 8.55628 42.6773 8.55628 47.2085 8.55628L47.2106 8.5542Z" fill="black"/>
<path d="M19.6144 8.56461C20.3936 8.56461 21.1728 8.53961 21.9519 8.57086C22.8686 8.60836 23.4728 9.23961 23.4811 10.1C23.4894 10.9604 22.8957 11.6584 21.9957 11.6834C20.4123 11.7313 18.8269 11.7271 17.2436 11.6875C16.3165 11.6646 15.6603 10.9188 15.6936 10.0646C15.7269 9.22919 16.3686 8.60002 17.2769 8.56669C18.054 8.53752 18.8353 8.56044 19.6144 8.56252V8.56461Z" fill="black"/>
<path d="M72.7561 16.7084C73.6373 16.7146 74.3207 17.4167 74.304 18.3001C74.2873 19.1459 73.6123 19.8251 72.7727 19.8397C71.9102 19.8542 71.179 19.1397 71.1748 18.2772C71.1707 17.4105 71.8852 16.7022 72.7582 16.7063L72.7561 16.7084Z" fill="black"/>
</svg>
