<svg width="54" height="60" viewBox="0 0 54 60" fill="none" xmlns="http://www.w3.org/2000/svg">
<path d="M46.6811 56.5955C36.9311 58.0559 28.5426 59.5479 28.062 58.1487C27.5609 57.2267 28.761 56.4469 30.0971 53.3219C31.4641 46.7625 24.9128 42.776 20.7183 46.0199C15.8618 49.7705 18.5347 54.9692 19.4873 56.7328C20.4399 58.4965 19.8832 59.1462 17.8233 58.973C12.8185 58.2613 5.24649 57.8653 1.33648 57.7044V57.6982C-0.364598 42.294 4.72689 23.5395 8.92082 11.6712C9.80003 9.25062 10.8954 6.91422 12.1937 4.69029C15.8377 6.40442 22.3086 9.53625 26.4722 12.0239C28.3094 12.9769 29.0703 12.5932 28.8785 10.5944C28.6867 8.59565 28.2166 2.77815 34.1494 1.19336C39.2656 -0.180418 43.7694 6.02694 39.977 11.5536C37.546 13.9175 36.135 14.1774 36.234 15.2176C36.1474 16.6533 44.0101 18.4608 53.2281 20.7814C42.1778 35.6398 46.6811 56.5955 46.6811 56.5955Z" fill="#F8AE46" stroke="#FCF5F6" stroke-width="0.5" stroke-miterlimit="10"/>
</svg>
