<svg width="280" height="279" viewBox="0 0 280 279" fill="none" xmlns="http://www.w3.org/2000/svg">
<path d="M6.635 101.264C6.53578 101.238 6.43343 101.224 6.3307 101.224C6.08915 101.225 5.85445 101.304 5.6628 101.451C5.47115 101.598 5.33319 101.803 5.27022 102.035C1.93769 114.11 0.252589 126.577 0.26028 139.1C0.26028 215.797 62.8667 278.192 139.805 278.202C161.548 278.095 182.97 272.976 202.398 263.245C221.826 253.514 238.733 239.435 251.795 222.109C251.971 221.875 252.046 221.58 252.004 221.291C251.962 221.001 251.806 220.74 251.571 220.565C251.333 220.387 251.033 220.311 250.738 220.353C250.596 220.374 250.459 220.423 250.335 220.496C250.211 220.57 250.104 220.667 250.018 220.783C237.327 237.874 220.801 251.769 201.759 261.355C182.718 270.941 161.691 275.953 140.359 275.989H139.804C64.086 275.989 2.48269 214.583 2.48269 139.103C2.47559 126.78 4.13342 114.512 7.41163 102.63C7.48962 102.346 7.45172 102.043 7.30617 101.787C7.16061 101.531 6.91932 101.343 6.635 101.264Z" fill="#CE4258"/>
<path d="M254.041 59.1833C241.165 40.9025 224.062 25.9807 204.179 15.6793C184.296 5.37799 162.217 0 139.808 0C117.4 0 95.3209 5.37799 75.4377 15.6793C55.5546 25.9807 38.452 40.9025 25.5757 59.1833C25.4148 59.4251 25.3554 59.7201 25.4104 60.005C25.4653 60.2899 25.63 60.5419 25.8693 60.707C26.1087 60.8721 26.4034 60.9371 26.6902 60.8879C26.977 60.8388 27.2331 60.6794 27.4034 60.4442C40.0983 42.482 56.9323 27.819 76.4913 17.6868C96.0503 7.55458 117.763 2.24917 139.806 2.21621C161.851 2.25017 183.567 7.55731 203.129 17.6918C222.69 27.8263 239.526 42.4922 252.222 60.4575C252.399 60.6923 252.66 60.8502 252.951 60.8986C253.242 60.947 253.54 60.8823 253.785 60.7176C254.016 60.5509 254.174 60.3017 254.225 60.0218C254.277 59.7419 254.218 59.4531 254.061 59.2155L254.041 59.1833Z" fill="#CE4258"/>
<path d="M273.07 176.63C273.356 176.7 273.659 176.657 273.913 176.51C274.168 176.362 274.355 176.122 274.436 175.839C281.02 151.669 280.987 126.181 274.341 102.028C274.302 101.886 274.236 101.754 274.146 101.639C274.057 101.523 273.945 101.427 273.817 101.354C273.653 101.262 273.467 101.213 273.278 101.213C273.106 101.213 272.936 101.252 272.782 101.328C272.628 101.404 272.494 101.514 272.389 101.65C272.285 101.786 272.213 101.944 272.181 102.112C272.148 102.281 272.154 102.454 272.2 102.619C278.741 126.392 278.771 151.477 272.287 175.265C272.211 175.549 272.251 175.852 272.397 176.108C272.544 176.363 272.786 176.551 273.07 176.63Z" fill="#CE4258"/>
</svg>
