<svg width="22" height="16" viewBox="0 0 22 16" fill="none" xmlns="http://www.w3.org/2000/svg">
<g clip-path="url(#clip0_18_42)">
<path opacity="0.4" d="M21.023 3.3521L11.032 13.3981L8.00098 10.3571L18.007 0.314095C18.2053 0.114712 18.4745 0.00210986 18.7557 0.00098507C19.0369 -0.000139717 19.3071 0.110308 19.507 0.308099L19.513 0.314095L21.021 1.83109C21.2223 2.03285 21.3356 2.30614 21.336 2.59118C21.3363 2.87622 21.2238 3.14981 21.023 3.3521Z" fill="#F8AA3C"/>
<path d="M11.0289 13.3992L8.75489 15.6852C8.55647 15.8843 8.28725 15.9967 8.00613 15.9979C7.72502 15.999 7.4549 15.8887 7.25489 15.6912L7.24889 15.6852L0.312892 8.71017C0.112777 8.50845 0.000488281 8.23582 0.000488281 7.95167C0.000488281 7.66753 0.112777 7.39488 0.312892 7.19316L1.82089 5.67616C2.01905 5.47664 2.28825 5.36387 2.56945 5.36256C2.85064 5.36125 3.12088 5.47151 3.32089 5.66917L3.32789 5.67616L11.0289 13.3992Z" fill="#F8AA3C"/>
</g>
<defs>
<clipPath id="clip0_18_42">
<rect width="21.336" height="16" fill="white"/>
</clipPath>
</defs>
</svg>
