<svg width="477" height="598" viewBox="0 0 477 598" fill="none" xmlns="http://www.w3.org/2000/svg">
<path opacity="0.05" fill-rule="evenodd" clip-rule="evenodd" d="M16.1299 271.88H-10.7507C-30.3855 144.655 70.3791 13.5321 203.318 0C203.318 2.21162 203.393 4.42324 203.431 6.63486C203.581 12.3326 203.731 17.9929 202.867 23.5032C202.492 25.9397 197.236 28.7511 193.857 29.4633C122.301 44.9072 69.7034 85.0537 37.0412 150.428C19.246 186.039 12.5633 224.161 16.0924 263.97C16.2425 265.432 16.205 266.894 16.1674 268.693C16.1674 269.63 16.1299 270.68 16.1299 271.88ZM64.2221 144.018L72.857 153.876L82.6556 165.084C120.273 118.865 167.953 90.9014 226.369 83.2544C284.936 75.57 338.885 89.327 387.653 124.526C391.107 120.927 394.41 117.478 397.677 114.067C400.83 110.806 403.909 107.582 406.987 104.359C305.059 20.8792 141.147 40.5964 64.2597 143.98L64.2221 144.018ZM33.4371 404.277L29.2323 408.1C27.618 409.562 26.0036 411.062 24.3518 412.524C-77.2013 335.604 -100.741 177.117 -16.4947 70.0222C-16.0817 70.1347 -15.7814 70.2096 -15.5186 70.2846C-15.1432 70.3596 -14.9179 70.4345 -14.7302 70.5845C-1.62781 81.3802 0.549675 93.9002 -8.19778 108.145C-56.3275 186.376 -46.9043 294.333 14.2152 363.718C20.5975 370.953 27.2801 377.85 34.1504 384.935C37.304 388.196 40.5327 391.532 43.7238 394.906C40.7204 397.642 37.5293 400.566 34.2255 403.565L33.6999 404.052L33.5122 404.239H33.4746L33.4371 404.277ZM229.11 106.233C348.683 103.759 458.571 195.71 476.817 313.563C477.079 315.25 477.004 316.937 476.929 319.186C476.892 320.423 476.854 321.81 476.854 323.422C474.714 323.422 472.537 323.459 470.359 323.534C464.728 323.646 459.059 323.796 453.503 323.084C451.213 322.822 448.359 318.286 447.721 315.287C427.148 223.936 371.997 165.047 281.144 141.769C264.85 137.57 247.768 136.483 229.823 135.284C221.564 134.759 213.117 134.197 204.444 133.335C201.704 108.444 203.431 106.795 229.035 106.27L229.11 106.233ZM204.519 133.297C204.519 133.634 204.557 133.934 204.594 134.234C204.594 134.234 204.594 134.272 204.594 134.309V134.422C204.519 134.309 204.294 133.972 203.656 133.222C203.768 133.222 203.919 133.222 204.031 133.222H204.181H204.407L204.519 133.297ZM330.625 182.852L327.171 186.563C322.441 191.699 317.523 197.022 312.004 202.982C357.393 240.504 385.588 287.811 393.284 346.212C400.98 404.802 387.165 458.443 352.175 506.986C356.492 511.184 360.584 515.195 364.601 519.169C367.117 521.643 369.632 524.079 372.11 526.516C454.929 426.281 437.434 262.133 330.588 182.852H330.625ZM369.069 325.371H340.274C344.141 361.994 340.349 396.855 326.871 429.954C296.236 504.962 240.861 550.994 161.308 567.375C155.113 568.649 152.785 570.898 153.123 577.008C153.386 581.394 153.311 585.78 153.273 590.728C153.273 593.014 153.236 595.414 153.236 598C218.823 588.479 271.871 559.615 313.093 509.835C357.468 456.306 375.376 394.606 369.144 325.371H369.069ZM275.4 433.815L275.475 433.89L275.775 434.153C282.083 439.888 288.014 445.286 293.833 450.609C210.489 559.016 48.3416 572.847 -49.5699 492.404C-44.0511 486.032 -38.9453 480.147 -33.6893 474.112L-33.5767 473.999L-31.5494 471.638C18.0446 506.536 71.5054 520.706 130.41 512.796C188.977 504.924 236.018 476.548 273.373 431.978L275.4 433.815ZM151.359 487.119V462.941C143.174 462.154 135.028 461.667 126.956 461.217C109.611 460.205 92.642 459.23 76.4986 455.182C-14.8804 432.166 -70.6689 373.352 -91.017 281.401C-92.3686 275.253 -94.471 272.817 -100.666 273.191C-105.171 273.454 -109.638 273.379 -114.181 273.341C-116.133 273.341 -118.085 273.304 -120 273.304C-110.577 401.016 21.4985 507.736 151.396 487.157L151.359 487.119Z" fill="url(#paint0_linear_208_474)"/>
<defs>
<linearGradient id="paint0_linear_208_474" x1="-224.369" y1="348.949" x2="608.44" y2="245.252" gradientUnits="userSpaceOnUse">
<stop stop-color="#8F2545"/>
<stop offset="0.52" stop-color="#CE4258"/>
<stop offset="0.97" stop-color="#F8AA3C"/>
</linearGradient>
</defs>
</svg>
