<svg width="269" height="61" viewBox="0 0 269 61" fill="none" xmlns="http://www.w3.org/2000/svg">
<g clip-path="url(#clip0_5_8)">
<path d="M83.5493 16.0598H77.2896C75.5179 16.0598 75.1385 16.2931 75.1385 17.7996V18.3311C75.1385 19.0959 75.3699 19.2641 76.3184 19.4553C76.3184 19.4553 80.6812 20.285 81.9028 20.5183C83.7769 20.8777 84.4522 21.6004 84.4522 23.4052V25.4241C84.4522 28.0778 83.3558 29.1179 80.0704 29.0987C76.4056 29.0987 72.885 28.9076 72.885 28.9076L72.9078 27.0607H79.839C81.7776 27.0607 82.3049 26.6554 82.3049 25.0647V23.8105C82.3049 23.1299 82.1152 22.6863 81.2502 22.5143C79.9869 22.2581 76.8457 21.6845 75.9807 21.5392C73.9776 21.1798 72.9457 20.9427 72.9457 18.8626V17.5893C72.9457 14.9356 74.0838 14.0218 77.3503 14.0409C81.015 14.0409 83.5682 14.2321 83.5682 14.2321L83.5455 16.0598H83.5493Z" fill="white"/>
<path d="M91.3227 26.9956H94.2515C95.8942 26.9956 96.5923 26.3149 96.5923 24.6822V14.1478H98.7433V25.2328C98.7433 27.6532 97.332 29.0566 94.7599 29.0566H90.8182C88.246 29.0566 86.8347 27.6532 86.8347 25.2328V14.1478H88.9858V24.6822C88.9858 26.3188 89.68 26.9956 91.3265 26.9956H91.3227Z" fill="white"/>
<path d="M114.207 29.0145H112.332C111.953 29.0145 111.786 28.8883 111.615 28.6321C111.403 28.3148 104.24 18.2469 104.073 17.9907H103.99V29.0145H101.839V14.1478H103.546C104.009 14.1478 104.051 14.2319 104.157 14.404C104.221 14.5111 111.657 24.8963 111.995 25.4278H112.078V14.1517H114.207V29.0183V29.0145Z" fill="white"/>
<path d="M132.557 15.9947H126.699C125.057 15.9947 124.233 16.6524 124.233 18.266V24.7204C124.233 26.357 125.057 27.1638 126.699 27.1638H132.557L132.58 28.9495C132.58 28.9495 129.397 29.1177 125.88 29.1177C123.331 29.1407 121.938 27.42 121.938 24.9766V18.0098C121.938 15.5664 123.331 14.0178 125.88 14.0369C129.924 14.0369 132.58 14.186 132.58 14.186L132.557 15.9908V15.9947Z" fill="white"/>
<path d="M134.435 25.2328V17.9257C134.435 15.4823 135.869 14.1019 138.395 14.1019H142.717C145.247 14.1019 146.677 15.4823 146.677 17.9257V25.2328C146.677 27.6532 145.243 29.0565 142.717 29.0565H138.395C135.865 29.0565 134.435 27.6532 134.435 25.2328ZM136.605 18.1168V24.8275C136.605 26.4411 137.322 27.1409 138.946 27.1409H142.17C143.794 27.1409 144.511 26.4411 144.511 24.8275V18.1168C144.511 16.5032 143.794 15.9717 142.17 15.9717H138.946C137.322 15.9717 136.605 16.5032 136.605 18.1168Z" fill="white"/>
<path d="M162.08 29.0145H160.206C159.827 29.0145 159.66 28.8883 159.489 28.6321C159.28 28.3148 152.114 18.2469 151.947 17.9907H151.863V29.0145H149.712V14.1478H151.42C151.882 14.1478 151.924 14.2319 152.03 14.404C152.095 14.5111 159.531 24.8963 159.868 25.4278H159.952V14.1517H162.08V29.0183V29.0145Z" fill="white"/>
<path d="M175.354 16.0597H169.095C167.323 16.0597 166.944 16.2929 166.944 17.7995V18.331C166.944 19.0957 167.175 19.264 168.124 19.4552C168.124 19.4552 172.486 20.2849 173.708 20.5182C175.582 20.8776 176.257 21.6003 176.257 23.4051V25.424C176.257 28.0777 175.161 29.1177 171.876 29.0986C168.211 29.0986 164.69 28.9074 164.69 28.9074L164.713 27.0606H171.644C173.583 27.0606 174.11 26.6553 174.11 25.0646V23.8104C174.11 23.1298 173.92 22.6862 173.055 22.5142C171.792 22.258 168.651 21.6844 167.79 21.5391C165.787 21.1797 164.755 20.9426 164.755 18.8625V17.5892C164.755 14.9355 165.893 14.0216 169.159 14.0408C172.828 14.0408 175.377 14.2319 175.377 14.2319L175.354 16.0597Z" fill="white"/>
<path d="M183.128 26.9956H186.056C187.699 26.9956 188.397 26.3149 188.397 24.6822V14.1478H190.548V25.2328C190.548 27.6532 189.137 29.0566 186.565 29.0566H182.623C180.051 29.0566 178.64 27.6532 178.64 25.2328V14.1478H180.791V24.6822C180.791 26.3188 181.485 26.9956 183.131 26.9956H183.128Z" fill="white"/>
<path d="M193.64 14.1478H195.791V27.0835H203.523V29.0145H193.64V14.1478Z" fill="white"/>
<path d="M213.891 15.9947H209.089V29.0145H206.937V15.9947H202.112V14.1478H213.891V15.9947Z" fill="white"/>
<path d="M223.497 24.7434H217.093L215.701 29.0107H213.277C213.277 29.0107 217.932 14.9508 218.079 14.5034C218.144 14.2281 218.205 14.144 218.649 14.144H221.915C222.359 14.144 222.42 14.2281 222.507 14.5034C222.655 14.9508 227.31 29.0107 227.31 29.0107H224.885L223.493 24.7434H223.497ZM217.617 22.6633H222.947L220.735 15.9526H219.851L217.617 22.6633Z" fill="white"/>
<path d="M241.893 29.0145H240.019C239.64 29.0145 239.473 28.8883 239.302 28.6321C239.089 28.3148 231.927 18.2469 231.76 17.9907H231.676V29.0145H229.525V14.1478H231.233C231.695 14.1478 231.737 14.2319 231.843 14.404C231.908 14.5111 239.344 24.8963 239.681 25.4278H239.765V14.1517H241.893V29.0183V29.0145Z" fill="white"/>
<path d="M256.01 15.9947H251.207V29.0145H249.056V15.9947H244.23V14.1478H256.01V15.9947Z" fill="white"/>
<path d="M268.442 16.0597H262.182C260.41 16.0597 260.031 16.2929 260.031 17.7995V18.331C260.031 19.0957 260.262 19.264 261.211 19.4552C261.211 19.4552 265.574 20.2849 266.795 20.5182C268.669 20.8776 269.344 21.6003 269.344 23.4051V25.424C269.344 28.0777 268.248 29.1177 264.963 29.0986C261.294 29.0986 257.777 28.9074 257.777 28.9074L257.8 27.0606H264.731C266.67 27.0606 267.197 26.6553 267.197 25.0646V23.8104C267.197 23.1298 267.008 22.6862 266.143 22.5142C264.879 22.258 261.738 21.6844 260.873 21.5391C258.87 21.1797 257.838 20.9426 257.838 18.8625V17.5892C257.838 14.9355 258.976 14.0216 262.243 14.0408C265.907 14.0408 268.457 14.2319 268.457 14.2319L268.434 16.0597H268.442Z" fill="white"/>
<path d="M75.4875 42.8258L77.3275 39.6445H78.0938L75.8062 43.5753V45.598H75.1726V43.5829L72.885 39.6445H73.6513L75.4837 42.8258H75.4875Z" fill="white"/>
<path d="M83.8526 42.2561V44.1717C83.8526 45.2844 83.3557 45.6362 82.3769 45.6362H81.3715C80.3927 45.6362 79.8958 45.2883 79.8958 44.1717V42.2561C79.8958 41.1319 80.3927 40.7916 81.3715 40.7916H82.3769C83.3557 40.7916 83.8526 41.1319 83.8526 42.2561ZM83.2456 44.1106V42.2905C83.2456 41.4645 83.0597 41.3537 82.2934 41.3537H81.4588C80.7228 41.3537 80.5141 41.4645 80.5141 42.2905V44.1106C80.5141 44.9097 80.6735 45.0474 81.4588 45.0474H82.2934C83.0863 45.0474 83.2456 44.9097 83.2456 44.1106Z" fill="white"/>
<path d="M90.5677 45.6018H89.9532V45.185C89.5814 45.3571 88.9402 45.6515 88.4243 45.6515H88.1132C87.142 45.6515 86.6526 45.4489 86.6526 44.3324V40.8375H87.2596V44.2329C87.2596 44.9556 87.5214 45.1086 88.2118 45.1086H88.5153C88.9706 45.1086 89.57 44.8294 89.9494 44.6994V40.8375H90.5639V45.6018H90.5677Z" fill="white"/>
<path d="M93.5383 40.8375H94.1529V41.3804C94.5247 41.1586 95.1052 40.803 95.6211 40.803H96.2015V41.3651H95.5187C95.071 41.3651 94.5323 41.6366 94.1529 41.8431V45.6018H93.5383V40.8375Z" fill="white"/>
<path d="M106.35 40.1798H104.005C103.178 40.1798 102.89 40.3939 102.89 41.2428V43.9576C102.89 44.7989 103.178 45.055 104.005 45.055H106.35V45.5827C106.35 45.5827 105.2 45.6324 103.785 45.6324C102.806 45.6477 102.222 45.0436 102.222 44.0418V41.1587C102.222 40.1568 102.806 39.5948 103.785 39.61C105.466 39.61 106.35 39.6521 106.35 39.6521V40.1798Z" fill="white"/>
<path d="M112.833 42.2561V44.1717C112.833 45.2844 112.336 45.6362 111.358 45.6362H110.352C109.373 45.6362 108.876 45.2883 108.876 44.1717V42.2561C108.876 41.1319 109.373 40.7916 110.352 40.7916H111.358C112.336 40.7916 112.833 41.1319 112.833 42.2561ZM112.226 44.1106V42.2905C112.226 41.4645 112.04 41.3537 111.274 41.3537H110.439C109.704 41.3537 109.495 41.4645 109.495 42.2905V44.1106C109.495 44.9097 109.654 45.0474 110.439 45.0474H111.274C112.067 45.0474 112.226 44.9097 112.226 44.1106Z" fill="white"/>
<path d="M116.316 40.8375V41.239C116.68 41.0593 117.151 40.7878 117.667 40.7878H117.97C118.604 40.7878 119.032 40.8719 119.245 41.2657C119.632 41.0631 120.163 40.7878 120.671 40.7878H120.982C121.946 40.7878 122.443 40.9828 122.443 42.0993V45.6057H121.828V42.2026C121.828 41.4799 121.567 41.3346 120.884 41.3346H120.573C120.167 41.3346 119.711 41.5564 119.393 41.7093C119.427 41.8278 119.442 41.9731 119.442 42.1605V45.6057H118.827V42.2026C118.827 41.4799 118.566 41.3346 117.883 41.3346H117.572C117.124 41.3346 116.684 41.5908 116.324 41.7322V45.6019H115.709V40.8375H116.324H116.316Z" fill="white"/>
<path d="M125.979 46.9592H125.364V40.8336H125.979V41.2657C126.35 41.0783 126.931 40.7992 127.447 40.7992H127.784C128.756 40.7992 129.253 40.9942 129.253 42.1107V44.3132C129.253 45.4259 128.756 45.6324 127.784 45.6324H127.447C126.931 45.6324 126.35 45.3418 125.979 45.1544V46.9592ZM125.979 44.6803C126.358 44.8256 126.897 45.0894 127.344 45.0894H127.69C128.372 45.0894 128.634 44.9365 128.634 44.2138V42.2216C128.634 41.4913 128.372 41.346 127.69 41.346H127.344C126.897 41.346 126.358 41.6098 125.979 41.7475V44.6803Z" fill="white"/>
<path d="M132.732 45.6018H132.125V39.3653H132.732V45.6018Z" fill="white"/>
<path d="M139.238 45.5674C139.238 45.5674 138.32 45.6362 137.087 45.6362C136.108 45.6439 135.611 45.3724 135.611 44.2482V42.3172C135.611 41.3154 136.237 40.8107 137.216 40.8107H138.153C139.139 40.8107 139.64 41.3116 139.64 42.3172V43.5179C139.64 43.579 139.625 43.602 139.556 43.602H136.229V44.1717C136.229 44.9709 136.442 45.1085 137.174 45.1085H139.249L139.241 45.5674H139.238ZM139.086 42.4625C139.086 41.5601 138.839 41.3383 138.107 41.3383H137.329C136.571 41.3383 136.222 41.4645 136.222 42.4625V43.1011L139.082 43.0934V42.4625H139.086Z" fill="white"/>
<path d="M141.931 40.826H142.633V39.6445H143.248V40.8337H144.625V41.369H143.248V44.405C143.248 44.9671 143.282 45.0856 143.832 45.0856C143.999 45.0856 144.686 45.0589 144.686 45.0589L144.678 45.5177C144.678 45.5177 144.018 45.6286 143.623 45.6286C142.838 45.6286 142.637 45.1851 142.637 44.5044V41.3651H141.935V40.8222L141.931 40.826Z" fill="white"/>
<path d="M150.809 45.5674C150.809 45.5674 149.891 45.6362 148.658 45.6362C147.679 45.6439 147.182 45.3724 147.182 44.2482V42.3172C147.182 41.3154 147.808 40.8107 148.787 40.8107H149.724C150.71 40.8107 151.211 41.3116 151.211 42.3172V43.5179C151.211 43.579 151.196 43.602 151.127 43.602H147.8V44.1717C147.8 44.9709 148.013 45.1085 148.745 45.1085H150.82L150.812 45.5674H150.809ZM150.657 42.4625C150.657 41.5601 150.41 41.3383 149.678 41.3383H148.9C148.142 41.3383 147.796 41.4645 147.796 42.4625V43.1011L150.657 43.0934V42.4625Z" fill="white"/>
<path d="M161.678 40.1798H159.333C158.506 40.1798 158.218 40.3939 158.218 41.2428V43.9576C158.218 44.7989 158.506 45.055 159.333 45.055H161.678V45.5827C161.678 45.5827 160.528 45.6324 159.113 45.6324C158.135 45.6477 157.55 45.0436 157.55 44.0418V41.1587C157.55 40.1568 158.135 39.5948 159.113 39.61C160.794 39.61 161.678 39.6521 161.678 39.6521V40.1798Z" fill="white"/>
<path d="M167.831 45.5674C167.831 45.5674 166.913 45.6362 165.68 45.6362C164.702 45.6439 164.205 45.3724 164.205 44.2482V42.3172C164.205 41.3154 164.831 40.8107 165.809 40.8107H166.746C167.733 40.8107 168.234 41.3116 168.234 42.3172V43.5179C168.234 43.579 168.218 43.602 168.15 43.602H164.823V44.1717C164.823 44.9709 165.035 45.1085 165.768 45.1085H167.843L167.835 45.5674H167.831ZM167.68 42.4625C167.68 41.5601 167.433 41.3383 166.701 41.3383H165.923C165.164 41.3383 164.819 41.4645 164.819 42.4625V43.1011L167.68 43.0934V42.4625Z" fill="white"/>
<path d="M171.014 40.8375H171.629V41.3804C172.001 41.1586 172.581 40.803 173.097 40.803H173.677V41.3651H172.995C172.547 41.3651 172.008 41.6366 171.629 41.8431V45.6018H171.014V40.8375Z" fill="white"/>
<path d="M175.646 40.826H176.348V39.6445H176.963V40.8337H178.34V41.369H176.963V44.405C176.963 44.9671 176.997 45.0856 177.547 45.0856C177.718 45.0856 178.401 45.0589 178.401 45.0589L178.393 45.5177C178.393 45.5177 177.737 45.6286 177.338 45.6286C176.553 45.6286 176.352 45.1851 176.352 44.5044V41.3651H175.65V40.8222L175.646 40.826Z" fill="white"/>
<path d="M181.318 39.1091C181.519 39.1091 181.682 39.2621 181.682 39.4647C181.682 39.6674 181.523 39.8203 181.318 39.8203C181.113 39.8203 180.954 39.6674 180.954 39.4647C180.954 39.2621 181.113 39.1091 181.318 39.1091ZM181.622 45.598H181.015V40.8336H181.622V45.598Z" fill="white"/>
<path d="M184.11 40.8375H184.812V40.3174C184.812 39.6368 185.013 39.2009 185.799 39.2009C186.197 39.2009 186.785 39.2774 186.785 39.2774L186.736 39.7095C186.736 39.7095 186.178 39.6942 186.011 39.6942C185.563 39.6942 185.427 39.8203 185.427 40.4016V40.8528H186.804V41.3728H185.427V45.6018H184.812V41.3728H184.11V40.8375ZM188.003 39.1091C188.204 39.1091 188.367 39.2621 188.367 39.4647C188.367 39.6674 188.208 39.8203 188.003 39.8203C187.798 39.8203 187.639 39.6674 187.639 39.4647C187.639 39.2621 187.798 39.1091 188.003 39.1091ZM188.306 45.598H187.699V40.8336H188.306V45.598Z" fill="white"/>
<path d="M194.642 45.5674C194.642 45.5674 193.891 45.6362 192.658 45.6362C191.679 45.6439 191.182 45.3303 191.182 44.2061V42.2254C191.182 41.1013 191.679 40.7877 192.658 40.803C193.913 40.803 194.642 40.8374 194.642 40.8374V41.346H192.745C191.96 41.346 191.8 41.4569 191.8 42.2828V44.145C191.8 44.9709 191.96 45.0818 192.745 45.0818H194.642V45.5674Z" fill="white"/>
<path d="M199.513 40.803C200.499 40.7877 201 40.998 201 42.1146V45.6018H200.386V45.1583C200.014 45.3456 199.433 45.6362 198.917 45.6362H198.511C197.54 45.6362 197.051 45.5521 197.051 44.317V43.9155C197.051 42.7914 197.54 42.6652 198.511 42.6652H199.213C199.771 42.6652 200.006 42.7149 200.386 42.7837V42.2216C200.386 41.3613 200.192 41.2925 199.399 41.2925L197.525 41.3192V40.868C197.525 40.868 198.269 40.7992 199.517 40.7992L199.513 40.803ZM199.266 43.124H198.583C197.874 43.124 197.639 43.2273 197.639 43.9997V44.2558C197.639 44.9785 197.798 45.1238 198.583 45.1238H199.012C199.46 45.1238 199.999 44.86 200.378 44.7223V43.1814C199.999 43.147 199.71 43.1202 199.263 43.1202L199.266 43.124Z" fill="white"/>
<path d="M203.371 40.826H204.073V39.6445H204.688V40.8337H206.065V41.369H204.688V44.405C204.688 44.9671 204.722 45.0856 205.272 45.0856C205.439 45.0856 206.125 45.0589 206.125 45.0589L206.118 45.5177C206.118 45.5177 205.458 45.6286 205.063 45.6286C204.278 45.6286 204.077 45.1851 204.077 44.5044V41.3651H203.375V40.8222L203.371 40.826Z" fill="white"/>
<path d="M209.039 39.1091C209.24 39.1091 209.403 39.2621 209.403 39.4647C209.403 39.6674 209.244 39.8203 209.039 39.8203C208.834 39.8203 208.675 39.6674 208.675 39.4647C208.675 39.2621 208.834 39.1091 209.039 39.1091ZM209.343 45.598H208.735V40.8336H209.343V45.598Z" fill="white"/>
<path d="M216.183 42.2561V44.1717C216.183 45.2844 215.686 45.6362 214.707 45.6362H213.702C212.723 45.6362 212.226 45.2883 212.226 44.1717V42.2561C212.226 41.1319 212.723 40.7916 213.702 40.7916H214.707C215.686 40.7916 216.183 41.1319 216.183 42.2561ZM215.576 44.1106V42.2905C215.576 41.4645 215.39 41.3537 214.623 41.3537H213.789C213.053 41.3537 212.844 41.4645 212.844 42.2905V44.1106C212.844 44.9097 213.004 45.0474 213.789 45.0474H214.623C215.416 45.0474 215.576 44.9097 215.576 44.1106Z" fill="white"/>
<path d="M219.051 40.8375H219.665V41.2543C220.037 41.0669 220.618 40.7878 221.134 40.7878H221.445C222.408 40.7878 222.905 40.9828 222.905 42.0993V45.6057H222.291V42.2026C222.291 41.4799 222.029 41.3346 221.346 41.3346H221.035C220.587 41.3346 220.049 41.5984 219.669 41.7322V45.6019H219.055V40.8375H219.051Z" fill="white"/>
<path d="M230.106 45.6018H229.472V39.6483H232.352C233.33 39.6483 233.896 40.0803 233.896 41.086V42.0801C233.896 43.0858 233.33 43.5255 232.352 43.5255H230.106V45.6018ZM233.262 41.9272V41.2466C233.262 40.4971 233.069 40.2103 232.215 40.2103H230.106V42.9673H232.215C233.069 42.9673 233.262 42.669 233.262 41.931V41.9272Z" fill="white"/>
<path d="M238.714 40.803C239.7 40.7877 240.201 40.998 240.201 42.1146V45.6018H239.586V45.1583C239.215 45.3456 238.634 45.6362 238.118 45.6362H237.712C236.741 45.6362 236.252 45.5521 236.252 44.317V43.9155C236.252 42.7914 236.741 42.6652 237.712 42.6652H238.414C238.972 42.6652 239.207 42.7149 239.586 42.7837V42.2216C239.586 41.3613 239.393 41.2925 238.6 41.2925L236.726 41.3192V40.868C236.726 40.868 237.47 40.7992 238.718 40.7992L238.714 40.803ZM238.467 43.124H237.784C237.075 43.124 236.84 43.2273 236.84 43.9997V44.2558C236.84 44.9785 236.999 45.1238 237.784 45.1238H238.213C238.661 45.1238 239.199 44.86 239.579 44.7223V43.1814C239.199 43.147 238.911 43.1202 238.463 43.1202L238.467 43.124Z" fill="white"/>
<path d="M243.103 40.8375H243.718V41.3804C244.09 41.1586 244.67 40.803 245.186 40.803H245.77V41.3651H245.087C244.64 41.3651 244.101 41.6366 243.722 41.8431V45.6018H243.107V40.8375H243.103Z" fill="white"/>
<path d="M247.735 40.826H248.437V39.6445H249.052V40.8337H250.429V41.369H249.052V44.405C249.052 44.9671 249.086 45.0856 249.636 45.0856C249.803 45.0856 250.49 45.0589 250.49 45.0589L250.482 45.5177C250.482 45.5177 249.822 45.6286 249.427 45.6286C248.642 45.6286 248.441 45.1851 248.441 44.5044V41.3651H247.739V40.8222L247.735 40.826Z" fill="white"/>
<path d="M253.096 40.8375H253.711V41.2543C254.082 41.0669 254.663 40.7878 255.179 40.7878H255.49C256.453 40.7878 256.95 40.9828 256.95 42.0993V45.6057H256.336V42.2026C256.336 41.4799 256.074 41.3346 255.391 41.3346H255.08C254.632 41.3346 254.094 41.5984 253.714 41.7322V45.6019H253.1V40.8375H253.096Z" fill="white"/>
<path d="M263.373 45.5674C263.373 45.5674 262.455 45.6362 261.222 45.6362C260.243 45.6439 259.746 45.3724 259.746 44.2482V42.3172C259.746 41.3154 260.372 40.8107 261.351 40.8107H262.288C263.275 40.8107 263.775 41.3116 263.775 42.3172V43.5179C263.775 43.579 263.76 43.602 263.692 43.602H260.365V44.1717C260.365 44.9709 260.577 45.1085 261.309 45.1085H263.385L263.377 45.5674H263.373ZM263.221 42.4625C263.221 41.5601 262.975 41.3383 262.243 41.3383H261.465C260.706 41.3383 260.361 41.4645 260.361 42.4625V43.1011L263.221 43.0934V42.4625Z" fill="white"/>
<path d="M266.556 40.8375H267.171V41.3804C267.543 41.1586 268.123 40.803 268.639 40.803H269.223V41.3651H268.54C268.093 41.3651 267.554 41.6366 267.175 41.8431V45.6018H266.56V40.8375H266.556Z" fill="white"/>
<path fill-rule="evenodd" clip-rule="evenodd" d="M13.7601 27.7335H11.0437C9.0596 14.7558 19.242 1.38037 32.6757 0C32.6757 0.2256 32.6833 0.4512 32.6871 0.676801C32.7023 1.25801 32.7175 1.83539 32.6302 2.39748C32.5923 2.64602 32.0611 2.9328 31.7197 3.00545C24.4888 4.58083 19.1738 8.67605 15.8732 15.3446C14.0749 18.9772 13.3997 22.8659 13.7563 26.9267C13.7714 27.0758 13.7676 27.225 13.7639 27.4085C13.7639 27.5041 13.7601 27.6112 13.7601 27.7335ZM18.6199 14.6908L19.4924 15.6964L20.4826 16.8397C24.2839 12.1251 29.102 9.27255 35.0051 8.49251C40.9233 7.70864 46.375 9.11195 51.3031 12.7024C51.6521 12.3354 51.9859 11.9836 52.316 11.6356C52.6347 11.303 52.9458 10.9741 53.2568 10.6453C42.9568 2.12982 26.3933 4.1411 18.6237 14.687L18.6199 14.6908ZM15.509 41.2389L15.0841 41.629C14.9209 41.7781 14.7578 41.931 14.5909 42.0802C4.32879 34.2339 1.9501 18.0671 10.4633 7.14273C10.505 7.1542 10.5354 7.16185 10.5619 7.1695C10.5999 7.17715 10.6226 7.18479 10.6416 7.20009C11.9656 8.30132 12.1857 9.57845 11.3017 11.0315C6.43811 19.0116 7.39035 30.0239 13.5666 37.1017C14.2115 37.8397 14.8868 38.5432 15.5811 39.2659C15.8997 39.5986 16.226 39.9389 16.5485 40.283C16.245 40.5621 15.9225 40.8604 15.5887 41.1663L15.5355 41.216L15.5166 41.2351H15.5128L15.509 41.2389ZM35.282 10.8365C47.3651 10.5841 58.4695 19.9637 60.3132 31.9855C60.3398 32.1576 60.3322 32.3297 60.3246 32.5591C60.3208 32.6853 60.317 32.8267 60.317 32.9912C60.1008 32.9912 59.8807 32.995 59.6607 33.0026C59.0916 33.0141 58.5188 33.0294 57.9573 32.9567C57.7259 32.93 57.4376 32.4673 57.3731 32.1614C55.2941 22.843 49.7211 16.8359 40.5402 14.4614C38.8937 14.0331 37.1675 13.9222 35.3541 13.7998C34.5195 13.7463 33.6659 13.689 32.7895 13.601C32.5126 11.0621 32.6871 10.8938 35.2744 10.8403L35.282 10.8365ZM32.7971 13.5972C32.7971 13.6316 32.8009 13.6622 32.8047 13.6928C32.8047 13.6928 32.8047 13.6966 32.8047 13.7004V13.7119C32.7971 13.7004 32.7744 13.666 32.7099 13.5895C32.7212 13.5895 32.7364 13.5895 32.7478 13.5895H32.763H32.7857L32.7971 13.5972ZM45.5403 18.6522L45.1913 19.0307C44.7133 19.5546 44.2163 20.0975 43.6586 20.7055C48.2453 24.5331 51.0944 29.3586 51.8721 35.316C52.6498 41.2925 51.2537 46.7642 47.718 51.716C48.1542 52.1442 48.5678 52.5534 48.9737 52.9587C49.2279 53.2111 49.4821 53.4596 49.7324 53.7081C58.1015 43.4835 56.3336 26.7394 45.5366 18.6522H45.5403ZM49.4252 33.19H46.5153C46.9061 36.9258 46.5229 40.4819 45.161 43.8582C42.0653 51.5095 36.4695 56.205 28.4305 57.876C27.8045 58.006 27.5693 58.2354 27.6035 58.8587C27.63 59.3061 27.6224 59.7535 27.6186 60.2582C27.6186 60.4914 27.6149 60.7362 27.6149 61C34.2425 60.0288 39.6031 57.0845 43.7687 52.0066C48.2529 46.5463 50.0625 40.2524 49.4327 33.19H49.4252ZM39.9597 44.2521L39.9673 44.2597L39.9977 44.2865C40.635 44.8715 41.2344 45.4221 41.8225 45.9651C33.4003 57.0233 17.0151 58.4343 7.12099 50.2285C7.67867 49.5785 8.19462 48.9782 8.72575 48.3626L8.73713 48.3511L8.94199 48.1102C13.9535 51.6701 19.3559 53.1155 25.3083 52.3087C31.2265 51.5057 35.9801 48.6111 39.7549 44.0647L39.9597 44.2521ZM27.4252 49.6894V47.2231C26.5981 47.1428 25.7749 47.0931 24.9592 47.0472C23.2065 46.944 21.4917 46.8445 19.8604 46.4316C10.6264 44.0838 4.9889 38.0844 2.93268 28.7048C2.79611 28.0777 2.58366 27.8291 1.95769 27.8674C1.50244 27.8941 1.05098 27.8865 0.591938 27.8827C0.394663 27.8827 0.197388 27.8788 0.00390625 27.8788C0.956139 40.9063 14.3026 51.7925 27.429 49.6932L27.4252 49.6894Z" fill="url(#paint0_linear_5_8)"/>
</g>
<defs>
<linearGradient id="paint0_linear_5_8" x1="-10.5427" y1="35.5951" x2="73.6379" y2="25.2115" gradientUnits="userSpaceOnUse">
<stop stop-color="#8F2545"/>
<stop offset="0.52" stop-color="#CE4258"/>
<stop offset="0.97" stop-color="#F8AA3C"/>
</linearGradient>
<clipPath id="clip0_5_8">
<rect width="269" height="61" fill="white"/>
</clipPath>
</defs>
</svg>
